<?xml version="1.0" encoding="utf-8" standalone="no"?>
<!DOCTYPE svg PUBLIC "-//W3C//DTD SVG 1.1//EN"
  "http://www.w3.org/Graphics/SVG/1.1/DTD/svg11.dtd">
<!-- Created with matplotlib (http://matplotlib.org/) -->
<svg height="720pt" version="1.1" viewBox="0 0 720 720" width="720pt" xmlns="http://www.w3.org/2000/svg" xmlns:xlink="http://www.w3.org/1999/xlink">
 <defs>
  <style type="text/css">
*{stroke-linecap:butt;stroke-linejoin:round;}
  </style>
 </defs>
 <g id="figure_1">
  <g id="patch_1">
   <path d="M 0 720 
L 720 720 
L 720 0 
L 0 0 
z
" style="fill:#ffffff;"/>
  </g>
  <g id="axes_1">
   <g id="patch_2">
    <path d="M 62.39 323.44 
L 706.68 323.44 
L 706.68 25.44 
L 62.39 25.44 
z
" style="fill:#ffffff;"/>
   </g>
   <g id="matplotlib.axis_1">
    <g id="xtick_1">
     <g id="line2d_1">
      <path clip-path="url(#p22fdcec6c2)" d="M 90.808223 323.44 
L 90.808223 25.44 
" style="fill:none;stroke:#b0b0b0;stroke-linecap:square;stroke-width:0.8;"/>
     </g>
     <g id="line2d_2">
      <defs>
       <path d="M 0 0 
L 0 3.5 
" id="m0c6adc5793" style="stroke:#000000;stroke-width:0.8;"/>
      </defs>
      <g>
       <use style="stroke:#000000;stroke-width:0.8;" x="90.808223" xlink:href="#m0c6adc5793" y="323.44"/>
      </g>
     </g>
     <g id="text_1">
      <!-- 0 -->
      <defs>
       <path d="M 31.78125 66.40625 
Q 24.171875 66.40625 20.328125 58.90625 
Q 16.5 51.421875 16.5 36.375 
Q 16.5 21.390625 20.328125 13.890625 
Q 24.171875 6.390625 31.78125 6.390625 
Q 39.453125 6.390625 43.28125 13.890625 
Q 47.125 21.390625 47.125 36.375 
Q 47.125 51.421875 43.28125 58.90625 
Q 39.453125 66.40625 31.78125 66.40625 
z
M 31.78125 74.21875 
Q 44.046875 74.21875 50.515625 64.515625 
Q 56.984375 54.828125 56.984375 36.375 
Q 56.984375 17.96875 50.515625 8.265625 
Q 44.046875 -1.421875 31.78125 -1.421875 
Q 19.53125 -1.421875 13.0625 8.265625 
Q 6.59375 17.96875 6.59375 36.375 
Q 6.59375 54.828125 13.0625 64.515625 
Q 19.53125 74.21875 31.78125 74.21875 
z
" id="DejaVuSans-30"/>
      </defs>
      <g transform="translate(87.626973 338.038438)scale(0.1 -0.1)">
       <use xlink:href="#DejaVuSans-30"/>
      </g>
     </g>
    </g>
    <g id="xtick_2">
     <g id="line2d_3">
      <path clip-path="url(#p22fdcec6c2)" d="M 206.570694 323.44 
L 206.570694 25.44 
" style="fill:none;stroke:#b0b0b0;stroke-linecap:square;stroke-width:0.8;"/>
     </g>
     <g id="line2d_4">
      <g>
       <use style="stroke:#000000;stroke-width:0.8;" x="206.570694" xlink:href="#m0c6adc5793" y="323.44"/>
      </g>
     </g>
     <g id="text_2">
      <!-- 10 -->
      <defs>
       <path d="M 12.40625 8.296875 
L 28.515625 8.296875 
L 28.515625 63.921875 
L 10.984375 60.40625 
L 10.984375 69.390625 
L 28.421875 72.90625 
L 38.28125 72.90625 
L 38.28125 8.296875 
L 54.390625 8.296875 
L 54.390625 0 
L 12.40625 0 
z
" id="DejaVuSans-31"/>
      </defs>
      <g transform="translate(200.208194 338.038438)scale(0.1 -0.1)">
       <use xlink:href="#DejaVuSans-31"/>
       <use x="63.623047" xlink:href="#DejaVuSans-30"/>
      </g>
     </g>
    </g>
    <g id="xtick_3">
     <g id="line2d_5">
      <path clip-path="url(#p22fdcec6c2)" d="M 322.333166 323.44 
L 322.333166 25.44 
" style="fill:none;stroke:#b0b0b0;stroke-linecap:square;stroke-width:0.8;"/>
     </g>
     <g id="line2d_6">
      <g>
       <use style="stroke:#000000;stroke-width:0.8;" x="322.333166" xlink:href="#m0c6adc5793" y="323.44"/>
      </g>
     </g>
     <g id="text_3">
      <!-- 20 -->
      <defs>
       <path d="M 19.1875 8.296875 
L 53.609375 8.296875 
L 53.609375 0 
L 7.328125 0 
L 7.328125 8.296875 
Q 12.9375 14.109375 22.625 23.890625 
Q 32.328125 33.6875 34.8125 36.53125 
Q 39.546875 41.84375 41.421875 45.53125 
Q 43.3125 49.21875 43.3125 52.78125 
Q 43.3125 58.59375 39.234375 62.25 
Q 35.15625 65.921875 28.609375 65.921875 
Q 23.96875 65.921875 18.8125 64.3125 
Q 13.671875 62.703125 7.8125 59.421875 
L 7.8125 69.390625 
Q 13.765625 71.78125 18.9375 73 
Q 24.125 74.21875 28.421875 74.21875 
Q 39.75 74.21875 46.484375 68.546875 
Q 53.21875 62.890625 53.21875 53.421875 
Q 53.21875 48.921875 51.53125 44.890625 
Q 49.859375 40.875 45.40625 35.40625 
Q 44.1875 33.984375 37.640625 27.21875 
Q 31.109375 20.453125 19.1875 8.296875 
z
" id="DejaVuSans-32"/>
      </defs>
      <g transform="translate(315.970666 338.038438)scale(0.1 -0.1)">
       <use xlink:href="#DejaVuSans-32"/>
       <use x="63.623047" xlink:href="#DejaVuSans-30"/>
      </g>
     </g>
    </g>
    <g id="xtick_4">
     <g id="line2d_7">
      <path clip-path="url(#p22fdcec6c2)" d="M 438.095637 323.44 
L 438.095637 25.44 
" style="fill:none;stroke:#b0b0b0;stroke-linecap:square;stroke-width:0.8;"/>
     </g>
     <g id="line2d_8">
      <g>
       <use style="stroke:#000000;stroke-width:0.8;" x="438.095637" xlink:href="#m0c6adc5793" y="323.44"/>
      </g>
     </g>
     <g id="text_4">
      <!-- 30 -->
      <defs>
       <path d="M 40.578125 39.3125 
Q 47.65625 37.796875 51.625 33 
Q 55.609375 28.21875 55.609375 21.1875 
Q 55.609375 10.40625 48.1875 4.484375 
Q 40.765625 -1.421875 27.09375 -1.421875 
Q 22.515625 -1.421875 17.65625 -0.515625 
Q 12.796875 0.390625 7.625 2.203125 
L 7.625 11.71875 
Q 11.71875 9.328125 16.59375 8.109375 
Q 21.484375 6.890625 26.8125 6.890625 
Q 36.078125 6.890625 40.9375 10.546875 
Q 45.796875 14.203125 45.796875 21.1875 
Q 45.796875 27.640625 41.28125 31.265625 
Q 36.765625 34.90625 28.71875 34.90625 
L 20.21875 34.90625 
L 20.21875 43.015625 
L 29.109375 43.015625 
Q 36.375 43.015625 40.234375 45.921875 
Q 44.09375 48.828125 44.09375 54.296875 
Q 44.09375 59.90625 40.109375 62.90625 
Q 36.140625 65.921875 28.71875 65.921875 
Q 24.65625 65.921875 20.015625 65.03125 
Q 15.375 64.15625 9.8125 62.3125 
L 9.8125 71.09375 
Q 15.4375 72.65625 20.34375 73.4375 
Q 25.25 74.21875 29.59375 74.21875 
Q 40.828125 74.21875 47.359375 69.109375 
Q 53.90625 64.015625 53.90625 55.328125 
Q 53.90625 49.265625 50.4375 45.09375 
Q 46.96875 40.921875 40.578125 39.3125 
z
" id="DejaVuSans-33"/>
      </defs>
      <g transform="translate(431.733137 338.038438)scale(0.1 -0.1)">
       <use xlink:href="#DejaVuSans-33"/>
       <use x="63.623047" xlink:href="#DejaVuSans-30"/>
      </g>
     </g>
    </g>
    <g id="xtick_5">
     <g id="line2d_9">
      <path clip-path="url(#p22fdcec6c2)" d="M 553.858109 323.44 
L 553.858109 25.44 
" style="fill:none;stroke:#b0b0b0;stroke-linecap:square;stroke-width:0.8;"/>
     </g>
     <g id="line2d_10">
      <g>
       <use style="stroke:#000000;stroke-width:0.8;" x="553.858109" xlink:href="#m0c6adc5793" y="323.44"/>
      </g>
     </g>
     <g id="text_5">
      <!-- 40 -->
      <defs>
       <path d="M 37.796875 64.3125 
L 12.890625 25.390625 
L 37.796875 25.390625 
z
M 35.203125 72.90625 
L 47.609375 72.90625 
L 47.609375 25.390625 
L 58.015625 25.390625 
L 58.015625 17.1875 
L 47.609375 17.1875 
L 47.609375 0 
L 37.796875 0 
L 37.796875 17.1875 
L 4.890625 17.1875 
L 4.890625 26.703125 
z
" id="DejaVuSans-34"/>
      </defs>
      <g transform="translate(547.495609 338.038438)scale(0.1 -0.1)">
       <use xlink:href="#DejaVuSans-34"/>
       <use x="63.623047" xlink:href="#DejaVuSans-30"/>
      </g>
     </g>
    </g>
    <g id="xtick_6">
     <g id="line2d_11">
      <path clip-path="url(#p22fdcec6c2)" d="M 669.620581 323.44 
L 669.620581 25.44 
" style="fill:none;stroke:#b0b0b0;stroke-linecap:square;stroke-width:0.8;"/>
     </g>
     <g id="line2d_12">
      <g>
       <use style="stroke:#000000;stroke-width:0.8;" x="669.620581" xlink:href="#m0c6adc5793" y="323.44"/>
      </g>
     </g>
     <g id="text_6">
      <!-- 50 -->
      <defs>
       <path d="M 10.796875 72.90625 
L 49.515625 72.90625 
L 49.515625 64.59375 
L 19.828125 64.59375 
L 19.828125 46.734375 
Q 21.96875 47.46875 24.109375 47.828125 
Q 26.265625 48.1875 28.421875 48.1875 
Q 40.625 48.1875 47.75 41.5 
Q 54.890625 34.8125 54.890625 23.390625 
Q 54.890625 11.625 47.5625 5.09375 
Q 40.234375 -1.421875 26.90625 -1.421875 
Q 22.3125 -1.421875 17.546875 -0.640625 
Q 12.796875 0.140625 7.71875 1.703125 
L 7.71875 11.625 
Q 12.109375 9.234375 16.796875 8.0625 
Q 21.484375 6.890625 26.703125 6.890625 
Q 35.15625 6.890625 40.078125 11.328125 
Q 45.015625 15.765625 45.015625 23.390625 
Q 45.015625 31 40.078125 35.4375 
Q 35.15625 39.890625 26.703125 39.890625 
Q 22.75 39.890625 18.8125 39.015625 
Q 14.890625 38.140625 10.796875 36.28125 
z
" id="DejaVuSans-35"/>
      </defs>
      <g transform="translate(663.258081 338.038438)scale(0.1 -0.1)">
       <use xlink:href="#DejaVuSans-35"/>
       <use x="63.623047" xlink:href="#DejaVuSans-30"/>
      </g>
     </g>
    </g>
    <g id="text_7">
     <!-- Time (seconds) -->
     <defs>
      <path d="M -0.296875 72.90625 
L 61.375 72.90625 
L 61.375 64.59375 
L 35.5 64.59375 
L 35.5 0 
L 25.59375 0 
L 25.59375 64.59375 
L -0.296875 64.59375 
z
" id="DejaVuSans-54"/>
      <path d="M 9.421875 54.6875 
L 18.40625 54.6875 
L 18.40625 0 
L 9.421875 0 
z
M 9.421875 75.984375 
L 18.40625 75.984375 
L 18.40625 64.59375 
L 9.421875 64.59375 
z
" id="DejaVuSans-69"/>
      <path d="M 52 44.1875 
Q 55.375 50.25 60.0625 53.125 
Q 64.75 56 71.09375 56 
Q 79.640625 56 84.28125 50.015625 
Q 88.921875 44.046875 88.921875 33.015625 
L 88.921875 0 
L 79.890625 0 
L 79.890625 32.71875 
Q 79.890625 40.578125 77.09375 44.375 
Q 74.3125 48.1875 68.609375 48.1875 
Q 61.625 48.1875 57.5625 43.546875 
Q 53.515625 38.921875 53.515625 30.90625 
L 53.515625 0 
L 44.484375 0 
L 44.484375 32.71875 
Q 44.484375 40.625 41.703125 44.40625 
Q 38.921875 48.1875 33.109375 48.1875 
Q 26.21875 48.1875 22.15625 43.53125 
Q 18.109375 38.875 18.109375 30.90625 
L 18.109375 0 
L 9.078125 0 
L 9.078125 54.6875 
L 18.109375 54.6875 
L 18.109375 46.1875 
Q 21.1875 51.21875 25.484375 53.609375 
Q 29.78125 56 35.6875 56 
Q 41.65625 56 45.828125 52.96875 
Q 50 49.953125 52 44.1875 
z
" id="DejaVuSans-6d"/>
      <path d="M 56.203125 29.59375 
L 56.203125 25.203125 
L 14.890625 25.203125 
Q 15.484375 15.921875 20.484375 11.0625 
Q 25.484375 6.203125 34.421875 6.203125 
Q 39.59375 6.203125 44.453125 7.46875 
Q 49.3125 8.734375 54.109375 11.28125 
L 54.109375 2.78125 
Q 49.265625 0.734375 44.1875 -0.34375 
Q 39.109375 -1.421875 33.890625 -1.421875 
Q 20.796875 -1.421875 13.15625 6.1875 
Q 5.515625 13.8125 5.515625 26.8125 
Q 5.515625 40.234375 12.765625 48.109375 
Q 20.015625 56 32.328125 56 
Q 43.359375 56 49.78125 48.890625 
Q 56.203125 41.796875 56.203125 29.59375 
z
M 47.21875 32.234375 
Q 47.125 39.59375 43.09375 43.984375 
Q 39.0625 48.390625 32.421875 48.390625 
Q 24.90625 48.390625 20.390625 44.140625 
Q 15.875 39.890625 15.1875 32.171875 
z
" id="DejaVuSans-65"/>
      <path id="DejaVuSans-20"/>
      <path d="M 31 75.875 
Q 24.46875 64.65625 21.28125 53.65625 
Q 18.109375 42.671875 18.109375 31.390625 
Q 18.109375 20.125 21.3125 9.0625 
Q 24.515625 -2 31 -13.1875 
L 23.1875 -13.1875 
Q 15.875 -1.703125 12.234375 9.375 
Q 8.59375 20.453125 8.59375 31.390625 
Q 8.59375 42.28125 12.203125 53.3125 
Q 15.828125 64.359375 23.1875 75.875 
z
" id="DejaVuSans-28"/>
      <path d="M 44.28125 53.078125 
L 44.28125 44.578125 
Q 40.484375 46.53125 36.375 47.5 
Q 32.28125 48.484375 27.875 48.484375 
Q 21.1875 48.484375 17.84375 46.4375 
Q 14.5 44.390625 14.5 40.28125 
Q 14.5 37.15625 16.890625 35.375 
Q 19.28125 33.59375 26.515625 31.984375 
L 29.59375 31.296875 
Q 39.15625 29.25 43.1875 25.515625 
Q 47.21875 21.78125 47.21875 15.09375 
Q 47.21875 7.46875 41.1875 3.015625 
Q 35.15625 -1.421875 24.609375 -1.421875 
Q 20.21875 -1.421875 15.453125 -0.5625 
Q 10.6875 0.296875 5.421875 2 
L 5.421875 11.28125 
Q 10.40625 8.6875 15.234375 7.390625 
Q 20.0625 6.109375 24.8125 6.109375 
Q 31.15625 6.109375 34.5625 8.28125 
Q 37.984375 10.453125 37.984375 14.40625 
Q 37.984375 18.0625 35.515625 20.015625 
Q 33.0625 21.96875 24.703125 23.78125 
L 21.578125 24.515625 
Q 13.234375 26.265625 9.515625 29.90625 
Q 5.8125 33.546875 5.8125 39.890625 
Q 5.8125 47.609375 11.28125 51.796875 
Q 16.75 56 26.8125 56 
Q 31.78125 56 36.171875 55.265625 
Q 40.578125 54.546875 44.28125 53.078125 
z
" id="DejaVuSans-73"/>
      <path d="M 48.78125 52.59375 
L 48.78125 44.1875 
Q 44.96875 46.296875 41.140625 47.34375 
Q 37.3125 48.390625 33.40625 48.390625 
Q 24.65625 48.390625 19.8125 42.84375 
Q 14.984375 37.3125 14.984375 27.296875 
Q 14.984375 17.28125 19.8125 11.734375 
Q 24.65625 6.203125 33.40625 6.203125 
Q 37.3125 6.203125 41.140625 7.25 
Q 44.96875 8.296875 48.78125 10.40625 
L 48.78125 2.09375 
Q 45.015625 0.34375 40.984375 -0.53125 
Q 36.96875 -1.421875 32.421875 -1.421875 
Q 20.0625 -1.421875 12.78125 6.34375 
Q 5.515625 14.109375 5.515625 27.296875 
Q 5.515625 40.671875 12.859375 48.328125 
Q 20.21875 56 33.015625 56 
Q 37.15625 56 41.109375 55.140625 
Q 45.0625 54.296875 48.78125 52.59375 
z
" id="DejaVuSans-63"/>
      <path d="M 30.609375 48.390625 
Q 23.390625 48.390625 19.1875 42.75 
Q 14.984375 37.109375 14.984375 27.296875 
Q 14.984375 17.484375 19.15625 11.84375 
Q 23.34375 6.203125 30.609375 6.203125 
Q 37.796875 6.203125 41.984375 11.859375 
Q 46.1875 17.53125 46.1875 27.296875 
Q 46.1875 37.015625 41.984375 42.703125 
Q 37.796875 48.390625 30.609375 48.390625 
z
M 30.609375 56 
Q 42.328125 56 49.015625 48.375 
Q 55.71875 40.765625 55.71875 27.296875 
Q 55.71875 13.875 49.015625 6.21875 
Q 42.328125 -1.421875 30.609375 -1.421875 
Q 18.84375 -1.421875 12.171875 6.21875 
Q 5.515625 13.875 5.515625 27.296875 
Q 5.515625 40.765625 12.171875 48.375 
Q 18.84375 56 30.609375 56 
z
" id="DejaVuSans-6f"/>
      <path d="M 54.890625 33.015625 
L 54.890625 0 
L 45.90625 0 
L 45.90625 32.71875 
Q 45.90625 40.484375 42.875 44.328125 
Q 39.84375 48.1875 33.796875 48.1875 
Q 26.515625 48.1875 22.3125 43.546875 
Q 18.109375 38.921875 18.109375 30.90625 
L 18.109375 0 
L 9.078125 0 
L 9.078125 54.6875 
L 18.109375 54.6875 
L 18.109375 46.1875 
Q 21.34375 51.125 25.703125 53.5625 
Q 30.078125 56 35.796875 56 
Q 45.21875 56 50.046875 50.171875 
Q 54.890625 44.34375 54.890625 33.015625 
z
" id="DejaVuSans-6e"/>
      <path d="M 45.40625 46.390625 
L 45.40625 75.984375 
L 54.390625 75.984375 
L 54.390625 0 
L 45.40625 0 
L 45.40625 8.203125 
Q 42.578125 3.328125 38.25 0.953125 
Q 33.9375 -1.421875 27.875 -1.421875 
Q 17.96875 -1.421875 11.734375 6.484375 
Q 5.515625 14.40625 5.515625 27.296875 
Q 5.515625 40.1875 11.734375 48.09375 
Q 17.96875 56 27.875 56 
Q 33.9375 56 38.25 53.625 
Q 42.578125 51.265625 45.40625 46.390625 
z
M 14.796875 27.296875 
Q 14.796875 17.390625 18.875 11.75 
Q 22.953125 6.109375 30.078125 6.109375 
Q 37.203125 6.109375 41.296875 11.75 
Q 45.40625 17.390625 45.40625 27.296875 
Q 45.40625 37.203125 41.296875 42.84375 
Q 37.203125 48.484375 30.078125 48.484375 
Q 22.953125 48.484375 18.875 42.84375 
Q 14.796875 37.203125 14.796875 27.296875 
z
" id="DejaVuSans-64"/>
      <path d="M 8.015625 75.875 
L 15.828125 75.875 
Q 23.140625 64.359375 26.78125 53.3125 
Q 30.421875 42.28125 30.421875 31.390625 
Q 30.421875 20.453125 26.78125 9.375 
Q 23.140625 -1.703125 15.828125 -13.1875 
L 8.015625 -13.1875 
Q 14.5 -2 17.703125 9.0625 
Q 20.90625 20.125 20.90625 31.390625 
Q 20.90625 42.671875 17.703125 53.65625 
Q 14.5 64.65625 8.015625 75.875 
z
" id="DejaVuSans-29"/>
     </defs>
     <g transform="translate(346.219375 351.716563)scale(0.1 -0.1)">
      <use xlink:href="#DejaVuSans-54"/>
      <use x="61.037109" xlink:href="#DejaVuSans-69"/>
      <use x="88.820312" xlink:href="#DejaVuSans-6d"/>
      <use x="186.232422" xlink:href="#DejaVuSans-65"/>
      <use x="247.755859" xlink:href="#DejaVuSans-20"/>
      <use x="279.542969" xlink:href="#DejaVuSans-28"/>
      <use x="318.556641" xlink:href="#DejaVuSans-73"/>
      <use x="370.65625" xlink:href="#DejaVuSans-65"/>
      <use x="432.179688" xlink:href="#DejaVuSans-63"/>
      <use x="487.160156" xlink:href="#DejaVuSans-6f"/>
      <use x="548.341797" xlink:href="#DejaVuSans-6e"/>
      <use x="611.720703" xlink:href="#DejaVuSans-64"/>
      <use x="675.197266" xlink:href="#DejaVuSans-73"/>
      <use x="727.296875" xlink:href="#DejaVuSans-29"/>
     </g>
    </g>
   </g>
   <g id="matplotlib.axis_2">
    <g id="ytick_1">
     <g id="line2d_13">
      <path clip-path="url(#p22fdcec6c2)" d="M 62.39 319.113471 
L 706.68 319.113471 
" style="fill:none;stroke:#b0b0b0;stroke-linecap:square;stroke-width:0.8;"/>
     </g>
     <g id="line2d_14">
      <defs>
       <path d="M 0 0 
L -3.5 0 
" id="m333dd62a56" style="stroke:#000000;stroke-width:0.8;"/>
      </defs>
      <g>
       <use style="stroke:#000000;stroke-width:0.8;" x="62.39" xlink:href="#m333dd62a56" y="319.113471"/>
      </g>
     </g>
     <g id="text_8">
      <!-- −0.75 -->
      <defs>
       <path d="M 10.59375 35.5 
L 73.1875 35.5 
L 73.1875 27.203125 
L 10.59375 27.203125 
z
" id="DejaVuSans-2212"/>
       <path d="M 10.6875 12.40625 
L 21 12.40625 
L 21 0 
L 10.6875 0 
z
" id="DejaVuSans-2e"/>
       <path d="M 8.203125 72.90625 
L 55.078125 72.90625 
L 55.078125 68.703125 
L 28.609375 0 
L 18.3125 0 
L 43.21875 64.59375 
L 8.203125 64.59375 
z
" id="DejaVuSans-37"/>
      </defs>
      <g transform="translate(24.744688 322.91269)scale(0.1 -0.1)">
       <use xlink:href="#DejaVuSans-2212"/>
       <use x="83.789062" xlink:href="#DejaVuSans-30"/>
       <use x="147.412109" xlink:href="#DejaVuSans-2e"/>
       <use x="179.199219" xlink:href="#DejaVuSans-37"/>
       <use x="242.822266" xlink:href="#DejaVuSans-35"/>
      </g>
     </g>
    </g>
    <g id="ytick_2">
     <g id="line2d_15">
      <path clip-path="url(#p22fdcec6c2)" d="M 62.39 279.919112 
L 706.68 279.919112 
" style="fill:none;stroke:#b0b0b0;stroke-linecap:square;stroke-width:0.8;"/>
     </g>
     <g id="line2d_16">
      <g>
       <use style="stroke:#000000;stroke-width:0.8;" x="62.39" xlink:href="#m333dd62a56" y="279.919112"/>
      </g>
     </g>
     <g id="text_9">
      <!-- −0.50 -->
      <g transform="translate(24.744688 283.718331)scale(0.1 -0.1)">
       <use xlink:href="#DejaVuSans-2212"/>
       <use x="83.789062" xlink:href="#DejaVuSans-30"/>
       <use x="147.412109" xlink:href="#DejaVuSans-2e"/>
       <use x="179.199219" xlink:href="#DejaVuSans-35"/>
       <use x="242.822266" xlink:href="#DejaVuSans-30"/>
      </g>
     </g>
    </g>
    <g id="ytick_3">
     <g id="line2d_17">
      <path clip-path="url(#p22fdcec6c2)" d="M 62.39 240.724753 
L 706.68 240.724753 
" style="fill:none;stroke:#b0b0b0;stroke-linecap:square;stroke-width:0.8;"/>
     </g>
     <g id="line2d_18">
      <g>
       <use style="stroke:#000000;stroke-width:0.8;" x="62.39" xlink:href="#m333dd62a56" y="240.724753"/>
      </g>
     </g>
     <g id="text_10">
      <!-- −0.25 -->
      <g transform="translate(24.744688 244.523972)scale(0.1 -0.1)">
       <use xlink:href="#DejaVuSans-2212"/>
       <use x="83.789062" xlink:href="#DejaVuSans-30"/>
       <use x="147.412109" xlink:href="#DejaVuSans-2e"/>
       <use x="179.199219" xlink:href="#DejaVuSans-32"/>
       <use x="242.822266" xlink:href="#DejaVuSans-35"/>
      </g>
     </g>
    </g>
    <g id="ytick_4">
     <g id="line2d_19">
      <path clip-path="url(#p22fdcec6c2)" d="M 62.39 201.530395 
L 706.68 201.530395 
" style="fill:none;stroke:#b0b0b0;stroke-linecap:square;stroke-width:0.8;"/>
     </g>
     <g id="line2d_20">
      <g>
       <use style="stroke:#000000;stroke-width:0.8;" x="62.39" xlink:href="#m333dd62a56" y="201.530395"/>
      </g>
     </g>
     <g id="text_11">
      <!-- 0.00 -->
      <g transform="translate(33.124375 205.329613)scale(0.1 -0.1)">
       <use xlink:href="#DejaVuSans-30"/>
       <use x="63.623047" xlink:href="#DejaVuSans-2e"/>
       <use x="95.410156" xlink:href="#DejaVuSans-30"/>
       <use x="159.033203" xlink:href="#DejaVuSans-30"/>
      </g>
     </g>
    </g>
    <g id="ytick_5">
     <g id="line2d_21">
      <path clip-path="url(#p22fdcec6c2)" d="M 62.39 162.336036 
L 706.68 162.336036 
" style="fill:none;stroke:#b0b0b0;stroke-linecap:square;stroke-width:0.8;"/>
     </g>
     <g id="line2d_22">
      <g>
       <use style="stroke:#000000;stroke-width:0.8;" x="62.39" xlink:href="#m333dd62a56" y="162.336036"/>
      </g>
     </g>
     <g id="text_12">
      <!-- 0.25 -->
      <g transform="translate(33.124375 166.135255)scale(0.1 -0.1)">
       <use xlink:href="#DejaVuSans-30"/>
       <use x="63.623047" xlink:href="#DejaVuSans-2e"/>
       <use x="95.410156" xlink:href="#DejaVuSans-32"/>
       <use x="159.033203" xlink:href="#DejaVuSans-35"/>
      </g>
     </g>
    </g>
    <g id="ytick_6">
     <g id="line2d_23">
      <path clip-path="url(#p22fdcec6c2)" d="M 62.39 123.141677 
L 706.68 123.141677 
" style="fill:none;stroke:#b0b0b0;stroke-linecap:square;stroke-width:0.8;"/>
     </g>
     <g id="line2d_24">
      <g>
       <use style="stroke:#000000;stroke-width:0.8;" x="62.39" xlink:href="#m333dd62a56" y="123.141677"/>
      </g>
     </g>
     <g id="text_13">
      <!-- 0.50 -->
      <g transform="translate(33.124375 126.940896)scale(0.1 -0.1)">
       <use xlink:href="#DejaVuSans-30"/>
       <use x="63.623047" xlink:href="#DejaVuSans-2e"/>
       <use x="95.410156" xlink:href="#DejaVuSans-35"/>
       <use x="159.033203" xlink:href="#DejaVuSans-30"/>
      </g>
     </g>
    </g>
    <g id="ytick_7">
     <g id="line2d_25">
      <path clip-path="url(#p22fdcec6c2)" d="M 62.39 83.947318 
L 706.68 83.947318 
" style="fill:none;stroke:#b0b0b0;stroke-linecap:square;stroke-width:0.8;"/>
     </g>
     <g id="line2d_26">
      <g>
       <use style="stroke:#000000;stroke-width:0.8;" x="62.39" xlink:href="#m333dd62a56" y="83.947318"/>
      </g>
     </g>
     <g id="text_14">
      <!-- 0.75 -->
      <g transform="translate(33.124375 87.746537)scale(0.1 -0.1)">
       <use xlink:href="#DejaVuSans-30"/>
       <use x="63.623047" xlink:href="#DejaVuSans-2e"/>
       <use x="95.410156" xlink:href="#DejaVuSans-37"/>
       <use x="159.033203" xlink:href="#DejaVuSans-35"/>
      </g>
     </g>
    </g>
    <g id="ytick_8">
     <g id="line2d_27">
      <path clip-path="url(#p22fdcec6c2)" d="M 62.39 44.75296 
L 706.68 44.75296 
" style="fill:none;stroke:#b0b0b0;stroke-linecap:square;stroke-width:0.8;"/>
     </g>
     <g id="line2d_28">
      <g>
       <use style="stroke:#000000;stroke-width:0.8;" x="62.39" xlink:href="#m333dd62a56" y="44.75296"/>
      </g>
     </g>
     <g id="text_15">
      <!-- 1.00 -->
      <g transform="translate(33.124375 48.552178)scale(0.1 -0.1)">
       <use xlink:href="#DejaVuSans-31"/>
       <use x="63.623047" xlink:href="#DejaVuSans-2e"/>
       <use x="95.410156" xlink:href="#DejaVuSans-30"/>
       <use x="159.033203" xlink:href="#DejaVuSans-30"/>
      </g>
     </g>
    </g>
    <g id="text_16">
     <!-- Position (meters) -->
     <defs>
      <path d="M 19.671875 64.796875 
L 19.671875 37.40625 
L 32.078125 37.40625 
Q 38.96875 37.40625 42.71875 40.96875 
Q 46.484375 44.53125 46.484375 51.125 
Q 46.484375 57.671875 42.71875 61.234375 
Q 38.96875 64.796875 32.078125 64.796875 
z
M 9.8125 72.90625 
L 32.078125 72.90625 
Q 44.34375 72.90625 50.609375 67.359375 
Q 56.890625 61.8125 56.890625 51.125 
Q 56.890625 40.328125 50.609375 34.8125 
Q 44.34375 29.296875 32.078125 29.296875 
L 19.671875 29.296875 
L 19.671875 0 
L 9.8125 0 
z
" id="DejaVuSans-50"/>
      <path d="M 18.3125 70.21875 
L 18.3125 54.6875 
L 36.8125 54.6875 
L 36.8125 47.703125 
L 18.3125 47.703125 
L 18.3125 18.015625 
Q 18.3125 11.328125 20.140625 9.421875 
Q 21.96875 7.515625 27.59375 7.515625 
L 36.8125 7.515625 
L 36.8125 0 
L 27.59375 0 
Q 17.1875 0 13.234375 3.875 
Q 9.28125 7.765625 9.28125 18.015625 
L 9.28125 47.703125 
L 2.6875 47.703125 
L 2.6875 54.6875 
L 9.28125 54.6875 
L 9.28125 70.21875 
z
" id="DejaVuSans-74"/>
      <path d="M 41.109375 46.296875 
Q 39.59375 47.171875 37.8125 47.578125 
Q 36.03125 48 33.890625 48 
Q 26.265625 48 22.1875 43.046875 
Q 18.109375 38.09375 18.109375 28.8125 
L 18.109375 0 
L 9.078125 0 
L 9.078125 54.6875 
L 18.109375 54.6875 
L 18.109375 46.1875 
Q 20.953125 51.171875 25.484375 53.578125 
Q 30.03125 56 36.53125 56 
Q 37.453125 56 38.578125 55.875 
Q 39.703125 55.765625 41.0625 55.515625 
z
" id="DejaVuSans-72"/>
     </defs>
     <g transform="translate(18.665 217.217344)rotate(-90)scale(0.1 -0.1)">
      <use xlink:href="#DejaVuSans-50"/>
      <use x="60.255859" xlink:href="#DejaVuSans-6f"/>
      <use x="121.4375" xlink:href="#DejaVuSans-73"/>
      <use x="173.537109" xlink:href="#DejaVuSans-69"/>
      <use x="201.320312" xlink:href="#DejaVuSans-74"/>
      <use x="240.529297" xlink:href="#DejaVuSans-69"/>
      <use x="268.3125" xlink:href="#DejaVuSans-6f"/>
      <use x="329.494141" xlink:href="#DejaVuSans-6e"/>
      <use x="392.873047" xlink:href="#DejaVuSans-20"/>
      <use x="424.660156" xlink:href="#DejaVuSans-28"/>
      <use x="463.673828" xlink:href="#DejaVuSans-6d"/>
      <use x="561.085938" xlink:href="#DejaVuSans-65"/>
      <use x="622.609375" xlink:href="#DejaVuSans-74"/>
      <use x="661.818359" xlink:href="#DejaVuSans-65"/>
      <use x="723.341797" xlink:href="#DejaVuSans-72"/>
      <use x="764.455078" xlink:href="#DejaVuSans-73"/>
      <use x="816.554688" xlink:href="#DejaVuSans-29"/>
     </g>
    </g>
   </g>
   <g id="line2d_29">
    <path clip-path="url(#p22fdcec6c2)" d="M 91.675909 200.69242 
L 98.65333 204.202718 
L 100.967978 204.951736 
L 103.282729 205.321828 
L 106.77195 205.397583 
L 112.56864 205.493533 
L 128.83916 206.02701 
L 133.477021 206.139226 
L 136.961448 206.513684 
L 147.438495 208.091917 
L 150.921442 208.232842 
L 155.560206 208.296744 
L 157.882921 208.490581 
L 161.362706 209.053757 
L 169.538629 210.644564 
L 171.842833 210.86881 
L 175.344383 210.955012 
L 178.848409 211.028777 
L 181.176992 211.267481 
L 184.643882 211.960055 
L 191.610191 213.706267 
L 193.902415 214.068543 
L 196.259037 214.249547 
L 203.204069 214.487969 
L 205.536498 214.883626 
L 207.867339 215.478191 
L 214.808678 217.52678 
L 217.152834 217.955072 
L 219.464504 218.165623 
L 226.42866 218.430319 
L 228.760476 218.866368 
L 231.067735 219.520815 
L 238.068332 221.768226 
L 240.387079 222.237221 
L 242.712839 222.46793 
L 249.706246 222.748262 
L 252.004455 223.20559 
L 254.347512 223.898546 
L 261.302174 226.238471 
L 263.619447 226.718216 
L 265.937684 226.956512 
L 272.896386 227.252389 
L 275.244919 227.73795 
L 277.550697 228.46483 
L 284.544302 230.942937 
L 286.921508 231.456276 
L 289.182304 231.708456 
L 296.195309 232.019384 
L 298.510118 232.528028 
L 300.828933 233.289073 
L 307.837876 235.880074 
L 310.12517 236.420057 
L 312.450467 236.679317 
L 319.41916 237.001286 
L 321.724499 237.526843 
L 324.041149 238.312867 
L 331.012216 240.986256 
L 333.31862 241.53833 
L 335.662058 241.808898 
L 342.664691 242.138082 
L 344.970033 242.676356 
L 347.28637 243.481902 
L 354.248498 246.226707 
L 356.553583 246.795072 
L 358.875802 247.074267 
L 365.847261 247.403891 
L 368.174815 247.945481 
L 370.476279 248.759943 
L 377.474306 251.554039 
L 379.796536 252.137269 
L 382.119934 252.425978 
L 389.065637 252.761878 
L 391.385297 253.308733 
L 393.719983 254.130948 
L 400.694059 256.957314 
L 403.005649 257.536648 
L 405.318086 257.825196 
L 412.296095 258.162321 
L 414.609493 258.708386 
L 416.925182 259.5272 
L 423.881964 262.332227 
L 426.251274 262.916152 
L 428.563341 263.203394 
L 435.526556 263.535158 
L 437.853302 264.073704 
L 440.167903 264.882883 
L 447.135797 267.664635 
L 449.453395 268.245925 
L 451.769907 268.532697 
L 458.719198 268.895466 
L 461.076538 269.451009 
L 464.590949 270.583094 
L 466.912379 271.237327 
L 469.349907 271.668484 
L 471.670067 271.881669 
L 476.308461 271.974455 
L 479.802415 272.016046 
L 482.12902 272.298903 
L 484.420225 272.925364 
L 486.754958 273.882174 
L 492.577288 276.653899 
L 494.911687 277.484504 
L 497.227202 277.971645 
L 499.532889 278.148912 
L 504.204355 278.264629 
L 506.541843 278.601473 
L 508.871668 279.198426 
L 512.381724 280.423814 
L 515.869717 281.668545 
L 518.205132 282.30355 
L 520.59637 282.677457 
L 522.962114 282.813375 
L 527.625861 282.923204 
L 529.949617 283.249846 
L 532.303728 283.835467 
L 535.759793 285.016596 
L 539.225653 286.2239 
L 541.560361 286.835373 
L 543.881098 287.203814 
L 546.21017 287.336878 
L 550.846966 287.438935 
L 553.176269 287.748065 
L 555.490128 288.28485 
L 560.13819 289.792193 
L 563.625024 290.833911 
L 565.928478 291.303093 
L 568.252502 291.531448 
L 575.443562 291.77532 
L 577.768257 292.166206 
L 580.083844 292.755311 
L 587.381059 294.79285 
L 589.688888 295.221334 
L 592.039444 295.43347 
L 598.977587 295.656744 
L 601.286829 296.012057 
L 604.774937 296.860949 
L 607.471577 297.526315 
L 610.947578 298.39442 
L 613.310324 298.780968 
L 615.624125 298.971034 
L 622.648535 299.16946 
L 624.997413 299.487665 
L 628.510665 300.232128 
L 634.401587 301.58226 
L 636.703164 301.922739 
L 639.053466 302.091353 
L 647.148943 302.378519 
L 650.694333 302.939193 
L 657.662306 304.342908 
L 661.183477 304.72254 
L 664.665715 304.806324 
L 669.294096 304.918884 
L 676.461843 305.475511 
L 676.466601 305.87671 
L 677.394091 306.083103 
L 677.394091 306.083103 
" style="fill:none;stroke:#ff0000;stroke-linecap:square;stroke-width:1.5;"/>
   </g>
   <g id="line2d_30">
    <path clip-path="url(#p22fdcec6c2)" d="M 91.675909 180.47754 
L 102.12176 179.945157 
L 111.40282 179.914519 
L 186.946814 179.814565 
L 199.730569 179.975175 
L 206.738725 180.101138 
L 221.783019 180.68421 
L 253.156534 180.789372 
L 398.371307 181.910594 
L 408.802408 181.994924 
L 418.099432 182.09682 
L 430.881762 182.261946 
L 441.315839 182.371173 
L 452.92458 182.547626 
L 455.245491 182.558873 
L 456.398889 182.66531 
L 457.565891 182.959729 
L 458.719198 183.500148 
L 459.919077 184.333912 
L 461.076538 185.381613 
L 462.334354 186.754371 
L 464.590949 190.053101 
L 468.061913 195.551386 
L 470.494777 198.738256 
L 471.670067 199.997633 
L 472.818373 200.981435 
L 473.985303 201.676682 
L 475.146377 202.097169 
L 476.308461 202.287885 
L 482.12902 202.513146 
L 484.420225 202.887492 
L 487.90816 203.822651 
L 493.751179 205.571729 
L 496.075179 206.021387 
L 498.441665 206.2425 
L 503.073912 206.299082 
L 506.541843 206.439404 
L 511.195253 206.916194 
L 518.205132 207.710023 
L 521.762282 207.870477 
L 529.949617 208.035114 
L 534.58976 208.498303 
L 541.560361 209.267311 
L 545.020721 209.42512 
L 553.176269 209.580497 
L 557.807614 210.011076 
L 564.786793 210.729325 
L 568.252502 210.87681 
L 577.768257 211.093688 
L 585.05098 211.780457 
L 589.688888 212.135723 
L 594.32169 212.222979 
L 600.142158 212.335649 
L 604.774937 212.692766 
L 610.947578 213.21273 
L 615.624125 213.408024 
L 624.997413 213.58305 
L 632.087563 214.126326 
L 636.703164 214.406725 
L 642.525553 214.47553 
L 648.315101 214.611741 
L 663.504909 215.370582 
L 671.625309 215.482408 
L 677.394091 215.791778 
L 677.394091 215.791778 
" style="fill:none;stroke:#008000;stroke-linecap:square;stroke-width:1.5;"/>
   </g>
   <g id="line2d_31">
    <path clip-path="url(#p22fdcec6c2)" d="M 91.675909 44.054052 
L 98.65333 42.460154 
L 100.967978 42.15282 
L 104.447498 41.980533 
L 111.40282 41.847269 
L 116.033201 41.45192 
L 123.00384 40.817837 
L 127.663522 40.680232 
L 139.316102 40.565316 
L 150.921442 40.405127 
L 160.206507 40.491409 
L 175.344383 40.815047 
L 181.176992 40.907004 
L 186.946814 41.297455 
L 193.902415 41.769083 
L 199.730569 41.840083 
L 204.367144 41.986995 
L 207.867339 42.319657 
L 217.152834 43.376859 
L 220.613146 43.486323 
L 226.42866 43.603858 
L 229.907669 43.992018 
L 234.607798 44.832269 
L 239.234895 45.59816 
L 242.712839 45.858165 
L 249.706246 46.027102 
L 252.004455 46.306343 
L 255.489868 46.98823 
L 261.302174 48.28268 
L 263.619447 48.616077 
L 265.937684 48.783889 
L 272.896386 48.980467 
L 275.244919 49.30306 
L 278.731835 50.08998 
L 284.544302 51.576235 
L 286.921508 51.964829 
L 289.182304 52.158342 
L 296.195309 52.37421 
L 298.510118 52.723872 
L 300.828933 53.257967 
L 308.962485 55.413984 
L 311.271889 55.727497 
L 314.755772 55.848627 
L 318.238717 55.928976 
L 320.569108 56.190264 
L 322.888562 56.658816 
L 326.354155 57.64333 
L 331.012216 58.96559 
L 333.31862 59.400802 
L 335.662058 59.61679 
L 342.664691 59.849005 
L 344.970033 60.222415 
L 347.28637 60.791928 
L 355.413104 63.081488 
L 357.714659 63.413272 
L 360.042191 63.533468 
L 364.693595 63.621307 
L 367.003786 63.885759 
L 369.338124 64.362496 
L 372.828861 65.367246 
L 377.474306 66.721373 
L 379.796536 67.169576 
L 382.119934 67.394073 
L 389.065637 67.626535 
L 391.385297 67.998852 
L 393.719983 68.568866 
L 401.851034 70.868091 
L 404.164559 71.201926 
L 406.475282 71.322924 
L 411.134061 71.411931 
L 413.455342 71.675354 
L 415.758795 72.147605 
L 419.253213 73.13959 
L 423.881964 74.472012 
L 426.251274 74.911064 
L 428.563341 75.129427 
L 435.526556 75.356236 
L 437.853302 75.71881 
L 440.167903 76.272848 
L 448.279667 78.508665 
L 450.611888 78.834239 
L 452.92458 78.952712 
L 458.719198 79.088792 
L 462.334354 79.522634 
L 472.818373 81.371615 
L 476.308461 81.539449 
L 481.008543 81.643047 
L 483.271817 81.965179 
L 485.58336 82.545796 
L 489.083486 83.774626 
L 492.577288 85.074222 
L 494.911687 85.757837 
L 497.227202 86.167416 
L 499.532889 86.31809 
L 504.204355 86.396301 
L 506.541843 86.619176 
L 508.871668 87.019838 
L 513.561298 88.172278 
L 517.04408 89.005333 
L 519.438837 89.382245 
L 521.762282 89.569559 
L 529.949617 89.892598 
L 533.450275 90.535536 
L 541.560361 92.431205 
L 543.881098 92.707873 
L 547.356566 92.81484 
L 550.846966 92.87696 
L 553.176269 93.083109 
L 555.490128 93.445959 
L 560.13819 94.498677 
L 563.625024 95.256107 
L 565.928478 95.605443 
L 568.252502 95.777339 
L 576.630464 96.053791 
L 580.083844 96.601571 
L 588.5455 98.220535 
L 590.851951 98.457846 
L 594.32169 98.550503 
L 598.977587 98.66674 
L 602.46001 99.065079 
L 613.310324 100.825768 
L 616.821029 100.988917 
L 622.648535 101.096736 
L 626.179139 101.44896 
L 637.879451 103.054632 
L 642.525553 103.124996 
L 645.991656 103.210409 
L 649.484672 103.502798 
L 654.164742 104.129023 
L 658.837343 104.692748 
L 662.341401 104.882747 
L 671.625309 105.104513 
L 672.76815 105.198936 
L 676.461843 105.308536 
L 676.466601 105.557598 
L 677.394091 105.687571 
L 677.394091 105.687571 
" style="fill:none;stroke:#0000ff;stroke-linecap:square;stroke-width:1.5;"/>
   </g>
   <g id="line2d_32">
    <path clip-path="url(#p22fdcec6c2)" d="M 91.675909 201.530395 
L 105.609684 201.530395 
L 106.77195 208.071245 
L 128.83916 208.071245 
L 130.004934 210.837414 
L 152.073231 210.837414 
L 153.24007 214.082641 
L 175.344383 214.082641 
L 176.516119 217.763235 
L 198.586315 217.763235 
L 199.730569 221.829476 
L 221.783019 221.829476 
L 223.008295 226.230876 
L 245.047941 226.230876 
L 246.194442 230.923645 
L 268.247657 230.923645 
L 269.428017 235.859969 
L 291.552273 235.859969 
L 292.666938 240.984079 
L 314.755772 240.984079 
L 315.904125 246.25532 
L 337.964424 246.25532 
L 339.131724 251.625661 
L 361.2 251.625661 
L 362.374399 257.046926 
L 384.436492 257.046926 
L 385.585689 262.457294 
L 407.630104 262.457294 
L 408.802408 267.827491 
L 430.881762 267.827491 
L 432.070745 273.09849 
L 454.089774 273.09849 
L 455.245491 278.227301 
L 477.520724 278.227301 
L 478.638353 283.155743 
L 500.695411 283.155743 
L 501.891595 287.843558 
L 524.128315 287.843558 
L 525.309498 292.249044 
L 547.356566 292.249044 
L 548.507177 296.316683 
L 570.573575 296.316683 
L 571.736352 299.998193 
L 594.32169 299.998193 
L 595.48713 303.239263 
L 618.005441 303.239263 
L 619.148329 306.005925 
L 641.375315 306.005925 
L 642.525553 308.239194 
L 664.665715 308.239194 
L 665.824661 309.894545 
L 677.394091 309.894545 
L 677.394091 309.894545 
" style="fill:none;stroke:#ff0000;stroke-dasharray:5.55,2.4;stroke-dashoffset:0;stroke-width:1.5;"/>
   </g>
   <g id="line2d_33">
    <path clip-path="url(#p22fdcec6c2)" d="M 91.675909 201.530395 
L 105.609684 201.530395 
L 106.77195 182.197058 
L 128.83916 182.197058 
L 130.004934 183.135463 
L 152.073231 183.135463 
L 153.24007 184.236385 
L 175.344383 184.236385 
L 176.516119 185.485003 
L 198.586315 185.485003 
L 199.730569 186.86445 
L 221.783019 186.86445 
L 223.008295 188.357597 
L 245.047941 188.357597 
L 246.194442 189.949589 
L 268.247657 189.949589 
L 269.428017 191.624205 
L 291.552273 191.624205 
L 292.666938 193.362527 
L 314.755772 193.362527 
L 315.904125 195.150762 
L 337.964424 195.150762 
L 339.131724 196.972616 
L 361.2 196.972616 
L 362.374399 198.811745 
L 384.436492 198.811745 
L 385.585689 200.647179 
L 407.630104 200.647179 
L 408.802408 202.468983 
L 430.881762 202.468983 
L 432.070745 204.257136 
L 454.089774 204.257136 
L 455.245491 205.997053 
L 477.520724 205.997053 
L 478.638353 207.668995 
L 500.695411 207.668995 
L 501.891595 209.259307 
L 524.128315 209.259307 
L 525.309498 210.75384 
L 547.356566 210.75384 
L 548.507177 212.133761 
L 570.573575 212.133761 
L 571.736352 213.382689 
L 594.32169 213.382689 
L 595.48713 214.482201 
L 618.005441 214.482201 
L 619.148329 215.420774 
L 641.375315 215.420774 
L 642.525553 216.178396 
L 664.665715 216.178396 
L 665.824661 216.739964 
L 677.394091 216.739964 
L 677.394091 216.739964 
" style="fill:none;stroke:#008000;stroke-dasharray:5.55,2.4;stroke-dashoffset:0;stroke-width:1.5;"/>
   </g>
   <g id="line2d_34">
    <path clip-path="url(#p22fdcec6c2)" d="M 91.675909 201.530395 
L 105.609684 201.530395 
L 106.77195 38.985455 
L 128.83916 38.985455 
L 130.004934 40.820889 
L 152.073231 40.820889 
L 153.24007 42.974194 
L 175.344383 42.974194 
L 176.516119 45.416376 
L 198.586315 45.416376 
L 199.730569 48.114448 
L 221.783019 48.114448 
L 223.008295 51.034907 
L 245.047941 51.034907 
L 246.194442 54.148698 
L 268.247657 54.148698 
L 269.428017 57.424095 
L 291.552273 57.424095 
L 292.666938 60.824094 
L 314.755772 60.824094 
L 315.904125 64.321718 
L 337.964424 64.321718 
L 339.131724 67.885098 
L 361.2 67.885098 
L 362.374399 71.482268 
L 384.436492 71.482268 
L 385.585689 75.072208 
L 407.630104 75.072208 
L 408.802408 78.635492 
L 430.881762 78.635492 
L 432.070745 82.132956 
L 454.089774 82.132956 
L 455.245491 85.536073 
L 477.520724 85.536073 
L 478.638353 88.80624 
L 500.695411 88.80624 
L 501.891595 91.916745 
L 524.128315 91.916745 
L 525.309498 94.839915 
L 547.356566 94.839915 
L 548.507177 97.538914 
L 570.573575 97.538914 
L 571.736352 99.981705 
L 594.32169 99.981705 
L 595.48713 102.13225 
L 618.005441 102.13225 
L 619.148329 103.968013 
L 641.375315 103.968013 
L 642.525553 105.449853 
L 664.665715 105.449853 
L 665.824661 106.548227 
L 677.394091 106.548227 
L 677.394091 106.548227 
" style="fill:none;stroke:#0000ff;stroke-dasharray:5.55,2.4;stroke-dashoffset:0;stroke-width:1.5;"/>
   </g>
   <g id="patch_3">
    <path d="M 62.39 323.44 
L 62.39 25.44 
" style="fill:none;stroke:#000000;stroke-linecap:square;stroke-linejoin:miter;stroke-width:0.8;"/>
   </g>
   <g id="patch_4">
    <path d="M 706.68 323.44 
L 706.68 25.44 
" style="fill:none;stroke:#000000;stroke-linecap:square;stroke-linejoin:miter;stroke-width:0.8;"/>
   </g>
   <g id="patch_5">
    <path d="M 62.39 323.44 
L 706.68 323.44 
" style="fill:none;stroke:#000000;stroke-linecap:square;stroke-linejoin:miter;stroke-width:0.8;"/>
   </g>
   <g id="patch_6">
    <path d="M 62.39 25.44 
L 706.68 25.44 
" style="fill:none;stroke:#000000;stroke-linecap:square;stroke-linejoin:miter;stroke-width:0.8;"/>
   </g>
   <g id="text_17">
    <!-- Gripper Position over Time -->
    <defs>
     <path d="M 59.515625 10.40625 
L 59.515625 29.984375 
L 43.40625 29.984375 
L 43.40625 38.09375 
L 69.28125 38.09375 
L 69.28125 6.78125 
Q 63.578125 2.734375 56.6875 0.65625 
Q 49.8125 -1.421875 42 -1.421875 
Q 24.90625 -1.421875 15.25 8.5625 
Q 5.609375 18.5625 5.609375 36.375 
Q 5.609375 54.25 15.25 64.234375 
Q 24.90625 74.21875 42 74.21875 
Q 49.125 74.21875 55.546875 72.453125 
Q 61.96875 70.703125 67.390625 67.28125 
L 67.390625 56.78125 
Q 61.921875 61.421875 55.765625 63.765625 
Q 49.609375 66.109375 42.828125 66.109375 
Q 29.4375 66.109375 22.71875 58.640625 
Q 16.015625 51.171875 16.015625 36.375 
Q 16.015625 21.625 22.71875 14.15625 
Q 29.4375 6.6875 42.828125 6.6875 
Q 48.046875 6.6875 52.140625 7.59375 
Q 56.25 8.5 59.515625 10.40625 
z
" id="DejaVuSans-47"/>
     <path d="M 18.109375 8.203125 
L 18.109375 -20.796875 
L 9.078125 -20.796875 
L 9.078125 54.6875 
L 18.109375 54.6875 
L 18.109375 46.390625 
Q 20.953125 51.265625 25.265625 53.625 
Q 29.59375 56 35.59375 56 
Q 45.5625 56 51.78125 48.09375 
Q 58.015625 40.1875 58.015625 27.296875 
Q 58.015625 14.40625 51.78125 6.484375 
Q 45.5625 -1.421875 35.59375 -1.421875 
Q 29.59375 -1.421875 25.265625 0.953125 
Q 20.953125 3.328125 18.109375 8.203125 
z
M 48.6875 27.296875 
Q 48.6875 37.203125 44.609375 42.84375 
Q 40.53125 48.484375 33.40625 48.484375 
Q 26.265625 48.484375 22.1875 42.84375 
Q 18.109375 37.203125 18.109375 27.296875 
Q 18.109375 17.390625 22.1875 11.75 
Q 26.265625 6.109375 33.40625 6.109375 
Q 40.53125 6.109375 44.609375 11.75 
Q 48.6875 17.390625 48.6875 27.296875 
z
" id="DejaVuSans-70"/>
     <path d="M 2.984375 54.6875 
L 12.5 54.6875 
L 29.59375 8.796875 
L 46.6875 54.6875 
L 56.203125 54.6875 
L 35.6875 0 
L 23.484375 0 
z
" id="DejaVuSans-76"/>
    </defs>
    <g transform="translate(304.437813 19.44)scale(0.12 -0.12)">
     <use xlink:href="#DejaVuSans-47"/>
     <use x="77.490234" xlink:href="#DejaVuSans-72"/>
     <use x="118.603516" xlink:href="#DejaVuSans-69"/>
     <use x="146.386719" xlink:href="#DejaVuSans-70"/>
     <use x="209.863281" xlink:href="#DejaVuSans-70"/>
     <use x="273.339844" xlink:href="#DejaVuSans-65"/>
     <use x="334.863281" xlink:href="#DejaVuSans-72"/>
     <use x="375.976562" xlink:href="#DejaVuSans-20"/>
     <use x="407.763672" xlink:href="#DejaVuSans-50"/>
     <use x="468.019531" xlink:href="#DejaVuSans-6f"/>
     <use x="529.201172" xlink:href="#DejaVuSans-73"/>
     <use x="581.300781" xlink:href="#DejaVuSans-69"/>
     <use x="609.083984" xlink:href="#DejaVuSans-74"/>
     <use x="648.292969" xlink:href="#DejaVuSans-69"/>
     <use x="676.076172" xlink:href="#DejaVuSans-6f"/>
     <use x="737.257812" xlink:href="#DejaVuSans-6e"/>
     <use x="800.636719" xlink:href="#DejaVuSans-20"/>
     <use x="832.423828" xlink:href="#DejaVuSans-6f"/>
     <use x="893.605469" xlink:href="#DejaVuSans-76"/>
     <use x="952.785156" xlink:href="#DejaVuSans-65"/>
     <use x="1014.308594" xlink:href="#DejaVuSans-72"/>
     <use x="1055.421875" xlink:href="#DejaVuSans-20"/>
     <use x="1087.208984" xlink:href="#DejaVuSans-54"/>
     <use x="1148.246094" xlink:href="#DejaVuSans-69"/>
     <use x="1176.029297" xlink:href="#DejaVuSans-6d"/>
     <use x="1273.441406" xlink:href="#DejaVuSans-65"/>
    </g>
   </g>
   <g id="legend_1">
    <g id="patch_7">
     <path d="M 69.39 318.44 
L 192.332188 318.44 
Q 194.332188 318.44 194.332188 316.44 
L 194.332188 229.37125 
Q 194.332188 227.37125 192.332188 227.37125 
L 69.39 227.37125 
Q 67.39 227.37125 67.39 229.37125 
L 67.39 316.44 
Q 67.39 318.44 69.39 318.44 
z
" style="fill:#ffffff;opacity:0.8;stroke:#cccccc;stroke-linejoin:miter;"/>
    </g>
    <g id="line2d_35">
     <path d="M 71.39 235.469688 
L 91.39 235.469688 
" style="fill:none;stroke:#ff0000;stroke-linecap:square;stroke-width:1.5;"/>
    </g>
    <g id="line2d_36"/>
    <g id="text_18">
     <!-- Gripper X -->
     <defs>
      <path d="M 6.296875 72.90625 
L 16.890625 72.90625 
L 35.015625 45.796875 
L 53.21875 72.90625 
L 63.8125 72.90625 
L 40.375 37.890625 
L 65.375 0 
L 54.78125 0 
L 34.28125 31 
L 13.625 0 
L 2.984375 0 
L 29 38.921875 
z
" id="DejaVuSans-58"/>
     </defs>
     <g transform="translate(99.39 238.969688)scale(0.1 -0.1)">
      <use xlink:href="#DejaVuSans-47"/>
      <use x="77.490234" xlink:href="#DejaVuSans-72"/>
      <use x="118.603516" xlink:href="#DejaVuSans-69"/>
      <use x="146.386719" xlink:href="#DejaVuSans-70"/>
      <use x="209.863281" xlink:href="#DejaVuSans-70"/>
      <use x="273.339844" xlink:href="#DejaVuSans-65"/>
      <use x="334.863281" xlink:href="#DejaVuSans-72"/>
      <use x="375.976562" xlink:href="#DejaVuSans-20"/>
      <use x="407.763672" xlink:href="#DejaVuSans-58"/>
     </g>
    </g>
    <g id="line2d_37">
     <path d="M 71.39 250.147813 
L 91.39 250.147813 
" style="fill:none;stroke:#008000;stroke-linecap:square;stroke-width:1.5;"/>
    </g>
    <g id="line2d_38"/>
    <g id="text_19">
     <!-- Gripper Y -->
     <defs>
      <path d="M -0.203125 72.90625 
L 10.40625 72.90625 
L 30.609375 42.921875 
L 50.6875 72.90625 
L 61.28125 72.90625 
L 35.5 34.71875 
L 35.5 0 
L 25.59375 0 
L 25.59375 34.71875 
z
" id="DejaVuSans-59"/>
     </defs>
     <g transform="translate(99.39 253.647813)scale(0.1 -0.1)">
      <use xlink:href="#DejaVuSans-47"/>
      <use x="77.490234" xlink:href="#DejaVuSans-72"/>
      <use x="118.603516" xlink:href="#DejaVuSans-69"/>
      <use x="146.386719" xlink:href="#DejaVuSans-70"/>
      <use x="209.863281" xlink:href="#DejaVuSans-70"/>
      <use x="273.339844" xlink:href="#DejaVuSans-65"/>
      <use x="334.863281" xlink:href="#DejaVuSans-72"/>
      <use x="375.976562" xlink:href="#DejaVuSans-20"/>
      <use x="407.763672" xlink:href="#DejaVuSans-59"/>
     </g>
    </g>
    <g id="line2d_39">
     <path d="M 71.39 264.825938 
L 91.39 264.825938 
" style="fill:none;stroke:#0000ff;stroke-linecap:square;stroke-width:1.5;"/>
    </g>
    <g id="line2d_40"/>
    <g id="text_20">
     <!-- Gripper Z -->
     <defs>
      <path d="M 5.609375 72.90625 
L 62.890625 72.90625 
L 62.890625 65.375 
L 16.796875 8.296875 
L 64.015625 8.296875 
L 64.015625 0 
L 4.5 0 
L 4.5 7.515625 
L 50.59375 64.59375 
L 5.609375 64.59375 
z
" id="DejaVuSans-5a"/>
     </defs>
     <g transform="translate(99.39 268.325938)scale(0.1 -0.1)">
      <use xlink:href="#DejaVuSans-47"/>
      <use x="77.490234" xlink:href="#DejaVuSans-72"/>
      <use x="118.603516" xlink:href="#DejaVuSans-69"/>
      <use x="146.386719" xlink:href="#DejaVuSans-70"/>
      <use x="209.863281" xlink:href="#DejaVuSans-70"/>
      <use x="273.339844" xlink:href="#DejaVuSans-65"/>
      <use x="334.863281" xlink:href="#DejaVuSans-72"/>
      <use x="375.976562" xlink:href="#DejaVuSans-20"/>
      <use x="407.763672" xlink:href="#DejaVuSans-5a"/>
     </g>
    </g>
    <g id="line2d_41">
     <path d="M 71.39 279.504063 
L 91.39 279.504063 
" style="fill:none;stroke:#ff0000;stroke-dasharray:5.55,2.4;stroke-dashoffset:0;stroke-width:1.5;"/>
    </g>
    <g id="line2d_42"/>
    <g id="text_21">
     <!-- Desired X Position -->
     <defs>
      <path d="M 19.671875 64.796875 
L 19.671875 8.109375 
L 31.59375 8.109375 
Q 46.6875 8.109375 53.6875 14.9375 
Q 60.6875 21.78125 60.6875 36.53125 
Q 60.6875 51.171875 53.6875 57.984375 
Q 46.6875 64.796875 31.59375 64.796875 
z
M 9.8125 72.90625 
L 30.078125 72.90625 
Q 51.265625 72.90625 61.171875 64.09375 
Q 71.09375 55.28125 71.09375 36.53125 
Q 71.09375 17.671875 61.125 8.828125 
Q 51.171875 0 30.078125 0 
L 9.8125 0 
z
" id="DejaVuSans-44"/>
     </defs>
     <g transform="translate(99.39 283.004063)scale(0.1 -0.1)">
      <use xlink:href="#DejaVuSans-44"/>
      <use x="77.001953" xlink:href="#DejaVuSans-65"/>
      <use x="138.525391" xlink:href="#DejaVuSans-73"/>
      <use x="190.625" xlink:href="#DejaVuSans-69"/>
      <use x="218.408203" xlink:href="#DejaVuSans-72"/>
      <use x="259.490234" xlink:href="#DejaVuSans-65"/>
      <use x="321.013672" xlink:href="#DejaVuSans-64"/>
      <use x="384.490234" xlink:href="#DejaVuSans-20"/>
      <use x="416.277344" xlink:href="#DejaVuSans-58"/>
      <use x="484.783203" xlink:href="#DejaVuSans-20"/>
      <use x="516.570312" xlink:href="#DejaVuSans-50"/>
      <use x="576.826172" xlink:href="#DejaVuSans-6f"/>
      <use x="638.007812" xlink:href="#DejaVuSans-73"/>
      <use x="690.107422" xlink:href="#DejaVuSans-69"/>
      <use x="717.890625" xlink:href="#DejaVuSans-74"/>
      <use x="757.099609" xlink:href="#DejaVuSans-69"/>
      <use x="784.882812" xlink:href="#DejaVuSans-6f"/>
      <use x="846.064453" xlink:href="#DejaVuSans-6e"/>
     </g>
    </g>
    <g id="line2d_43">
     <path d="M 71.39 294.182188 
L 91.39 294.182188 
" style="fill:none;stroke:#008000;stroke-dasharray:5.55,2.4;stroke-dashoffset:0;stroke-width:1.5;"/>
    </g>
    <g id="line2d_44"/>
    <g id="text_22">
     <!-- Desired Y Position -->
     <g transform="translate(99.39 297.682188)scale(0.1 -0.1)">
      <use xlink:href="#DejaVuSans-44"/>
      <use x="77.001953" xlink:href="#DejaVuSans-65"/>
      <use x="138.525391" xlink:href="#DejaVuSans-73"/>
      <use x="190.625" xlink:href="#DejaVuSans-69"/>
      <use x="218.408203" xlink:href="#DejaVuSans-72"/>
      <use x="259.490234" xlink:href="#DejaVuSans-65"/>
      <use x="321.013672" xlink:href="#DejaVuSans-64"/>
      <use x="384.490234" xlink:href="#DejaVuSans-20"/>
      <use x="416.277344" xlink:href="#DejaVuSans-59"/>
      <use x="477.361328" xlink:href="#DejaVuSans-20"/>
      <use x="509.148438" xlink:href="#DejaVuSans-50"/>
      <use x="569.404297" xlink:href="#DejaVuSans-6f"/>
      <use x="630.585938" xlink:href="#DejaVuSans-73"/>
      <use x="682.685547" xlink:href="#DejaVuSans-69"/>
      <use x="710.46875" xlink:href="#DejaVuSans-74"/>
      <use x="749.677734" xlink:href="#DejaVuSans-69"/>
      <use x="777.460938" xlink:href="#DejaVuSans-6f"/>
      <use x="838.642578" xlink:href="#DejaVuSans-6e"/>
     </g>
    </g>
    <g id="line2d_45">
     <path d="M 71.39 308.860313 
L 91.39 308.860313 
" style="fill:none;stroke:#0000ff;stroke-dasharray:5.55,2.4;stroke-dashoffset:0;stroke-width:1.5;"/>
    </g>
    <g id="line2d_46"/>
    <g id="text_23">
     <!-- Desired Z Position -->
     <g transform="translate(99.39 312.360313)scale(0.1 -0.1)">
      <use xlink:href="#DejaVuSans-44"/>
      <use x="77.001953" xlink:href="#DejaVuSans-65"/>
      <use x="138.525391" xlink:href="#DejaVuSans-73"/>
      <use x="190.625" xlink:href="#DejaVuSans-69"/>
      <use x="218.408203" xlink:href="#DejaVuSans-72"/>
      <use x="259.490234" xlink:href="#DejaVuSans-65"/>
      <use x="321.013672" xlink:href="#DejaVuSans-64"/>
      <use x="384.490234" xlink:href="#DejaVuSans-20"/>
      <use x="416.277344" xlink:href="#DejaVuSans-5a"/>
      <use x="484.783203" xlink:href="#DejaVuSans-20"/>
      <use x="516.570312" xlink:href="#DejaVuSans-50"/>
      <use x="576.826172" xlink:href="#DejaVuSans-6f"/>
      <use x="638.007812" xlink:href="#DejaVuSans-73"/>
      <use x="690.107422" xlink:href="#DejaVuSans-69"/>
      <use x="717.890625" xlink:href="#DejaVuSans-74"/>
      <use x="757.099609" xlink:href="#DejaVuSans-69"/>
      <use x="784.882812" xlink:href="#DejaVuSans-6f"/>
      <use x="846.064453" xlink:href="#DejaVuSans-6e"/>
     </g>
    </g>
   </g>
  </g>
  <g id="axes_2">
   <g id="patch_8">
    <path d="M 62.39 678.04 
L 706.68 678.04 
L 706.68 380.04 
L 62.39 380.04 
z
" style="fill:#ffffff;"/>
   </g>
   <g id="matplotlib.axis_3">
    <g id="xtick_7">
     <g id="line2d_47">
      <path clip-path="url(#pae3ee7ee0c)" d="M 90.808223 678.04 
L 90.808223 380.04 
" style="fill:none;stroke:#b0b0b0;stroke-linecap:square;stroke-width:0.8;"/>
     </g>
     <g id="line2d_48">
      <g>
       <use style="stroke:#000000;stroke-width:0.8;" x="90.808223" xlink:href="#m0c6adc5793" y="678.04"/>
      </g>
     </g>
     <g id="text_24">
      <!-- 0 -->
      <g transform="translate(87.626973 692.638438)scale(0.1 -0.1)">
       <use xlink:href="#DejaVuSans-30"/>
      </g>
     </g>
    </g>
    <g id="xtick_8">
     <g id="line2d_49">
      <path clip-path="url(#pae3ee7ee0c)" d="M 206.570694 678.04 
L 206.570694 380.04 
" style="fill:none;stroke:#b0b0b0;stroke-linecap:square;stroke-width:0.8;"/>
     </g>
     <g id="line2d_50">
      <g>
       <use style="stroke:#000000;stroke-width:0.8;" x="206.570694" xlink:href="#m0c6adc5793" y="678.04"/>
      </g>
     </g>
     <g id="text_25">
      <!-- 10 -->
      <g transform="translate(200.208194 692.638438)scale(0.1 -0.1)">
       <use xlink:href="#DejaVuSans-31"/>
       <use x="63.623047" xlink:href="#DejaVuSans-30"/>
      </g>
     </g>
    </g>
    <g id="xtick_9">
     <g id="line2d_51">
      <path clip-path="url(#pae3ee7ee0c)" d="M 322.333166 678.04 
L 322.333166 380.04 
" style="fill:none;stroke:#b0b0b0;stroke-linecap:square;stroke-width:0.8;"/>
     </g>
     <g id="line2d_52">
      <g>
       <use style="stroke:#000000;stroke-width:0.8;" x="322.333166" xlink:href="#m0c6adc5793" y="678.04"/>
      </g>
     </g>
     <g id="text_26">
      <!-- 20 -->
      <g transform="translate(315.970666 692.638438)scale(0.1 -0.1)">
       <use xlink:href="#DejaVuSans-32"/>
       <use x="63.623047" xlink:href="#DejaVuSans-30"/>
      </g>
     </g>
    </g>
    <g id="xtick_10">
     <g id="line2d_53">
      <path clip-path="url(#pae3ee7ee0c)" d="M 438.095637 678.04 
L 438.095637 380.04 
" style="fill:none;stroke:#b0b0b0;stroke-linecap:square;stroke-width:0.8;"/>
     </g>
     <g id="line2d_54">
      <g>
       <use style="stroke:#000000;stroke-width:0.8;" x="438.095637" xlink:href="#m0c6adc5793" y="678.04"/>
      </g>
     </g>
     <g id="text_27">
      <!-- 30 -->
      <g transform="translate(431.733137 692.638438)scale(0.1 -0.1)">
       <use xlink:href="#DejaVuSans-33"/>
       <use x="63.623047" xlink:href="#DejaVuSans-30"/>
      </g>
     </g>
    </g>
    <g id="xtick_11">
     <g id="line2d_55">
      <path clip-path="url(#pae3ee7ee0c)" d="M 553.858109 678.04 
L 553.858109 380.04 
" style="fill:none;stroke:#b0b0b0;stroke-linecap:square;stroke-width:0.8;"/>
     </g>
     <g id="line2d_56">
      <g>
       <use style="stroke:#000000;stroke-width:0.8;" x="553.858109" xlink:href="#m0c6adc5793" y="678.04"/>
      </g>
     </g>
     <g id="text_28">
      <!-- 40 -->
      <g transform="translate(547.495609 692.638438)scale(0.1 -0.1)">
       <use xlink:href="#DejaVuSans-34"/>
       <use x="63.623047" xlink:href="#DejaVuSans-30"/>
      </g>
     </g>
    </g>
    <g id="xtick_12">
     <g id="line2d_57">
      <path clip-path="url(#pae3ee7ee0c)" d="M 669.620581 678.04 
L 669.620581 380.04 
" style="fill:none;stroke:#b0b0b0;stroke-linecap:square;stroke-width:0.8;"/>
     </g>
     <g id="line2d_58">
      <g>
       <use style="stroke:#000000;stroke-width:0.8;" x="669.620581" xlink:href="#m0c6adc5793" y="678.04"/>
      </g>
     </g>
     <g id="text_29">
      <!-- 50 -->
      <g transform="translate(663.258081 692.638438)scale(0.1 -0.1)">
       <use xlink:href="#DejaVuSans-35"/>
       <use x="63.623047" xlink:href="#DejaVuSans-30"/>
      </g>
     </g>
    </g>
    <g id="text_30">
     <!-- Time (seconds) -->
     <g transform="translate(346.219375 706.316563)scale(0.1 -0.1)">
      <use xlink:href="#DejaVuSans-54"/>
      <use x="61.037109" xlink:href="#DejaVuSans-69"/>
      <use x="88.820312" xlink:href="#DejaVuSans-6d"/>
      <use x="186.232422" xlink:href="#DejaVuSans-65"/>
      <use x="247.755859" xlink:href="#DejaVuSans-20"/>
      <use x="279.542969" xlink:href="#DejaVuSans-28"/>
      <use x="318.556641" xlink:href="#DejaVuSans-73"/>
      <use x="370.65625" xlink:href="#DejaVuSans-65"/>
      <use x="432.179688" xlink:href="#DejaVuSans-63"/>
      <use x="487.160156" xlink:href="#DejaVuSans-6f"/>
      <use x="548.341797" xlink:href="#DejaVuSans-6e"/>
      <use x="611.720703" xlink:href="#DejaVuSans-64"/>
      <use x="675.197266" xlink:href="#DejaVuSans-73"/>
      <use x="727.296875" xlink:href="#DejaVuSans-29"/>
     </g>
    </g>
   </g>
   <g id="matplotlib.axis_4">
    <g id="ytick_9">
     <g id="line2d_59">
      <path clip-path="url(#pae3ee7ee0c)" d="M 62.39 668.073925 
L 706.68 668.073925 
" style="fill:none;stroke:#b0b0b0;stroke-linecap:square;stroke-width:0.8;"/>
     </g>
     <g id="line2d_60">
      <g>
       <use style="stroke:#000000;stroke-width:0.8;" x="62.39" xlink:href="#m333dd62a56" y="668.073925"/>
      </g>
     </g>
     <g id="text_31">
      <!-- −0.1 -->
      <g transform="translate(31.107188 671.873143)scale(0.1 -0.1)">
       <use xlink:href="#DejaVuSans-2212"/>
       <use x="83.789062" xlink:href="#DejaVuSans-30"/>
       <use x="147.412109" xlink:href="#DejaVuSans-2e"/>
       <use x="179.199219" xlink:href="#DejaVuSans-31"/>
      </g>
     </g>
    </g>
    <g id="ytick_10">
     <g id="line2d_61">
      <path clip-path="url(#pae3ee7ee0c)" d="M 62.39 634.478094 
L 706.68 634.478094 
" style="fill:none;stroke:#b0b0b0;stroke-linecap:square;stroke-width:0.8;"/>
     </g>
     <g id="line2d_62">
      <g>
       <use style="stroke:#000000;stroke-width:0.8;" x="62.39" xlink:href="#m333dd62a56" y="634.478094"/>
      </g>
     </g>
     <g id="text_32">
      <!-- 0.0 -->
      <g transform="translate(39.486875 638.277313)scale(0.1 -0.1)">
       <use xlink:href="#DejaVuSans-30"/>
       <use x="63.623047" xlink:href="#DejaVuSans-2e"/>
       <use x="95.410156" xlink:href="#DejaVuSans-30"/>
      </g>
     </g>
    </g>
    <g id="ytick_11">
     <g id="line2d_63">
      <path clip-path="url(#pae3ee7ee0c)" d="M 62.39 600.882264 
L 706.68 600.882264 
" style="fill:none;stroke:#b0b0b0;stroke-linecap:square;stroke-width:0.8;"/>
     </g>
     <g id="line2d_64">
      <g>
       <use style="stroke:#000000;stroke-width:0.8;" x="62.39" xlink:href="#m333dd62a56" y="600.882264"/>
      </g>
     </g>
     <g id="text_33">
      <!-- 0.1 -->
      <g transform="translate(39.486875 604.681483)scale(0.1 -0.1)">
       <use xlink:href="#DejaVuSans-30"/>
       <use x="63.623047" xlink:href="#DejaVuSans-2e"/>
       <use x="95.410156" xlink:href="#DejaVuSans-31"/>
      </g>
     </g>
    </g>
    <g id="ytick_12">
     <g id="line2d_65">
      <path clip-path="url(#pae3ee7ee0c)" d="M 62.39 567.286434 
L 706.68 567.286434 
" style="fill:none;stroke:#b0b0b0;stroke-linecap:square;stroke-width:0.8;"/>
     </g>
     <g id="line2d_66">
      <g>
       <use style="stroke:#000000;stroke-width:0.8;" x="62.39" xlink:href="#m333dd62a56" y="567.286434"/>
      </g>
     </g>
     <g id="text_34">
      <!-- 0.2 -->
      <g transform="translate(39.486875 571.085653)scale(0.1 -0.1)">
       <use xlink:href="#DejaVuSans-30"/>
       <use x="63.623047" xlink:href="#DejaVuSans-2e"/>
       <use x="95.410156" xlink:href="#DejaVuSans-32"/>
      </g>
     </g>
    </g>
    <g id="ytick_13">
     <g id="line2d_67">
      <path clip-path="url(#pae3ee7ee0c)" d="M 62.39 533.690604 
L 706.68 533.690604 
" style="fill:none;stroke:#b0b0b0;stroke-linecap:square;stroke-width:0.8;"/>
     </g>
     <g id="line2d_68">
      <g>
       <use style="stroke:#000000;stroke-width:0.8;" x="62.39" xlink:href="#m333dd62a56" y="533.690604"/>
      </g>
     </g>
     <g id="text_35">
      <!-- 0.3 -->
      <g transform="translate(39.486875 537.489823)scale(0.1 -0.1)">
       <use xlink:href="#DejaVuSans-30"/>
       <use x="63.623047" xlink:href="#DejaVuSans-2e"/>
       <use x="95.410156" xlink:href="#DejaVuSans-33"/>
      </g>
     </g>
    </g>
    <g id="ytick_14">
     <g id="line2d_69">
      <path clip-path="url(#pae3ee7ee0c)" d="M 62.39 500.094774 
L 706.68 500.094774 
" style="fill:none;stroke:#b0b0b0;stroke-linecap:square;stroke-width:0.8;"/>
     </g>
     <g id="line2d_70">
      <g>
       <use style="stroke:#000000;stroke-width:0.8;" x="62.39" xlink:href="#m333dd62a56" y="500.094774"/>
      </g>
     </g>
     <g id="text_36">
      <!-- 0.4 -->
      <g transform="translate(39.486875 503.893993)scale(0.1 -0.1)">
       <use xlink:href="#DejaVuSans-30"/>
       <use x="63.623047" xlink:href="#DejaVuSans-2e"/>
       <use x="95.410156" xlink:href="#DejaVuSans-34"/>
      </g>
     </g>
    </g>
    <g id="ytick_15">
     <g id="line2d_71">
      <path clip-path="url(#pae3ee7ee0c)" d="M 62.39 466.498944 
L 706.68 466.498944 
" style="fill:none;stroke:#b0b0b0;stroke-linecap:square;stroke-width:0.8;"/>
     </g>
     <g id="line2d_72">
      <g>
       <use style="stroke:#000000;stroke-width:0.8;" x="62.39" xlink:href="#m333dd62a56" y="466.498944"/>
      </g>
     </g>
     <g id="text_37">
      <!-- 0.5 -->
      <g transform="translate(39.486875 470.298162)scale(0.1 -0.1)">
       <use xlink:href="#DejaVuSans-30"/>
       <use x="63.623047" xlink:href="#DejaVuSans-2e"/>
       <use x="95.410156" xlink:href="#DejaVuSans-35"/>
      </g>
     </g>
    </g>
    <g id="ytick_16">
     <g id="line2d_73">
      <path clip-path="url(#pae3ee7ee0c)" d="M 62.39 432.903113 
L 706.68 432.903113 
" style="fill:none;stroke:#b0b0b0;stroke-linecap:square;stroke-width:0.8;"/>
     </g>
     <g id="line2d_74">
      <g>
       <use style="stroke:#000000;stroke-width:0.8;" x="62.39" xlink:href="#m333dd62a56" y="432.903113"/>
      </g>
     </g>
     <g id="text_38">
      <!-- 0.6 -->
      <defs>
       <path d="M 33.015625 40.375 
Q 26.375 40.375 22.484375 35.828125 
Q 18.609375 31.296875 18.609375 23.390625 
Q 18.609375 15.53125 22.484375 10.953125 
Q 26.375 6.390625 33.015625 6.390625 
Q 39.65625 6.390625 43.53125 10.953125 
Q 47.40625 15.53125 47.40625 23.390625 
Q 47.40625 31.296875 43.53125 35.828125 
Q 39.65625 40.375 33.015625 40.375 
z
M 52.59375 71.296875 
L 52.59375 62.3125 
Q 48.875 64.0625 45.09375 64.984375 
Q 41.3125 65.921875 37.59375 65.921875 
Q 27.828125 65.921875 22.671875 59.328125 
Q 17.53125 52.734375 16.796875 39.40625 
Q 19.671875 43.65625 24.015625 45.921875 
Q 28.375 48.1875 33.59375 48.1875 
Q 44.578125 48.1875 50.953125 41.515625 
Q 57.328125 34.859375 57.328125 23.390625 
Q 57.328125 12.15625 50.6875 5.359375 
Q 44.046875 -1.421875 33.015625 -1.421875 
Q 20.359375 -1.421875 13.671875 8.265625 
Q 6.984375 17.96875 6.984375 36.375 
Q 6.984375 53.65625 15.1875 63.9375 
Q 23.390625 74.21875 37.203125 74.21875 
Q 40.921875 74.21875 44.703125 73.484375 
Q 48.484375 72.75 52.59375 71.296875 
z
" id="DejaVuSans-36"/>
      </defs>
      <g transform="translate(39.486875 436.702332)scale(0.1 -0.1)">
       <use xlink:href="#DejaVuSans-30"/>
       <use x="63.623047" xlink:href="#DejaVuSans-2e"/>
       <use x="95.410156" xlink:href="#DejaVuSans-36"/>
      </g>
     </g>
    </g>
    <g id="ytick_17">
     <g id="line2d_75">
      <path clip-path="url(#pae3ee7ee0c)" d="M 62.39 399.307283 
L 706.68 399.307283 
" style="fill:none;stroke:#b0b0b0;stroke-linecap:square;stroke-width:0.8;"/>
     </g>
     <g id="line2d_76">
      <g>
       <use style="stroke:#000000;stroke-width:0.8;" x="62.39" xlink:href="#m333dd62a56" y="399.307283"/>
      </g>
     </g>
     <g id="text_39">
      <!-- 0.7 -->
      <g transform="translate(39.486875 403.106502)scale(0.1 -0.1)">
       <use xlink:href="#DejaVuSans-30"/>
       <use x="63.623047" xlink:href="#DejaVuSans-2e"/>
       <use x="95.410156" xlink:href="#DejaVuSans-37"/>
      </g>
     </g>
    </g>
    <g id="text_40">
     <!-- Orientation (quaternion) -->
     <defs>
      <path d="M 39.40625 66.21875 
Q 28.65625 66.21875 22.328125 58.203125 
Q 16.015625 50.203125 16.015625 36.375 
Q 16.015625 22.609375 22.328125 14.59375 
Q 28.65625 6.59375 39.40625 6.59375 
Q 50.140625 6.59375 56.421875 14.59375 
Q 62.703125 22.609375 62.703125 36.375 
Q 62.703125 50.203125 56.421875 58.203125 
Q 50.140625 66.21875 39.40625 66.21875 
z
M 39.40625 74.21875 
Q 54.734375 74.21875 63.90625 63.9375 
Q 73.09375 53.65625 73.09375 36.375 
Q 73.09375 19.140625 63.90625 8.859375 
Q 54.734375 -1.421875 39.40625 -1.421875 
Q 24.03125 -1.421875 14.8125 8.828125 
Q 5.609375 19.09375 5.609375 36.375 
Q 5.609375 53.65625 14.8125 63.9375 
Q 24.03125 74.21875 39.40625 74.21875 
z
" id="DejaVuSans-4f"/>
      <path d="M 34.28125 27.484375 
Q 23.390625 27.484375 19.1875 25 
Q 14.984375 22.515625 14.984375 16.5 
Q 14.984375 11.71875 18.140625 8.90625 
Q 21.296875 6.109375 26.703125 6.109375 
Q 34.1875 6.109375 38.703125 11.40625 
Q 43.21875 16.703125 43.21875 25.484375 
L 43.21875 27.484375 
z
M 52.203125 31.203125 
L 52.203125 0 
L 43.21875 0 
L 43.21875 8.296875 
Q 40.140625 3.328125 35.546875 0.953125 
Q 30.953125 -1.421875 24.3125 -1.421875 
Q 15.921875 -1.421875 10.953125 3.296875 
Q 6 8.015625 6 15.921875 
Q 6 25.140625 12.171875 29.828125 
Q 18.359375 34.515625 30.609375 34.515625 
L 43.21875 34.515625 
L 43.21875 35.40625 
Q 43.21875 41.609375 39.140625 45 
Q 35.0625 48.390625 27.6875 48.390625 
Q 23 48.390625 18.546875 47.265625 
Q 14.109375 46.140625 10.015625 43.890625 
L 10.015625 52.203125 
Q 14.9375 54.109375 19.578125 55.046875 
Q 24.21875 56 28.609375 56 
Q 40.484375 56 46.34375 49.84375 
Q 52.203125 43.703125 52.203125 31.203125 
z
" id="DejaVuSans-61"/>
      <path d="M 14.796875 27.296875 
Q 14.796875 17.390625 18.875 11.75 
Q 22.953125 6.109375 30.078125 6.109375 
Q 37.203125 6.109375 41.296875 11.75 
Q 45.40625 17.390625 45.40625 27.296875 
Q 45.40625 37.203125 41.296875 42.84375 
Q 37.203125 48.484375 30.078125 48.484375 
Q 22.953125 48.484375 18.875 42.84375 
Q 14.796875 37.203125 14.796875 27.296875 
z
M 45.40625 8.203125 
Q 42.578125 3.328125 38.25 0.953125 
Q 33.9375 -1.421875 27.875 -1.421875 
Q 17.96875 -1.421875 11.734375 6.484375 
Q 5.515625 14.40625 5.515625 27.296875 
Q 5.515625 40.1875 11.734375 48.09375 
Q 17.96875 56 27.875 56 
Q 33.9375 56 38.25 53.625 
Q 42.578125 51.265625 45.40625 46.390625 
L 45.40625 54.6875 
L 54.390625 54.6875 
L 54.390625 -20.796875 
L 45.40625 -20.796875 
z
" id="DejaVuSans-71"/>
      <path d="M 8.5 21.578125 
L 8.5 54.6875 
L 17.484375 54.6875 
L 17.484375 21.921875 
Q 17.484375 14.15625 20.5 10.265625 
Q 23.53125 6.390625 29.59375 6.390625 
Q 36.859375 6.390625 41.078125 11.03125 
Q 45.3125 15.671875 45.3125 23.6875 
L 45.3125 54.6875 
L 54.296875 54.6875 
L 54.296875 0 
L 45.3125 0 
L 45.3125 8.40625 
Q 42.046875 3.421875 37.71875 1 
Q 33.40625 -1.421875 27.6875 -1.421875 
Q 18.265625 -1.421875 13.375 4.4375 
Q 8.5 10.296875 8.5 21.578125 
z
M 31.109375 56 
z
" id="DejaVuSans-75"/>
     </defs>
     <g transform="translate(25.0275 590.042344)rotate(-90)scale(0.1 -0.1)">
      <use xlink:href="#DejaVuSans-4f"/>
      <use x="78.710938" xlink:href="#DejaVuSans-72"/>
      <use x="119.824219" xlink:href="#DejaVuSans-69"/>
      <use x="147.607422" xlink:href="#DejaVuSans-65"/>
      <use x="209.130859" xlink:href="#DejaVuSans-6e"/>
      <use x="272.509766" xlink:href="#DejaVuSans-74"/>
      <use x="311.71875" xlink:href="#DejaVuSans-61"/>
      <use x="372.998047" xlink:href="#DejaVuSans-74"/>
      <use x="412.207031" xlink:href="#DejaVuSans-69"/>
      <use x="439.990234" xlink:href="#DejaVuSans-6f"/>
      <use x="501.171875" xlink:href="#DejaVuSans-6e"/>
      <use x="564.550781" xlink:href="#DejaVuSans-20"/>
      <use x="596.337891" xlink:href="#DejaVuSans-28"/>
      <use x="635.351562" xlink:href="#DejaVuSans-71"/>
      <use x="698.828125" xlink:href="#DejaVuSans-75"/>
      <use x="762.207031" xlink:href="#DejaVuSans-61"/>
      <use x="823.486328" xlink:href="#DejaVuSans-74"/>
      <use x="862.695312" xlink:href="#DejaVuSans-65"/>
      <use x="924.21875" xlink:href="#DejaVuSans-72"/>
      <use x="965.316406" xlink:href="#DejaVuSans-6e"/>
      <use x="1028.695312" xlink:href="#DejaVuSans-69"/>
      <use x="1056.478516" xlink:href="#DejaVuSans-6f"/>
      <use x="1117.660156" xlink:href="#DejaVuSans-6e"/>
      <use x="1181.039062" xlink:href="#DejaVuSans-29"/>
     </g>
    </g>
   </g>
   <g id="line2d_77">
    <path clip-path="url(#pae3ee7ee0c)" d="M 91.675909 624.670406 
L 95.168961 627.718036 
L 97.485784 629.655648 
L 99.804161 631.172142 
L 100.967978 631.70983 
L 102.12176 632.088165 
L 103.282729 632.315511 
L 105.609684 632.438635 
L 107.938336 632.483121 
L 110.249328 632.778457 
L 112.56864 633.444847 
L 114.901822 634.447638 
L 120.685695 637.432824 
L 123.00384 638.337635 
L 125.345354 638.883455 
L 127.663522 639.079454 
L 132.33543 639.186523 
L 134.652184 639.494112 
L 136.961448 640.026503 
L 140.445425 641.127947 
L 143.960098 642.24785 
L 146.267408 642.815228 
L 148.598205 643.159075 
L 150.921442 643.279796 
L 156.748484 643.424676 
L 160.206507 643.874145 
L 170.680057 645.738474 
L 174.162979 645.902176 
L 180.009366 645.997442 
L 183.47115 646.291818 
L 193.902415 647.492827 
L 197.413779 647.596624 
L 204.367144 647.708108 
L 210.175377 648.144021 
L 215.992152 648.571823 
L 220.613146 648.685549 
L 227.587929 648.76776 
L 233.406926 649.102836 
L 240.387079 649.489827 
L 246.194442 649.546546 
L 253.156534 649.667656 
L 267.090643 650.09646 
L 277.550697 650.20497 
L 290.334173 650.454002 
L 303.166479 650.562084 
L 314.755772 650.677547 
L 331.012216 650.784673 
L 360.042191 650.877664 
L 461.076538 650.805635 
L 465.734229 650.544641 
L 473.985303 649.901371 
L 478.638353 649.849714 
L 486.754958 649.974369 
L 498.441665 650.236509 
L 536.932006 650.461813 
L 561.29851 650.52078 
L 607.471577 650.515289 
L 677.394091 650.406831 
L 677.394091 650.406831 
" style="fill:none;stroke:#ffa500;stroke-linecap:square;stroke-width:1.5;"/>
   </g>
   <g id="line2d_78">
    <path clip-path="url(#pae3ee7ee0c)" d="M 91.675909 636.053564 
L 95.168961 639.325586 
L 97.485784 641.400724 
L 99.804161 643.022001 
L 100.967978 643.59623 
L 102.12176 644.000084 
L 103.282729 644.242686 
L 105.609684 644.374049 
L 107.938336 644.422351 
L 110.249328 644.743157 
L 112.56864 645.467759 
L 114.901822 646.560106 
L 120.685695 649.825688 
L 123.00384 650.81955 
L 125.345354 651.419998 
L 127.663522 651.63578 
L 132.33543 651.752119 
L 134.652184 652.086514 
L 136.961448 652.668154 
L 140.445425 653.883055 
L 143.960098 655.134591 
L 146.267408 655.775022 
L 148.598205 656.165245 
L 150.921442 656.302624 
L 155.560206 656.374674 
L 157.882921 656.580503 
L 161.362706 657.182435 
L 169.538629 658.914272 
L 171.842833 659.162157 
L 175.344383 659.257693 
L 180.009366 659.353153 
L 183.47115 659.669346 
L 195.089363 661.111766 
L 199.730569 661.175053 
L 204.367144 661.286033 
L 209.038936 661.64674 
L 215.992152 662.261077 
L 220.613146 662.402238 
L 228.760476 662.525846 
L 243.891579 663.211893 
L 253.156534 663.327659 
L 267.090643 663.732707 
L 277.550697 663.834806 
L 290.334173 664.07016 
L 303.166479 664.171864 
L 315.904125 664.281048 
L 343.816356 664.408493 
L 405.318086 664.494481 
L 461.076538 664.412453 
L 464.590949 664.26681 
L 469.349907 663.831639 
L 473.985303 663.432217 
L 478.638353 663.365184 
L 485.58336 663.471503 
L 499.532889 663.83946 
L 515.869717 663.961543 
L 532.303728 664.019597 
L 568.252502 664.105218 
L 650.694333 664.013316 
L 677.394091 663.954707 
L 677.394091 663.954707 
" style="fill:none;stroke:#800080;stroke-linecap:square;stroke-width:1.5;"/>
   </g>
   <g id="line2d_79">
    <path clip-path="url(#pae3ee7ee0c)" d="M 91.675909 394.087105 
L 100.967978 393.888453 
L 117.202946 393.906296 
L 159.04821 394.149845 
L 200.896332 394.290903 
L 234.607798 394.377625 
L 247.370056 394.455698 
L 282.237133 394.616046 
L 317.074031 394.684902 
L 459.919077 394.64315 
L 464.590949 394.31836 
L 472.818373 393.669302 
L 477.520724 393.585455 
L 485.58336 393.670869 
L 500.695411 393.969074 
L 510.028367 394.064056 
L 522.962114 394.284692 
L 536.932006 394.397363 
L 549.677673 394.480434 
L 586.215261 394.646005 
L 624.997413 394.705723 
L 677.394091 394.736652 
L 677.394091 394.736652 
" style="fill:none;stroke:#00ffff;stroke-linecap:square;stroke-width:1.5;"/>
   </g>
   <g id="line2d_80">
    <path clip-path="url(#pae3ee7ee0c)" d="M 91.675909 634.478094 
L 105.609684 634.478094 
L 106.77195 650.060466 
L 677.394091 650.060466 
L 677.394091 650.060466 
" style="fill:none;stroke:#ffa500;stroke-dasharray:5.55,2.4;stroke-dashoffset:0;stroke-width:1.5;"/>
   </g>
   <g id="line2d_81">
    <path clip-path="url(#pae3ee7ee0c)" d="M 91.675909 634.478094 
L 105.609684 634.478094 
L 106.77195 663.618643 
L 677.394091 663.618643 
L 677.394091 663.618643 
" style="fill:none;stroke:#800080;stroke-dasharray:5.55,2.4;stroke-dashoffset:0;stroke-width:1.5;"/>
   </g>
   <g id="line2d_82">
    <path clip-path="url(#pae3ee7ee0c)" d="M 91.675909 634.478094 
L 105.609684 634.478094 
L 106.77195 394.708124 
L 677.394091 394.708124 
L 677.394091 394.708124 
" style="fill:none;stroke:#00ffff;stroke-dasharray:5.55,2.4;stroke-dashoffset:0;stroke-width:1.5;"/>
   </g>
   <g id="patch_9">
    <path d="M 62.39 678.04 
L 62.39 380.04 
" style="fill:none;stroke:#000000;stroke-linecap:square;stroke-linejoin:miter;stroke-width:0.8;"/>
   </g>
   <g id="patch_10">
    <path d="M 706.68 678.04 
L 706.68 380.04 
" style="fill:none;stroke:#000000;stroke-linecap:square;stroke-linejoin:miter;stroke-width:0.8;"/>
   </g>
   <g id="patch_11">
    <path d="M 62.39 678.04 
L 706.68 678.04 
" style="fill:none;stroke:#000000;stroke-linecap:square;stroke-linejoin:miter;stroke-width:0.8;"/>
   </g>
   <g id="patch_12">
    <path d="M 62.39 380.04 
L 706.68 380.04 
" style="fill:none;stroke:#000000;stroke-linecap:square;stroke-linejoin:miter;stroke-width:0.8;"/>
   </g>
   <g id="text_41">
    <!-- Gripper Orientation over Time -->
    <g transform="translate(294.136563 374.04)scale(0.12 -0.12)">
     <use xlink:href="#DejaVuSans-47"/>
     <use x="77.490234" xlink:href="#DejaVuSans-72"/>
     <use x="118.603516" xlink:href="#DejaVuSans-69"/>
     <use x="146.386719" xlink:href="#DejaVuSans-70"/>
     <use x="209.863281" xlink:href="#DejaVuSans-70"/>
     <use x="273.339844" xlink:href="#DejaVuSans-65"/>
     <use x="334.863281" xlink:href="#DejaVuSans-72"/>
     <use x="375.976562" xlink:href="#DejaVuSans-20"/>
     <use x="407.763672" xlink:href="#DejaVuSans-4f"/>
     <use x="486.474609" xlink:href="#DejaVuSans-72"/>
     <use x="527.587891" xlink:href="#DejaVuSans-69"/>
     <use x="555.371094" xlink:href="#DejaVuSans-65"/>
     <use x="616.894531" xlink:href="#DejaVuSans-6e"/>
     <use x="680.273438" xlink:href="#DejaVuSans-74"/>
     <use x="719.482422" xlink:href="#DejaVuSans-61"/>
     <use x="780.761719" xlink:href="#DejaVuSans-74"/>
     <use x="819.970703" xlink:href="#DejaVuSans-69"/>
     <use x="847.753906" xlink:href="#DejaVuSans-6f"/>
     <use x="908.935547" xlink:href="#DejaVuSans-6e"/>
     <use x="972.314453" xlink:href="#DejaVuSans-20"/>
     <use x="1004.101562" xlink:href="#DejaVuSans-6f"/>
     <use x="1065.283203" xlink:href="#DejaVuSans-76"/>
     <use x="1124.462891" xlink:href="#DejaVuSans-65"/>
     <use x="1185.986328" xlink:href="#DejaVuSans-72"/>
     <use x="1227.099609" xlink:href="#DejaVuSans-20"/>
     <use x="1258.886719" xlink:href="#DejaVuSans-54"/>
     <use x="1319.923828" xlink:href="#DejaVuSans-69"/>
     <use x="1347.707031" xlink:href="#DejaVuSans-6d"/>
     <use x="1445.119141" xlink:href="#DejaVuSans-65"/>
    </g>
   </g>
   <g id="legend_2">
    <g id="patch_13">
     <path d="M 559.569063 574.574375 
L 699.68 574.574375 
Q 701.68 574.574375 701.68 572.574375 
L 701.68 485.505625 
Q 701.68 483.505625 699.68 483.505625 
L 559.569063 483.505625 
Q 557.569063 483.505625 557.569063 485.505625 
L 557.569063 572.574375 
Q 557.569063 574.574375 559.569063 574.574375 
z
" style="fill:#ffffff;opacity:0.8;stroke:#cccccc;stroke-linejoin:miter;"/>
    </g>
    <g id="line2d_83">
     <path d="M 561.569063 491.604062 
L 581.569063 491.604062 
" style="fill:none;stroke:#ffa500;stroke-linecap:square;stroke-width:1.5;"/>
    </g>
    <g id="line2d_84"/>
    <g id="text_42">
     <!-- Orientation X -->
     <g transform="translate(589.569063 495.104062)scale(0.1 -0.1)">
      <use xlink:href="#DejaVuSans-4f"/>
      <use x="78.710938" xlink:href="#DejaVuSans-72"/>
      <use x="119.824219" xlink:href="#DejaVuSans-69"/>
      <use x="147.607422" xlink:href="#DejaVuSans-65"/>
      <use x="209.130859" xlink:href="#DejaVuSans-6e"/>
      <use x="272.509766" xlink:href="#DejaVuSans-74"/>
      <use x="311.71875" xlink:href="#DejaVuSans-61"/>
      <use x="372.998047" xlink:href="#DejaVuSans-74"/>
      <use x="412.207031" xlink:href="#DejaVuSans-69"/>
      <use x="439.990234" xlink:href="#DejaVuSans-6f"/>
      <use x="501.171875" xlink:href="#DejaVuSans-6e"/>
      <use x="564.550781" xlink:href="#DejaVuSans-20"/>
      <use x="596.337891" xlink:href="#DejaVuSans-58"/>
     </g>
    </g>
    <g id="line2d_85">
     <path d="M 561.569063 506.282187 
L 581.569063 506.282187 
" style="fill:none;stroke:#800080;stroke-linecap:square;stroke-width:1.5;"/>
    </g>
    <g id="line2d_86"/>
    <g id="text_43">
     <!-- Orientation Y -->
     <g transform="translate(589.569063 509.782187)scale(0.1 -0.1)">
      <use xlink:href="#DejaVuSans-4f"/>
      <use x="78.710938" xlink:href="#DejaVuSans-72"/>
      <use x="119.824219" xlink:href="#DejaVuSans-69"/>
      <use x="147.607422" xlink:href="#DejaVuSans-65"/>
      <use x="209.130859" xlink:href="#DejaVuSans-6e"/>
      <use x="272.509766" xlink:href="#DejaVuSans-74"/>
      <use x="311.71875" xlink:href="#DejaVuSans-61"/>
      <use x="372.998047" xlink:href="#DejaVuSans-74"/>
      <use x="412.207031" xlink:href="#DejaVuSans-69"/>
      <use x="439.990234" xlink:href="#DejaVuSans-6f"/>
      <use x="501.171875" xlink:href="#DejaVuSans-6e"/>
      <use x="564.550781" xlink:href="#DejaVuSans-20"/>
      <use x="596.337891" xlink:href="#DejaVuSans-59"/>
     </g>
    </g>
    <g id="line2d_87">
     <path d="M 561.569063 520.960312 
L 581.569063 520.960312 
" style="fill:none;stroke:#00ffff;stroke-linecap:square;stroke-width:1.5;"/>
    </g>
    <g id="line2d_88"/>
    <g id="text_44">
     <!-- Orientation Z -->
     <g transform="translate(589.569063 524.460312)scale(0.1 -0.1)">
      <use xlink:href="#DejaVuSans-4f"/>
      <use x="78.710938" xlink:href="#DejaVuSans-72"/>
      <use x="119.824219" xlink:href="#DejaVuSans-69"/>
      <use x="147.607422" xlink:href="#DejaVuSans-65"/>
      <use x="209.130859" xlink:href="#DejaVuSans-6e"/>
      <use x="272.509766" xlink:href="#DejaVuSans-74"/>
      <use x="311.71875" xlink:href="#DejaVuSans-61"/>
      <use x="372.998047" xlink:href="#DejaVuSans-74"/>
      <use x="412.207031" xlink:href="#DejaVuSans-69"/>
      <use x="439.990234" xlink:href="#DejaVuSans-6f"/>
      <use x="501.171875" xlink:href="#DejaVuSans-6e"/>
      <use x="564.550781" xlink:href="#DejaVuSans-20"/>
      <use x="596.337891" xlink:href="#DejaVuSans-5a"/>
     </g>
    </g>
    <g id="line2d_89">
     <path d="M 561.569063 535.638438 
L 581.569063 535.638438 
" style="fill:none;stroke:#ffa500;stroke-dasharray:5.55,2.4;stroke-dashoffset:0;stroke-width:1.5;"/>
    </g>
    <g id="line2d_90"/>
    <g id="text_45">
     <!-- Desired X Orientation -->
     <g transform="translate(589.569063 539.138438)scale(0.1 -0.1)">
      <use xlink:href="#DejaVuSans-44"/>
      <use x="77.001953" xlink:href="#DejaVuSans-65"/>
      <use x="138.525391" xlink:href="#DejaVuSans-73"/>
      <use x="190.625" xlink:href="#DejaVuSans-69"/>
      <use x="218.408203" xlink:href="#DejaVuSans-72"/>
      <use x="259.490234" xlink:href="#DejaVuSans-65"/>
      <use x="321.013672" xlink:href="#DejaVuSans-64"/>
      <use x="384.490234" xlink:href="#DejaVuSans-20"/>
      <use x="416.277344" xlink:href="#DejaVuSans-58"/>
      <use x="484.783203" xlink:href="#DejaVuSans-20"/>
      <use x="516.570312" xlink:href="#DejaVuSans-4f"/>
      <use x="595.28125" xlink:href="#DejaVuSans-72"/>
      <use x="636.394531" xlink:href="#DejaVuSans-69"/>
      <use x="664.177734" xlink:href="#DejaVuSans-65"/>
      <use x="725.701172" xlink:href="#DejaVuSans-6e"/>
      <use x="789.080078" xlink:href="#DejaVuSans-74"/>
      <use x="828.289062" xlink:href="#DejaVuSans-61"/>
      <use x="889.568359" xlink:href="#DejaVuSans-74"/>
      <use x="928.777344" xlink:href="#DejaVuSans-69"/>
      <use x="956.560547" xlink:href="#DejaVuSans-6f"/>
      <use x="1017.742188" xlink:href="#DejaVuSans-6e"/>
     </g>
    </g>
    <g id="line2d_91">
     <path d="M 561.569063 550.316563 
L 581.569063 550.316563 
" style="fill:none;stroke:#800080;stroke-dasharray:5.55,2.4;stroke-dashoffset:0;stroke-width:1.5;"/>
    </g>
    <g id="line2d_92"/>
    <g id="text_46">
     <!-- Desired Y Orientation -->
     <g transform="translate(589.569063 553.816563)scale(0.1 -0.1)">
      <use xlink:href="#DejaVuSans-44"/>
      <use x="77.001953" xlink:href="#DejaVuSans-65"/>
      <use x="138.525391" xlink:href="#DejaVuSans-73"/>
      <use x="190.625" xlink:href="#DejaVuSans-69"/>
      <use x="218.408203" xlink:href="#DejaVuSans-72"/>
      <use x="259.490234" xlink:href="#DejaVuSans-65"/>
      <use x="321.013672" xlink:href="#DejaVuSans-64"/>
      <use x="384.490234" xlink:href="#DejaVuSans-20"/>
      <use x="416.277344" xlink:href="#DejaVuSans-59"/>
      <use x="477.361328" xlink:href="#DejaVuSans-20"/>
      <use x="509.148438" xlink:href="#DejaVuSans-4f"/>
      <use x="587.859375" xlink:href="#DejaVuSans-72"/>
      <use x="628.972656" xlink:href="#DejaVuSans-69"/>
      <use x="656.755859" xlink:href="#DejaVuSans-65"/>
      <use x="718.279297" xlink:href="#DejaVuSans-6e"/>
      <use x="781.658203" xlink:href="#DejaVuSans-74"/>
      <use x="820.867188" xlink:href="#DejaVuSans-61"/>
      <use x="882.146484" xlink:href="#DejaVuSans-74"/>
      <use x="921.355469" xlink:href="#DejaVuSans-69"/>
      <use x="949.138672" xlink:href="#DejaVuSans-6f"/>
      <use x="1010.320312" xlink:href="#DejaVuSans-6e"/>
     </g>
    </g>
    <g id="line2d_93">
     <path d="M 561.569063 564.994688 
L 581.569063 564.994688 
" style="fill:none;stroke:#00ffff;stroke-dasharray:5.55,2.4;stroke-dashoffset:0;stroke-width:1.5;"/>
    </g>
    <g id="line2d_94"/>
    <g id="text_47">
     <!-- Desired Z Orientation -->
     <g transform="translate(589.569063 568.494688)scale(0.1 -0.1)">
      <use xlink:href="#DejaVuSans-44"/>
      <use x="77.001953" xlink:href="#DejaVuSans-65"/>
      <use x="138.525391" xlink:href="#DejaVuSans-73"/>
      <use x="190.625" xlink:href="#DejaVuSans-69"/>
      <use x="218.408203" xlink:href="#DejaVuSans-72"/>
      <use x="259.490234" xlink:href="#DejaVuSans-65"/>
      <use x="321.013672" xlink:href="#DejaVuSans-64"/>
      <use x="384.490234" xlink:href="#DejaVuSans-20"/>
      <use x="416.277344" xlink:href="#DejaVuSans-5a"/>
      <use x="484.783203" xlink:href="#DejaVuSans-20"/>
      <use x="516.570312" xlink:href="#DejaVuSans-4f"/>
      <use x="595.28125" xlink:href="#DejaVuSans-72"/>
      <use x="636.394531" xlink:href="#DejaVuSans-69"/>
      <use x="664.177734" xlink:href="#DejaVuSans-65"/>
      <use x="725.701172" xlink:href="#DejaVuSans-6e"/>
      <use x="789.080078" xlink:href="#DejaVuSans-74"/>
      <use x="828.289062" xlink:href="#DejaVuSans-61"/>
      <use x="889.568359" xlink:href="#DejaVuSans-74"/>
      <use x="928.777344" xlink:href="#DejaVuSans-69"/>
      <use x="956.560547" xlink:href="#DejaVuSans-6f"/>
      <use x="1017.742188" xlink:href="#DejaVuSans-6e"/>
     </g>
    </g>
   </g>
  </g>
 </g>
 <defs>
  <clipPath id="p22fdcec6c2">
   <rect height="298" width="644.29" x="62.39" y="25.44"/>
  </clipPath>
  <clipPath id="pae3ee7ee0c">
   <rect height="298" width="644.29" x="62.39" y="380.04"/>
  </clipPath>
 </defs>
</svg>
