<?xml version="1.0" encoding="utf-8" standalone="no"?>
<!DOCTYPE svg PUBLIC "-//W3C//DTD SVG 1.1//EN"
  "http://www.w3.org/Graphics/SVG/1.1/DTD/svg11.dtd">
<!-- Created with matplotlib (http://matplotlib.org/) -->
<svg height="432pt" version="1.1" viewBox="0 0 720 432" width="720pt" xmlns="http://www.w3.org/2000/svg" xmlns:xlink="http://www.w3.org/1999/xlink">
 <defs>
  <style type="text/css">
*{stroke-linecap:butt;stroke-linejoin:round;}
  </style>
 </defs>
 <g id="figure_1">
  <g id="patch_1">
   <path d="M 0 432 
L 720 432 
L 720 0 
L 0 0 
z
" style="fill:#ffffff;"/>
  </g>
  <g id="axes_1">
   <g id="patch_2">
    <path d="M 90 384.48 
L 648 384.48 
L 648 51.84 
L 90 51.84 
z
" style="fill:#ffffff;"/>
   </g>
   <g id="matplotlib.axis_1">
    <g id="xtick_1">
     <g id="line2d_1">
      <path clip-path="url(#p0bcc111bbe)" d="M 115.103156 384.48 
L 115.103156 51.84 
" style="fill:none;stroke:#b0b0b0;stroke-linecap:square;stroke-width:0.8;"/>
     </g>
     <g id="line2d_2">
      <defs>
       <path d="M 0 0 
L 0 3.5 
" id="m26e8097440" style="stroke:#000000;stroke-width:0.8;"/>
      </defs>
      <g>
       <use style="stroke:#000000;stroke-width:0.8;" x="115.103156" xlink:href="#m26e8097440" y="384.48"/>
      </g>
     </g>
     <g id="text_1">
      <!-- 0 -->
      <defs>
       <path d="M 31.78125 66.40625 
Q 24.171875 66.40625 20.328125 58.90625 
Q 16.5 51.421875 16.5 36.375 
Q 16.5 21.390625 20.328125 13.890625 
Q 24.171875 6.390625 31.78125 6.390625 
Q 39.453125 6.390625 43.28125 13.890625 
Q 47.125 21.390625 47.125 36.375 
Q 47.125 51.421875 43.28125 58.90625 
Q 39.453125 66.40625 31.78125 66.40625 
z
M 31.78125 74.21875 
Q 44.046875 74.21875 50.515625 64.515625 
Q 56.984375 54.828125 56.984375 36.375 
Q 56.984375 17.96875 50.515625 8.265625 
Q 44.046875 -1.421875 31.78125 -1.421875 
Q 19.53125 -1.421875 13.0625 8.265625 
Q 6.59375 17.96875 6.59375 36.375 
Q 6.59375 54.828125 13.0625 64.515625 
Q 19.53125 74.21875 31.78125 74.21875 
z
" id="DejaVuSans-30"/>
      </defs>
      <g transform="translate(111.921906 399.078438)scale(0.1 -0.1)">
       <use xlink:href="#DejaVuSans-30"/>
      </g>
     </g>
    </g>
    <g id="xtick_2">
     <g id="line2d_3">
      <path clip-path="url(#p0bcc111bbe)" d="M 178.069689 384.48 
L 178.069689 51.84 
" style="fill:none;stroke:#b0b0b0;stroke-linecap:square;stroke-width:0.8;"/>
     </g>
     <g id="line2d_4">
      <g>
       <use style="stroke:#000000;stroke-width:0.8;" x="178.069689" xlink:href="#m26e8097440" y="384.48"/>
      </g>
     </g>
     <g id="text_2">
      <!-- 25 -->
      <defs>
       <path d="M 19.1875 8.296875 
L 53.609375 8.296875 
L 53.609375 0 
L 7.328125 0 
L 7.328125 8.296875 
Q 12.9375 14.109375 22.625 23.890625 
Q 32.328125 33.6875 34.8125 36.53125 
Q 39.546875 41.84375 41.421875 45.53125 
Q 43.3125 49.21875 43.3125 52.78125 
Q 43.3125 58.59375 39.234375 62.25 
Q 35.15625 65.921875 28.609375 65.921875 
Q 23.96875 65.921875 18.8125 64.3125 
Q 13.671875 62.703125 7.8125 59.421875 
L 7.8125 69.390625 
Q 13.765625 71.78125 18.9375 73 
Q 24.125 74.21875 28.421875 74.21875 
Q 39.75 74.21875 46.484375 68.546875 
Q 53.21875 62.890625 53.21875 53.421875 
Q 53.21875 48.921875 51.53125 44.890625 
Q 49.859375 40.875 45.40625 35.40625 
Q 44.1875 33.984375 37.640625 27.21875 
Q 31.109375 20.453125 19.1875 8.296875 
z
" id="DejaVuSans-32"/>
       <path d="M 10.796875 72.90625 
L 49.515625 72.90625 
L 49.515625 64.59375 
L 19.828125 64.59375 
L 19.828125 46.734375 
Q 21.96875 47.46875 24.109375 47.828125 
Q 26.265625 48.1875 28.421875 48.1875 
Q 40.625 48.1875 47.75 41.5 
Q 54.890625 34.8125 54.890625 23.390625 
Q 54.890625 11.625 47.5625 5.09375 
Q 40.234375 -1.421875 26.90625 -1.421875 
Q 22.3125 -1.421875 17.546875 -0.640625 
Q 12.796875 0.140625 7.71875 1.703125 
L 7.71875 11.625 
Q 12.109375 9.234375 16.796875 8.0625 
Q 21.484375 6.890625 26.703125 6.890625 
Q 35.15625 6.890625 40.078125 11.328125 
Q 45.015625 15.765625 45.015625 23.390625 
Q 45.015625 31 40.078125 35.4375 
Q 35.15625 39.890625 26.703125 39.890625 
Q 22.75 39.890625 18.8125 39.015625 
Q 14.890625 38.140625 10.796875 36.28125 
z
" id="DejaVuSans-35"/>
      </defs>
      <g transform="translate(171.707189 399.078438)scale(0.1 -0.1)">
       <use xlink:href="#DejaVuSans-32"/>
       <use x="63.623047" xlink:href="#DejaVuSans-35"/>
      </g>
     </g>
    </g>
    <g id="xtick_3">
     <g id="line2d_5">
      <path clip-path="url(#p0bcc111bbe)" d="M 241.036222 384.48 
L 241.036222 51.84 
" style="fill:none;stroke:#b0b0b0;stroke-linecap:square;stroke-width:0.8;"/>
     </g>
     <g id="line2d_6">
      <g>
       <use style="stroke:#000000;stroke-width:0.8;" x="241.036222" xlink:href="#m26e8097440" y="384.48"/>
      </g>
     </g>
     <g id="text_3">
      <!-- 50 -->
      <g transform="translate(234.673722 399.078438)scale(0.1 -0.1)">
       <use xlink:href="#DejaVuSans-35"/>
       <use x="63.623047" xlink:href="#DejaVuSans-30"/>
      </g>
     </g>
    </g>
    <g id="xtick_4">
     <g id="line2d_7">
      <path clip-path="url(#p0bcc111bbe)" d="M 304.002755 384.48 
L 304.002755 51.84 
" style="fill:none;stroke:#b0b0b0;stroke-linecap:square;stroke-width:0.8;"/>
     </g>
     <g id="line2d_8">
      <g>
       <use style="stroke:#000000;stroke-width:0.8;" x="304.002755" xlink:href="#m26e8097440" y="384.48"/>
      </g>
     </g>
     <g id="text_4">
      <!-- 75 -->
      <defs>
       <path d="M 8.203125 72.90625 
L 55.078125 72.90625 
L 55.078125 68.703125 
L 28.609375 0 
L 18.3125 0 
L 43.21875 64.59375 
L 8.203125 64.59375 
z
" id="DejaVuSans-37"/>
      </defs>
      <g transform="translate(297.640255 399.078438)scale(0.1 -0.1)">
       <use xlink:href="#DejaVuSans-37"/>
       <use x="63.623047" xlink:href="#DejaVuSans-35"/>
      </g>
     </g>
    </g>
    <g id="xtick_5">
     <g id="line2d_9">
      <path clip-path="url(#p0bcc111bbe)" d="M 366.969288 384.48 
L 366.969288 51.84 
" style="fill:none;stroke:#b0b0b0;stroke-linecap:square;stroke-width:0.8;"/>
     </g>
     <g id="line2d_10">
      <g>
       <use style="stroke:#000000;stroke-width:0.8;" x="366.969288" xlink:href="#m26e8097440" y="384.48"/>
      </g>
     </g>
     <g id="text_5">
      <!-- 100 -->
      <defs>
       <path d="M 12.40625 8.296875 
L 28.515625 8.296875 
L 28.515625 63.921875 
L 10.984375 60.40625 
L 10.984375 69.390625 
L 28.421875 72.90625 
L 38.28125 72.90625 
L 38.28125 8.296875 
L 54.390625 8.296875 
L 54.390625 0 
L 12.40625 0 
z
" id="DejaVuSans-31"/>
      </defs>
      <g transform="translate(357.425538 399.078438)scale(0.1 -0.1)">
       <use xlink:href="#DejaVuSans-31"/>
       <use x="63.623047" xlink:href="#DejaVuSans-30"/>
       <use x="127.246094" xlink:href="#DejaVuSans-30"/>
      </g>
     </g>
    </g>
    <g id="xtick_6">
     <g id="line2d_11">
      <path clip-path="url(#p0bcc111bbe)" d="M 429.93582 384.48 
L 429.93582 51.84 
" style="fill:none;stroke:#b0b0b0;stroke-linecap:square;stroke-width:0.8;"/>
     </g>
     <g id="line2d_12">
      <g>
       <use style="stroke:#000000;stroke-width:0.8;" x="429.93582" xlink:href="#m26e8097440" y="384.48"/>
      </g>
     </g>
     <g id="text_6">
      <!-- 125 -->
      <g transform="translate(420.39207 399.078438)scale(0.1 -0.1)">
       <use xlink:href="#DejaVuSans-31"/>
       <use x="63.623047" xlink:href="#DejaVuSans-32"/>
       <use x="127.246094" xlink:href="#DejaVuSans-35"/>
      </g>
     </g>
    </g>
    <g id="xtick_7">
     <g id="line2d_13">
      <path clip-path="url(#p0bcc111bbe)" d="M 492.902353 384.48 
L 492.902353 51.84 
" style="fill:none;stroke:#b0b0b0;stroke-linecap:square;stroke-width:0.8;"/>
     </g>
     <g id="line2d_14">
      <g>
       <use style="stroke:#000000;stroke-width:0.8;" x="492.902353" xlink:href="#m26e8097440" y="384.48"/>
      </g>
     </g>
     <g id="text_7">
      <!-- 150 -->
      <g transform="translate(483.358603 399.078438)scale(0.1 -0.1)">
       <use xlink:href="#DejaVuSans-31"/>
       <use x="63.623047" xlink:href="#DejaVuSans-35"/>
       <use x="127.246094" xlink:href="#DejaVuSans-30"/>
      </g>
     </g>
    </g>
    <g id="xtick_8">
     <g id="line2d_15">
      <path clip-path="url(#p0bcc111bbe)" d="M 555.868886 384.48 
L 555.868886 51.84 
" style="fill:none;stroke:#b0b0b0;stroke-linecap:square;stroke-width:0.8;"/>
     </g>
     <g id="line2d_16">
      <g>
       <use style="stroke:#000000;stroke-width:0.8;" x="555.868886" xlink:href="#m26e8097440" y="384.48"/>
      </g>
     </g>
     <g id="text_8">
      <!-- 175 -->
      <g transform="translate(546.325136 399.078438)scale(0.1 -0.1)">
       <use xlink:href="#DejaVuSans-31"/>
       <use x="63.623047" xlink:href="#DejaVuSans-37"/>
       <use x="127.246094" xlink:href="#DejaVuSans-35"/>
      </g>
     </g>
    </g>
    <g id="xtick_9">
     <g id="line2d_17">
      <path clip-path="url(#p0bcc111bbe)" d="M 618.835419 384.48 
L 618.835419 51.84 
" style="fill:none;stroke:#b0b0b0;stroke-linecap:square;stroke-width:0.8;"/>
     </g>
     <g id="line2d_18">
      <g>
       <use style="stroke:#000000;stroke-width:0.8;" x="618.835419" xlink:href="#m26e8097440" y="384.48"/>
      </g>
     </g>
     <g id="text_9">
      <!-- 200 -->
      <g transform="translate(609.291669 399.078438)scale(0.1 -0.1)">
       <use xlink:href="#DejaVuSans-32"/>
       <use x="63.623047" xlink:href="#DejaVuSans-30"/>
       <use x="127.246094" xlink:href="#DejaVuSans-30"/>
      </g>
     </g>
    </g>
    <g id="text_10">
     <!-- Time (seconds) -->
     <defs>
      <path d="M -0.296875 72.90625 
L 61.375 72.90625 
L 61.375 64.59375 
L 35.5 64.59375 
L 35.5 0 
L 25.59375 0 
L 25.59375 64.59375 
L -0.296875 64.59375 
z
" id="DejaVuSans-54"/>
      <path d="M 9.421875 54.6875 
L 18.40625 54.6875 
L 18.40625 0 
L 9.421875 0 
z
M 9.421875 75.984375 
L 18.40625 75.984375 
L 18.40625 64.59375 
L 9.421875 64.59375 
z
" id="DejaVuSans-69"/>
      <path d="M 52 44.1875 
Q 55.375 50.25 60.0625 53.125 
Q 64.75 56 71.09375 56 
Q 79.640625 56 84.28125 50.015625 
Q 88.921875 44.046875 88.921875 33.015625 
L 88.921875 0 
L 79.890625 0 
L 79.890625 32.71875 
Q 79.890625 40.578125 77.09375 44.375 
Q 74.3125 48.1875 68.609375 48.1875 
Q 61.625 48.1875 57.5625 43.546875 
Q 53.515625 38.921875 53.515625 30.90625 
L 53.515625 0 
L 44.484375 0 
L 44.484375 32.71875 
Q 44.484375 40.625 41.703125 44.40625 
Q 38.921875 48.1875 33.109375 48.1875 
Q 26.21875 48.1875 22.15625 43.53125 
Q 18.109375 38.875 18.109375 30.90625 
L 18.109375 0 
L 9.078125 0 
L 9.078125 54.6875 
L 18.109375 54.6875 
L 18.109375 46.1875 
Q 21.1875 51.21875 25.484375 53.609375 
Q 29.78125 56 35.6875 56 
Q 41.65625 56 45.828125 52.96875 
Q 50 49.953125 52 44.1875 
z
" id="DejaVuSans-6d"/>
      <path d="M 56.203125 29.59375 
L 56.203125 25.203125 
L 14.890625 25.203125 
Q 15.484375 15.921875 20.484375 11.0625 
Q 25.484375 6.203125 34.421875 6.203125 
Q 39.59375 6.203125 44.453125 7.46875 
Q 49.3125 8.734375 54.109375 11.28125 
L 54.109375 2.78125 
Q 49.265625 0.734375 44.1875 -0.34375 
Q 39.109375 -1.421875 33.890625 -1.421875 
Q 20.796875 -1.421875 13.15625 6.1875 
Q 5.515625 13.8125 5.515625 26.8125 
Q 5.515625 40.234375 12.765625 48.109375 
Q 20.015625 56 32.328125 56 
Q 43.359375 56 49.78125 48.890625 
Q 56.203125 41.796875 56.203125 29.59375 
z
M 47.21875 32.234375 
Q 47.125 39.59375 43.09375 43.984375 
Q 39.0625 48.390625 32.421875 48.390625 
Q 24.90625 48.390625 20.390625 44.140625 
Q 15.875 39.890625 15.1875 32.171875 
z
" id="DejaVuSans-65"/>
      <path id="DejaVuSans-20"/>
      <path d="M 31 75.875 
Q 24.46875 64.65625 21.28125 53.65625 
Q 18.109375 42.671875 18.109375 31.390625 
Q 18.109375 20.125 21.3125 9.0625 
Q 24.515625 -2 31 -13.1875 
L 23.1875 -13.1875 
Q 15.875 -1.703125 12.234375 9.375 
Q 8.59375 20.453125 8.59375 31.390625 
Q 8.59375 42.28125 12.203125 53.3125 
Q 15.828125 64.359375 23.1875 75.875 
z
" id="DejaVuSans-28"/>
      <path d="M 44.28125 53.078125 
L 44.28125 44.578125 
Q 40.484375 46.53125 36.375 47.5 
Q 32.28125 48.484375 27.875 48.484375 
Q 21.1875 48.484375 17.84375 46.4375 
Q 14.5 44.390625 14.5 40.28125 
Q 14.5 37.15625 16.890625 35.375 
Q 19.28125 33.59375 26.515625 31.984375 
L 29.59375 31.296875 
Q 39.15625 29.25 43.1875 25.515625 
Q 47.21875 21.78125 47.21875 15.09375 
Q 47.21875 7.46875 41.1875 3.015625 
Q 35.15625 -1.421875 24.609375 -1.421875 
Q 20.21875 -1.421875 15.453125 -0.5625 
Q 10.6875 0.296875 5.421875 2 
L 5.421875 11.28125 
Q 10.40625 8.6875 15.234375 7.390625 
Q 20.0625 6.109375 24.8125 6.109375 
Q 31.15625 6.109375 34.5625 8.28125 
Q 37.984375 10.453125 37.984375 14.40625 
Q 37.984375 18.0625 35.515625 20.015625 
Q 33.0625 21.96875 24.703125 23.78125 
L 21.578125 24.515625 
Q 13.234375 26.265625 9.515625 29.90625 
Q 5.8125 33.546875 5.8125 39.890625 
Q 5.8125 47.609375 11.28125 51.796875 
Q 16.75 56 26.8125 56 
Q 31.78125 56 36.171875 55.265625 
Q 40.578125 54.546875 44.28125 53.078125 
z
" id="DejaVuSans-73"/>
      <path d="M 48.78125 52.59375 
L 48.78125 44.1875 
Q 44.96875 46.296875 41.140625 47.34375 
Q 37.3125 48.390625 33.40625 48.390625 
Q 24.65625 48.390625 19.8125 42.84375 
Q 14.984375 37.3125 14.984375 27.296875 
Q 14.984375 17.28125 19.8125 11.734375 
Q 24.65625 6.203125 33.40625 6.203125 
Q 37.3125 6.203125 41.140625 7.25 
Q 44.96875 8.296875 48.78125 10.40625 
L 48.78125 2.09375 
Q 45.015625 0.34375 40.984375 -0.53125 
Q 36.96875 -1.421875 32.421875 -1.421875 
Q 20.0625 -1.421875 12.78125 6.34375 
Q 5.515625 14.109375 5.515625 27.296875 
Q 5.515625 40.671875 12.859375 48.328125 
Q 20.21875 56 33.015625 56 
Q 37.15625 56 41.109375 55.140625 
Q 45.0625 54.296875 48.78125 52.59375 
z
" id="DejaVuSans-63"/>
      <path d="M 30.609375 48.390625 
Q 23.390625 48.390625 19.1875 42.75 
Q 14.984375 37.109375 14.984375 27.296875 
Q 14.984375 17.484375 19.15625 11.84375 
Q 23.34375 6.203125 30.609375 6.203125 
Q 37.796875 6.203125 41.984375 11.859375 
Q 46.1875 17.53125 46.1875 27.296875 
Q 46.1875 37.015625 41.984375 42.703125 
Q 37.796875 48.390625 30.609375 48.390625 
z
M 30.609375 56 
Q 42.328125 56 49.015625 48.375 
Q 55.71875 40.765625 55.71875 27.296875 
Q 55.71875 13.875 49.015625 6.21875 
Q 42.328125 -1.421875 30.609375 -1.421875 
Q 18.84375 -1.421875 12.171875 6.21875 
Q 5.515625 13.875 5.515625 27.296875 
Q 5.515625 40.765625 12.171875 48.375 
Q 18.84375 56 30.609375 56 
z
" id="DejaVuSans-6f"/>
      <path d="M 54.890625 33.015625 
L 54.890625 0 
L 45.90625 0 
L 45.90625 32.71875 
Q 45.90625 40.484375 42.875 44.328125 
Q 39.84375 48.1875 33.796875 48.1875 
Q 26.515625 48.1875 22.3125 43.546875 
Q 18.109375 38.921875 18.109375 30.90625 
L 18.109375 0 
L 9.078125 0 
L 9.078125 54.6875 
L 18.109375 54.6875 
L 18.109375 46.1875 
Q 21.34375 51.125 25.703125 53.5625 
Q 30.078125 56 35.796875 56 
Q 45.21875 56 50.046875 50.171875 
Q 54.890625 44.34375 54.890625 33.015625 
z
" id="DejaVuSans-6e"/>
      <path d="M 45.40625 46.390625 
L 45.40625 75.984375 
L 54.390625 75.984375 
L 54.390625 0 
L 45.40625 0 
L 45.40625 8.203125 
Q 42.578125 3.328125 38.25 0.953125 
Q 33.9375 -1.421875 27.875 -1.421875 
Q 17.96875 -1.421875 11.734375 6.484375 
Q 5.515625 14.40625 5.515625 27.296875 
Q 5.515625 40.1875 11.734375 48.09375 
Q 17.96875 56 27.875 56 
Q 33.9375 56 38.25 53.625 
Q 42.578125 51.265625 45.40625 46.390625 
z
M 14.796875 27.296875 
Q 14.796875 17.390625 18.875 11.75 
Q 22.953125 6.109375 30.078125 6.109375 
Q 37.203125 6.109375 41.296875 11.75 
Q 45.40625 17.390625 45.40625 27.296875 
Q 45.40625 37.203125 41.296875 42.84375 
Q 37.203125 48.484375 30.078125 48.484375 
Q 22.953125 48.484375 18.875 42.84375 
Q 14.796875 37.203125 14.796875 27.296875 
z
" id="DejaVuSans-64"/>
      <path d="M 8.015625 75.875 
L 15.828125 75.875 
Q 23.140625 64.359375 26.78125 53.3125 
Q 30.421875 42.28125 30.421875 31.390625 
Q 30.421875 20.453125 26.78125 9.375 
Q 23.140625 -1.703125 15.828125 -13.1875 
L 8.015625 -13.1875 
Q 14.5 -2 17.703125 9.0625 
Q 20.90625 20.125 20.90625 31.390625 
Q 20.90625 42.671875 17.703125 53.65625 
Q 14.5 64.65625 8.015625 75.875 
z
" id="DejaVuSans-29"/>
     </defs>
     <g transform="translate(330.684375 412.756563)scale(0.1 -0.1)">
      <use xlink:href="#DejaVuSans-54"/>
      <use x="61.037109" xlink:href="#DejaVuSans-69"/>
      <use x="88.820312" xlink:href="#DejaVuSans-6d"/>
      <use x="186.232422" xlink:href="#DejaVuSans-65"/>
      <use x="247.755859" xlink:href="#DejaVuSans-20"/>
      <use x="279.542969" xlink:href="#DejaVuSans-28"/>
      <use x="318.556641" xlink:href="#DejaVuSans-73"/>
      <use x="370.65625" xlink:href="#DejaVuSans-65"/>
      <use x="432.179688" xlink:href="#DejaVuSans-63"/>
      <use x="487.160156" xlink:href="#DejaVuSans-6f"/>
      <use x="548.341797" xlink:href="#DejaVuSans-6e"/>
      <use x="611.720703" xlink:href="#DejaVuSans-64"/>
      <use x="675.197266" xlink:href="#DejaVuSans-73"/>
      <use x="727.296875" xlink:href="#DejaVuSans-29"/>
     </g>
    </g>
   </g>
   <g id="matplotlib.axis_2">
    <g id="ytick_1">
     <g id="line2d_19">
      <path clip-path="url(#p0bcc111bbe)" d="M 90 345.046879 
L 648 345.046879 
" style="fill:none;stroke:#b0b0b0;stroke-linecap:square;stroke-width:0.8;"/>
     </g>
     <g id="line2d_20">
      <defs>
       <path d="M 0 0 
L -3.5 0 
" id="m25d9dcac29" style="stroke:#000000;stroke-width:0.8;"/>
      </defs>
      <g>
       <use style="stroke:#000000;stroke-width:0.8;" x="90" xlink:href="#m25d9dcac29" y="345.046879"/>
      </g>
     </g>
     <g id="text_11">
      <!-- −0.03 -->
      <defs>
       <path d="M 10.59375 35.5 
L 73.1875 35.5 
L 73.1875 27.203125 
L 10.59375 27.203125 
z
" id="DejaVuSans-2212"/>
       <path d="M 10.6875 12.40625 
L 21 12.40625 
L 21 0 
L 10.6875 0 
z
" id="DejaVuSans-2e"/>
       <path d="M 40.578125 39.3125 
Q 47.65625 37.796875 51.625 33 
Q 55.609375 28.21875 55.609375 21.1875 
Q 55.609375 10.40625 48.1875 4.484375 
Q 40.765625 -1.421875 27.09375 -1.421875 
Q 22.515625 -1.421875 17.65625 -0.515625 
Q 12.796875 0.390625 7.625 2.203125 
L 7.625 11.71875 
Q 11.71875 9.328125 16.59375 8.109375 
Q 21.484375 6.890625 26.8125 6.890625 
Q 36.078125 6.890625 40.9375 10.546875 
Q 45.796875 14.203125 45.796875 21.1875 
Q 45.796875 27.640625 41.28125 31.265625 
Q 36.765625 34.90625 28.71875 34.90625 
L 20.21875 34.90625 
L 20.21875 43.015625 
L 29.109375 43.015625 
Q 36.375 43.015625 40.234375 45.921875 
Q 44.09375 48.828125 44.09375 54.296875 
Q 44.09375 59.90625 40.109375 62.90625 
Q 36.140625 65.921875 28.71875 65.921875 
Q 24.65625 65.921875 20.015625 65.03125 
Q 15.375 64.15625 9.8125 62.3125 
L 9.8125 71.09375 
Q 15.4375 72.65625 20.34375 73.4375 
Q 25.25 74.21875 29.59375 74.21875 
Q 40.828125 74.21875 47.359375 69.109375 
Q 53.90625 64.015625 53.90625 55.328125 
Q 53.90625 49.265625 50.4375 45.09375 
Q 46.96875 40.921875 40.578125 39.3125 
z
" id="DejaVuSans-33"/>
      </defs>
      <g transform="translate(52.354687 348.846097)scale(0.1 -0.1)">
       <use xlink:href="#DejaVuSans-2212"/>
       <use x="83.789062" xlink:href="#DejaVuSans-30"/>
       <use x="147.412109" xlink:href="#DejaVuSans-2e"/>
       <use x="179.199219" xlink:href="#DejaVuSans-30"/>
       <use x="242.822266" xlink:href="#DejaVuSans-33"/>
      </g>
     </g>
    </g>
    <g id="ytick_2">
     <g id="line2d_21">
      <path clip-path="url(#p0bcc111bbe)" d="M 90 272.450986 
L 648 272.450986 
" style="fill:none;stroke:#b0b0b0;stroke-linecap:square;stroke-width:0.8;"/>
     </g>
     <g id="line2d_22">
      <g>
       <use style="stroke:#000000;stroke-width:0.8;" x="90" xlink:href="#m25d9dcac29" y="272.450986"/>
      </g>
     </g>
     <g id="text_12">
      <!-- −0.02 -->
      <g transform="translate(52.354687 276.250205)scale(0.1 -0.1)">
       <use xlink:href="#DejaVuSans-2212"/>
       <use x="83.789062" xlink:href="#DejaVuSans-30"/>
       <use x="147.412109" xlink:href="#DejaVuSans-2e"/>
       <use x="179.199219" xlink:href="#DejaVuSans-30"/>
       <use x="242.822266" xlink:href="#DejaVuSans-32"/>
      </g>
     </g>
    </g>
    <g id="ytick_3">
     <g id="line2d_23">
      <path clip-path="url(#p0bcc111bbe)" d="M 90 199.855094 
L 648 199.855094 
" style="fill:none;stroke:#b0b0b0;stroke-linecap:square;stroke-width:0.8;"/>
     </g>
     <g id="line2d_24">
      <g>
       <use style="stroke:#000000;stroke-width:0.8;" x="90" xlink:href="#m25d9dcac29" y="199.855094"/>
      </g>
     </g>
     <g id="text_13">
      <!-- −0.01 -->
      <g transform="translate(52.354687 203.654313)scale(0.1 -0.1)">
       <use xlink:href="#DejaVuSans-2212"/>
       <use x="83.789062" xlink:href="#DejaVuSans-30"/>
       <use x="147.412109" xlink:href="#DejaVuSans-2e"/>
       <use x="179.199219" xlink:href="#DejaVuSans-30"/>
       <use x="242.822266" xlink:href="#DejaVuSans-31"/>
      </g>
     </g>
    </g>
    <g id="ytick_4">
     <g id="line2d_25">
      <path clip-path="url(#p0bcc111bbe)" d="M 90 127.259202 
L 648 127.259202 
" style="fill:none;stroke:#b0b0b0;stroke-linecap:square;stroke-width:0.8;"/>
     </g>
     <g id="line2d_26">
      <g>
       <use style="stroke:#000000;stroke-width:0.8;" x="90" xlink:href="#m25d9dcac29" y="127.259202"/>
      </g>
     </g>
     <g id="text_14">
      <!-- 0.00 -->
      <g transform="translate(60.734375 131.05842)scale(0.1 -0.1)">
       <use xlink:href="#DejaVuSans-30"/>
       <use x="63.623047" xlink:href="#DejaVuSans-2e"/>
       <use x="95.410156" xlink:href="#DejaVuSans-30"/>
       <use x="159.033203" xlink:href="#DejaVuSans-30"/>
      </g>
     </g>
    </g>
    <g id="ytick_5">
     <g id="line2d_27">
      <path clip-path="url(#p0bcc111bbe)" d="M 90 54.663309 
L 648 54.663309 
" style="fill:none;stroke:#b0b0b0;stroke-linecap:square;stroke-width:0.8;"/>
     </g>
     <g id="line2d_28">
      <g>
       <use style="stroke:#000000;stroke-width:0.8;" x="90" xlink:href="#m25d9dcac29" y="54.663309"/>
      </g>
     </g>
     <g id="text_15">
      <!-- 0.01 -->
      <g transform="translate(60.734375 58.462528)scale(0.1 -0.1)">
       <use xlink:href="#DejaVuSans-30"/>
       <use x="63.623047" xlink:href="#DejaVuSans-2e"/>
       <use x="95.410156" xlink:href="#DejaVuSans-30"/>
       <use x="159.033203" xlink:href="#DejaVuSans-31"/>
      </g>
     </g>
    </g>
    <g id="text_16">
     <!-- Velocity (m/s) -->
     <defs>
      <path d="M 28.609375 0 
L 0.78125 72.90625 
L 11.078125 72.90625 
L 34.1875 11.53125 
L 57.328125 72.90625 
L 67.578125 72.90625 
L 39.796875 0 
z
" id="DejaVuSans-56"/>
      <path d="M 9.421875 75.984375 
L 18.40625 75.984375 
L 18.40625 0 
L 9.421875 0 
z
" id="DejaVuSans-6c"/>
      <path d="M 18.3125 70.21875 
L 18.3125 54.6875 
L 36.8125 54.6875 
L 36.8125 47.703125 
L 18.3125 47.703125 
L 18.3125 18.015625 
Q 18.3125 11.328125 20.140625 9.421875 
Q 21.96875 7.515625 27.59375 7.515625 
L 36.8125 7.515625 
L 36.8125 0 
L 27.59375 0 
Q 17.1875 0 13.234375 3.875 
Q 9.28125 7.765625 9.28125 18.015625 
L 9.28125 47.703125 
L 2.6875 47.703125 
L 2.6875 54.6875 
L 9.28125 54.6875 
L 9.28125 70.21875 
z
" id="DejaVuSans-74"/>
      <path d="M 32.171875 -5.078125 
Q 28.375 -14.84375 24.75 -17.8125 
Q 21.140625 -20.796875 15.09375 -20.796875 
L 7.90625 -20.796875 
L 7.90625 -13.28125 
L 13.1875 -13.28125 
Q 16.890625 -13.28125 18.9375 -11.515625 
Q 21 -9.765625 23.484375 -3.21875 
L 25.09375 0.875 
L 2.984375 54.6875 
L 12.5 54.6875 
L 29.59375 11.921875 
L 46.6875 54.6875 
L 56.203125 54.6875 
z
" id="DejaVuSans-79"/>
      <path d="M 25.390625 72.90625 
L 33.6875 72.90625 
L 8.296875 -9.28125 
L 0 -9.28125 
z
" id="DejaVuSans-2f"/>
     </defs>
     <g transform="translate(46.275 252.807656)rotate(-90)scale(0.1 -0.1)">
      <use xlink:href="#DejaVuSans-56"/>
      <use x="68.298828" xlink:href="#DejaVuSans-65"/>
      <use x="129.822266" xlink:href="#DejaVuSans-6c"/>
      <use x="157.605469" xlink:href="#DejaVuSans-6f"/>
      <use x="218.787109" xlink:href="#DejaVuSans-63"/>
      <use x="273.767578" xlink:href="#DejaVuSans-69"/>
      <use x="301.550781" xlink:href="#DejaVuSans-74"/>
      <use x="340.759766" xlink:href="#DejaVuSans-79"/>
      <use x="399.939453" xlink:href="#DejaVuSans-20"/>
      <use x="431.726562" xlink:href="#DejaVuSans-28"/>
      <use x="470.740234" xlink:href="#DejaVuSans-6d"/>
      <use x="568.152344" xlink:href="#DejaVuSans-2f"/>
      <use x="601.84375" xlink:href="#DejaVuSans-73"/>
      <use x="653.943359" xlink:href="#DejaVuSans-29"/>
     </g>
    </g>
   </g>
   <g id="line2d_29">
    <path clip-path="url(#p0bcc111bbe)" d="M 115.363636 128.856357 
L 119.65108 128.838792 
L 119.901309 130.595359 
L 120.15474 128.854467 
L 121.161534 128.872244 
L 121.418105 128.687546 
L 121.916493 128.877248 
L 122.704876 128.848566 
L 122.9628 130.596363 
L 123.216401 128.853962 
L 123.968995 128.899897 
L 126.243525 128.854242 
L 126.499076 130.596858 
L 126.74997 128.856427 
L 128.013006 128.854253 
L 128.264836 128.722159 
L 128.514721 128.8566 
L 128.769083 128.729063 
L 129.023367 128.905404 
L 129.271044 128.685521 
L 129.523696 128.690843 
L 129.77425 129.739377 
L 130.030541 128.881307 
L 131.037785 128.761343 
L 131.390241 128.300424 
L 131.647152 127.455281 
L 132.14868 124.221501 
L 132.663585 118.197326 
L 133.17174 112.08297 
L 133.678296 101.502365 
L 133.931227 96.17631 
L 134.437655 93.3096 
L 134.689402 94.920498 
L 134.941898 97.344776 
L 135.19245 103.95231 
L 135.447195 105.281358 
L 135.700975 112.18589 
L 135.951575 115.239315 
L 136.457445 124.134502 
L 136.959991 129.660078 
L 137.468657 132.917408 
L 137.721747 133.640383 
L 137.973042 131.492862 
L 138.225719 134.077272 
L 138.731501 134.06119 
L 138.984587 134.488429 
L 139.239133 134.095399 
L 140.248496 134.071252 
L 140.501319 131.546071 
L 140.756095 134.070497 
L 141.514169 134.067739 
L 141.774634 134.515699 
L 142.020155 136.503152 
L 142.272165 134.051841 
L 143.028882 134.068369 
L 144.04292 134.022235 
L 144.549206 133.659018 
L 144.804299 133.289002 
L 145.057829 133.129853 
L 145.30961 132.157693 
L 145.566357 131.755905 
L 146.066745 130.662547 
L 146.319759 126.937434 
L 146.569316 129.450902 
L 147.073348 127.483694 
L 147.322547 127.455281 
L 147.575853 127.143504 
L 147.833022 126.484775 
L 148.085973 126.776195 
L 149.094644 126.747893 
L 149.855801 127.194181 
L 150.111392 127.674356 
L 150.369936 127.566921 
L 152.398161 130.078661 
L 152.641673 130.332643 
L 152.897563 130.384742 
L 153.154444 134.143305 
L 153.406061 130.48401 
L 153.659161 134.188877 
L 153.912055 130.493331 
L 154.416323 130.693403 
L 154.922552 131.318578 
L 155.423493 132.3423 
L 156.433179 135.1607 
L 156.685746 134.977694 
L 156.937876 136.503096 
L 157.191856 134.400341 
L 157.442195 137.558064 
L 157.950801 138.135871 
L 158.463117 138.305871 
L 158.715613 138.300521 
L 158.965 138.60963 
L 159.219446 138.423553 
L 159.474692 138.574902 
L 159.723846 137.928827 
L 159.981666 139.323487 
L 162.520857 147.107826 
L 162.775952 147.262428 
L 163.279795 147.716764 
L 163.786429 147.830774 
L 164.037736 147.782614 
L 164.541914 148.101682 
L 164.794341 148.411721 
L 165.049684 148.923909 
L 166.826833 154.924874 
L 167.583673 157.39358 
L 167.835925 157.528132 
L 168.341682 158.008117 
L 168.595075 158.113461 
L 168.844966 156.864123 
L 169.099656 158.125655 
L 169.350479 158.204791 
L 169.602035 158.441895 
L 170.10783 159.593399 
L 170.358752 160.346145 
L 170.611432 165.664463 
L 170.863091 162.438114 
L 171.115237 162.46262 
L 171.366582 164.782606 
L 171.622385 166.035836 
L 171.871536 165.402429 
L 172.131169 168.189099 
L 172.886115 170.348332 
L 173.390059 170.926405 
L 173.893706 171.253836 
L 174.149975 171.072211 
L 174.404553 171.084297 
L 174.905571 171.789677 
L 175.419604 173.115141 
L 176.436627 177.120546 
L 177.193948 180.079681 
L 177.706982 181.520491 
L 178.207221 182.262365 
L 178.714182 182.593762 
L 178.959283 182.619756 
L 179.214212 182.526595 
L 179.466889 182.6446 
L 179.725256 182.89125 
L 179.979827 183.416868 
L 180.230632 182.280163 
L 180.734017 185.197364 
L 182.498427 191.277821 
L 183.014172 192.242923 
L 183.2705 192.561556 
L 184.024495 192.924682 
L 184.527081 192.812755 
L 184.777355 193.022547 
L 185.042444 192.297264 
L 185.289187 193.808613 
L 186.044829 196.070525 
L 186.80765 198.450739 
L 187.566861 200.705064 
L 188.579899 201.749796 
L 189.593028 201.900053 
L 190.09634 202.348668 
L 190.348178 202.770183 
L 190.605875 206.199959 
L 190.855031 203.91535 
L 191.116702 207.502062 
L 191.370032 205.390383 
L 192.376141 208.249344 
L 192.627446 207.912574 
L 192.879234 209.206913 
L 193.137283 209.577238 
L 193.387885 209.419243 
L 193.639315 209.956502 
L 193.892589 210.01226 
L 194.190534 209.698291 
L 194.454518 210.032107 
L 194.709129 210.057042 
L 194.962471 210.21012 
L 195.21324 209.86832 
L 195.467813 210.869198 
L 195.973699 211.908183 
L 198.00205 216.857474 
L 198.254291 217.281542 
L 199.262922 217.54962 
L 199.768379 217.61447 
L 200.52464 218.325667 
L 200.778831 218.281709 
L 201.030798 219.306514 
L 201.282752 222.428794 
L 201.543348 220.567917 
L 202.544884 223.159724 
L 203.052711 224.053706 
L 203.553832 224.577503 
L 204.060171 224.89365 
L 204.313052 224.77025 
L 204.564608 224.776445 
L 204.818595 224.080282 
L 205.072234 224.954402 
L 205.328518 227.464918 
L 205.57746 224.75562 
L 205.826518 225.955063 
L 206.334008 226.98688 
L 207.598691 230.131916 
L 207.852028 230.358343 
L 208.099897 231.024878 
L 208.355292 231.38107 
L 209.111278 231.732675 
L 209.365887 231.304617 
L 209.615048 231.714118 
L 209.867902 231.307652 
L 210.121188 231.944621 
L 210.624991 232.37477 
L 211.126081 233.052514 
L 211.628987 234.354834 
L 212.89031 237.136646 
L 213.141564 237.467444 
L 213.396256 237.010708 
L 213.65854 240.280086 
L 213.899754 238.095019 
L 214.150913 237.616058 
L 214.408383 238.118596 
L 214.660682 238.237179 
L 214.908652 238.16485 
L 215.667416 238.528588 
L 216.423992 239.305563 
L 217.180731 240.218166 
L 217.433066 239.840321 
L 217.685826 240.66246 
L 218.444653 241.278232 
L 218.694477 241.198405 
L 218.946839 240.61861 
L 219.198204 241.286165 
L 219.450811 241.261475 
L 219.703566 241.099957 
L 220.209348 241.43271 
L 220.789429 241.431503 
L 221.042403 241.733894 
L 221.295088 241.246311 
L 221.546428 242.14691 
L 222.309474 242.861603 
L 223.318848 243.4996 
L 224.076667 243.686135 
L 225.591353 243.825965 
L 226.347482 244.219053 
L 227.357012 244.847965 
L 228.369383 245.33388 
L 229.374888 245.4813 
L 230.633893 245.552194 
L 231.644149 245.840219 
L 233.1765 246.296607 
L 234.18538 246.419247 
L 239.248002 246.40447 
L 241.017221 246.316736 
L 242.023096 246.031637 
L 244.049533 245.391011 
L 246.083339 245.161606 
L 246.84457 244.74302 
L 248.868614 243.382331 
L 249.62561 243.248857 
L 250.638885 243.167829 
L 251.147007 242.936925 
L 251.902283 242.281643 
L 253.670983 240.371534 
L 254.173584 240.102614 
L 254.929808 240.007104 
L 255.686756 239.897096 
L 256.193755 239.573741 
L 256.696178 239.010867 
L 257.705853 237.428431 
L 258.476121 236.308536 
L 258.985427 235.81827 
L 259.507575 235.580019 
L 260.769392 235.393685 
L 261.272892 234.968308 
L 261.776582 234.238541 
L 262.787663 232.163882 
L 263.545468 230.710196 
L 264.046178 230.075996 
L 264.554129 229.768416 
L 265.817683 229.534509 
L 266.31995 228.992781 
L 266.823634 228.071378 
L 267.83638 225.463464 
L 268.595001 223.646117 
L 269.099794 222.856498 
L 269.608659 222.473301 
L 270.865209 222.163962 
L 271.365027 221.531456 
L 271.872421 220.395901 
L 272.883579 217.238311 
L 273.639207 215.020179 
L 274.146304 214.059625 
L 274.64738 213.608992 
L 275.907791 213.26505 
L 276.456289 212.472828 
L 277.006806 211.143899 
L 278.014875 207.410732 
L 278.777045 204.772955 
L 279.282762 203.664258 
L 279.791438 203.127381 
L 280.292263 203.050681 
L 280.798134 202.934293 
L 281.308125 202.36761 
L 281.813794 201.118305 
L 282.570209 198.233966 
L 283.585436 193.949234 
L 284.09347 192.263575 
L 284.599197 191.360397 
L 284.850096 191.09709 
L 285.104801 191.009316 
L 285.352418 191.141023 
L 286.113308 190.639637 
L 286.364298 190.244674 
L 286.616403 187.783162 
L 286.870443 188.845708 
L 287.623842 185.616274 
L 288.887706 179.782792 
L 289.390903 178.371489 
L 289.643038 175.74374 
L 289.896559 177.670456 
L 290.653663 177.536698 
L 290.922205 178.430652 
L 291.171707 177.161651 
L 291.676741 176.496939 
L 293.714947 166.410908 
L 294.216728 164.476822 
L 294.721692 163.324068 
L 294.975397 163.04691 
L 295.48711 162.918067 
L 297.757411 162.887762 
L 298.008102 162.746242 
L 298.26336 162.42391 
L 298.770004 161.170438 
L 299.279346 159.054437 
L 301.300979 148.916754 
L 301.805203 147.816227 
L 302.311662 147.491186 
L 303.066402 147.405365 
L 303.576965 147.017189 
L 304.075287 146.266699 
L 304.834507 144.547807 
L 306.097072 141.665077 
L 306.599968 140.998046 
L 307.108156 140.707153 
L 308.928503 140.386405 
L 309.686217 139.853323 
L 311.221057 138.611971 
L 311.993991 138.310833 
L 313.001934 138.258748 
L 316.037085 138.162989 
L 317.806797 138.070979 
L 318.814173 138.188995 
L 321.591911 138.998685 
L 323.606088 139.12021 
L 324.36485 139.569775 
L 325.628137 140.431492 
L 326.384604 140.614978 
L 328.659998 140.790045 
L 329.167526 141.158151 
L 330.432587 142.34621 
L 330.933697 142.559923 
L 331.69359 142.590139 
L 333.213358 142.54685 
L 333.71571 142.705563 
L 334.222792 143.102049 
L 335.236608 144.021485 
L 335.739099 144.191637 
L 336.245295 144.146545 
L 337.254701 143.825294 
L 338.261488 143.787139 
L 338.765064 143.89957 
L 340.288305 144.493284 
L 340.791208 144.302051 
L 342.308581 143.249261 
L 343.061019 143.166987 
L 345.087679 143.078043 
L 345.592973 142.678529 
L 347.363076 140.792888 
L 347.86537 140.679423 
L 349.136455 140.596537 
L 349.64355 140.380556 
L 350.147209 139.904231 
L 350.648929 139.11988 
L 351.918526 136.663009 
L 352.436521 136.107805 
L 352.941442 135.943667 
L 353.959714 135.827855 
L 354.4666 135.516693 
L 354.969479 134.912947 
L 355.725026 133.41707 
L 356.986865 130.525361 
L 357.490867 129.91628 
L 357.994282 129.733281 
L 359.005107 129.653834 
L 359.761924 129.307476 
L 360.519404 128.659882 
L 362.044595 127.198714 
L 362.545181 126.968887 
L 363.301475 126.898244 
L 364.058297 127.015069 
L 364.565361 127.320131 
L 365.069754 127.869387 
L 365.828011 129.100469 
L 367.088821 131.228626 
L 367.595067 131.660808 
L 368.098962 131.786831 
L 368.604375 131.814446 
L 368.861407 131.929376 
L 369.36493 132.564122 
L 369.864907 133.855331 
L 370.62351 136.945124 
L 371.885788 142.577782 
L 372.389258 143.93615 
L 372.894128 144.545231 
L 373.907358 144.817007 
L 374.166906 145.147486 
L 374.66948 146.45569 
L 375.175091 148.60308 
L 377.192305 158.669332 
L 377.699412 159.72463 
L 378.206187 160.02414 
L 378.709941 160.059869 
L 378.962654 160.185539 
L 379.468346 160.910196 
L 379.983868 162.358969 
L 380.74135 165.445124 
L 381.749679 169.47553 
L 382.254078 170.811741 
L 382.760347 171.532992 
L 383.266346 171.741464 
L 384.024438 171.841813 
L 384.528215 172.292401 
L 385.043116 173.149905 
L 387.059755 177.601816 
L 387.569378 178.132842 
L 388.076065 178.354037 
L 389.339025 178.518995 
L 389.84408 178.849889 
L 390.855398 179.948772 
L 391.86559 180.940383 
L 392.624362 181.313175 
L 393.377635 181.407322 
L 394.651244 181.516209 
L 397.436914 182.260869 
L 400.218606 182.264251 
L 401.484836 182.081117 
L 403.25522 181.747936 
L 405.028401 181.594851 
L 405.786263 181.27795 
L 408.068264 180.105483 
L 410.089427 179.777942 
L 410.851057 179.207451 
L 412.632076 177.555384 
L 413.141634 177.332502 
L 413.89564 177.265713 
L 414.65716 177.152037 
L 415.158258 176.855029 
L 415.92618 176.040207 
L 417.704609 173.780424 
L 418.213444 173.48605 
L 418.975349 173.395605 
L 419.492282 173.343702 
L 420.017574 173.09702 
L 420.518885 172.589932 
L 421.278249 171.425514 
L 422.542864 169.366831 
L 423.044164 168.87341 
L 423.548987 168.654486 
L 424.811209 168.456599 
L 425.313288 168.024714 
L 426.073254 166.853998 
L 427.586713 164.09062 
L 428.094973 163.556854 
L 428.599411 163.316859 
L 429.866469 163.109806 
L 430.37341 162.651426 
L 431.129875 161.445873 
L 432.643338 158.584067 
L 433.153521 158.037334 
L 433.651702 157.792501 
L 434.917027 157.581146 
L 435.419034 157.128739 
L 435.922177 156.391987 
L 437.944856 152.811704 
L 438.450089 152.427757 
L 438.954021 152.314714 
L 439.712793 152.25051 
L 440.215346 151.963474 
L 440.722939 151.37329 
L 441.479283 150.068452 
L 442.485479 148.192334 
L 442.993367 147.517735 
L 443.499058 147.147325 
L 444.003357 147.035343 
L 444.761079 146.978155 
L 445.011487 146.51911 
L 445.263685 146.69985 
L 445.768639 146.130401 
L 446.272324 145.436265 
L 446.526812 145.236167 
L 446.780708 145.226122 
L 447.031405 145.419641 
L 447.548915 146.411025 
L 448.812398 149.905536 
L 449.067458 150.120352 
L 449.321093 149.984978 
L 449.574012 149.465009 
L 450.07992 147.313243 
L 452.098448 135.56847 
L 452.603732 134.436346 
L 453.107509 134.087768 
L 454.885198 134.06955 
L 622.636364 134.06955 
L 622.636364 134.06955 
" style="fill:none;stroke:#ff0000;stroke-linecap:square;stroke-width:1.5;"/>
   </g>
   <g id="line2d_30">
    <path clip-path="url(#p0bcc111bbe)" d="M 115.363636 69.97701 
L 119.397723 69.975713 
L 119.65108 70.093514 
L 119.901309 72.393936 
L 120.15474 69.978353 
L 121.161534 70.018174 
L 121.418105 69.63813 
L 121.665944 69.979518 
L 122.454527 69.97295 
L 122.704876 69.988153 
L 122.9628 72.392908 
L 123.216401 69.97872 
L 124.982016 70.024379 
L 125.486546 69.979405 
L 125.739861 70.090603 
L 126.243525 69.978068 
L 126.499076 72.392385 
L 126.74997 69.979151 
L 128.013006 69.979146 
L 128.264836 69.685233 
L 128.514721 69.978959 
L 128.769083 68.935829 
L 129.271044 69.624877 
L 129.523696 69.630159 
L 129.77425 69.494505 
L 130.030541 70.052114 
L 130.537432 69.977081 
L 130.786614 69.96085 
L 131.037785 69.307372 
L 131.390241 69.682056 
L 131.898076 68.66636 
L 132.410019 67.336686 
L 132.663585 66.96 
L 132.919542 67.020547 
L 133.17174 69.787886 
L 133.424544 69.924089 
L 133.931227 77.312251 
L 135.447195 117.648628 
L 135.951575 124.293541 
L 136.206888 126.062366 
L 136.457445 126.952697 
L 136.710016 127.271438 
L 136.959991 127.287309 
L 137.721747 126.895837 
L 137.973042 126.966753 
L 138.225719 126.823643 
L 140.248496 126.823746 
L 140.501319 126.955397 
L 140.756095 126.823905 
L 145.566357 126.911339 
L 146.066745 126.966535 
L 146.319759 127.245536 
L 146.569316 127.045171 
L 147.322547 127.228605 
L 148.588829 127.298947 
L 149.855801 127.256243 
L 150.878025 127.14357 
L 152.897563 126.904974 
L 153.154444 127.0061 
L 153.406061 126.896466 
L 153.659161 127.003656 
L 154.163521 126.885022 
L 155.17238 126.758605 
L 156.937876 126.313234 
L 157.191856 126.449649 
L 157.442195 126.224631 
L 158.965 126.071287 
L 159.474692 126.148456 
L 161.260312 125.982361 
L 164.794341 126.048157 
L 165.812541 126.241834 
L 166.826833 126.660489 
L 167.331012 126.903746 
L 167.583673 126.930292 
L 168.087894 127.133073 
L 168.595075 127.175455 
L 168.844966 127.02635 
L 169.099656 127.196876 
L 170.358752 127.163852 
L 170.611432 128.73215 
L 170.863091 127.12921 
L 171.115237 126.985053 
L 171.871536 127.199464 
L 172.38339 127.023953 
L 175.671281 126.966685 
L 177.951468 126.770355 
L 179.466889 126.769014 
L 179.725256 126.764453 
L 179.979827 126.63001 
L 180.230632 127.141341 
L 180.481982 126.507151 
L 180.734017 126.72794 
L 181.998453 126.596485 
L 184.024495 126.375897 
L 184.275756 126.527463 
L 184.777355 126.467098 
L 185.042444 126.980938 
L 185.289187 126.440774 
L 186.80765 126.284164 
L 188.076998 126.183748 
L 188.834082 126.13437 
L 189.339001 126.175658 
L 190.348178 126.170806 
L 190.605875 128.448263 
L 190.855031 126.087134 
L 191.116702 128.431527 
L 191.370032 126.018338 
L 192.376141 125.930306 
L 192.627446 125.73699 
L 192.879234 125.884667 
L 193.137283 125.871952 
L 193.387885 126.570499 
L 193.639315 125.938441 
L 193.892589 125.913713 
L 194.190534 125.627426 
L 194.454518 125.919634 
L 194.962471 125.870168 
L 195.21324 126.527971 
L 195.467813 125.869998 
L 197.011838 125.713224 
L 197.249506 125.813705 
L 198.00205 125.695348 
L 198.508089 125.63444 
L 199.768379 125.64044 
L 200.019518 125.498563 
L 200.271071 125.630694 
L 200.52464 125.627617 
L 200.778831 126.30818 
L 201.030798 125.598286 
L 201.282752 128.207819 
L 201.543348 125.566959 
L 202.038578 125.542614 
L 204.564608 125.471377 
L 204.818595 125.107733 
L 205.072234 125.41789 
L 205.328518 128.189208 
L 205.57746 125.082738 
L 205.826518 125.50518 
L 206.334008 125.384557 
L 207.090307 125.39333 
L 207.598691 125.412475 
L 207.852028 125.041797 
L 208.099897 125.406353 
L 208.355292 125.439595 
L 208.856621 125.22884 
L 209.111278 125.465299 
L 209.365887 126.114456 
L 209.615048 125.357336 
L 209.867902 126.001401 
L 210.121188 125.428664 
L 210.875845 125.323945 
L 211.126081 125.105297 
L 211.383458 125.399017 
L 212.393991 125.201199 
L 212.89031 125.392599 
L 213.141564 125.264217 
L 213.396256 124.735633 
L 213.65854 128.293875 
L 213.899754 125.337525 
L 214.150913 125.865104 
L 214.408383 125.292553 
L 214.908652 125.389781 
L 215.415527 125.981481 
L 215.922227 127.245578 
L 216.928963 131.397052 
L 217.935526 135.505492 
L 218.444653 136.980422 
L 218.694477 137.225754 
L 218.946839 138.011394 
L 219.198204 137.627317 
L 219.450811 137.575182 
L 219.703566 137.171332 
L 220.209348 138.042455 
L 220.789429 138.173883 
L 221.042403 139.075078 
L 221.295088 139.066972 
L 221.798208 141.413291 
L 223.318848 146.017086 
L 223.827866 146.764252 
L 224.330208 147.010956 
L 225.086369 147.078087 
L 225.591353 147.419145 
L 226.093181 148.134458 
L 228.619851 153.568117 
L 229.124321 153.940709 
L 230.633893 154.285029 
L 231.139956 154.802417 
L 231.906216 156.015559 
L 233.1765 158.114131 
L 233.681205 158.66587 
L 234.18538 158.913852 
L 235.712563 159.14691 
L 236.478717 159.738406 
L 238.492404 161.910109 
L 239.001846 162.162685 
L 239.755629 162.247587 
L 240.763436 162.363404 
L 241.520296 162.716389 
L 243.796886 164.064228 
L 244.558993 164.168993 
L 246.083339 164.262907 
L 247.606797 164.664518 
L 248.868614 164.922397 
L 250.38552 164.961868 
L 253.417163 164.843564 
L 256.696178 164.592189 
L 259.507575 163.82882 
L 261.024091 163.728392 
L 261.776582 163.44006 
L 264.298847 162.121336 
L 265.817683 162.042602 
L 266.571599 161.730731 
L 267.581091 160.927681 
L 268.846036 159.968304 
L 269.608659 159.728024 
L 271.118508 159.540513 
L 271.872421 159.019803 
L 274.146304 156.863344 
L 274.907093 156.686003 
L 275.907791 156.591845 
L 276.753905 156.114672 
L 277.515817 155.240831 
L 278.777045 153.64854 
L 279.533119 153.175467 
L 280.292263 153.079287 
L 281.049086 152.96764 
L 281.557435 152.660333 
L 282.315642 151.782628 
L 284.09347 149.370062 
L 284.850096 148.973271 
L 285.104801 148.945394 
L 285.352418 148.799475 
L 285.6088 148.936313 
L 286.113308 148.817246 
L 286.364298 148.680147 
L 286.616403 147.835525 
L 286.870443 148.206019 
L 287.372336 147.517967 
L 288.887706 145.111596 
L 289.390903 144.629105 
L 289.643038 143.697412 
L 289.896559 144.386633 
L 290.653663 144.349602 
L 290.922205 144.754437 
L 291.171707 144.219945 
L 291.676741 143.916314 
L 292.695711 142.359701 
L 293.969063 140.199578 
L 294.468383 139.672486 
L 294.975397 139.417892 
L 295.993555 139.373879 
L 298.008102 139.315643 
L 298.519508 139.027142 
L 299.026006 138.448082 
L 299.781469 137.144852 
L 301.045922 134.918449 
L 301.551576 134.391741 
L 302.057724 134.158137 
L 303.823237 133.915643 
L 304.580238 133.499037 
L 306.346984 132.353555 
L 307.108156 132.174771 
L 313.758139 131.920787 
L 315.021283 132.24435 
L 316.544031 132.631079 
L 317.806797 132.698234 
L 318.562876 132.770184 
L 319.317734 133.081536 
L 321.843032 134.542331 
L 322.852532 134.62048 
L 323.606088 134.745203 
L 324.114195 135.062013 
L 325.122548 136.166083 
L 325.880882 137.009708 
L 326.638251 137.542713 
L 327.397474 137.73693 
L 328.40592 137.818867 
L 328.909492 138.146007 
L 329.421057 138.776584 
L 330.933697 141.164725 
L 331.439966 141.647659 
L 331.944096 141.923344 
L 332.702785 142.042781 
L 333.46512 142.13471 
L 333.969686 142.558261 
L 334.724028 143.843236 
L 335.739099 145.726051 
L 336.245295 146.257996 
L 336.747528 146.645788 
L 337.506358 146.816265 
L 338.511263 146.919377 
L 339.025612 147.359953 
L 339.784588 148.577885 
L 340.543478 149.807666 
L 341.044326 150.269948 
L 341.551272 150.451378 
L 342.812396 150.453613 
L 343.568698 150.515026 
L 344.079525 150.794213 
L 345.343394 151.800484 
L 345.848605 151.770707 
L 346.349969 151.427669 
L 347.363076 150.651083 
L 347.86537 150.543386 
L 349.64355 150.432836 
L 350.147209 149.957108 
L 350.648929 148.950489 
L 352.436521 144.12909 
L 352.941442 143.837903 
L 353.707531 143.758991 
L 354.210205 143.409952 
L 354.716104 142.575878 
L 355.220665 141.114351 
L 355.977258 137.759448 
L 356.986865 133.079799 
L 357.490867 131.781263 
L 357.745174 131.487293 
L 358.247607 131.37626 
L 358.751613 131.323288 
L 359.257499 131.063544 
L 359.761924 130.5226 
L 360.519404 129.209787 
L 361.786366 126.619869 
L 362.292655 125.971039 
L 362.798838 125.675014 
L 363.554363 125.653915 
L 364.058297 125.926327 
L 364.565361 126.686289 
L 365.069754 128.054077 
L 365.828011 131.119545 
L 366.837712 135.60288 
L 367.343667 137.059477 
L 367.845817 137.72965 
L 368.861407 138.145173 
L 369.109268 138.700466 
L 369.36493 139.633773 
L 369.864907 142.661517 
L 370.62351 149.881726 
L 371.885788 162.927965 
L 372.389258 166.053006 
L 372.643733 166.973596 
L 372.894128 167.454089 
L 373.148073 167.631319 
L 373.652729 167.723677 
L 373.907358 168.069856 
L 374.166906 168.814515 
L 374.417239 170.009052 
L 374.921555 173.928094 
L 375.678602 182.693923 
L 376.690013 195.057034 
L 377.192305 199.297502 
L 377.699412 201.685696 
L 377.954819 202.190179 
L 378.206187 202.36683 
L 378.709941 202.446613 
L 378.962654 202.726586 
L 379.217306 203.356433 
L 379.724516 205.766671 
L 380.236251 209.684309 
L 382.002708 225.494871 
L 382.509851 227.876253 
L 383.012117 228.905023 
L 383.520343 229.042075 
L 383.771313 229.082298 
L 384.024438 229.253319 
L 384.276798 229.640411 
L 384.78958 231.127364 
L 385.291839 233.476629 
L 387.059755 242.338119 
L 387.569378 243.572553 
L 388.076065 244.090191 
L 389.339025 244.440126 
L 389.84408 245.124661 
L 390.602917 246.777026 
L 391.612265 248.988702 
L 392.117262 249.726208 
L 392.624362 250.146646 
L 393.126731 250.313563 
L 394.651244 250.475672 
L 396.421863 251.034633 
L 397.436914 250.937402 
L 398.702733 250.845071 
L 399.458399 250.785707 
L 400.218606 250.475868 
L 400.978915 249.830184 
L 402.751199 248.026344 
L 403.25522 247.847817 
L 404.519374 247.673174 
L 405.028401 247.276989 
L 405.532229 246.596412 
L 406.549403 244.651844 
L 407.313844 243.252092 
L 407.820281 242.64232 
L 408.320787 242.367765 
L 409.588341 242.109018 
L 410.089427 241.534031 
L 410.595209 240.575937 
L 411.865365 237.210975 
L 412.632076 235.582324 
L 413.141634 235.008692 
L 413.638424 234.841763 
L 414.401344 234.741619 
L 414.911235 234.283491 
L 415.412008 233.287586 
L 416.175414 231.066985 
L 417.456272 227.087689 
L 417.961842 226.135007 
L 418.463197 225.710788 
L 419.77411 225.33735 
L 420.267528 224.483729 
L 420.771762 223.09655 
L 422.792882 216.160002 
L 423.296894 215.402177 
L 423.799817 215.172439 
L 424.305799 215.144156 
L 424.559057 215.04152 
L 424.811209 214.81423 
L 425.313288 213.901171 
L 425.819456 212.385435 
L 427.837624 204.978779 
L 428.347527 204.174608 
L 428.851267 203.937838 
L 429.36118 203.909043 
L 429.616172 203.800934 
L 429.866469 203.571389 
L 430.37341 202.622577 
L 430.877198 201.083125 
L 432.897318 193.565709 
L 433.40242 192.740914 
L 433.908266 192.500153 
L 434.409137 192.471593 
L 434.662194 192.367015 
L 435.166909 191.749824 
L 435.668951 190.50079 
L 436.429123 187.667951 
L 437.690992 182.866601 
L 438.193166 181.75431 
L 438.70224 181.253566 
L 439.712793 181.056408 
L 440.215346 180.45059 
L 440.722939 179.203421 
L 441.479283 176.446882 
L 442.485479 172.487601 
L 442.993367 171.064393 
L 443.499058 170.282273 
L 444.003357 170.045046 
L 444.761079 169.916355 
L 445.011487 169.711913 
L 445.517156 168.762317 
L 446.02655 167.218866 
L 446.780708 164.003845 
L 447.548915 159.68171 
L 448.310772 153.7407 
L 449.321093 143.341012 
L 450.331491 133.378562 
L 450.838221 130.122309 
L 451.342424 128.244329 
L 451.846371 127.315056 
L 452.349596 126.95469 
L 453.107509 126.826488 
L 464.056143 126.823864 
L 622.636364 126.823864 
L 622.636364 126.823864 
" style="fill:none;stroke:#008000;stroke-linecap:square;stroke-width:1.5;"/>
   </g>
   <g id="line2d_31">
    <path clip-path="url(#p0bcc111bbe)" d="M 115.363636 174.152352 
L 119.65108 174.055747 
L 119.901309 172.588482 
L 120.15474 174.150809 
L 121.161534 174.121815 
L 121.418105 174.365685 
L 121.665944 174.147883 
L 122.704876 174.141347 
L 122.9628 172.589396 
L 123.216401 174.15039 
L 126.243525 174.150994 
L 126.499076 172.589946 
L 126.74997 174.150596 
L 128.013006 174.150104 
L 128.264836 174.336345 
L 128.514721 174.150795 
L 128.769083 174.929495 
L 129.023367 174.736852 
L 129.271044 174.376074 
L 129.523696 174.372915 
L 129.77425 174.831789 
L 130.030541 174.097742 
L 130.537432 174.149923 
L 130.786614 174.153665 
L 131.037785 174.581671 
L 131.898076 173.168436 
L 132.410019 171.303644 
L 132.919542 167.630706 
L 135.447195 131.544903 
L 135.951575 128.594533 
L 136.206888 127.829062 
L 136.457445 127.432763 
L 136.959991 127.247787 
L 138.984587 127.409239 
L 141.514169 127.398368 
L 144.04292 127.398368 
L 146.066745 127.35974 
L 146.319759 127.262703 
L 146.820051 127.304295 
L 148.085973 127.245833 
L 151.38111 127.337867 
L 153.659161 127.621156 
L 153.912055 127.458609 
L 155.17238 127.581751 
L 156.182885 127.907081 
L 156.937876 128.222169 
L 157.191856 128.027367 
L 157.442195 128.403538 
L 158.463117 128.545964 
L 159.723846 128.559469 
L 163.027088 130.83365 
L 163.786429 130.913787 
L 164.541914 131.001351 
L 165.049684 131.264991 
L 166.080353 132.394618 
L 167.583673 134.501093 
L 168.595075 134.883924 
L 168.844966 134.605558 
L 169.099656 134.88943 
L 169.602035 135.042248 
L 170.10783 135.55773 
L 170.358752 135.931586 
L 170.611432 137.321371 
L 170.863091 136.979269 
L 171.115237 137.295443 
L 171.622385 138.957509 
L 171.871536 139.038019 
L 172.131169 140.259154 
L 172.886115 141.654938 
L 173.390059 142.046384 
L 173.893706 142.197955 
L 174.404553 142.175467 
L 174.905571 142.625076 
L 175.419604 143.551331 
L 176.186746 145.756742 
L 177.455453 149.87172 
L 177.951468 150.886984 
L 178.455601 151.391929 
L 178.959283 151.506663 
L 179.214212 151.477799 
L 179.725256 151.780954 
L 179.979827 152.215328 
L 180.230632 151.853294 
L 180.734017 154.026354 
L 181.998453 159.112715 
L 182.498427 160.909781 
L 183.014172 162.153258 
L 183.519614 162.742167 
L 184.275756 162.883514 
L 184.527081 162.932109 
L 184.777355 163.165783 
L 185.042444 162.881404 
L 185.53928 164.932162 
L 186.044829 166.958953 
L 187.566861 173.836713 
L 188.076998 175.141928 
L 188.579899 175.799979 
L 189.844118 176.286014 
L 190.348178 177.329036 
L 190.605875 179.612822 
L 190.855031 179.142548 
L 191.116702 181.766177 
L 191.370032 181.55187 
L 192.376141 186.649415 
L 192.627446 187.085597 
L 192.879234 188.527708 
L 193.137283 189.227848 
L 193.387885 189.228814 
L 193.639315 189.947107 
L 193.892589 190.060599 
L 194.190534 189.897713 
L 194.962471 190.42976 
L 195.21324 190.248197 
L 195.722208 192.305707 
L 196.478511 195.729758 
L 198.254291 203.474343 
L 198.75894 204.072895 
L 199.262922 204.188358 
L 199.768379 204.309436 
L 200.271071 204.920511 
L 200.52464 205.494046 
L 200.778831 205.660869 
L 201.030798 207.14998 
L 201.282752 209.812132 
L 201.543348 209.3269 
L 202.79583 214.89136 
L 203.303308 216.248962 
L 203.807088 216.903426 
L 204.060171 217.114481 
L 204.564608 217.017995 
L 204.818595 216.487249 
L 205.072234 217.280054 
L 205.328518 219.100019 
L 205.57746 217.438746 
L 206.079361 219.348104 
L 207.090307 222.966416 
L 207.852028 225.280058 
L 208.355292 226.54783 
L 208.856621 227.072934 
L 209.111278 227.086384 
L 209.365887 226.534821 
L 209.615048 227.09471 
L 209.867902 226.563603 
L 210.121188 227.311739 
L 210.624991 227.776654 
L 211.126081 228.538699 
L 211.880395 230.423842 
L 212.89031 232.649973 
L 213.141564 233.017417 
L 213.396256 232.710587 
L 213.65854 235.133151 
L 213.899754 233.646086 
L 214.150913 233.071626 
L 214.408383 233.680977 
L 214.660682 233.777629 
L 215.16642 233.686805 
L 216.676551 233.42939 
L 217.180731 233.275644 
L 217.433066 232.519802 
L 217.685826 233.083117 
L 218.191307 232.959713 
L 218.444653 233.046346 
L 218.694477 232.885312 
L 218.946839 232.21289 
L 219.198204 232.878786 
L 219.954966 232.869342 
L 220.209348 232.933361 
L 221.042403 232.90365 
L 221.295088 232.335234 
L 221.546428 232.932188 
L 222.309474 232.987229 
L 223.827866 232.956343 
L 226.347482 232.867641 
L 228.116555 232.452845 
L 229.374888 232.325722 
L 230.386017 232.267696 
L 231.139956 231.976745 
L 232.155686 231.230095 
L 233.426966 230.305694 
L 234.18538 230.076162 
L 235.462291 229.946951 
L 235.965376 229.648314 
L 236.721772 228.810354 
L 238.492404 226.483247 
L 239.001846 226.167245 
L 239.506966 226.065081 
L 240.262869 226.012524 
L 240.763436 225.745331 
L 241.268931 225.172411 
L 242.023096 223.830332 
L 243.291368 221.479024 
L 243.796886 220.899506 
L 244.30183 220.627204 
L 245.581509 220.400186 
L 246.083339 219.883049 
L 246.593872 218.999528 
L 247.857263 216.018029 
L 248.612355 214.587887 
L 249.120165 214.069905 
L 249.62561 213.901553 
L 250.38552 213.828933 
L 250.892671 213.443332 
L 251.398133 212.628766 
L 252.153275 210.763526 
L 253.417163 207.462777 
L 253.919112 206.671203 
L 254.429194 206.294453 
L 255.686756 205.997793 
L 256.193755 205.334692 
L 256.696178 204.204969 
L 258.728319 198.6271 
L 259.237282 197.979114 
L 259.759985 197.769326 
L 260.519863 197.678772 
L 261.024091 197.224296 
L 261.527778 196.250085 
L 262.283231 193.993311 
L 263.545468 190.102911 
L 264.046178 189.173146 
L 264.554129 188.729424 
L 265.817683 188.394701 
L 266.31995 187.631402 
L 266.823634 186.358712 
L 268.846036 180.070282 
L 269.348255 179.35676 
L 269.852211 179.120065 
L 270.612789 179.02153 
L 271.118508 178.524712 
L 271.621676 177.453614 
L 272.378423 175.031467 
L 273.639207 170.896546 
L 274.146304 169.914024 
L 274.64738 169.460572 
L 275.907791 169.114147 
L 276.456289 168.326139 
L 277.006806 167.032084 
L 279.026775 160.716458 
L 279.533119 160.022371 
L 280.037478 159.789517 
L 280.798134 159.691568 
L 281.308125 159.217859 
L 281.813794 158.193324 
L 282.570209 155.914411 
L 283.585436 152.716146 
L 284.09347 151.548009 
L 284.599197 150.913692 
L 285.104801 150.688405 
L 285.352418 150.739169 
L 286.113308 150.435718 
L 286.364298 150.164019 
L 286.616403 149.080443 
L 286.870443 149.226009 
L 287.878383 146.394707 
L 288.634734 144.256057 
L 289.139807 143.256904 
L 289.390903 142.925953 
L 289.643038 142.020665 
L 289.896559 142.552651 
L 290.653663 142.480171 
L 290.922205 142.721166 
L 291.426925 142.038011 
L 291.676741 141.823565 
L 293.969063 136.608355 
L 294.468383 135.970143 
L 294.975397 135.671024 
L 295.739035 135.62039 
L 298.008102 135.549977 
L 298.519508 135.20981 
L 299.026006 134.550934 
L 301.300979 130.901471 
L 301.805203 130.610307 
L 302.562629 130.524481 
L 303.576965 130.421216 
L 304.580238 130.024593 
L 306.097072 129.315036 
L 307.108156 129.133069 
L 314.771045 129.018168 
L 317.050808 129.234676 
L 319.063682 129.361941 
L 320.579049 129.863205 
L 321.843032 130.169627 
L 324.114195 130.466322 
L 325.122548 131.140672 
L 326.133005 131.852392 
L 326.888956 132.154257 
L 327.904115 132.237459 
L 328.40592 132.288844 
L 328.909492 132.536488 
L 329.421057 133.032057 
L 331.69359 135.950372 
L 332.199185 136.180934 
L 333.71571 136.520651 
L 334.222792 137.224124 
L 334.977226 139.006052 
L 335.989685 141.685485 
L 337.01005 143.240837 
L 337.506358 143.475959 
L 338.511263 143.669798 
L 338.765064 143.96745 
L 339.274834 145.104245 
L 339.784588 146.944023 
L 341.296845 153.288414 
L 341.803874 154.569162 
L 342.308581 155.244023 
L 342.812396 155.431195 
L 343.317267 155.478378 
L 343.568698 155.674829 
L 343.824543 156.108259 
L 344.327646 157.814953 
L 344.835481 160.636957 
L 346.603143 172.368248 
L 347.107402 174.159212 
L 347.613224 174.934763 
L 348.126993 175.045408 
L 348.375162 175.112036 
L 348.631186 175.412494 
L 348.886357 176.05485 
L 349.391107 178.712026 
L 349.892412 183.036889 
L 351.661768 201.883996 
L 352.18335 204.855794 
L 352.686808 206.106335 
L 352.941442 206.265421 
L 353.449474 206.373173 
L 353.707531 206.776897 
L 353.959714 207.655604 
L 354.4666 211.145574 
L 354.969479 216.887124 
L 356.986865 243.644385 
L 357.490867 246.398614 
L 357.745174 246.999427 
L 357.994282 247.204486 
L 358.501996 247.330797 
L 358.751613 247.78013 
L 359.005107 248.803814 
L 359.508715 252.809544 
L 360.013611 259.308853 
L 362.044595 290.31205 
L 362.545181 293.523066 
L 362.798838 294.237943 
L 363.051495 294.484831 
L 363.554363 294.609988 
L 363.806585 295.072154 
L 364.058297 296.113934 
L 364.565361 300.117268 
L 365.320031 310.649097 
L 366.587748 330.869676 
L 367.088821 336.198518 
L 367.595067 339.168474 
L 367.845817 339.795483 
L 368.098962 340.016777 
L 368.604375 340.112334 
L 368.861407 340.4646 
L 369.109268 341.189072 
L 369.614947 344.048678 
L 370.372346 351.076476 
L 371.38337 361.029749 
L 371.885788 364.478605 
L 372.389258 366.48947 
L 372.894128 367.331727 
L 373.405014 367.448073 
L 373.907358 367.539474 
L 374.417239 367.941497 
L 375.424126 369.200648 
L 375.678602 369.350924 
L 375.933392 369.36 
L 376.182352 369.226196 
L 376.690013 368.60222 
L 377.448556 367.512956 
L 377.954819 367.15982 
L 378.962654 366.939591 
L 379.217306 366.619487 
L 379.724516 365.335069 
L 380.236251 363.039784 
L 380.994916 357.964782 
L 382.002708 350.68679 
L 382.509851 348.297589 
L 383.012117 347.209731 
L 383.520343 347.060933 
L 383.771313 347.009914 
L 384.024438 346.78774 
L 384.276798 346.277493 
L 384.78958 344.252611 
L 385.291839 340.844782 
L 386.053847 333.914128 
L 387.059755 324.927598 
L 387.569378 322.154378 
L 388.076065 320.92576 
L 388.3315 320.771898 
L 388.838126 320.706404 
L 389.087834 320.47894 
L 389.339025 319.962888 
L 389.84408 317.92909 
L 390.347937 314.595183 
L 392.367269 298.021745 
L 392.870475 296.221924 
L 393.126731 295.817496 
L 393.377635 295.677855 
L 393.89148 295.61697 
L 394.140485 295.409533 
L 394.396985 294.978707 
L 394.902571 293.144229 
L 395.406087 290.159439 
L 397.436914 275.828374 
L 397.941316 274.284962 
L 398.199416 273.948418 
L 398.702733 273.818817 
L 398.955382 273.778456 
L 399.208107 273.60195 
L 399.458399 273.1973 
L 399.966773 271.630066 
L 400.480822 268.998342 
L 402.4957 256.601423 
L 403.003667 255.281453 
L 403.25522 254.996388 
L 403.764242 254.885386 
L 404.012217 254.849041 
L 404.272442 254.685252 
L 404.519374 254.32645 
L 405.028401 252.89959 
L 405.532229 250.558619 
L 407.563635 239.499164 
L 408.068264 238.32436 
L 408.320787 238.069858 
L 408.83132 237.969859 
L 409.0783 237.936118 
L 409.332355 237.783921 
L 409.588341 237.450474 
L 410.089427 236.124982 
L 410.595209 233.978021 
L 412.632076 223.736508 
L 413.141634 222.649198 
L 413.638424 222.338487 
L 414.149743 222.298464 
L 414.401344 222.16028 
L 414.911235 221.361566 
L 415.412008 219.657049 
L 416.175414 215.978113 
L 417.200822 210.75553 
L 417.704609 208.931576 
L 418.213444 207.915567 
L 418.463197 207.694836 
L 418.975349 207.607336 
L 419.492282 207.442504 
L 419.77411 207.160489 
L 420.267528 205.960814 
L 420.771762 204.045441 
L 422.792882 195.000113 
L 423.296894 194.062829 
L 423.799817 193.78202 
L 424.305799 193.747009 
L 424.559057 193.62105 
L 424.811209 193.344055 
L 425.313288 192.242309 
L 425.819456 190.442432 
L 427.586713 182.793497 
L 428.094973 181.585146 
L 428.599411 181.047205 
L 429.616172 180.831635 
L 429.866469 180.581835 
L 430.37341 179.559079 
L 430.877198 177.92544 
L 432.897318 170.351068 
L 433.40242 169.559719 
L 433.908266 169.33106 
L 434.409137 169.302449 
L 434.662194 169.197371 
L 435.166909 168.583361 
L 435.668951 167.357932 
L 436.429123 164.651401 
L 437.438716 160.978942 
L 437.944856 159.717793 
L 438.450089 159.022713 
L 438.954021 158.819393 
L 439.712793 158.694713 
L 440.215346 158.139222 
L 440.722939 157.014051 
L 441.479283 154.604345 
L 442.485479 151.319486 
L 442.993367 150.188188 
L 443.499058 149.577956 
L 444.003357 149.39502 
L 444.761079 149.287111 
L 445.768639 147.797243 
L 446.526812 145.546377 
L 447.548915 141.579726 
L 450.07992 130.601668 
L 450.584977 129.225956 
L 451.088112 128.317802 
L 451.591051 127.792048 
L 452.098448 127.53648 
L 452.855706 127.40805 
L 456.39574 127.398119 
L 622.636364 127.398119 
L 622.636364 127.398119 
" style="fill:none;stroke:#0000ff;stroke-linecap:square;stroke-width:1.5;"/>
   </g>
   <g id="line2d_32">
    <path clip-path="url(#p0bcc111bbe)" d="M 115.363636 127.259202 
L 143.280758 127.259202 
L 143.539079 143.450901 
L 148.33555 143.450901 
L 148.588829 158.5181 
L 153.406061 158.5181 
L 153.659161 172.469169 
L 158.463117 172.469169 
L 158.715613 185.310246 
L 163.533099 185.310246 
L 163.786429 197.028496 
L 168.595075 197.028496 
L 168.844966 207.625594 
L 173.644227 207.625594 
L 173.893706 217.112142 
L 178.714182 217.112142 
L 178.959283 225.48256 
L 183.770835 225.48256 
L 184.024495 232.736848 
L 188.834082 232.736848 
L 189.088621 238.875005 
L 193.892589 238.875005 
L 194.190534 243.897033 
L 199.011671 243.897033 
L 199.262922 247.806278 
L 204.060171 247.806278 
L 204.313052 250.592698 
L 209.111278 250.592698 
L 209.365887 252.266892 
L 214.150913 252.266892 
L 214.408383 252.823842 
L 219.198204 252.823842 
L 219.450811 252.264101 
L 224.330208 252.264101 
L 224.581283 250.590465 
L 229.374888 250.590465 
L 229.626001 247.797907 
L 234.437493 247.797907 
L 234.694976 243.892568 
L 239.506966 243.892568 
L 239.755629 238.869425 
L 244.558993 238.869425 
L 244.822118 232.730151 
L 249.62561 232.730151 
L 249.874076 225.474747 
L 254.680208 225.474747 
L 254.929808 217.103213 
L 259.759985 217.103213 
L 260.01375 207.615549 
L 264.804164 207.615549 
L 265.057796 197.011754 
L 269.852211 197.011754 
L 270.104805 185.29183 
L 274.907093 185.29183 
L 275.154015 172.455775 
L 280.037478 172.455775 
L 280.292263 158.50359 
L 285.104801 158.50359 
L 285.352418 143.427462 
L 292.182795 143.427462 
L 292.436929 127.259202 
L 297.25379 127.259202 
L 297.505835 132.840603 
L 302.311662 132.840603 
L 302.562629 138.03438 
L 307.360629 138.03438 
L 307.614737 142.841111 
L 312.498824 142.841111 
L 312.754111 147.269836 
L 317.55381 147.269836 
L 317.806797 151.309205 
L 322.603476 151.309205 
L 322.852532 154.963836 
L 327.650824 154.963836 
L 327.904115 158.233729 
L 332.702785 158.233729 
L 332.951931 161.118883 
L 337.757096 161.118883 
L 338.009332 163.619298 
L 342.812396 163.619298 
L 343.061019 165.736898 
L 347.86537 165.736898 
L 348.126993 167.465914 
L 352.941442 167.465914 
L 353.196462 168.81096 
L 357.994282 168.81096 
L 358.247607 169.773191 
L 363.051495 169.773191 
L 363.301475 170.349914 
L 368.098962 170.349914 
L 368.351911 170.542283 
L 373.148073 170.542283 
L 373.405014 170.349721 
L 378.206187 170.349721 
L 378.456403 169.772036 
L 383.266346 169.772036 
L 383.520343 168.809805 
L 388.3315 168.809805 
L 388.585802 167.462836 
L 393.377635 167.462836 
L 393.636201 165.731128 
L 398.446464 165.731128 
L 398.702733 163.61699 
L 403.5089 163.61699 
L 403.764242 161.113496 
L 408.578774 161.113496 
L 408.83132 158.227573 
L 413.638424 158.227573 
L 413.89564 154.956911 
L 418.722738 154.956911 
L 418.975349 151.30151 
L 423.799817 151.30151 
L 424.053772 147.263488 
L 428.851267 147.263488 
L 429.103503 142.836494 
L 433.908266 142.836494 
L 434.157671 138.026878 
L 438.954021 138.026878 
L 439.206484 132.832523 
L 622.636364 132.832523 
L 622.636364 132.832523 
" style="fill:none;stroke:#ff0000;stroke-dasharray:5.55,2.4;stroke-dashoffset:0;stroke-width:1.5;"/>
   </g>
   <g id="line2d_33">
    <path clip-path="url(#p0bcc111bbe)" d="M 115.363636 127.259202 
L 143.280758 127.259202 
L 143.539079 132.752811 
L 148.33555 132.752811 
L 148.588829 137.864894 
L 153.406061 137.864894 
L 153.659161 142.59829 
L 158.463117 142.59829 
L 158.715613 146.955082 
L 163.533099 146.955082 
L 163.786429 150.930915 
L 168.595075 150.930915 
L 168.844966 154.526357 
L 173.644227 154.526357 
L 173.893706 157.745006 
L 178.714182 157.745006 
L 178.959283 160.584967 
L 183.770835 160.584967 
L 184.024495 163.046242 
L 188.834082 163.046242 
L 189.088621 165.128831 
L 193.892589 165.128831 
L 194.190534 166.832732 
L 199.011671 166.832732 
L 199.262922 168.159082 
L 204.060171 168.159082 
L 204.313052 169.104474 
L 209.111278 169.104474 
L 209.365887 169.672504 
L 214.150913 169.672504 
L 214.408383 169.861469 
L 219.198204 169.861469 
L 219.450811 169.671557 
L 224.330208 169.671557 
L 224.581283 169.103717 
L 229.374888 169.103717 
L 229.626001 168.156242 
L 234.437493 168.156242 
L 234.694976 166.831217 
L 239.506966 166.831217 
L 239.755629 165.126937 
L 244.558993 165.126937 
L 244.822118 163.04397 
L 249.62561 163.04397 
L 249.874076 160.582317 
L 254.680208 160.582317 
L 254.929808 157.741976 
L 259.759985 157.741976 
L 260.01375 154.522949 
L 264.804164 154.522949 
L 265.057796 150.925235 
L 269.852211 150.925235 
L 270.104805 146.948834 
L 274.907093 146.948834 
L 275.154015 142.593746 
L 280.037478 142.593746 
L 280.292263 137.859971 
L 285.104801 137.859971 
L 285.352418 132.744859 
L 292.182795 132.744859 
L 292.436929 127.259202 
L 297.25379 127.259202 
L 297.505835 140.048328 
L 302.311662 140.048328 
L 302.562629 151.94926 
L 307.360629 151.94926 
L 307.614737 162.96332 
L 312.498824 162.96332 
L 312.754111 173.111223 
L 317.55381 173.111223 
L 317.806797 182.366965 
L 322.603476 182.366965 
L 322.852532 190.741123 
L 327.650824 190.741123 
L 327.904115 198.233698 
L 332.702785 198.233698 
L 332.951931 204.84469 
L 337.757096 204.84469 
L 338.009332 210.574099 
L 342.812396 210.574099 
L 343.061019 215.426332 
L 347.86537 215.426332 
L 348.126993 219.388168 
L 352.941442 219.388168 
L 353.196462 222.470183 
L 357.994282 222.470183 
L 358.247607 224.675022 
L 363.051495 224.675022 
L 363.301475 225.996516 
L 368.098962 225.996516 
L 368.351911 226.437307 
L 373.148073 226.437307 
L 373.405014 225.996075 
L 378.206187 225.996075 
L 378.456403 224.672377 
L 383.266346 224.672377 
L 383.520343 222.467538 
L 388.3315 222.467538 
L 388.585802 219.381115 
L 393.377635 219.381115 
L 393.636201 215.413109 
L 398.446464 215.413109 
L 398.702733 210.56881 
L 403.5089 210.56881 
L 403.764242 204.832348 
L 408.578774 204.832348 
L 408.83132 198.219593 
L 413.638424 198.219593 
L 413.89564 190.725255 
L 418.722738 190.725255 
L 418.975349 182.349333 
L 423.799817 182.349333 
L 424.053772 173.096677 
L 428.851267 173.096677 
L 429.103503 162.95274 
L 433.908266 162.95274 
L 434.157671 151.932069 
L 438.954021 151.932069 
L 439.206484 140.029815 
L 622.636364 140.029815 
L 622.636364 140.029815 
" style="fill:none;stroke:#008000;stroke-dasharray:5.55,2.4;stroke-dashoffset:0;stroke-width:1.5;"/>
   </g>
   <g id="line2d_34">
    <path clip-path="url(#p0bcc111bbe)" d="M 115.363636 127.259202 
L 143.280758 127.259202 
L 143.539079 138.003469 
L 148.33555 138.003469 
L 148.588829 148.001554 
L 153.406061 148.001554 
L 153.659161 157.259014 
L 158.463117 157.259014 
L 158.715613 165.77992 
L 163.533099 165.77992 
L 163.786429 173.555757 
L 168.595075 173.555757 
L 168.844966 180.587634 
L 173.644227 180.587634 
L 173.893706 186.882588 
L 178.714182 186.882588 
L 178.959283 192.436916 
L 183.770835 192.436916 
L 184.024495 197.250617 
L 188.834082 197.250617 
L 189.088621 201.323692 
L 193.892589 201.323692 
L 194.190534 204.656141 
L 199.011671 204.656141 
L 199.262922 207.250184 
L 204.060171 207.250184 
L 204.313052 209.099158 
L 209.111278 209.099158 
L 209.365887 210.210098 
L 214.150913 210.210098 
L 214.408383 210.57967 
L 219.198204 210.57967 
L 219.450811 210.208246 
L 224.330208 210.208246 
L 224.581283 209.097677 
L 229.374888 209.097677 
L 229.626001 207.244629 
L 234.437493 207.244629 
L 234.694976 204.653178 
L 239.506966 204.653178 
L 239.755629 201.319989 
L 244.558993 201.319989 
L 244.822118 197.246173 
L 249.62561 197.246173 
L 249.874076 192.431732 
L 254.680208 192.431732 
L 254.929808 186.876663 
L 259.759985 186.876663 
L 260.01375 180.580969 
L 264.804164 180.580969 
L 265.057796 173.544648 
L 269.852211 173.544648 
L 270.104805 165.7677 
L 274.907093 165.7677 
L 275.154015 157.250127 
L 280.037478 157.250127 
L 280.292263 147.991926 
L 285.104801 147.991926 
L 285.352418 137.987915 
L 292.182795 137.987915 
L 292.436929 127.259202 
L 297.25379 127.259202 
L 297.505835 146.547116 
L 302.311662 146.547116 
L 302.562629 164.4955 
L 307.360629 164.4955 
L 307.614737 181.106348 
L 312.498824 181.106348 
L 312.754111 196.410902 
L 317.55381 196.410902 
L 317.806797 210.369944 
L 322.603476 210.369944 
L 322.852532 222.999426 
L 327.650824 222.999426 
L 327.904115 234.29935 
L 332.702785 234.29935 
L 332.951931 244.269714 
L 337.757096 244.269714 
L 338.009332 252.910519 
L 342.812396 252.910519 
L 343.061019 260.22841 
L 347.86537 260.22841 
L 348.126993 266.203451 
L 352.941442 266.203451 
L 353.196462 270.851591 
L 357.994282 270.851591 
L 358.247607 274.176818 
L 363.051495 274.176818 
L 363.301475 276.169827 
L 368.098962 276.169827 
L 368.351911 276.834606 
L 373.148073 276.834606 
L 373.405014 276.169162 
L 378.206187 276.169162 
L 378.456403 274.172829 
L 383.266346 274.172829 
L 383.520343 270.847601 
L 388.3315 270.847601 
L 388.585802 266.192815 
L 393.377635 266.192815 
L 393.636201 260.208469 
L 398.446464 260.208469 
L 398.702733 252.902542 
L 403.5089 252.902542 
L 403.764242 244.2511 
L 408.578774 244.2511 
L 408.83132 234.278077 
L 413.638424 234.278077 
L 413.89564 222.975494 
L 418.722738 222.975494 
L 418.975349 210.343353 
L 423.799817 210.343353 
L 424.053772 196.388965 
L 428.851267 196.388965 
L 429.103503 181.090392 
L 433.908266 181.090392 
L 434.157671 164.469573 
L 438.954021 164.469573 
L 439.206484 146.519195 
L 622.636364 146.519195 
L 622.636364 146.519195 
" style="fill:none;stroke:#0000ff;stroke-dasharray:5.55,2.4;stroke-dashoffset:0;stroke-width:1.5;"/>
   </g>
   <g id="patch_3">
    <path d="M 90 384.48 
L 90 51.84 
" style="fill:none;stroke:#000000;stroke-linecap:square;stroke-linejoin:miter;stroke-width:0.8;"/>
   </g>
   <g id="patch_4">
    <path d="M 648 384.48 
L 648 51.84 
" style="fill:none;stroke:#000000;stroke-linecap:square;stroke-linejoin:miter;stroke-width:0.8;"/>
   </g>
   <g id="patch_5">
    <path d="M 90 384.48 
L 648 384.48 
" style="fill:none;stroke:#000000;stroke-linecap:square;stroke-linejoin:miter;stroke-width:0.8;"/>
   </g>
   <g id="patch_6">
    <path d="M 90 51.84 
L 648 51.84 
" style="fill:none;stroke:#000000;stroke-linecap:square;stroke-linejoin:miter;stroke-width:0.8;"/>
   </g>
   <g id="text_17">
    <!-- Gripper Velocity vs. Reference Velocity over Time -->
    <defs>
     <path d="M 59.515625 10.40625 
L 59.515625 29.984375 
L 43.40625 29.984375 
L 43.40625 38.09375 
L 69.28125 38.09375 
L 69.28125 6.78125 
Q 63.578125 2.734375 56.6875 0.65625 
Q 49.8125 -1.421875 42 -1.421875 
Q 24.90625 -1.421875 15.25 8.5625 
Q 5.609375 18.5625 5.609375 36.375 
Q 5.609375 54.25 15.25 64.234375 
Q 24.90625 74.21875 42 74.21875 
Q 49.125 74.21875 55.546875 72.453125 
Q 61.96875 70.703125 67.390625 67.28125 
L 67.390625 56.78125 
Q 61.921875 61.421875 55.765625 63.765625 
Q 49.609375 66.109375 42.828125 66.109375 
Q 29.4375 66.109375 22.71875 58.640625 
Q 16.015625 51.171875 16.015625 36.375 
Q 16.015625 21.625 22.71875 14.15625 
Q 29.4375 6.6875 42.828125 6.6875 
Q 48.046875 6.6875 52.140625 7.59375 
Q 56.25 8.5 59.515625 10.40625 
z
" id="DejaVuSans-47"/>
     <path d="M 41.109375 46.296875 
Q 39.59375 47.171875 37.8125 47.578125 
Q 36.03125 48 33.890625 48 
Q 26.265625 48 22.1875 43.046875 
Q 18.109375 38.09375 18.109375 28.8125 
L 18.109375 0 
L 9.078125 0 
L 9.078125 54.6875 
L 18.109375 54.6875 
L 18.109375 46.1875 
Q 20.953125 51.171875 25.484375 53.578125 
Q 30.03125 56 36.53125 56 
Q 37.453125 56 38.578125 55.875 
Q 39.703125 55.765625 41.0625 55.515625 
z
" id="DejaVuSans-72"/>
     <path d="M 18.109375 8.203125 
L 18.109375 -20.796875 
L 9.078125 -20.796875 
L 9.078125 54.6875 
L 18.109375 54.6875 
L 18.109375 46.390625 
Q 20.953125 51.265625 25.265625 53.625 
Q 29.59375 56 35.59375 56 
Q 45.5625 56 51.78125 48.09375 
Q 58.015625 40.1875 58.015625 27.296875 
Q 58.015625 14.40625 51.78125 6.484375 
Q 45.5625 -1.421875 35.59375 -1.421875 
Q 29.59375 -1.421875 25.265625 0.953125 
Q 20.953125 3.328125 18.109375 8.203125 
z
M 48.6875 27.296875 
Q 48.6875 37.203125 44.609375 42.84375 
Q 40.53125 48.484375 33.40625 48.484375 
Q 26.265625 48.484375 22.1875 42.84375 
Q 18.109375 37.203125 18.109375 27.296875 
Q 18.109375 17.390625 22.1875 11.75 
Q 26.265625 6.109375 33.40625 6.109375 
Q 40.53125 6.109375 44.609375 11.75 
Q 48.6875 17.390625 48.6875 27.296875 
z
" id="DejaVuSans-70"/>
     <path d="M 2.984375 54.6875 
L 12.5 54.6875 
L 29.59375 8.796875 
L 46.6875 54.6875 
L 56.203125 54.6875 
L 35.6875 0 
L 23.484375 0 
z
" id="DejaVuSans-76"/>
     <path d="M 44.390625 34.1875 
Q 47.5625 33.109375 50.5625 29.59375 
Q 53.5625 26.078125 56.59375 19.921875 
L 66.609375 0 
L 56 0 
L 46.6875 18.703125 
Q 43.0625 26.03125 39.671875 28.421875 
Q 36.28125 30.8125 30.421875 30.8125 
L 19.671875 30.8125 
L 19.671875 0 
L 9.8125 0 
L 9.8125 72.90625 
L 32.078125 72.90625 
Q 44.578125 72.90625 50.734375 67.671875 
Q 56.890625 62.453125 56.890625 51.90625 
Q 56.890625 45.015625 53.6875 40.46875 
Q 50.484375 35.9375 44.390625 34.1875 
z
M 19.671875 64.796875 
L 19.671875 38.921875 
L 32.078125 38.921875 
Q 39.203125 38.921875 42.84375 42.21875 
Q 46.484375 45.515625 46.484375 51.90625 
Q 46.484375 58.296875 42.84375 61.546875 
Q 39.203125 64.796875 32.078125 64.796875 
z
" id="DejaVuSans-52"/>
     <path d="M 37.109375 75.984375 
L 37.109375 68.5 
L 28.515625 68.5 
Q 23.6875 68.5 21.796875 66.546875 
Q 19.921875 64.59375 19.921875 59.515625 
L 19.921875 54.6875 
L 34.71875 54.6875 
L 34.71875 47.703125 
L 19.921875 47.703125 
L 19.921875 0 
L 10.890625 0 
L 10.890625 47.703125 
L 2.296875 47.703125 
L 2.296875 54.6875 
L 10.890625 54.6875 
L 10.890625 58.5 
Q 10.890625 67.625 15.140625 71.796875 
Q 19.390625 75.984375 28.609375 75.984375 
z
" id="DejaVuSans-66"/>
    </defs>
    <g transform="translate(219.564375 45.84)scale(0.12 -0.12)">
     <use xlink:href="#DejaVuSans-47"/>
     <use x="77.490234" xlink:href="#DejaVuSans-72"/>
     <use x="118.603516" xlink:href="#DejaVuSans-69"/>
     <use x="146.386719" xlink:href="#DejaVuSans-70"/>
     <use x="209.863281" xlink:href="#DejaVuSans-70"/>
     <use x="273.339844" xlink:href="#DejaVuSans-65"/>
     <use x="334.863281" xlink:href="#DejaVuSans-72"/>
     <use x="375.976562" xlink:href="#DejaVuSans-20"/>
     <use x="407.763672" xlink:href="#DejaVuSans-56"/>
     <use x="476.0625" xlink:href="#DejaVuSans-65"/>
     <use x="537.585938" xlink:href="#DejaVuSans-6c"/>
     <use x="565.369141" xlink:href="#DejaVuSans-6f"/>
     <use x="626.550781" xlink:href="#DejaVuSans-63"/>
     <use x="681.53125" xlink:href="#DejaVuSans-69"/>
     <use x="709.314453" xlink:href="#DejaVuSans-74"/>
     <use x="748.523438" xlink:href="#DejaVuSans-79"/>
     <use x="807.703125" xlink:href="#DejaVuSans-20"/>
     <use x="839.490234" xlink:href="#DejaVuSans-76"/>
     <use x="898.669922" xlink:href="#DejaVuSans-73"/>
     <use x="950.769531" xlink:href="#DejaVuSans-2e"/>
     <use x="982.556641" xlink:href="#DejaVuSans-20"/>
     <use x="1014.34375" xlink:href="#DejaVuSans-52"/>
     <use x="1083.763672" xlink:href="#DejaVuSans-65"/>
     <use x="1145.287109" xlink:href="#DejaVuSans-66"/>
     <use x="1180.492188" xlink:href="#DejaVuSans-65"/>
     <use x="1242.015625" xlink:href="#DejaVuSans-72"/>
     <use x="1283.097656" xlink:href="#DejaVuSans-65"/>
     <use x="1344.621094" xlink:href="#DejaVuSans-6e"/>
     <use x="1408" xlink:href="#DejaVuSans-63"/>
     <use x="1462.980469" xlink:href="#DejaVuSans-65"/>
     <use x="1524.503906" xlink:href="#DejaVuSans-20"/>
     <use x="1556.291016" xlink:href="#DejaVuSans-56"/>
     <use x="1624.589844" xlink:href="#DejaVuSans-65"/>
     <use x="1686.113281" xlink:href="#DejaVuSans-6c"/>
     <use x="1713.896484" xlink:href="#DejaVuSans-6f"/>
     <use x="1775.078125" xlink:href="#DejaVuSans-63"/>
     <use x="1830.058594" xlink:href="#DejaVuSans-69"/>
     <use x="1857.841797" xlink:href="#DejaVuSans-74"/>
     <use x="1897.050781" xlink:href="#DejaVuSans-79"/>
     <use x="1956.230469" xlink:href="#DejaVuSans-20"/>
     <use x="1988.017578" xlink:href="#DejaVuSans-6f"/>
     <use x="2049.199219" xlink:href="#DejaVuSans-76"/>
     <use x="2108.378906" xlink:href="#DejaVuSans-65"/>
     <use x="2169.902344" xlink:href="#DejaVuSans-72"/>
     <use x="2211.015625" xlink:href="#DejaVuSans-20"/>
     <use x="2242.802734" xlink:href="#DejaVuSans-54"/>
     <use x="2303.839844" xlink:href="#DejaVuSans-69"/>
     <use x="2331.623047" xlink:href="#DejaVuSans-6d"/>
     <use x="2429.035156" xlink:href="#DejaVuSans-65"/>
    </g>
   </g>
   <g id="legend_1">
    <g id="patch_7">
     <path d="M 97 379.48 
L 233.220313 379.48 
Q 235.220313 379.48 235.220313 377.48 
L 235.220313 290.41125 
Q 235.220313 288.41125 233.220313 288.41125 
L 97 288.41125 
Q 95 288.41125 95 290.41125 
L 95 377.48 
Q 95 379.48 97 379.48 
z
" style="fill:#ffffff;opacity:0.8;stroke:#cccccc;stroke-linejoin:miter;"/>
    </g>
    <g id="line2d_35">
     <path d="M 99 296.509688 
L 119 296.509688 
" style="fill:none;stroke:#ff0000;stroke-linecap:square;stroke-width:1.5;"/>
    </g>
    <g id="line2d_36"/>
    <g id="text_18">
     <!-- Gripper Velocity X -->
     <defs>
      <path d="M 6.296875 72.90625 
L 16.890625 72.90625 
L 35.015625 45.796875 
L 53.21875 72.90625 
L 63.8125 72.90625 
L 40.375 37.890625 
L 65.375 0 
L 54.78125 0 
L 34.28125 31 
L 13.625 0 
L 2.984375 0 
L 29 38.921875 
z
" id="DejaVuSans-58"/>
     </defs>
     <g transform="translate(127 300.009688)scale(0.1 -0.1)">
      <use xlink:href="#DejaVuSans-47"/>
      <use x="77.490234" xlink:href="#DejaVuSans-72"/>
      <use x="118.603516" xlink:href="#DejaVuSans-69"/>
      <use x="146.386719" xlink:href="#DejaVuSans-70"/>
      <use x="209.863281" xlink:href="#DejaVuSans-70"/>
      <use x="273.339844" xlink:href="#DejaVuSans-65"/>
      <use x="334.863281" xlink:href="#DejaVuSans-72"/>
      <use x="375.976562" xlink:href="#DejaVuSans-20"/>
      <use x="407.763672" xlink:href="#DejaVuSans-56"/>
      <use x="476.0625" xlink:href="#DejaVuSans-65"/>
      <use x="537.585938" xlink:href="#DejaVuSans-6c"/>
      <use x="565.369141" xlink:href="#DejaVuSans-6f"/>
      <use x="626.550781" xlink:href="#DejaVuSans-63"/>
      <use x="681.53125" xlink:href="#DejaVuSans-69"/>
      <use x="709.314453" xlink:href="#DejaVuSans-74"/>
      <use x="748.523438" xlink:href="#DejaVuSans-79"/>
      <use x="807.703125" xlink:href="#DejaVuSans-20"/>
      <use x="839.490234" xlink:href="#DejaVuSans-58"/>
     </g>
    </g>
    <g id="line2d_37">
     <path d="M 99 311.187813 
L 119 311.187813 
" style="fill:none;stroke:#008000;stroke-linecap:square;stroke-width:1.5;"/>
    </g>
    <g id="line2d_38"/>
    <g id="text_19">
     <!-- Gripper Velocity Y -->
     <defs>
      <path d="M -0.203125 72.90625 
L 10.40625 72.90625 
L 30.609375 42.921875 
L 50.6875 72.90625 
L 61.28125 72.90625 
L 35.5 34.71875 
L 35.5 0 
L 25.59375 0 
L 25.59375 34.71875 
z
" id="DejaVuSans-59"/>
     </defs>
     <g transform="translate(127 314.687813)scale(0.1 -0.1)">
      <use xlink:href="#DejaVuSans-47"/>
      <use x="77.490234" xlink:href="#DejaVuSans-72"/>
      <use x="118.603516" xlink:href="#DejaVuSans-69"/>
      <use x="146.386719" xlink:href="#DejaVuSans-70"/>
      <use x="209.863281" xlink:href="#DejaVuSans-70"/>
      <use x="273.339844" xlink:href="#DejaVuSans-65"/>
      <use x="334.863281" xlink:href="#DejaVuSans-72"/>
      <use x="375.976562" xlink:href="#DejaVuSans-20"/>
      <use x="407.763672" xlink:href="#DejaVuSans-56"/>
      <use x="476.0625" xlink:href="#DejaVuSans-65"/>
      <use x="537.585938" xlink:href="#DejaVuSans-6c"/>
      <use x="565.369141" xlink:href="#DejaVuSans-6f"/>
      <use x="626.550781" xlink:href="#DejaVuSans-63"/>
      <use x="681.53125" xlink:href="#DejaVuSans-69"/>
      <use x="709.314453" xlink:href="#DejaVuSans-74"/>
      <use x="748.523438" xlink:href="#DejaVuSans-79"/>
      <use x="807.703125" xlink:href="#DejaVuSans-20"/>
      <use x="839.490234" xlink:href="#DejaVuSans-59"/>
     </g>
    </g>
    <g id="line2d_39">
     <path d="M 99 325.865938 
L 119 325.865938 
" style="fill:none;stroke:#0000ff;stroke-linecap:square;stroke-width:1.5;"/>
    </g>
    <g id="line2d_40"/>
    <g id="text_20">
     <!-- Gripper Velocity Z -->
     <defs>
      <path d="M 5.609375 72.90625 
L 62.890625 72.90625 
L 62.890625 65.375 
L 16.796875 8.296875 
L 64.015625 8.296875 
L 64.015625 0 
L 4.5 0 
L 4.5 7.515625 
L 50.59375 64.59375 
L 5.609375 64.59375 
z
" id="DejaVuSans-5a"/>
     </defs>
     <g transform="translate(127 329.365938)scale(0.1 -0.1)">
      <use xlink:href="#DejaVuSans-47"/>
      <use x="77.490234" xlink:href="#DejaVuSans-72"/>
      <use x="118.603516" xlink:href="#DejaVuSans-69"/>
      <use x="146.386719" xlink:href="#DejaVuSans-70"/>
      <use x="209.863281" xlink:href="#DejaVuSans-70"/>
      <use x="273.339844" xlink:href="#DejaVuSans-65"/>
      <use x="334.863281" xlink:href="#DejaVuSans-72"/>
      <use x="375.976562" xlink:href="#DejaVuSans-20"/>
      <use x="407.763672" xlink:href="#DejaVuSans-56"/>
      <use x="476.0625" xlink:href="#DejaVuSans-65"/>
      <use x="537.585938" xlink:href="#DejaVuSans-6c"/>
      <use x="565.369141" xlink:href="#DejaVuSans-6f"/>
      <use x="626.550781" xlink:href="#DejaVuSans-63"/>
      <use x="681.53125" xlink:href="#DejaVuSans-69"/>
      <use x="709.314453" xlink:href="#DejaVuSans-74"/>
      <use x="748.523438" xlink:href="#DejaVuSans-79"/>
      <use x="807.703125" xlink:href="#DejaVuSans-20"/>
      <use x="839.490234" xlink:href="#DejaVuSans-5a"/>
     </g>
    </g>
    <g id="line2d_41">
     <path d="M 99 340.544062 
L 119 340.544062 
" style="fill:none;stroke:#ff0000;stroke-dasharray:5.55,2.4;stroke-dashoffset:0;stroke-width:1.5;"/>
    </g>
    <g id="line2d_42"/>
    <g id="text_21">
     <!-- Reference Velocity X -->
     <g transform="translate(127 344.044062)scale(0.1 -0.1)">
      <use xlink:href="#DejaVuSans-52"/>
      <use x="69.419922" xlink:href="#DejaVuSans-65"/>
      <use x="130.943359" xlink:href="#DejaVuSans-66"/>
      <use x="166.148438" xlink:href="#DejaVuSans-65"/>
      <use x="227.671875" xlink:href="#DejaVuSans-72"/>
      <use x="268.753906" xlink:href="#DejaVuSans-65"/>
      <use x="330.277344" xlink:href="#DejaVuSans-6e"/>
      <use x="393.65625" xlink:href="#DejaVuSans-63"/>
      <use x="448.636719" xlink:href="#DejaVuSans-65"/>
      <use x="510.160156" xlink:href="#DejaVuSans-20"/>
      <use x="541.947266" xlink:href="#DejaVuSans-56"/>
      <use x="610.246094" xlink:href="#DejaVuSans-65"/>
      <use x="671.769531" xlink:href="#DejaVuSans-6c"/>
      <use x="699.552734" xlink:href="#DejaVuSans-6f"/>
      <use x="760.734375" xlink:href="#DejaVuSans-63"/>
      <use x="815.714844" xlink:href="#DejaVuSans-69"/>
      <use x="843.498047" xlink:href="#DejaVuSans-74"/>
      <use x="882.707031" xlink:href="#DejaVuSans-79"/>
      <use x="941.886719" xlink:href="#DejaVuSans-20"/>
      <use x="973.673828" xlink:href="#DejaVuSans-58"/>
     </g>
    </g>
    <g id="line2d_43">
     <path d="M 99 355.222188 
L 119 355.222188 
" style="fill:none;stroke:#008000;stroke-dasharray:5.55,2.4;stroke-dashoffset:0;stroke-width:1.5;"/>
    </g>
    <g id="line2d_44"/>
    <g id="text_22">
     <!-- Reference Velocity Y -->
     <g transform="translate(127 358.722188)scale(0.1 -0.1)">
      <use xlink:href="#DejaVuSans-52"/>
      <use x="69.419922" xlink:href="#DejaVuSans-65"/>
      <use x="130.943359" xlink:href="#DejaVuSans-66"/>
      <use x="166.148438" xlink:href="#DejaVuSans-65"/>
      <use x="227.671875" xlink:href="#DejaVuSans-72"/>
      <use x="268.753906" xlink:href="#DejaVuSans-65"/>
      <use x="330.277344" xlink:href="#DejaVuSans-6e"/>
      <use x="393.65625" xlink:href="#DejaVuSans-63"/>
      <use x="448.636719" xlink:href="#DejaVuSans-65"/>
      <use x="510.160156" xlink:href="#DejaVuSans-20"/>
      <use x="541.947266" xlink:href="#DejaVuSans-56"/>
      <use x="610.246094" xlink:href="#DejaVuSans-65"/>
      <use x="671.769531" xlink:href="#DejaVuSans-6c"/>
      <use x="699.552734" xlink:href="#DejaVuSans-6f"/>
      <use x="760.734375" xlink:href="#DejaVuSans-63"/>
      <use x="815.714844" xlink:href="#DejaVuSans-69"/>
      <use x="843.498047" xlink:href="#DejaVuSans-74"/>
      <use x="882.707031" xlink:href="#DejaVuSans-79"/>
      <use x="941.886719" xlink:href="#DejaVuSans-20"/>
      <use x="973.673828" xlink:href="#DejaVuSans-59"/>
     </g>
    </g>
    <g id="line2d_45">
     <path d="M 99 369.900313 
L 119 369.900313 
" style="fill:none;stroke:#0000ff;stroke-dasharray:5.55,2.4;stroke-dashoffset:0;stroke-width:1.5;"/>
    </g>
    <g id="line2d_46"/>
    <g id="text_23">
     <!-- Reference Velocity Z -->
     <g transform="translate(127 373.400313)scale(0.1 -0.1)">
      <use xlink:href="#DejaVuSans-52"/>
      <use x="69.419922" xlink:href="#DejaVuSans-65"/>
      <use x="130.943359" xlink:href="#DejaVuSans-66"/>
      <use x="166.148438" xlink:href="#DejaVuSans-65"/>
      <use x="227.671875" xlink:href="#DejaVuSans-72"/>
      <use x="268.753906" xlink:href="#DejaVuSans-65"/>
      <use x="330.277344" xlink:href="#DejaVuSans-6e"/>
      <use x="393.65625" xlink:href="#DejaVuSans-63"/>
      <use x="448.636719" xlink:href="#DejaVuSans-65"/>
      <use x="510.160156" xlink:href="#DejaVuSans-20"/>
      <use x="541.947266" xlink:href="#DejaVuSans-56"/>
      <use x="610.246094" xlink:href="#DejaVuSans-65"/>
      <use x="671.769531" xlink:href="#DejaVuSans-6c"/>
      <use x="699.552734" xlink:href="#DejaVuSans-6f"/>
      <use x="760.734375" xlink:href="#DejaVuSans-63"/>
      <use x="815.714844" xlink:href="#DejaVuSans-69"/>
      <use x="843.498047" xlink:href="#DejaVuSans-74"/>
      <use x="882.707031" xlink:href="#DejaVuSans-79"/>
      <use x="941.886719" xlink:href="#DejaVuSans-20"/>
      <use x="973.673828" xlink:href="#DejaVuSans-5a"/>
     </g>
    </g>
   </g>
  </g>
 </g>
 <defs>
  <clipPath id="p0bcc111bbe">
   <rect height="332.64" width="558" x="90" y="51.84"/>
  </clipPath>
 </defs>
</svg>
