<?xml version="1.0" encoding="utf-8" standalone="no"?>
<!DOCTYPE svg PUBLIC "-//W3C//DTD SVG 1.1//EN"
  "http://www.w3.org/Graphics/SVG/1.1/DTD/svg11.dtd">
<!-- Created with matplotlib (http://matplotlib.org/) -->
<svg height="720pt" version="1.1" viewBox="0 0 720 720" width="720pt" xmlns="http://www.w3.org/2000/svg" xmlns:xlink="http://www.w3.org/1999/xlink">
 <defs>
  <style type="text/css">
*{stroke-linecap:butt;stroke-linejoin:round;}
  </style>
 </defs>
 <g id="figure_1">
  <g id="patch_1">
   <path d="M 0 720 
L 720 720 
L 720 0 
L 0 0 
z
" style="fill:#ffffff;"/>
  </g>
  <g id="axes_1">
   <g id="patch_2">
    <path d="M 56.09 323.44 
L 706.68 323.44 
L 706.68 25.44 
L 56.09 25.44 
z
" style="fill:#ffffff;"/>
   </g>
   <g id="matplotlib.axis_1">
    <g id="xtick_1">
     <g id="line2d_1">
      <path clip-path="url(#p9e6e490b23)" d="M 83.160177 323.44 
L 83.160177 25.44 
" style="fill:none;stroke:#b0b0b0;stroke-linecap:square;stroke-width:0.8;"/>
     </g>
     <g id="line2d_2">
      <defs>
       <path d="M 0 0 
L 0 3.5 
" id="m76a39b3bc4" style="stroke:#000000;stroke-width:0.8;"/>
      </defs>
      <g>
       <use style="stroke:#000000;stroke-width:0.8;" x="83.160177" xlink:href="#m76a39b3bc4" y="323.44"/>
      </g>
     </g>
     <g id="text_1">
      <!-- 0 -->
      <defs>
       <path d="M 31.78125 66.40625 
Q 24.171875 66.40625 20.328125 58.90625 
Q 16.5 51.421875 16.5 36.375 
Q 16.5 21.390625 20.328125 13.890625 
Q 24.171875 6.390625 31.78125 6.390625 
Q 39.453125 6.390625 43.28125 13.890625 
Q 47.125 21.390625 47.125 36.375 
Q 47.125 51.421875 43.28125 58.90625 
Q 39.453125 66.40625 31.78125 66.40625 
z
M 31.78125 74.21875 
Q 44.046875 74.21875 50.515625 64.515625 
Q 56.984375 54.828125 56.984375 36.375 
Q 56.984375 17.96875 50.515625 8.265625 
Q 44.046875 -1.421875 31.78125 -1.421875 
Q 19.53125 -1.421875 13.0625 8.265625 
Q 6.59375 17.96875 6.59375 36.375 
Q 6.59375 54.828125 13.0625 64.515625 
Q 19.53125 74.21875 31.78125 74.21875 
z
" id="DejaVuSans-30"/>
      </defs>
      <g transform="translate(79.978927 338.038438)scale(0.1 -0.1)">
       <use xlink:href="#DejaVuSans-30"/>
      </g>
     </g>
    </g>
    <g id="xtick_2">
     <g id="line2d_3">
      <path clip-path="url(#p9e6e490b23)" d="M 156.734386 323.44 
L 156.734386 25.44 
" style="fill:none;stroke:#b0b0b0;stroke-linecap:square;stroke-width:0.8;"/>
     </g>
     <g id="line2d_4">
      <g>
       <use style="stroke:#000000;stroke-width:0.8;" x="156.734386" xlink:href="#m76a39b3bc4" y="323.44"/>
      </g>
     </g>
     <g id="text_2">
      <!-- 5 -->
      <defs>
       <path d="M 10.796875 72.90625 
L 49.515625 72.90625 
L 49.515625 64.59375 
L 19.828125 64.59375 
L 19.828125 46.734375 
Q 21.96875 47.46875 24.109375 47.828125 
Q 26.265625 48.1875 28.421875 48.1875 
Q 40.625 48.1875 47.75 41.5 
Q 54.890625 34.8125 54.890625 23.390625 
Q 54.890625 11.625 47.5625 5.09375 
Q 40.234375 -1.421875 26.90625 -1.421875 
Q 22.3125 -1.421875 17.546875 -0.640625 
Q 12.796875 0.140625 7.71875 1.703125 
L 7.71875 11.625 
Q 12.109375 9.234375 16.796875 8.0625 
Q 21.484375 6.890625 26.703125 6.890625 
Q 35.15625 6.890625 40.078125 11.328125 
Q 45.015625 15.765625 45.015625 23.390625 
Q 45.015625 31 40.078125 35.4375 
Q 35.15625 39.890625 26.703125 39.890625 
Q 22.75 39.890625 18.8125 39.015625 
Q 14.890625 38.140625 10.796875 36.28125 
z
" id="DejaVuSans-35"/>
      </defs>
      <g transform="translate(153.553136 338.038438)scale(0.1 -0.1)">
       <use xlink:href="#DejaVuSans-35"/>
      </g>
     </g>
    </g>
    <g id="xtick_3">
     <g id="line2d_5">
      <path clip-path="url(#p9e6e490b23)" d="M 230.308595 323.44 
L 230.308595 25.44 
" style="fill:none;stroke:#b0b0b0;stroke-linecap:square;stroke-width:0.8;"/>
     </g>
     <g id="line2d_6">
      <g>
       <use style="stroke:#000000;stroke-width:0.8;" x="230.308595" xlink:href="#m76a39b3bc4" y="323.44"/>
      </g>
     </g>
     <g id="text_3">
      <!-- 10 -->
      <defs>
       <path d="M 12.40625 8.296875 
L 28.515625 8.296875 
L 28.515625 63.921875 
L 10.984375 60.40625 
L 10.984375 69.390625 
L 28.421875 72.90625 
L 38.28125 72.90625 
L 38.28125 8.296875 
L 54.390625 8.296875 
L 54.390625 0 
L 12.40625 0 
z
" id="DejaVuSans-31"/>
      </defs>
      <g transform="translate(223.946095 338.038438)scale(0.1 -0.1)">
       <use xlink:href="#DejaVuSans-31"/>
       <use x="63.623047" xlink:href="#DejaVuSans-30"/>
      </g>
     </g>
    </g>
    <g id="xtick_4">
     <g id="line2d_7">
      <path clip-path="url(#p9e6e490b23)" d="M 303.882804 323.44 
L 303.882804 25.44 
" style="fill:none;stroke:#b0b0b0;stroke-linecap:square;stroke-width:0.8;"/>
     </g>
     <g id="line2d_8">
      <g>
       <use style="stroke:#000000;stroke-width:0.8;" x="303.882804" xlink:href="#m76a39b3bc4" y="323.44"/>
      </g>
     </g>
     <g id="text_4">
      <!-- 15 -->
      <g transform="translate(297.520304 338.038438)scale(0.1 -0.1)">
       <use xlink:href="#DejaVuSans-31"/>
       <use x="63.623047" xlink:href="#DejaVuSans-35"/>
      </g>
     </g>
    </g>
    <g id="xtick_5">
     <g id="line2d_9">
      <path clip-path="url(#p9e6e490b23)" d="M 377.457013 323.44 
L 377.457013 25.44 
" style="fill:none;stroke:#b0b0b0;stroke-linecap:square;stroke-width:0.8;"/>
     </g>
     <g id="line2d_10">
      <g>
       <use style="stroke:#000000;stroke-width:0.8;" x="377.457013" xlink:href="#m76a39b3bc4" y="323.44"/>
      </g>
     </g>
     <g id="text_5">
      <!-- 20 -->
      <defs>
       <path d="M 19.1875 8.296875 
L 53.609375 8.296875 
L 53.609375 0 
L 7.328125 0 
L 7.328125 8.296875 
Q 12.9375 14.109375 22.625 23.890625 
Q 32.328125 33.6875 34.8125 36.53125 
Q 39.546875 41.84375 41.421875 45.53125 
Q 43.3125 49.21875 43.3125 52.78125 
Q 43.3125 58.59375 39.234375 62.25 
Q 35.15625 65.921875 28.609375 65.921875 
Q 23.96875 65.921875 18.8125 64.3125 
Q 13.671875 62.703125 7.8125 59.421875 
L 7.8125 69.390625 
Q 13.765625 71.78125 18.9375 73 
Q 24.125 74.21875 28.421875 74.21875 
Q 39.75 74.21875 46.484375 68.546875 
Q 53.21875 62.890625 53.21875 53.421875 
Q 53.21875 48.921875 51.53125 44.890625 
Q 49.859375 40.875 45.40625 35.40625 
Q 44.1875 33.984375 37.640625 27.21875 
Q 31.109375 20.453125 19.1875 8.296875 
z
" id="DejaVuSans-32"/>
      </defs>
      <g transform="translate(371.094513 338.038438)scale(0.1 -0.1)">
       <use xlink:href="#DejaVuSans-32"/>
       <use x="63.623047" xlink:href="#DejaVuSans-30"/>
      </g>
     </g>
    </g>
    <g id="xtick_6">
     <g id="line2d_11">
      <path clip-path="url(#p9e6e490b23)" d="M 451.031222 323.44 
L 451.031222 25.44 
" style="fill:none;stroke:#b0b0b0;stroke-linecap:square;stroke-width:0.8;"/>
     </g>
     <g id="line2d_12">
      <g>
       <use style="stroke:#000000;stroke-width:0.8;" x="451.031222" xlink:href="#m76a39b3bc4" y="323.44"/>
      </g>
     </g>
     <g id="text_6">
      <!-- 25 -->
      <g transform="translate(444.668722 338.038438)scale(0.1 -0.1)">
       <use xlink:href="#DejaVuSans-32"/>
       <use x="63.623047" xlink:href="#DejaVuSans-35"/>
      </g>
     </g>
    </g>
    <g id="xtick_7">
     <g id="line2d_13">
      <path clip-path="url(#p9e6e490b23)" d="M 524.605431 323.44 
L 524.605431 25.44 
" style="fill:none;stroke:#b0b0b0;stroke-linecap:square;stroke-width:0.8;"/>
     </g>
     <g id="line2d_14">
      <g>
       <use style="stroke:#000000;stroke-width:0.8;" x="524.605431" xlink:href="#m76a39b3bc4" y="323.44"/>
      </g>
     </g>
     <g id="text_7">
      <!-- 30 -->
      <defs>
       <path d="M 40.578125 39.3125 
Q 47.65625 37.796875 51.625 33 
Q 55.609375 28.21875 55.609375 21.1875 
Q 55.609375 10.40625 48.1875 4.484375 
Q 40.765625 -1.421875 27.09375 -1.421875 
Q 22.515625 -1.421875 17.65625 -0.515625 
Q 12.796875 0.390625 7.625 2.203125 
L 7.625 11.71875 
Q 11.71875 9.328125 16.59375 8.109375 
Q 21.484375 6.890625 26.8125 6.890625 
Q 36.078125 6.890625 40.9375 10.546875 
Q 45.796875 14.203125 45.796875 21.1875 
Q 45.796875 27.640625 41.28125 31.265625 
Q 36.765625 34.90625 28.71875 34.90625 
L 20.21875 34.90625 
L 20.21875 43.015625 
L 29.109375 43.015625 
Q 36.375 43.015625 40.234375 45.921875 
Q 44.09375 48.828125 44.09375 54.296875 
Q 44.09375 59.90625 40.109375 62.90625 
Q 36.140625 65.921875 28.71875 65.921875 
Q 24.65625 65.921875 20.015625 65.03125 
Q 15.375 64.15625 9.8125 62.3125 
L 9.8125 71.09375 
Q 15.4375 72.65625 20.34375 73.4375 
Q 25.25 74.21875 29.59375 74.21875 
Q 40.828125 74.21875 47.359375 69.109375 
Q 53.90625 64.015625 53.90625 55.328125 
Q 53.90625 49.265625 50.4375 45.09375 
Q 46.96875 40.921875 40.578125 39.3125 
z
" id="DejaVuSans-33"/>
      </defs>
      <g transform="translate(518.242931 338.038438)scale(0.1 -0.1)">
       <use xlink:href="#DejaVuSans-33"/>
       <use x="63.623047" xlink:href="#DejaVuSans-30"/>
      </g>
     </g>
    </g>
    <g id="xtick_8">
     <g id="line2d_15">
      <path clip-path="url(#p9e6e490b23)" d="M 598.179641 323.44 
L 598.179641 25.44 
" style="fill:none;stroke:#b0b0b0;stroke-linecap:square;stroke-width:0.8;"/>
     </g>
     <g id="line2d_16">
      <g>
       <use style="stroke:#000000;stroke-width:0.8;" x="598.179641" xlink:href="#m76a39b3bc4" y="323.44"/>
      </g>
     </g>
     <g id="text_8">
      <!-- 35 -->
      <g transform="translate(591.817141 338.038438)scale(0.1 -0.1)">
       <use xlink:href="#DejaVuSans-33"/>
       <use x="63.623047" xlink:href="#DejaVuSans-35"/>
      </g>
     </g>
    </g>
    <g id="xtick_9">
     <g id="line2d_17">
      <path clip-path="url(#p9e6e490b23)" d="M 671.75385 323.44 
L 671.75385 25.44 
" style="fill:none;stroke:#b0b0b0;stroke-linecap:square;stroke-width:0.8;"/>
     </g>
     <g id="line2d_18">
      <g>
       <use style="stroke:#000000;stroke-width:0.8;" x="671.75385" xlink:href="#m76a39b3bc4" y="323.44"/>
      </g>
     </g>
     <g id="text_9">
      <!-- 40 -->
      <defs>
       <path d="M 37.796875 64.3125 
L 12.890625 25.390625 
L 37.796875 25.390625 
z
M 35.203125 72.90625 
L 47.609375 72.90625 
L 47.609375 25.390625 
L 58.015625 25.390625 
L 58.015625 17.1875 
L 47.609375 17.1875 
L 47.609375 0 
L 37.796875 0 
L 37.796875 17.1875 
L 4.890625 17.1875 
L 4.890625 26.703125 
z
" id="DejaVuSans-34"/>
      </defs>
      <g transform="translate(665.39135 338.038438)scale(0.1 -0.1)">
       <use xlink:href="#DejaVuSans-34"/>
       <use x="63.623047" xlink:href="#DejaVuSans-30"/>
      </g>
     </g>
    </g>
    <g id="text_10">
     <!-- Time (seconds) -->
     <defs>
      <path d="M -0.296875 72.90625 
L 61.375 72.90625 
L 61.375 64.59375 
L 35.5 64.59375 
L 35.5 0 
L 25.59375 0 
L 25.59375 64.59375 
L -0.296875 64.59375 
z
" id="DejaVuSans-54"/>
      <path d="M 9.421875 54.6875 
L 18.40625 54.6875 
L 18.40625 0 
L 9.421875 0 
z
M 9.421875 75.984375 
L 18.40625 75.984375 
L 18.40625 64.59375 
L 9.421875 64.59375 
z
" id="DejaVuSans-69"/>
      <path d="M 52 44.1875 
Q 55.375 50.25 60.0625 53.125 
Q 64.75 56 71.09375 56 
Q 79.640625 56 84.28125 50.015625 
Q 88.921875 44.046875 88.921875 33.015625 
L 88.921875 0 
L 79.890625 0 
L 79.890625 32.71875 
Q 79.890625 40.578125 77.09375 44.375 
Q 74.3125 48.1875 68.609375 48.1875 
Q 61.625 48.1875 57.5625 43.546875 
Q 53.515625 38.921875 53.515625 30.90625 
L 53.515625 0 
L 44.484375 0 
L 44.484375 32.71875 
Q 44.484375 40.625 41.703125 44.40625 
Q 38.921875 48.1875 33.109375 48.1875 
Q 26.21875 48.1875 22.15625 43.53125 
Q 18.109375 38.875 18.109375 30.90625 
L 18.109375 0 
L 9.078125 0 
L 9.078125 54.6875 
L 18.109375 54.6875 
L 18.109375 46.1875 
Q 21.1875 51.21875 25.484375 53.609375 
Q 29.78125 56 35.6875 56 
Q 41.65625 56 45.828125 52.96875 
Q 50 49.953125 52 44.1875 
z
" id="DejaVuSans-6d"/>
      <path d="M 56.203125 29.59375 
L 56.203125 25.203125 
L 14.890625 25.203125 
Q 15.484375 15.921875 20.484375 11.0625 
Q 25.484375 6.203125 34.421875 6.203125 
Q 39.59375 6.203125 44.453125 7.46875 
Q 49.3125 8.734375 54.109375 11.28125 
L 54.109375 2.78125 
Q 49.265625 0.734375 44.1875 -0.34375 
Q 39.109375 -1.421875 33.890625 -1.421875 
Q 20.796875 -1.421875 13.15625 6.1875 
Q 5.515625 13.8125 5.515625 26.8125 
Q 5.515625 40.234375 12.765625 48.109375 
Q 20.015625 56 32.328125 56 
Q 43.359375 56 49.78125 48.890625 
Q 56.203125 41.796875 56.203125 29.59375 
z
M 47.21875 32.234375 
Q 47.125 39.59375 43.09375 43.984375 
Q 39.0625 48.390625 32.421875 48.390625 
Q 24.90625 48.390625 20.390625 44.140625 
Q 15.875 39.890625 15.1875 32.171875 
z
" id="DejaVuSans-65"/>
      <path id="DejaVuSans-20"/>
      <path d="M 31 75.875 
Q 24.46875 64.65625 21.28125 53.65625 
Q 18.109375 42.671875 18.109375 31.390625 
Q 18.109375 20.125 21.3125 9.0625 
Q 24.515625 -2 31 -13.1875 
L 23.1875 -13.1875 
Q 15.875 -1.703125 12.234375 9.375 
Q 8.59375 20.453125 8.59375 31.390625 
Q 8.59375 42.28125 12.203125 53.3125 
Q 15.828125 64.359375 23.1875 75.875 
z
" id="DejaVuSans-28"/>
      <path d="M 44.28125 53.078125 
L 44.28125 44.578125 
Q 40.484375 46.53125 36.375 47.5 
Q 32.28125 48.484375 27.875 48.484375 
Q 21.1875 48.484375 17.84375 46.4375 
Q 14.5 44.390625 14.5 40.28125 
Q 14.5 37.15625 16.890625 35.375 
Q 19.28125 33.59375 26.515625 31.984375 
L 29.59375 31.296875 
Q 39.15625 29.25 43.1875 25.515625 
Q 47.21875 21.78125 47.21875 15.09375 
Q 47.21875 7.46875 41.1875 3.015625 
Q 35.15625 -1.421875 24.609375 -1.421875 
Q 20.21875 -1.421875 15.453125 -0.5625 
Q 10.6875 0.296875 5.421875 2 
L 5.421875 11.28125 
Q 10.40625 8.6875 15.234375 7.390625 
Q 20.0625 6.109375 24.8125 6.109375 
Q 31.15625 6.109375 34.5625 8.28125 
Q 37.984375 10.453125 37.984375 14.40625 
Q 37.984375 18.0625 35.515625 20.015625 
Q 33.0625 21.96875 24.703125 23.78125 
L 21.578125 24.515625 
Q 13.234375 26.265625 9.515625 29.90625 
Q 5.8125 33.546875 5.8125 39.890625 
Q 5.8125 47.609375 11.28125 51.796875 
Q 16.75 56 26.8125 56 
Q 31.78125 56 36.171875 55.265625 
Q 40.578125 54.546875 44.28125 53.078125 
z
" id="DejaVuSans-73"/>
      <path d="M 48.78125 52.59375 
L 48.78125 44.1875 
Q 44.96875 46.296875 41.140625 47.34375 
Q 37.3125 48.390625 33.40625 48.390625 
Q 24.65625 48.390625 19.8125 42.84375 
Q 14.984375 37.3125 14.984375 27.296875 
Q 14.984375 17.28125 19.8125 11.734375 
Q 24.65625 6.203125 33.40625 6.203125 
Q 37.3125 6.203125 41.140625 7.25 
Q 44.96875 8.296875 48.78125 10.40625 
L 48.78125 2.09375 
Q 45.015625 0.34375 40.984375 -0.53125 
Q 36.96875 -1.421875 32.421875 -1.421875 
Q 20.0625 -1.421875 12.78125 6.34375 
Q 5.515625 14.109375 5.515625 27.296875 
Q 5.515625 40.671875 12.859375 48.328125 
Q 20.21875 56 33.015625 56 
Q 37.15625 56 41.109375 55.140625 
Q 45.0625 54.296875 48.78125 52.59375 
z
" id="DejaVuSans-63"/>
      <path d="M 30.609375 48.390625 
Q 23.390625 48.390625 19.1875 42.75 
Q 14.984375 37.109375 14.984375 27.296875 
Q 14.984375 17.484375 19.15625 11.84375 
Q 23.34375 6.203125 30.609375 6.203125 
Q 37.796875 6.203125 41.984375 11.859375 
Q 46.1875 17.53125 46.1875 27.296875 
Q 46.1875 37.015625 41.984375 42.703125 
Q 37.796875 48.390625 30.609375 48.390625 
z
M 30.609375 56 
Q 42.328125 56 49.015625 48.375 
Q 55.71875 40.765625 55.71875 27.296875 
Q 55.71875 13.875 49.015625 6.21875 
Q 42.328125 -1.421875 30.609375 -1.421875 
Q 18.84375 -1.421875 12.171875 6.21875 
Q 5.515625 13.875 5.515625 27.296875 
Q 5.515625 40.765625 12.171875 48.375 
Q 18.84375 56 30.609375 56 
z
" id="DejaVuSans-6f"/>
      <path d="M 54.890625 33.015625 
L 54.890625 0 
L 45.90625 0 
L 45.90625 32.71875 
Q 45.90625 40.484375 42.875 44.328125 
Q 39.84375 48.1875 33.796875 48.1875 
Q 26.515625 48.1875 22.3125 43.546875 
Q 18.109375 38.921875 18.109375 30.90625 
L 18.109375 0 
L 9.078125 0 
L 9.078125 54.6875 
L 18.109375 54.6875 
L 18.109375 46.1875 
Q 21.34375 51.125 25.703125 53.5625 
Q 30.078125 56 35.796875 56 
Q 45.21875 56 50.046875 50.171875 
Q 54.890625 44.34375 54.890625 33.015625 
z
" id="DejaVuSans-6e"/>
      <path d="M 45.40625 46.390625 
L 45.40625 75.984375 
L 54.390625 75.984375 
L 54.390625 0 
L 45.40625 0 
L 45.40625 8.203125 
Q 42.578125 3.328125 38.25 0.953125 
Q 33.9375 -1.421875 27.875 -1.421875 
Q 17.96875 -1.421875 11.734375 6.484375 
Q 5.515625 14.40625 5.515625 27.296875 
Q 5.515625 40.1875 11.734375 48.09375 
Q 17.96875 56 27.875 56 
Q 33.9375 56 38.25 53.625 
Q 42.578125 51.265625 45.40625 46.390625 
z
M 14.796875 27.296875 
Q 14.796875 17.390625 18.875 11.75 
Q 22.953125 6.109375 30.078125 6.109375 
Q 37.203125 6.109375 41.296875 11.75 
Q 45.40625 17.390625 45.40625 27.296875 
Q 45.40625 37.203125 41.296875 42.84375 
Q 37.203125 48.484375 30.078125 48.484375 
Q 22.953125 48.484375 18.875 42.84375 
Q 14.796875 37.203125 14.796875 27.296875 
z
" id="DejaVuSans-64"/>
      <path d="M 8.015625 75.875 
L 15.828125 75.875 
Q 23.140625 64.359375 26.78125 53.3125 
Q 30.421875 42.28125 30.421875 31.390625 
Q 30.421875 20.453125 26.78125 9.375 
Q 23.140625 -1.703125 15.828125 -13.1875 
L 8.015625 -13.1875 
Q 14.5 -2 17.703125 9.0625 
Q 20.90625 20.125 20.90625 31.390625 
Q 20.90625 42.671875 17.703125 53.65625 
Q 14.5 64.65625 8.015625 75.875 
z
" id="DejaVuSans-29"/>
     </defs>
     <g transform="translate(343.069375 351.716563)scale(0.1 -0.1)">
      <use xlink:href="#DejaVuSans-54"/>
      <use x="61.037109" xlink:href="#DejaVuSans-69"/>
      <use x="88.820312" xlink:href="#DejaVuSans-6d"/>
      <use x="186.232422" xlink:href="#DejaVuSans-65"/>
      <use x="247.755859" xlink:href="#DejaVuSans-20"/>
      <use x="279.542969" xlink:href="#DejaVuSans-28"/>
      <use x="318.556641" xlink:href="#DejaVuSans-73"/>
      <use x="370.65625" xlink:href="#DejaVuSans-65"/>
      <use x="432.179688" xlink:href="#DejaVuSans-63"/>
      <use x="487.160156" xlink:href="#DejaVuSans-6f"/>
      <use x="548.341797" xlink:href="#DejaVuSans-6e"/>
      <use x="611.720703" xlink:href="#DejaVuSans-64"/>
      <use x="675.197266" xlink:href="#DejaVuSans-73"/>
      <use x="727.296875" xlink:href="#DejaVuSans-29"/>
     </g>
    </g>
   </g>
   <g id="matplotlib.axis_2">
    <g id="ytick_1">
     <g id="line2d_19">
      <path clip-path="url(#p9e6e490b23)" d="M 56.09 293.33905 
L 706.68 293.33905 
" style="fill:none;stroke:#b0b0b0;stroke-linecap:square;stroke-width:0.8;"/>
     </g>
     <g id="line2d_20">
      <defs>
       <path d="M 0 0 
L -3.5 0 
" id="m43802a1923" style="stroke:#000000;stroke-width:0.8;"/>
      </defs>
      <g>
       <use style="stroke:#000000;stroke-width:0.8;" x="56.09" xlink:href="#m43802a1923" y="293.33905"/>
      </g>
     </g>
     <g id="text_11">
      <!-- −0.6 -->
      <defs>
       <path d="M 10.59375 35.5 
L 73.1875 35.5 
L 73.1875 27.203125 
L 10.59375 27.203125 
z
" id="DejaVuSans-2212"/>
       <path d="M 10.6875 12.40625 
L 21 12.40625 
L 21 0 
L 10.6875 0 
z
" id="DejaVuSans-2e"/>
       <path d="M 33.015625 40.375 
Q 26.375 40.375 22.484375 35.828125 
Q 18.609375 31.296875 18.609375 23.390625 
Q 18.609375 15.53125 22.484375 10.953125 
Q 26.375 6.390625 33.015625 6.390625 
Q 39.65625 6.390625 43.53125 10.953125 
Q 47.40625 15.53125 47.40625 23.390625 
Q 47.40625 31.296875 43.53125 35.828125 
Q 39.65625 40.375 33.015625 40.375 
z
M 52.59375 71.296875 
L 52.59375 62.3125 
Q 48.875 64.0625 45.09375 64.984375 
Q 41.3125 65.921875 37.59375 65.921875 
Q 27.828125 65.921875 22.671875 59.328125 
Q 17.53125 52.734375 16.796875 39.40625 
Q 19.671875 43.65625 24.015625 45.921875 
Q 28.375 48.1875 33.59375 48.1875 
Q 44.578125 48.1875 50.953125 41.515625 
Q 57.328125 34.859375 57.328125 23.390625 
Q 57.328125 12.15625 50.6875 5.359375 
Q 44.046875 -1.421875 33.015625 -1.421875 
Q 20.359375 -1.421875 13.671875 8.265625 
Q 6.984375 17.96875 6.984375 36.375 
Q 6.984375 53.65625 15.1875 63.9375 
Q 23.390625 74.21875 37.203125 74.21875 
Q 40.921875 74.21875 44.703125 73.484375 
Q 48.484375 72.75 52.59375 71.296875 
z
" id="DejaVuSans-36"/>
      </defs>
      <g transform="translate(24.807188 297.138268)scale(0.1 -0.1)">
       <use xlink:href="#DejaVuSans-2212"/>
       <use x="83.789062" xlink:href="#DejaVuSans-30"/>
       <use x="147.412109" xlink:href="#DejaVuSans-2e"/>
       <use x="179.199219" xlink:href="#DejaVuSans-36"/>
      </g>
     </g>
    </g>
    <g id="ytick_2">
     <g id="line2d_21">
      <path clip-path="url(#p9e6e490b23)" d="M 56.09 259.374547 
L 706.68 259.374547 
" style="fill:none;stroke:#b0b0b0;stroke-linecap:square;stroke-width:0.8;"/>
     </g>
     <g id="line2d_22">
      <g>
       <use style="stroke:#000000;stroke-width:0.8;" x="56.09" xlink:href="#m43802a1923" y="259.374547"/>
      </g>
     </g>
     <g id="text_12">
      <!-- −0.4 -->
      <g transform="translate(24.807188 263.173765)scale(0.1 -0.1)">
       <use xlink:href="#DejaVuSans-2212"/>
       <use x="83.789062" xlink:href="#DejaVuSans-30"/>
       <use x="147.412109" xlink:href="#DejaVuSans-2e"/>
       <use x="179.199219" xlink:href="#DejaVuSans-34"/>
      </g>
     </g>
    </g>
    <g id="ytick_3">
     <g id="line2d_23">
      <path clip-path="url(#p9e6e490b23)" d="M 56.09 225.410044 
L 706.68 225.410044 
" style="fill:none;stroke:#b0b0b0;stroke-linecap:square;stroke-width:0.8;"/>
     </g>
     <g id="line2d_24">
      <g>
       <use style="stroke:#000000;stroke-width:0.8;" x="56.09" xlink:href="#m43802a1923" y="225.410044"/>
      </g>
     </g>
     <g id="text_13">
      <!-- −0.2 -->
      <g transform="translate(24.807188 229.209263)scale(0.1 -0.1)">
       <use xlink:href="#DejaVuSans-2212"/>
       <use x="83.789062" xlink:href="#DejaVuSans-30"/>
       <use x="147.412109" xlink:href="#DejaVuSans-2e"/>
       <use x="179.199219" xlink:href="#DejaVuSans-32"/>
      </g>
     </g>
    </g>
    <g id="ytick_4">
     <g id="line2d_25">
      <path clip-path="url(#p9e6e490b23)" d="M 56.09 191.445541 
L 706.68 191.445541 
" style="fill:none;stroke:#b0b0b0;stroke-linecap:square;stroke-width:0.8;"/>
     </g>
     <g id="line2d_26">
      <g>
       <use style="stroke:#000000;stroke-width:0.8;" x="56.09" xlink:href="#m43802a1923" y="191.445541"/>
      </g>
     </g>
     <g id="text_14">
      <!-- 0.0 -->
      <g transform="translate(33.186875 195.24476)scale(0.1 -0.1)">
       <use xlink:href="#DejaVuSans-30"/>
       <use x="63.623047" xlink:href="#DejaVuSans-2e"/>
       <use x="95.410156" xlink:href="#DejaVuSans-30"/>
      </g>
     </g>
    </g>
    <g id="ytick_5">
     <g id="line2d_27">
      <path clip-path="url(#p9e6e490b23)" d="M 56.09 157.481038 
L 706.68 157.481038 
" style="fill:none;stroke:#b0b0b0;stroke-linecap:square;stroke-width:0.8;"/>
     </g>
     <g id="line2d_28">
      <g>
       <use style="stroke:#000000;stroke-width:0.8;" x="56.09" xlink:href="#m43802a1923" y="157.481038"/>
      </g>
     </g>
     <g id="text_15">
      <!-- 0.2 -->
      <g transform="translate(33.186875 161.280257)scale(0.1 -0.1)">
       <use xlink:href="#DejaVuSans-30"/>
       <use x="63.623047" xlink:href="#DejaVuSans-2e"/>
       <use x="95.410156" xlink:href="#DejaVuSans-32"/>
      </g>
     </g>
    </g>
    <g id="ytick_6">
     <g id="line2d_29">
      <path clip-path="url(#p9e6e490b23)" d="M 56.09 123.516535 
L 706.68 123.516535 
" style="fill:none;stroke:#b0b0b0;stroke-linecap:square;stroke-width:0.8;"/>
     </g>
     <g id="line2d_30">
      <g>
       <use style="stroke:#000000;stroke-width:0.8;" x="56.09" xlink:href="#m43802a1923" y="123.516535"/>
      </g>
     </g>
     <g id="text_16">
      <!-- 0.4 -->
      <g transform="translate(33.186875 127.315754)scale(0.1 -0.1)">
       <use xlink:href="#DejaVuSans-30"/>
       <use x="63.623047" xlink:href="#DejaVuSans-2e"/>
       <use x="95.410156" xlink:href="#DejaVuSans-34"/>
      </g>
     </g>
    </g>
    <g id="ytick_7">
     <g id="line2d_31">
      <path clip-path="url(#p9e6e490b23)" d="M 56.09 89.552032 
L 706.68 89.552032 
" style="fill:none;stroke:#b0b0b0;stroke-linecap:square;stroke-width:0.8;"/>
     </g>
     <g id="line2d_32">
      <g>
       <use style="stroke:#000000;stroke-width:0.8;" x="56.09" xlink:href="#m43802a1923" y="89.552032"/>
      </g>
     </g>
     <g id="text_17">
      <!-- 0.6 -->
      <g transform="translate(33.186875 93.351251)scale(0.1 -0.1)">
       <use xlink:href="#DejaVuSans-30"/>
       <use x="63.623047" xlink:href="#DejaVuSans-2e"/>
       <use x="95.410156" xlink:href="#DejaVuSans-36"/>
      </g>
     </g>
    </g>
    <g id="ytick_8">
     <g id="line2d_33">
      <path clip-path="url(#p9e6e490b23)" d="M 56.09 55.587529 
L 706.68 55.587529 
" style="fill:none;stroke:#b0b0b0;stroke-linecap:square;stroke-width:0.8;"/>
     </g>
     <g id="line2d_34">
      <g>
       <use style="stroke:#000000;stroke-width:0.8;" x="56.09" xlink:href="#m43802a1923" y="55.587529"/>
      </g>
     </g>
     <g id="text_18">
      <!-- 0.8 -->
      <defs>
       <path d="M 31.78125 34.625 
Q 24.75 34.625 20.71875 30.859375 
Q 16.703125 27.09375 16.703125 20.515625 
Q 16.703125 13.921875 20.71875 10.15625 
Q 24.75 6.390625 31.78125 6.390625 
Q 38.8125 6.390625 42.859375 10.171875 
Q 46.921875 13.96875 46.921875 20.515625 
Q 46.921875 27.09375 42.890625 30.859375 
Q 38.875 34.625 31.78125 34.625 
z
M 21.921875 38.8125 
Q 15.578125 40.375 12.03125 44.71875 
Q 8.5 49.078125 8.5 55.328125 
Q 8.5 64.0625 14.71875 69.140625 
Q 20.953125 74.21875 31.78125 74.21875 
Q 42.671875 74.21875 48.875 69.140625 
Q 55.078125 64.0625 55.078125 55.328125 
Q 55.078125 49.078125 51.53125 44.71875 
Q 48 40.375 41.703125 38.8125 
Q 48.828125 37.15625 52.796875 32.3125 
Q 56.78125 27.484375 56.78125 20.515625 
Q 56.78125 9.90625 50.3125 4.234375 
Q 43.84375 -1.421875 31.78125 -1.421875 
Q 19.734375 -1.421875 13.25 4.234375 
Q 6.78125 9.90625 6.78125 20.515625 
Q 6.78125 27.484375 10.78125 32.3125 
Q 14.796875 37.15625 21.921875 38.8125 
z
M 18.3125 54.390625 
Q 18.3125 48.734375 21.84375 45.5625 
Q 25.390625 42.390625 31.78125 42.390625 
Q 38.140625 42.390625 41.71875 45.5625 
Q 45.3125 48.734375 45.3125 54.390625 
Q 45.3125 60.0625 41.71875 63.234375 
Q 38.140625 66.40625 31.78125 66.40625 
Q 25.390625 66.40625 21.84375 63.234375 
Q 18.3125 60.0625 18.3125 54.390625 
z
" id="DejaVuSans-38"/>
      </defs>
      <g transform="translate(33.186875 59.386748)scale(0.1 -0.1)">
       <use xlink:href="#DejaVuSans-30"/>
       <use x="63.623047" xlink:href="#DejaVuSans-2e"/>
       <use x="95.410156" xlink:href="#DejaVuSans-38"/>
      </g>
     </g>
    </g>
    <g id="text_19">
     <!-- Position (meters) -->
     <defs>
      <path d="M 19.671875 64.796875 
L 19.671875 37.40625 
L 32.078125 37.40625 
Q 38.96875 37.40625 42.71875 40.96875 
Q 46.484375 44.53125 46.484375 51.125 
Q 46.484375 57.671875 42.71875 61.234375 
Q 38.96875 64.796875 32.078125 64.796875 
z
M 9.8125 72.90625 
L 32.078125 72.90625 
Q 44.34375 72.90625 50.609375 67.359375 
Q 56.890625 61.8125 56.890625 51.125 
Q 56.890625 40.328125 50.609375 34.8125 
Q 44.34375 29.296875 32.078125 29.296875 
L 19.671875 29.296875 
L 19.671875 0 
L 9.8125 0 
z
" id="DejaVuSans-50"/>
      <path d="M 18.3125 70.21875 
L 18.3125 54.6875 
L 36.8125 54.6875 
L 36.8125 47.703125 
L 18.3125 47.703125 
L 18.3125 18.015625 
Q 18.3125 11.328125 20.140625 9.421875 
Q 21.96875 7.515625 27.59375 7.515625 
L 36.8125 7.515625 
L 36.8125 0 
L 27.59375 0 
Q 17.1875 0 13.234375 3.875 
Q 9.28125 7.765625 9.28125 18.015625 
L 9.28125 47.703125 
L 2.6875 47.703125 
L 2.6875 54.6875 
L 9.28125 54.6875 
L 9.28125 70.21875 
z
" id="DejaVuSans-74"/>
      <path d="M 41.109375 46.296875 
Q 39.59375 47.171875 37.8125 47.578125 
Q 36.03125 48 33.890625 48 
Q 26.265625 48 22.1875 43.046875 
Q 18.109375 38.09375 18.109375 28.8125 
L 18.109375 0 
L 9.078125 0 
L 9.078125 54.6875 
L 18.109375 54.6875 
L 18.109375 46.1875 
Q 20.953125 51.171875 25.484375 53.578125 
Q 30.03125 56 36.53125 56 
Q 37.453125 56 38.578125 55.875 
Q 39.703125 55.765625 41.0625 55.515625 
z
" id="DejaVuSans-72"/>
     </defs>
     <g transform="translate(18.7275 217.217344)rotate(-90)scale(0.1 -0.1)">
      <use xlink:href="#DejaVuSans-50"/>
      <use x="60.255859" xlink:href="#DejaVuSans-6f"/>
      <use x="121.4375" xlink:href="#DejaVuSans-73"/>
      <use x="173.537109" xlink:href="#DejaVuSans-69"/>
      <use x="201.320312" xlink:href="#DejaVuSans-74"/>
      <use x="240.529297" xlink:href="#DejaVuSans-69"/>
      <use x="268.3125" xlink:href="#DejaVuSans-6f"/>
      <use x="329.494141" xlink:href="#DejaVuSans-6e"/>
      <use x="392.873047" xlink:href="#DejaVuSans-20"/>
      <use x="424.660156" xlink:href="#DejaVuSans-28"/>
      <use x="463.673828" xlink:href="#DejaVuSans-6d"/>
      <use x="561.085938" xlink:href="#DejaVuSans-65"/>
      <use x="622.609375" xlink:href="#DejaVuSans-74"/>
      <use x="661.818359" xlink:href="#DejaVuSans-65"/>
      <use x="723.341797" xlink:href="#DejaVuSans-72"/>
      <use x="764.455078" xlink:href="#DejaVuSans-73"/>
      <use x="816.554688" xlink:href="#DejaVuSans-29"/>
     </g>
    </g>
   </g>
   <g id="line2d_35">
    <path clip-path="url(#p9e6e490b23)" d="M 85.662273 276.774842 
L 123.899702 276.828212 
L 145.972669 276.805608 
L 151.82316 276.499326 
L 165.123581 275.650192 
L 173.873629 275.60607 
L 179.830007 275.879556 
L 195.962504 276.8261 
L 206.297752 277.038775 
L 210.714074 277.438875 
L 221.007991 278.627258 
L 225.458333 278.817552 
L 235.764195 279.093551 
L 240.208517 279.583271 
L 246.063098 280.500681 
L 248.983288 280.892997 
L 253.385025 281.255854 
L 265.167332 281.603095 
L 269.581447 282.183931 
L 278.377994 283.694731 
L 282.887945 284.123511 
L 288.688463 284.21878 
L 291.678843 284.289546 
L 294.598664 284.502397 
L 298.983836 285.14507 
L 306.29305 286.539411 
L 310.743833 287.127687 
L 313.752446 287.298023 
L 322.583749 287.502819 
L 325.510075 287.820561 
L 328.438211 288.277794 
L 337.262098 289.970791 
L 340.219325 290.336191 
L 343.201892 290.522926 
L 350.549377 290.64463 
L 353.499808 290.846531 
L 357.909903 291.514754 
L 366.746181 293.180567 
L 369.613427 293.524844 
L 372.608045 293.708156 
L 381.359742 293.89899 
L 384.37187 294.198276 
L 390.232689 295.196383 
L 394.669432 296.03961 
L 399.021879 296.573166 
L 401.968054 296.738026 
L 410.82508 296.914349 
L 413.763545 297.190274 
L 418.241728 297.848103 
L 424.087065 298.847152 
L 428.483653 299.354196 
L 431.434729 299.509933 
L 440.276172 299.667168 
L 443.168404 299.914085 
L 446.103118 300.257559 
L 453.497986 301.370747 
L 457.874124 301.825133 
L 462.320196 301.960315 
L 469.699618 302.087459 
L 472.695088 302.279969 
L 478.591309 302.952664 
L 482.989518 303.486894 
L 487.405296 303.858757 
L 491.745554 303.981558 
L 499.1361 304.083553 
L 503.492648 304.315861 
L 518.243969 305.487498 
L 525.554642 305.491652 
L 527.021974 305.403943 
L 528.511427 305.153016 
L 530.035488 304.731516 
L 531.537342 304.071153 
L 532.983797 302.981017 
L 534.479441 301.545627 
L 535.922644 299.510465 
L 537.391067 297.178767 
L 544.75748 282.267422 
L 546.24134 280.14147 
L 547.673712 278.439988 
L 549.182895 277.434458 
L 550.635177 276.90067 
L 552.088297 276.785529 
L 677.107727 276.771368 
L 677.107727 276.771368 
" style="fill:none;stroke:#ff0000;stroke-linecap:square;stroke-width:1.5;"/>
   </g>
   <g id="line2d_36">
    <path clip-path="url(#p9e6e490b23)" d="M 85.662273 166.90725 
L 145.972669 166.844381 
L 154.830917 167.187042 
L 163.64652 167.534031 
L 179.830007 167.930678 
L 187.135779 168.649845 
L 191.526037 169.019059 
L 195.962504 169.201511 
L 204.851757 169.336177 
L 209.269756 169.711182 
L 215.10575 170.5364 
L 221.007991 171.287377 
L 225.458333 171.544993 
L 234.277525 171.72126 
L 237.25422 172.002005 
L 241.595011 172.718647 
L 250.478757 174.283544 
L 254.875565 174.624605 
L 263.693656 174.829707 
L 266.617126 175.167846 
L 271.062483 176.016433 
L 278.377994 177.633141 
L 281.400776 178.072601 
L 284.343598 178.298103 
L 293.14781 178.53505 
L 296.084349 178.916762 
L 300.481392 179.858987 
L 307.843465 181.666164 
L 310.743833 182.14255 
L 313.752446 182.394292 
L 322.583749 182.648322 
L 325.510075 183.043747 
L 328.438211 183.630488 
L 337.262098 185.925369 
L 340.219325 186.429761 
L 343.201892 186.700745 
L 352.018878 186.963704 
L 354.948129 187.357158 
L 357.909903 187.981171 
L 368.198891 190.568401 
L 371.11025 190.948925 
L 374.066758 191.083121 
L 379.942452 191.206819 
L 382.829281 191.454132 
L 385.786659 191.974986 
L 388.778113 192.658871 
L 397.580206 194.752365 
L 400.565759 195.121287 
L 403.491439 195.233299 
L 410.82508 195.450284 
L 413.763545 195.798588 
L 416.674346 196.344289 
L 422.605236 197.741068 
L 425.533492 198.36008 
L 428.483653 198.802965 
L 431.434729 199.023688 
L 440.276172 199.247204 
L 443.168404 199.560465 
L 446.103118 200.023869 
L 454.917571 201.796143 
L 457.874124 202.201252 
L 460.823608 202.380317 
L 471.206359 202.679536 
L 475.619148 203.217982 
L 484.481029 204.686487 
L 487.405296 205.001545 
L 490.348794 205.153759 
L 500.632938 205.378982 
L 504.999112 205.788853 
L 512.36664 206.717714 
L 516.817866 207.101206 
L 521.191527 207.228834 
L 524.140853 207.235952 
L 525.554642 207.050963 
L 527.021974 206.421796 
L 528.511427 205.07322 
L 530.035488 203.039519 
L 531.537342 200.456569 
L 534.479441 193.461216 
L 535.922644 189.280381 
L 538.835831 181.332838 
L 541.816865 174.745907 
L 543.293119 172.313642 
L 544.75748 170.195928 
L 546.24134 168.808608 
L 547.673712 167.813937 
L 549.182895 167.24968 
L 550.635177 166.972679 
L 553.571568 166.911287 
L 677.107727 166.903641 
L 677.107727 166.903641 
" style="fill:none;stroke:#008000;stroke-linecap:square;stroke-width:1.5;"/>
   </g>
   <g id="line2d_37">
    <path clip-path="url(#p9e6e490b23)" d="M 85.662273 68.490342 
L 116.562292 68.550017 
L 120.958146 68.791854 
L 128.333196 69.429204 
L 132.730401 69.76171 
L 137.177652 69.947622 
L 147.401246 70.021011 
L 154.830917 70.338756 
L 163.64652 70.738076 
L 169.578515 70.800403 
L 175.425455 70.71212 
L 179.830007 70.496087 
L 194.507941 69.369221 
L 207.776125 69.053448 
L 212.211472 68.616261 
L 222.503267 67.60613 
L 225.458333 67.480995 
L 231.357672 67.454254 
L 237.25422 67.165599 
L 243.064933 66.434313 
L 248.983288 65.671104 
L 253.385025 65.336712 
L 256.332306 65.264543 
L 260.763254 65.238502 
L 265.167332 65.044954 
L 269.581447 64.531376 
L 279.907868 63.073537 
L 284.343598 62.801347 
L 294.598664 62.529926 
L 297.55426 62.193 
L 301.900995 61.533094 
L 306.29305 60.821091 
L 310.743833 60.311829 
L 315.182212 60.126554 
L 321.099286 60.06902 
L 324.032498 59.878847 
L 326.943314 59.552977 
L 332.809549 58.592295 
L 338.722958 57.748447 
L 343.201892 57.459556 
L 347.620831 57.433799 
L 352.018878 57.306856 
L 357.909903 56.636384 
L 365.253407 55.407795 
L 369.613427 54.912616 
L 372.608045 54.759495 
L 382.829281 54.488374 
L 385.786659 54.147624 
L 390.232689 53.481261 
L 394.669432 52.816173 
L 397.580206 52.433059 
L 401.968054 52.189406 
L 412.300535 51.926287 
L 415.29524 51.631925 
L 421.147629 50.791154 
L 427.010184 50.063137 
L 431.434729 49.83072 
L 435.814663 49.808383 
L 440.276172 49.708136 
L 446.103118 49.149609 
L 457.874124 47.896323 
L 462.320196 47.733064 
L 469.699618 47.671273 
L 475.619148 47.212147 
L 485.914447 46.235831 
L 490.348794 46.074549 
L 496.180242 46.034539 
L 499.1361 45.996802 
L 507.89527 45.398838 
L 513.875455 44.943513 
L 518.243969 44.783211 
L 522.734084 44.726685 
L 525.554642 44.768892 
L 528.511427 45.154843 
L 530.035488 45.66526 
L 531.537342 46.312241 
L 532.983797 47.336595 
L 534.479441 48.569777 
L 537.391067 52.20496 
L 544.75748 64.053214 
L 546.24134 65.762551 
L 547.673712 67.150232 
L 549.182895 67.967852 
L 550.635177 68.377449 
L 552.088297 68.505261 
L 578.62304 68.488388 
L 619.800362 68.492351 
L 677.107727 68.489107 
L 677.107727 68.489107 
" style="fill:none;stroke:#0000ff;stroke-linecap:square;stroke-width:1.5;"/>
   </g>
   <g id="line2d_38">
    <path clip-path="url(#p9e6e490b23)" d="M 85.662273 191.445541 
L 109.19463 191.445541 
L 110.659258 277.202247 
L 138.601622 277.202247 
L 140.06712 278.406199 
L 168.017799 278.406199 
L 169.578515 280.265788 
L 197.447658 280.265788 
L 198.901133 282.662041 
L 226.951535 282.662041 
L 228.431655 285.473959 
L 256.332306 285.473959 
L 257.775845 288.587368 
L 285.777233 288.587368 
L 287.205957 291.875483 
L 315.182212 291.875483 
L 316.623207 295.230956 
L 344.661853 295.230956 
L 346.158898 298.515077 
L 374.066758 298.515077 
L 375.459339 301.625633 
L 403.491439 301.625633 
L 405.024075 304.441408 
L 432.924094 304.441408 
L 434.326183 306.834938 
L 462.320196 306.834938 
L 463.770713 308.693494 
L 491.745554 308.693494 
L 493.264406 309.894545 
L 677.107727 309.894545 
L 677.107727 309.894545 
" style="fill:none;stroke:#ff0000;stroke-dasharray:5.55,2.4;stroke-dashoffset:0;stroke-width:1.5;"/>
   </g>
   <g id="line2d_39">
    <path clip-path="url(#p9e6e490b23)" d="M 85.662273 191.445541 
L 109.19463 191.445541 
L 110.659258 167.436728 
L 138.601622 167.436728 
L 140.06712 168.926845 
L 168.017799 168.926845 
L 169.578515 171.228437 
L 197.447658 171.228437 
L 198.901133 174.194252 
L 226.951535 174.194252 
L 228.431655 177.674529 
L 256.332306 177.674529 
L 257.775845 181.527959 
L 285.777233 181.527959 
L 287.205957 185.59762 
L 315.182212 185.59762 
L 316.623207 189.75065 
L 344.661853 189.75065 
L 346.158898 193.815368 
L 374.066758 193.815368 
L 375.459339 197.665266 
L 403.491439 197.665266 
L 405.024075 201.150318 
L 432.924094 201.150318 
L 434.326183 204.112762 
L 462.320196 204.112762 
L 463.770713 206.413074 
L 491.745554 206.413074 
L 493.264406 207.899602 
L 677.107727 207.899602 
L 677.107727 207.899602 
" style="fill:none;stroke:#008000;stroke-dasharray:5.55,2.4;stroke-dashoffset:0;stroke-width:1.5;"/>
   </g>
   <g id="line2d_40">
    <path clip-path="url(#p9e6e490b23)" d="M 85.662273 191.445541 
L 109.19463 191.445541 
L 110.659258 68.109502 
L 138.601622 68.109502 
L 140.06712 67.036957 
L 168.017799 67.036957 
L 169.578515 65.380336 
L 197.447658 65.380336 
L 198.901133 63.245625 
L 226.951535 63.245625 
L 228.431655 60.740619 
L 256.332306 60.740619 
L 257.775845 57.967027 
L 285.777233 57.967027 
L 287.205957 55.037799 
L 315.182212 55.037799 
L 316.623207 52.048564 
L 344.661853 52.048564 
L 346.158898 49.122893 
L 374.066758 49.122893 
L 375.459339 46.351844 
L 403.491439 46.351844 
L 405.024075 43.8434 
L 432.924094 43.8434 
L 434.326183 41.711116 
L 462.320196 41.711116 
L 463.770713 40.055416 
L 491.745554 40.055416 
L 493.264406 38.985455 
L 677.107727 38.985455 
L 677.107727 38.985455 
" style="fill:none;stroke:#0000ff;stroke-dasharray:5.55,2.4;stroke-dashoffset:0;stroke-width:1.5;"/>
   </g>
   <g id="patch_3">
    <path d="M 56.09 323.44 
L 56.09 25.44 
" style="fill:none;stroke:#000000;stroke-linecap:square;stroke-linejoin:miter;stroke-width:0.8;"/>
   </g>
   <g id="patch_4">
    <path d="M 706.68 323.44 
L 706.68 25.44 
" style="fill:none;stroke:#000000;stroke-linecap:square;stroke-linejoin:miter;stroke-width:0.8;"/>
   </g>
   <g id="patch_5">
    <path d="M 56.09 323.44 
L 706.68 323.44 
" style="fill:none;stroke:#000000;stroke-linecap:square;stroke-linejoin:miter;stroke-width:0.8;"/>
   </g>
   <g id="patch_6">
    <path d="M 56.09 25.44 
L 706.68 25.44 
" style="fill:none;stroke:#000000;stroke-linecap:square;stroke-linejoin:miter;stroke-width:0.8;"/>
   </g>
   <g id="text_20">
    <!-- Gripper Position over Time -->
    <defs>
     <path d="M 59.515625 10.40625 
L 59.515625 29.984375 
L 43.40625 29.984375 
L 43.40625 38.09375 
L 69.28125 38.09375 
L 69.28125 6.78125 
Q 63.578125 2.734375 56.6875 0.65625 
Q 49.8125 -1.421875 42 -1.421875 
Q 24.90625 -1.421875 15.25 8.5625 
Q 5.609375 18.5625 5.609375 36.375 
Q 5.609375 54.25 15.25 64.234375 
Q 24.90625 74.21875 42 74.21875 
Q 49.125 74.21875 55.546875 72.453125 
Q 61.96875 70.703125 67.390625 67.28125 
L 67.390625 56.78125 
Q 61.921875 61.421875 55.765625 63.765625 
Q 49.609375 66.109375 42.828125 66.109375 
Q 29.4375 66.109375 22.71875 58.640625 
Q 16.015625 51.171875 16.015625 36.375 
Q 16.015625 21.625 22.71875 14.15625 
Q 29.4375 6.6875 42.828125 6.6875 
Q 48.046875 6.6875 52.140625 7.59375 
Q 56.25 8.5 59.515625 10.40625 
z
" id="DejaVuSans-47"/>
     <path d="M 18.109375 8.203125 
L 18.109375 -20.796875 
L 9.078125 -20.796875 
L 9.078125 54.6875 
L 18.109375 54.6875 
L 18.109375 46.390625 
Q 20.953125 51.265625 25.265625 53.625 
Q 29.59375 56 35.59375 56 
Q 45.5625 56 51.78125 48.09375 
Q 58.015625 40.1875 58.015625 27.296875 
Q 58.015625 14.40625 51.78125 6.484375 
Q 45.5625 -1.421875 35.59375 -1.421875 
Q 29.59375 -1.421875 25.265625 0.953125 
Q 20.953125 3.328125 18.109375 8.203125 
z
M 48.6875 27.296875 
Q 48.6875 37.203125 44.609375 42.84375 
Q 40.53125 48.484375 33.40625 48.484375 
Q 26.265625 48.484375 22.1875 42.84375 
Q 18.109375 37.203125 18.109375 27.296875 
Q 18.109375 17.390625 22.1875 11.75 
Q 26.265625 6.109375 33.40625 6.109375 
Q 40.53125 6.109375 44.609375 11.75 
Q 48.6875 17.390625 48.6875 27.296875 
z
" id="DejaVuSans-70"/>
     <path d="M 2.984375 54.6875 
L 12.5 54.6875 
L 29.59375 8.796875 
L 46.6875 54.6875 
L 56.203125 54.6875 
L 35.6875 0 
L 23.484375 0 
z
" id="DejaVuSans-76"/>
    </defs>
    <g transform="translate(301.287812 19.44)scale(0.12 -0.12)">
     <use xlink:href="#DejaVuSans-47"/>
     <use x="77.490234" xlink:href="#DejaVuSans-72"/>
     <use x="118.603516" xlink:href="#DejaVuSans-69"/>
     <use x="146.386719" xlink:href="#DejaVuSans-70"/>
     <use x="209.863281" xlink:href="#DejaVuSans-70"/>
     <use x="273.339844" xlink:href="#DejaVuSans-65"/>
     <use x="334.863281" xlink:href="#DejaVuSans-72"/>
     <use x="375.976562" xlink:href="#DejaVuSans-20"/>
     <use x="407.763672" xlink:href="#DejaVuSans-50"/>
     <use x="468.019531" xlink:href="#DejaVuSans-6f"/>
     <use x="529.201172" xlink:href="#DejaVuSans-73"/>
     <use x="581.300781" xlink:href="#DejaVuSans-69"/>
     <use x="609.083984" xlink:href="#DejaVuSans-74"/>
     <use x="648.292969" xlink:href="#DejaVuSans-69"/>
     <use x="676.076172" xlink:href="#DejaVuSans-6f"/>
     <use x="737.257812" xlink:href="#DejaVuSans-6e"/>
     <use x="800.636719" xlink:href="#DejaVuSans-20"/>
     <use x="832.423828" xlink:href="#DejaVuSans-6f"/>
     <use x="893.605469" xlink:href="#DejaVuSans-76"/>
     <use x="952.785156" xlink:href="#DejaVuSans-65"/>
     <use x="1014.308594" xlink:href="#DejaVuSans-72"/>
     <use x="1055.421875" xlink:href="#DejaVuSans-20"/>
     <use x="1087.208984" xlink:href="#DejaVuSans-54"/>
     <use x="1148.246094" xlink:href="#DejaVuSans-69"/>
     <use x="1176.029297" xlink:href="#DejaVuSans-6d"/>
     <use x="1273.441406" xlink:href="#DejaVuSans-65"/>
    </g>
   </g>
   <g id="legend_1">
    <g id="patch_7">
     <path d="M 63.09 121.50875 
L 186.032187 121.50875 
Q 188.032187 121.50875 188.032187 119.50875 
L 188.032187 32.44 
Q 188.032187 30.44 186.032187 30.44 
L 63.09 30.44 
Q 61.09 30.44 61.09 32.44 
L 61.09 119.50875 
Q 61.09 121.50875 63.09 121.50875 
z
" style="fill:#ffffff;opacity:0.8;stroke:#cccccc;stroke-linejoin:miter;"/>
    </g>
    <g id="line2d_41">
     <path d="M 65.09 38.538438 
L 85.09 38.538438 
" style="fill:none;stroke:#ff0000;stroke-linecap:square;stroke-width:1.5;"/>
    </g>
    <g id="line2d_42"/>
    <g id="text_21">
     <!-- Gripper X -->
     <defs>
      <path d="M 6.296875 72.90625 
L 16.890625 72.90625 
L 35.015625 45.796875 
L 53.21875 72.90625 
L 63.8125 72.90625 
L 40.375 37.890625 
L 65.375 0 
L 54.78125 0 
L 34.28125 31 
L 13.625 0 
L 2.984375 0 
L 29 38.921875 
z
" id="DejaVuSans-58"/>
     </defs>
     <g transform="translate(93.09 42.038438)scale(0.1 -0.1)">
      <use xlink:href="#DejaVuSans-47"/>
      <use x="77.490234" xlink:href="#DejaVuSans-72"/>
      <use x="118.603516" xlink:href="#DejaVuSans-69"/>
      <use x="146.386719" xlink:href="#DejaVuSans-70"/>
      <use x="209.863281" xlink:href="#DejaVuSans-70"/>
      <use x="273.339844" xlink:href="#DejaVuSans-65"/>
      <use x="334.863281" xlink:href="#DejaVuSans-72"/>
      <use x="375.976562" xlink:href="#DejaVuSans-20"/>
      <use x="407.763672" xlink:href="#DejaVuSans-58"/>
     </g>
    </g>
    <g id="line2d_43">
     <path d="M 65.09 53.216563 
L 85.09 53.216563 
" style="fill:none;stroke:#008000;stroke-linecap:square;stroke-width:1.5;"/>
    </g>
    <g id="line2d_44"/>
    <g id="text_22">
     <!-- Gripper Y -->
     <defs>
      <path d="M -0.203125 72.90625 
L 10.40625 72.90625 
L 30.609375 42.921875 
L 50.6875 72.90625 
L 61.28125 72.90625 
L 35.5 34.71875 
L 35.5 0 
L 25.59375 0 
L 25.59375 34.71875 
z
" id="DejaVuSans-59"/>
     </defs>
     <g transform="translate(93.09 56.716563)scale(0.1 -0.1)">
      <use xlink:href="#DejaVuSans-47"/>
      <use x="77.490234" xlink:href="#DejaVuSans-72"/>
      <use x="118.603516" xlink:href="#DejaVuSans-69"/>
      <use x="146.386719" xlink:href="#DejaVuSans-70"/>
      <use x="209.863281" xlink:href="#DejaVuSans-70"/>
      <use x="273.339844" xlink:href="#DejaVuSans-65"/>
      <use x="334.863281" xlink:href="#DejaVuSans-72"/>
      <use x="375.976562" xlink:href="#DejaVuSans-20"/>
      <use x="407.763672" xlink:href="#DejaVuSans-59"/>
     </g>
    </g>
    <g id="line2d_45">
     <path d="M 65.09 67.894688 
L 85.09 67.894688 
" style="fill:none;stroke:#0000ff;stroke-linecap:square;stroke-width:1.5;"/>
    </g>
    <g id="line2d_46"/>
    <g id="text_23">
     <!-- Gripper Z -->
     <defs>
      <path d="M 5.609375 72.90625 
L 62.890625 72.90625 
L 62.890625 65.375 
L 16.796875 8.296875 
L 64.015625 8.296875 
L 64.015625 0 
L 4.5 0 
L 4.5 7.515625 
L 50.59375 64.59375 
L 5.609375 64.59375 
z
" id="DejaVuSans-5a"/>
     </defs>
     <g transform="translate(93.09 71.394688)scale(0.1 -0.1)">
      <use xlink:href="#DejaVuSans-47"/>
      <use x="77.490234" xlink:href="#DejaVuSans-72"/>
      <use x="118.603516" xlink:href="#DejaVuSans-69"/>
      <use x="146.386719" xlink:href="#DejaVuSans-70"/>
      <use x="209.863281" xlink:href="#DejaVuSans-70"/>
      <use x="273.339844" xlink:href="#DejaVuSans-65"/>
      <use x="334.863281" xlink:href="#DejaVuSans-72"/>
      <use x="375.976562" xlink:href="#DejaVuSans-20"/>
      <use x="407.763672" xlink:href="#DejaVuSans-5a"/>
     </g>
    </g>
    <g id="line2d_47">
     <path d="M 65.09 82.572813 
L 85.09 82.572813 
" style="fill:none;stroke:#ff0000;stroke-dasharray:5.55,2.4;stroke-dashoffset:0;stroke-width:1.5;"/>
    </g>
    <g id="line2d_48"/>
    <g id="text_24">
     <!-- Desired X Position -->
     <defs>
      <path d="M 19.671875 64.796875 
L 19.671875 8.109375 
L 31.59375 8.109375 
Q 46.6875 8.109375 53.6875 14.9375 
Q 60.6875 21.78125 60.6875 36.53125 
Q 60.6875 51.171875 53.6875 57.984375 
Q 46.6875 64.796875 31.59375 64.796875 
z
M 9.8125 72.90625 
L 30.078125 72.90625 
Q 51.265625 72.90625 61.171875 64.09375 
Q 71.09375 55.28125 71.09375 36.53125 
Q 71.09375 17.671875 61.125 8.828125 
Q 51.171875 0 30.078125 0 
L 9.8125 0 
z
" id="DejaVuSans-44"/>
     </defs>
     <g transform="translate(93.09 86.072813)scale(0.1 -0.1)">
      <use xlink:href="#DejaVuSans-44"/>
      <use x="77.001953" xlink:href="#DejaVuSans-65"/>
      <use x="138.525391" xlink:href="#DejaVuSans-73"/>
      <use x="190.625" xlink:href="#DejaVuSans-69"/>
      <use x="218.408203" xlink:href="#DejaVuSans-72"/>
      <use x="259.490234" xlink:href="#DejaVuSans-65"/>
      <use x="321.013672" xlink:href="#DejaVuSans-64"/>
      <use x="384.490234" xlink:href="#DejaVuSans-20"/>
      <use x="416.277344" xlink:href="#DejaVuSans-58"/>
      <use x="484.783203" xlink:href="#DejaVuSans-20"/>
      <use x="516.570312" xlink:href="#DejaVuSans-50"/>
      <use x="576.826172" xlink:href="#DejaVuSans-6f"/>
      <use x="638.007812" xlink:href="#DejaVuSans-73"/>
      <use x="690.107422" xlink:href="#DejaVuSans-69"/>
      <use x="717.890625" xlink:href="#DejaVuSans-74"/>
      <use x="757.099609" xlink:href="#DejaVuSans-69"/>
      <use x="784.882812" xlink:href="#DejaVuSans-6f"/>
      <use x="846.064453" xlink:href="#DejaVuSans-6e"/>
     </g>
    </g>
    <g id="line2d_49">
     <path d="M 65.09 97.250938 
L 85.09 97.250938 
" style="fill:none;stroke:#008000;stroke-dasharray:5.55,2.4;stroke-dashoffset:0;stroke-width:1.5;"/>
    </g>
    <g id="line2d_50"/>
    <g id="text_25">
     <!-- Desired Y Position -->
     <g transform="translate(93.09 100.750938)scale(0.1 -0.1)">
      <use xlink:href="#DejaVuSans-44"/>
      <use x="77.001953" xlink:href="#DejaVuSans-65"/>
      <use x="138.525391" xlink:href="#DejaVuSans-73"/>
      <use x="190.625" xlink:href="#DejaVuSans-69"/>
      <use x="218.408203" xlink:href="#DejaVuSans-72"/>
      <use x="259.490234" xlink:href="#DejaVuSans-65"/>
      <use x="321.013672" xlink:href="#DejaVuSans-64"/>
      <use x="384.490234" xlink:href="#DejaVuSans-20"/>
      <use x="416.277344" xlink:href="#DejaVuSans-59"/>
      <use x="477.361328" xlink:href="#DejaVuSans-20"/>
      <use x="509.148438" xlink:href="#DejaVuSans-50"/>
      <use x="569.404297" xlink:href="#DejaVuSans-6f"/>
      <use x="630.585938" xlink:href="#DejaVuSans-73"/>
      <use x="682.685547" xlink:href="#DejaVuSans-69"/>
      <use x="710.46875" xlink:href="#DejaVuSans-74"/>
      <use x="749.677734" xlink:href="#DejaVuSans-69"/>
      <use x="777.460938" xlink:href="#DejaVuSans-6f"/>
      <use x="838.642578" xlink:href="#DejaVuSans-6e"/>
     </g>
    </g>
    <g id="line2d_51">
     <path d="M 65.09 111.929063 
L 85.09 111.929063 
" style="fill:none;stroke:#0000ff;stroke-dasharray:5.55,2.4;stroke-dashoffset:0;stroke-width:1.5;"/>
    </g>
    <g id="line2d_52"/>
    <g id="text_26">
     <!-- Desired Z Position -->
     <g transform="translate(93.09 115.429063)scale(0.1 -0.1)">
      <use xlink:href="#DejaVuSans-44"/>
      <use x="77.001953" xlink:href="#DejaVuSans-65"/>
      <use x="138.525391" xlink:href="#DejaVuSans-73"/>
      <use x="190.625" xlink:href="#DejaVuSans-69"/>
      <use x="218.408203" xlink:href="#DejaVuSans-72"/>
      <use x="259.490234" xlink:href="#DejaVuSans-65"/>
      <use x="321.013672" xlink:href="#DejaVuSans-64"/>
      <use x="384.490234" xlink:href="#DejaVuSans-20"/>
      <use x="416.277344" xlink:href="#DejaVuSans-5a"/>
      <use x="484.783203" xlink:href="#DejaVuSans-20"/>
      <use x="516.570312" xlink:href="#DejaVuSans-50"/>
      <use x="576.826172" xlink:href="#DejaVuSans-6f"/>
      <use x="638.007812" xlink:href="#DejaVuSans-73"/>
      <use x="690.107422" xlink:href="#DejaVuSans-69"/>
      <use x="717.890625" xlink:href="#DejaVuSans-74"/>
      <use x="757.099609" xlink:href="#DejaVuSans-69"/>
      <use x="784.882812" xlink:href="#DejaVuSans-6f"/>
      <use x="846.064453" xlink:href="#DejaVuSans-6e"/>
     </g>
    </g>
   </g>
  </g>
  <g id="axes_2">
   <g id="patch_8">
    <path d="M 56.09 678.04 
L 706.68 678.04 
L 706.68 380.04 
L 56.09 380.04 
z
" style="fill:#ffffff;"/>
   </g>
   <g id="matplotlib.axis_3">
    <g id="xtick_10">
     <g id="line2d_53">
      <path clip-path="url(#pf29ff73e56)" d="M 83.160177 678.04 
L 83.160177 380.04 
" style="fill:none;stroke:#b0b0b0;stroke-linecap:square;stroke-width:0.8;"/>
     </g>
     <g id="line2d_54">
      <g>
       <use style="stroke:#000000;stroke-width:0.8;" x="83.160177" xlink:href="#m76a39b3bc4" y="678.04"/>
      </g>
     </g>
     <g id="text_27">
      <!-- 0 -->
      <g transform="translate(79.978927 692.638438)scale(0.1 -0.1)">
       <use xlink:href="#DejaVuSans-30"/>
      </g>
     </g>
    </g>
    <g id="xtick_11">
     <g id="line2d_55">
      <path clip-path="url(#pf29ff73e56)" d="M 156.734386 678.04 
L 156.734386 380.04 
" style="fill:none;stroke:#b0b0b0;stroke-linecap:square;stroke-width:0.8;"/>
     </g>
     <g id="line2d_56">
      <g>
       <use style="stroke:#000000;stroke-width:0.8;" x="156.734386" xlink:href="#m76a39b3bc4" y="678.04"/>
      </g>
     </g>
     <g id="text_28">
      <!-- 5 -->
      <g transform="translate(153.553136 692.638438)scale(0.1 -0.1)">
       <use xlink:href="#DejaVuSans-35"/>
      </g>
     </g>
    </g>
    <g id="xtick_12">
     <g id="line2d_57">
      <path clip-path="url(#pf29ff73e56)" d="M 230.308595 678.04 
L 230.308595 380.04 
" style="fill:none;stroke:#b0b0b0;stroke-linecap:square;stroke-width:0.8;"/>
     </g>
     <g id="line2d_58">
      <g>
       <use style="stroke:#000000;stroke-width:0.8;" x="230.308595" xlink:href="#m76a39b3bc4" y="678.04"/>
      </g>
     </g>
     <g id="text_29">
      <!-- 10 -->
      <g transform="translate(223.946095 692.638438)scale(0.1 -0.1)">
       <use xlink:href="#DejaVuSans-31"/>
       <use x="63.623047" xlink:href="#DejaVuSans-30"/>
      </g>
     </g>
    </g>
    <g id="xtick_13">
     <g id="line2d_59">
      <path clip-path="url(#pf29ff73e56)" d="M 303.882804 678.04 
L 303.882804 380.04 
" style="fill:none;stroke:#b0b0b0;stroke-linecap:square;stroke-width:0.8;"/>
     </g>
     <g id="line2d_60">
      <g>
       <use style="stroke:#000000;stroke-width:0.8;" x="303.882804" xlink:href="#m76a39b3bc4" y="678.04"/>
      </g>
     </g>
     <g id="text_30">
      <!-- 15 -->
      <g transform="translate(297.520304 692.638438)scale(0.1 -0.1)">
       <use xlink:href="#DejaVuSans-31"/>
       <use x="63.623047" xlink:href="#DejaVuSans-35"/>
      </g>
     </g>
    </g>
    <g id="xtick_14">
     <g id="line2d_61">
      <path clip-path="url(#pf29ff73e56)" d="M 377.457013 678.04 
L 377.457013 380.04 
" style="fill:none;stroke:#b0b0b0;stroke-linecap:square;stroke-width:0.8;"/>
     </g>
     <g id="line2d_62">
      <g>
       <use style="stroke:#000000;stroke-width:0.8;" x="377.457013" xlink:href="#m76a39b3bc4" y="678.04"/>
      </g>
     </g>
     <g id="text_31">
      <!-- 20 -->
      <g transform="translate(371.094513 692.638438)scale(0.1 -0.1)">
       <use xlink:href="#DejaVuSans-32"/>
       <use x="63.623047" xlink:href="#DejaVuSans-30"/>
      </g>
     </g>
    </g>
    <g id="xtick_15">
     <g id="line2d_63">
      <path clip-path="url(#pf29ff73e56)" d="M 451.031222 678.04 
L 451.031222 380.04 
" style="fill:none;stroke:#b0b0b0;stroke-linecap:square;stroke-width:0.8;"/>
     </g>
     <g id="line2d_64">
      <g>
       <use style="stroke:#000000;stroke-width:0.8;" x="451.031222" xlink:href="#m76a39b3bc4" y="678.04"/>
      </g>
     </g>
     <g id="text_32">
      <!-- 25 -->
      <g transform="translate(444.668722 692.638438)scale(0.1 -0.1)">
       <use xlink:href="#DejaVuSans-32"/>
       <use x="63.623047" xlink:href="#DejaVuSans-35"/>
      </g>
     </g>
    </g>
    <g id="xtick_16">
     <g id="line2d_65">
      <path clip-path="url(#pf29ff73e56)" d="M 524.605431 678.04 
L 524.605431 380.04 
" style="fill:none;stroke:#b0b0b0;stroke-linecap:square;stroke-width:0.8;"/>
     </g>
     <g id="line2d_66">
      <g>
       <use style="stroke:#000000;stroke-width:0.8;" x="524.605431" xlink:href="#m76a39b3bc4" y="678.04"/>
      </g>
     </g>
     <g id="text_33">
      <!-- 30 -->
      <g transform="translate(518.242931 692.638438)scale(0.1 -0.1)">
       <use xlink:href="#DejaVuSans-33"/>
       <use x="63.623047" xlink:href="#DejaVuSans-30"/>
      </g>
     </g>
    </g>
    <g id="xtick_17">
     <g id="line2d_67">
      <path clip-path="url(#pf29ff73e56)" d="M 598.179641 678.04 
L 598.179641 380.04 
" style="fill:none;stroke:#b0b0b0;stroke-linecap:square;stroke-width:0.8;"/>
     </g>
     <g id="line2d_68">
      <g>
       <use style="stroke:#000000;stroke-width:0.8;" x="598.179641" xlink:href="#m76a39b3bc4" y="678.04"/>
      </g>
     </g>
     <g id="text_34">
      <!-- 35 -->
      <g transform="translate(591.817141 692.638438)scale(0.1 -0.1)">
       <use xlink:href="#DejaVuSans-33"/>
       <use x="63.623047" xlink:href="#DejaVuSans-35"/>
      </g>
     </g>
    </g>
    <g id="xtick_18">
     <g id="line2d_69">
      <path clip-path="url(#pf29ff73e56)" d="M 671.75385 678.04 
L 671.75385 380.04 
" style="fill:none;stroke:#b0b0b0;stroke-linecap:square;stroke-width:0.8;"/>
     </g>
     <g id="line2d_70">
      <g>
       <use style="stroke:#000000;stroke-width:0.8;" x="671.75385" xlink:href="#m76a39b3bc4" y="678.04"/>
      </g>
     </g>
     <g id="text_35">
      <!-- 40 -->
      <g transform="translate(665.39135 692.638438)scale(0.1 -0.1)">
       <use xlink:href="#DejaVuSans-34"/>
       <use x="63.623047" xlink:href="#DejaVuSans-30"/>
      </g>
     </g>
    </g>
    <g id="text_36">
     <!-- Time (seconds) -->
     <g transform="translate(343.069375 706.316563)scale(0.1 -0.1)">
      <use xlink:href="#DejaVuSans-54"/>
      <use x="61.037109" xlink:href="#DejaVuSans-69"/>
      <use x="88.820312" xlink:href="#DejaVuSans-6d"/>
      <use x="186.232422" xlink:href="#DejaVuSans-65"/>
      <use x="247.755859" xlink:href="#DejaVuSans-20"/>
      <use x="279.542969" xlink:href="#DejaVuSans-28"/>
      <use x="318.556641" xlink:href="#DejaVuSans-73"/>
      <use x="370.65625" xlink:href="#DejaVuSans-65"/>
      <use x="432.179688" xlink:href="#DejaVuSans-63"/>
      <use x="487.160156" xlink:href="#DejaVuSans-6f"/>
      <use x="548.341797" xlink:href="#DejaVuSans-6e"/>
      <use x="611.720703" xlink:href="#DejaVuSans-64"/>
      <use x="675.197266" xlink:href="#DejaVuSans-73"/>
      <use x="727.296875" xlink:href="#DejaVuSans-29"/>
     </g>
    </g>
   </g>
   <g id="matplotlib.axis_4">
    <g id="ytick_9">
     <g id="line2d_71">
      <path clip-path="url(#pf29ff73e56)" d="M 56.09 668.327659 
L 706.68 668.327659 
" style="fill:none;stroke:#b0b0b0;stroke-linecap:square;stroke-width:0.8;"/>
     </g>
     <g id="line2d_72">
      <g>
       <use style="stroke:#000000;stroke-width:0.8;" x="56.09" xlink:href="#m43802a1923" y="668.327659"/>
      </g>
     </g>
     <g id="text_37">
      <!-- −0.6 -->
      <g transform="translate(24.807188 672.126878)scale(0.1 -0.1)">
       <use xlink:href="#DejaVuSans-2212"/>
       <use x="83.789062" xlink:href="#DejaVuSans-30"/>
       <use x="147.412109" xlink:href="#DejaVuSans-2e"/>
       <use x="179.199219" xlink:href="#DejaVuSans-36"/>
      </g>
     </g>
    </g>
    <g id="ytick_10">
     <g id="line2d_73">
      <path clip-path="url(#pf29ff73e56)" d="M 56.09 621.896553 
L 706.68 621.896553 
" style="fill:none;stroke:#b0b0b0;stroke-linecap:square;stroke-width:0.8;"/>
     </g>
     <g id="line2d_74">
      <g>
       <use style="stroke:#000000;stroke-width:0.8;" x="56.09" xlink:href="#m43802a1923" y="621.896553"/>
      </g>
     </g>
     <g id="text_38">
      <!-- −0.4 -->
      <g transform="translate(24.807188 625.695772)scale(0.1 -0.1)">
       <use xlink:href="#DejaVuSans-2212"/>
       <use x="83.789062" xlink:href="#DejaVuSans-30"/>
       <use x="147.412109" xlink:href="#DejaVuSans-2e"/>
       <use x="179.199219" xlink:href="#DejaVuSans-34"/>
      </g>
     </g>
    </g>
    <g id="ytick_11">
     <g id="line2d_75">
      <path clip-path="url(#pf29ff73e56)" d="M 56.09 575.465447 
L 706.68 575.465447 
" style="fill:none;stroke:#b0b0b0;stroke-linecap:square;stroke-width:0.8;"/>
     </g>
     <g id="line2d_76">
      <g>
       <use style="stroke:#000000;stroke-width:0.8;" x="56.09" xlink:href="#m43802a1923" y="575.465447"/>
      </g>
     </g>
     <g id="text_39">
      <!-- −0.2 -->
      <g transform="translate(24.807188 579.264666)scale(0.1 -0.1)">
       <use xlink:href="#DejaVuSans-2212"/>
       <use x="83.789062" xlink:href="#DejaVuSans-30"/>
       <use x="147.412109" xlink:href="#DejaVuSans-2e"/>
       <use x="179.199219" xlink:href="#DejaVuSans-32"/>
      </g>
     </g>
    </g>
    <g id="ytick_12">
     <g id="line2d_77">
      <path clip-path="url(#pf29ff73e56)" d="M 56.09 529.034341 
L 706.68 529.034341 
" style="fill:none;stroke:#b0b0b0;stroke-linecap:square;stroke-width:0.8;"/>
     </g>
     <g id="line2d_78">
      <g>
       <use style="stroke:#000000;stroke-width:0.8;" x="56.09" xlink:href="#m43802a1923" y="529.034341"/>
      </g>
     </g>
     <g id="text_40">
      <!-- 0.0 -->
      <g transform="translate(33.186875 532.83356)scale(0.1 -0.1)">
       <use xlink:href="#DejaVuSans-30"/>
       <use x="63.623047" xlink:href="#DejaVuSans-2e"/>
       <use x="95.410156" xlink:href="#DejaVuSans-30"/>
      </g>
     </g>
    </g>
    <g id="ytick_13">
     <g id="line2d_79">
      <path clip-path="url(#pf29ff73e56)" d="M 56.09 482.603235 
L 706.68 482.603235 
" style="fill:none;stroke:#b0b0b0;stroke-linecap:square;stroke-width:0.8;"/>
     </g>
     <g id="line2d_80">
      <g>
       <use style="stroke:#000000;stroke-width:0.8;" x="56.09" xlink:href="#m43802a1923" y="482.603235"/>
      </g>
     </g>
     <g id="text_41">
      <!-- 0.2 -->
      <g transform="translate(33.186875 486.402454)scale(0.1 -0.1)">
       <use xlink:href="#DejaVuSans-30"/>
       <use x="63.623047" xlink:href="#DejaVuSans-2e"/>
       <use x="95.410156" xlink:href="#DejaVuSans-32"/>
      </g>
     </g>
    </g>
    <g id="ytick_14">
     <g id="line2d_81">
      <path clip-path="url(#pf29ff73e56)" d="M 56.09 436.172129 
L 706.68 436.172129 
" style="fill:none;stroke:#b0b0b0;stroke-linecap:square;stroke-width:0.8;"/>
     </g>
     <g id="line2d_82">
      <g>
       <use style="stroke:#000000;stroke-width:0.8;" x="56.09" xlink:href="#m43802a1923" y="436.172129"/>
      </g>
     </g>
     <g id="text_42">
      <!-- 0.4 -->
      <g transform="translate(33.186875 439.971348)scale(0.1 -0.1)">
       <use xlink:href="#DejaVuSans-30"/>
       <use x="63.623047" xlink:href="#DejaVuSans-2e"/>
       <use x="95.410156" xlink:href="#DejaVuSans-34"/>
      </g>
     </g>
    </g>
    <g id="ytick_15">
     <g id="line2d_83">
      <path clip-path="url(#pf29ff73e56)" d="M 56.09 389.741024 
L 706.68 389.741024 
" style="fill:none;stroke:#b0b0b0;stroke-linecap:square;stroke-width:0.8;"/>
     </g>
     <g id="line2d_84">
      <g>
       <use style="stroke:#000000;stroke-width:0.8;" x="56.09" xlink:href="#m43802a1923" y="389.741024"/>
      </g>
     </g>
     <g id="text_43">
      <!-- 0.6 -->
      <g transform="translate(33.186875 393.540242)scale(0.1 -0.1)">
       <use xlink:href="#DejaVuSans-30"/>
       <use x="63.623047" xlink:href="#DejaVuSans-2e"/>
       <use x="95.410156" xlink:href="#DejaVuSans-36"/>
      </g>
     </g>
    </g>
    <g id="text_44">
     <!-- Orientation (quaternion) -->
     <defs>
      <path d="M 39.40625 66.21875 
Q 28.65625 66.21875 22.328125 58.203125 
Q 16.015625 50.203125 16.015625 36.375 
Q 16.015625 22.609375 22.328125 14.59375 
Q 28.65625 6.59375 39.40625 6.59375 
Q 50.140625 6.59375 56.421875 14.59375 
Q 62.703125 22.609375 62.703125 36.375 
Q 62.703125 50.203125 56.421875 58.203125 
Q 50.140625 66.21875 39.40625 66.21875 
z
M 39.40625 74.21875 
Q 54.734375 74.21875 63.90625 63.9375 
Q 73.09375 53.65625 73.09375 36.375 
Q 73.09375 19.140625 63.90625 8.859375 
Q 54.734375 -1.421875 39.40625 -1.421875 
Q 24.03125 -1.421875 14.8125 8.828125 
Q 5.609375 19.09375 5.609375 36.375 
Q 5.609375 53.65625 14.8125 63.9375 
Q 24.03125 74.21875 39.40625 74.21875 
z
" id="DejaVuSans-4f"/>
      <path d="M 34.28125 27.484375 
Q 23.390625 27.484375 19.1875 25 
Q 14.984375 22.515625 14.984375 16.5 
Q 14.984375 11.71875 18.140625 8.90625 
Q 21.296875 6.109375 26.703125 6.109375 
Q 34.1875 6.109375 38.703125 11.40625 
Q 43.21875 16.703125 43.21875 25.484375 
L 43.21875 27.484375 
z
M 52.203125 31.203125 
L 52.203125 0 
L 43.21875 0 
L 43.21875 8.296875 
Q 40.140625 3.328125 35.546875 0.953125 
Q 30.953125 -1.421875 24.3125 -1.421875 
Q 15.921875 -1.421875 10.953125 3.296875 
Q 6 8.015625 6 15.921875 
Q 6 25.140625 12.171875 29.828125 
Q 18.359375 34.515625 30.609375 34.515625 
L 43.21875 34.515625 
L 43.21875 35.40625 
Q 43.21875 41.609375 39.140625 45 
Q 35.0625 48.390625 27.6875 48.390625 
Q 23 48.390625 18.546875 47.265625 
Q 14.109375 46.140625 10.015625 43.890625 
L 10.015625 52.203125 
Q 14.9375 54.109375 19.578125 55.046875 
Q 24.21875 56 28.609375 56 
Q 40.484375 56 46.34375 49.84375 
Q 52.203125 43.703125 52.203125 31.203125 
z
" id="DejaVuSans-61"/>
      <path d="M 14.796875 27.296875 
Q 14.796875 17.390625 18.875 11.75 
Q 22.953125 6.109375 30.078125 6.109375 
Q 37.203125 6.109375 41.296875 11.75 
Q 45.40625 17.390625 45.40625 27.296875 
Q 45.40625 37.203125 41.296875 42.84375 
Q 37.203125 48.484375 30.078125 48.484375 
Q 22.953125 48.484375 18.875 42.84375 
Q 14.796875 37.203125 14.796875 27.296875 
z
M 45.40625 8.203125 
Q 42.578125 3.328125 38.25 0.953125 
Q 33.9375 -1.421875 27.875 -1.421875 
Q 17.96875 -1.421875 11.734375 6.484375 
Q 5.515625 14.40625 5.515625 27.296875 
Q 5.515625 40.1875 11.734375 48.09375 
Q 17.96875 56 27.875 56 
Q 33.9375 56 38.25 53.625 
Q 42.578125 51.265625 45.40625 46.390625 
L 45.40625 54.6875 
L 54.390625 54.6875 
L 54.390625 -20.796875 
L 45.40625 -20.796875 
z
" id="DejaVuSans-71"/>
      <path d="M 8.5 21.578125 
L 8.5 54.6875 
L 17.484375 54.6875 
L 17.484375 21.921875 
Q 17.484375 14.15625 20.5 10.265625 
Q 23.53125 6.390625 29.59375 6.390625 
Q 36.859375 6.390625 41.078125 11.03125 
Q 45.3125 15.671875 45.3125 23.6875 
L 45.3125 54.6875 
L 54.296875 54.6875 
L 54.296875 0 
L 45.3125 0 
L 45.3125 8.40625 
Q 42.046875 3.421875 37.71875 1 
Q 33.40625 -1.421875 27.6875 -1.421875 
Q 18.265625 -1.421875 13.375 4.4375 
Q 8.5 10.296875 8.5 21.578125 
z
M 31.109375 56 
z
" id="DejaVuSans-75"/>
     </defs>
     <g transform="translate(18.7275 590.042344)rotate(-90)scale(0.1 -0.1)">
      <use xlink:href="#DejaVuSans-4f"/>
      <use x="78.710938" xlink:href="#DejaVuSans-72"/>
      <use x="119.824219" xlink:href="#DejaVuSans-69"/>
      <use x="147.607422" xlink:href="#DejaVuSans-65"/>
      <use x="209.130859" xlink:href="#DejaVuSans-6e"/>
      <use x="272.509766" xlink:href="#DejaVuSans-74"/>
      <use x="311.71875" xlink:href="#DejaVuSans-61"/>
      <use x="372.998047" xlink:href="#DejaVuSans-74"/>
      <use x="412.207031" xlink:href="#DejaVuSans-69"/>
      <use x="439.990234" xlink:href="#DejaVuSans-6f"/>
      <use x="501.171875" xlink:href="#DejaVuSans-6e"/>
      <use x="564.550781" xlink:href="#DejaVuSans-20"/>
      <use x="596.337891" xlink:href="#DejaVuSans-28"/>
      <use x="635.351562" xlink:href="#DejaVuSans-71"/>
      <use x="698.828125" xlink:href="#DejaVuSans-75"/>
      <use x="762.207031" xlink:href="#DejaVuSans-61"/>
      <use x="823.486328" xlink:href="#DejaVuSans-74"/>
      <use x="862.695312" xlink:href="#DejaVuSans-65"/>
      <use x="924.21875" xlink:href="#DejaVuSans-72"/>
      <use x="965.316406" xlink:href="#DejaVuSans-6e"/>
      <use x="1028.695312" xlink:href="#DejaVuSans-69"/>
      <use x="1056.478516" xlink:href="#DejaVuSans-6f"/>
      <use x="1117.660156" xlink:href="#DejaVuSans-6e"/>
      <use x="1181.039062" xlink:href="#DejaVuSans-29"/>
     </g>
    </g>
   </g>
   <g id="line2d_85">
    <path clip-path="url(#pf29ff73e56)" d="M 85.662273 407.49792 
L 115.04684 407.402503 
L 118.006245 407.09649 
L 120.958146 406.510407 
L 125.353043 405.320993 
L 128.333196 404.452195 
L 131.253635 403.699139 
L 134.192896 403.165156 
L 137.177652 402.882352 
L 148.92101 402.444345 
L 153.360904 401.815882 
L 162.17308 400.486864 
L 165.123581 400.249834 
L 169.578515 400.159632 
L 175.425455 400.119297 
L 182.679122 399.617647 
L 193.053558 398.83132 
L 198.901133 398.71635 
L 206.297752 398.647703 
L 212.211472 398.404234 
L 222.503267 397.976333 
L 231.357672 397.91563 
L 237.25422 397.854545 
L 256.332306 397.492548 
L 279.907868 397.303981 
L 316.623207 397.161211 
L 325.510075 397.161335 
L 394.669432 397.045442 
L 406.370824 397.048859 
L 444.705825 397.052438 
L 499.1361 397.066854 
L 528.511427 397.228706 
L 531.537342 397.663296 
L 532.983797 398.058073 
L 534.479441 398.602081 
L 537.391067 400.157428 
L 544.75748 405.464123 
L 547.673712 406.873861 
L 549.182895 407.238018 
L 550.635177 407.449651 
L 558.048292 407.494027 
L 582.953076 407.497611 
L 677.107727 407.495074 
L 677.107727 407.495074 
" style="fill:none;stroke:#ffa500;stroke-linecap:square;stroke-width:1.5;"/>
   </g>
   <g id="line2d_86">
    <path clip-path="url(#pf29ff73e56)" d="M 85.662273 397.744754 
L 115.04684 397.714678 
L 119.503584 397.520679 
L 135.6352 396.235819 
L 153.360904 395.798697 
L 163.64652 395.220857 
L 169.578515 395.144947 
L 179.830007 395.009491 
L 198.901133 394.522942 
L 210.714074 394.400246 
L 229.866192 394.098364 
L 240.208517 394.024203 
L 250.478757 393.856373 
L 287.205957 393.662423 
L 357.909903 393.616658 
L 371.11025 393.683502 
L 401.968054 393.804732 
L 427.010184 393.930878 
L 475.619148 394.16675 
L 528.511427 394.595132 
L 530.035488 394.701081 
L 532.983797 395.180603 
L 544.75748 397.453651 
L 547.673712 397.65882 
L 552.088297 397.738945 
L 596.261338 397.748752 
L 655.088994 397.746009 
L 677.107727 397.748234 
L 677.107727 397.748234 
" style="fill:none;stroke:#800080;stroke-linecap:square;stroke-width:1.5;"/>
   </g>
   <g id="line2d_87">
    <path clip-path="url(#pf29ff73e56)" d="M 85.662273 631.996032 
L 116.562292 631.89894 
L 120.958146 631.519514 
L 126.812268 630.699756 
L 132.730401 629.953158 
L 135.6352 629.724974 
L 140.06712 629.648485 
L 145.972669 629.581982 
L 150.373057 629.356171 
L 156.318015 628.851752 
L 163.64652 628.302749 
L 168.017799 628.196607 
L 178.321676 628.105538 
L 194.507941 627.498879 
L 237.25422 627.07838 
L 268.124046 626.968402 
L 291.678843 626.972786 
L 300.481392 626.954052 
L 329.945703 627.021893 
L 335.781697 627.028693 
L 344.661853 627.065967 
L 350.549377 627.050451 
L 428.483653 627.217938 
L 450.599973 627.266156 
L 469.699618 627.295607 
L 478.591309 627.338555 
L 487.405296 627.380452 
L 507.89527 627.399191 
L 521.191527 627.452803 
L 525.554642 627.466643 
L 527.021974 627.5139 
L 530.035488 627.901949 
L 532.983797 628.624144 
L 540.339923 631.021951 
L 543.293119 631.634855 
L 546.24134 631.901645 
L 550.635177 631.993026 
L 568.269928 631.989026 
L 605.084239 631.995617 
L 666.872935 631.993449 
L 677.107727 631.99345 
L 677.107727 631.99345 
" style="fill:none;stroke:#00ffff;stroke-linecap:square;stroke-width:1.5;"/>
   </g>
   <g id="line2d_88">
    <path clip-path="url(#pf29ff73e56)" d="M 85.662273 529.034341 
L 109.19463 529.034341 
L 110.659258 662.557688 
L 677.107727 662.557688 
L 677.107727 662.557688 
" style="fill:none;stroke:#ffa500;stroke-dasharray:5.55,2.4;stroke-dashoffset:0;stroke-width:1.5;"/>
   </g>
   <g id="line2d_89">
    <path clip-path="url(#pf29ff73e56)" d="M 85.662273 529.034341 
L 109.19463 529.034341 
L 110.659258 664.494545 
L 677.107727 664.494545 
L 677.107727 664.494545 
" style="fill:none;stroke:#800080;stroke-dasharray:5.55,2.4;stroke-dashoffset:0;stroke-width:1.5;"/>
   </g>
   <g id="line2d_90">
    <path clip-path="url(#pf29ff73e56)" d="M 85.662273 529.034341 
L 109.19463 529.034341 
L 110.659258 432.755323 
L 677.107727 432.755323 
L 677.107727 432.755323 
" style="fill:none;stroke:#00ffff;stroke-dasharray:5.55,2.4;stroke-dashoffset:0;stroke-width:1.5;"/>
   </g>
   <g id="patch_9">
    <path d="M 56.09 678.04 
L 56.09 380.04 
" style="fill:none;stroke:#000000;stroke-linecap:square;stroke-linejoin:miter;stroke-width:0.8;"/>
   </g>
   <g id="patch_10">
    <path d="M 706.68 678.04 
L 706.68 380.04 
" style="fill:none;stroke:#000000;stroke-linecap:square;stroke-linejoin:miter;stroke-width:0.8;"/>
   </g>
   <g id="patch_11">
    <path d="M 56.09 678.04 
L 706.68 678.04 
" style="fill:none;stroke:#000000;stroke-linecap:square;stroke-linejoin:miter;stroke-width:0.8;"/>
   </g>
   <g id="patch_12">
    <path d="M 56.09 380.04 
L 706.68 380.04 
" style="fill:none;stroke:#000000;stroke-linecap:square;stroke-linejoin:miter;stroke-width:0.8;"/>
   </g>
   <g id="text_45">
    <!-- Gripper Orientation over Time -->
    <g transform="translate(290.986562 374.04)scale(0.12 -0.12)">
     <use xlink:href="#DejaVuSans-47"/>
     <use x="77.490234" xlink:href="#DejaVuSans-72"/>
     <use x="118.603516" xlink:href="#DejaVuSans-69"/>
     <use x="146.386719" xlink:href="#DejaVuSans-70"/>
     <use x="209.863281" xlink:href="#DejaVuSans-70"/>
     <use x="273.339844" xlink:href="#DejaVuSans-65"/>
     <use x="334.863281" xlink:href="#DejaVuSans-72"/>
     <use x="375.976562" xlink:href="#DejaVuSans-20"/>
     <use x="407.763672" xlink:href="#DejaVuSans-4f"/>
     <use x="486.474609" xlink:href="#DejaVuSans-72"/>
     <use x="527.587891" xlink:href="#DejaVuSans-69"/>
     <use x="555.371094" xlink:href="#DejaVuSans-65"/>
     <use x="616.894531" xlink:href="#DejaVuSans-6e"/>
     <use x="680.273438" xlink:href="#DejaVuSans-74"/>
     <use x="719.482422" xlink:href="#DejaVuSans-61"/>
     <use x="780.761719" xlink:href="#DejaVuSans-74"/>
     <use x="819.970703" xlink:href="#DejaVuSans-69"/>
     <use x="847.753906" xlink:href="#DejaVuSans-6f"/>
     <use x="908.935547" xlink:href="#DejaVuSans-6e"/>
     <use x="972.314453" xlink:href="#DejaVuSans-20"/>
     <use x="1004.101562" xlink:href="#DejaVuSans-6f"/>
     <use x="1065.283203" xlink:href="#DejaVuSans-76"/>
     <use x="1124.462891" xlink:href="#DejaVuSans-65"/>
     <use x="1185.986328" xlink:href="#DejaVuSans-72"/>
     <use x="1227.099609" xlink:href="#DejaVuSans-20"/>
     <use x="1258.886719" xlink:href="#DejaVuSans-54"/>
     <use x="1319.923828" xlink:href="#DejaVuSans-69"/>
     <use x="1347.707031" xlink:href="#DejaVuSans-6d"/>
     <use x="1445.119141" xlink:href="#DejaVuSans-65"/>
    </g>
   </g>
   <g id="legend_2">
    <g id="patch_13">
     <path d="M 559.569063 574.574375 
L 699.68 574.574375 
Q 701.68 574.574375 701.68 572.574375 
L 701.68 485.505625 
Q 701.68 483.505625 699.68 483.505625 
L 559.569063 483.505625 
Q 557.569063 483.505625 557.569063 485.505625 
L 557.569063 572.574375 
Q 557.569063 574.574375 559.569063 574.574375 
z
" style="fill:#ffffff;opacity:0.8;stroke:#cccccc;stroke-linejoin:miter;"/>
    </g>
    <g id="line2d_91">
     <path d="M 561.569063 491.604062 
L 581.569063 491.604062 
" style="fill:none;stroke:#ffa500;stroke-linecap:square;stroke-width:1.5;"/>
    </g>
    <g id="line2d_92"/>
    <g id="text_46">
     <!-- Orientation X -->
     <g transform="translate(589.569063 495.104062)scale(0.1 -0.1)">
      <use xlink:href="#DejaVuSans-4f"/>
      <use x="78.710938" xlink:href="#DejaVuSans-72"/>
      <use x="119.824219" xlink:href="#DejaVuSans-69"/>
      <use x="147.607422" xlink:href="#DejaVuSans-65"/>
      <use x="209.130859" xlink:href="#DejaVuSans-6e"/>
      <use x="272.509766" xlink:href="#DejaVuSans-74"/>
      <use x="311.71875" xlink:href="#DejaVuSans-61"/>
      <use x="372.998047" xlink:href="#DejaVuSans-74"/>
      <use x="412.207031" xlink:href="#DejaVuSans-69"/>
      <use x="439.990234" xlink:href="#DejaVuSans-6f"/>
      <use x="501.171875" xlink:href="#DejaVuSans-6e"/>
      <use x="564.550781" xlink:href="#DejaVuSans-20"/>
      <use x="596.337891" xlink:href="#DejaVuSans-58"/>
     </g>
    </g>
    <g id="line2d_93">
     <path d="M 561.569063 506.282187 
L 581.569063 506.282187 
" style="fill:none;stroke:#800080;stroke-linecap:square;stroke-width:1.5;"/>
    </g>
    <g id="line2d_94"/>
    <g id="text_47">
     <!-- Orientation Y -->
     <g transform="translate(589.569063 509.782187)scale(0.1 -0.1)">
      <use xlink:href="#DejaVuSans-4f"/>
      <use x="78.710938" xlink:href="#DejaVuSans-72"/>
      <use x="119.824219" xlink:href="#DejaVuSans-69"/>
      <use x="147.607422" xlink:href="#DejaVuSans-65"/>
      <use x="209.130859" xlink:href="#DejaVuSans-6e"/>
      <use x="272.509766" xlink:href="#DejaVuSans-74"/>
      <use x="311.71875" xlink:href="#DejaVuSans-61"/>
      <use x="372.998047" xlink:href="#DejaVuSans-74"/>
      <use x="412.207031" xlink:href="#DejaVuSans-69"/>
      <use x="439.990234" xlink:href="#DejaVuSans-6f"/>
      <use x="501.171875" xlink:href="#DejaVuSans-6e"/>
      <use x="564.550781" xlink:href="#DejaVuSans-20"/>
      <use x="596.337891" xlink:href="#DejaVuSans-59"/>
     </g>
    </g>
    <g id="line2d_95">
     <path d="M 561.569063 520.960312 
L 581.569063 520.960312 
" style="fill:none;stroke:#00ffff;stroke-linecap:square;stroke-width:1.5;"/>
    </g>
    <g id="line2d_96"/>
    <g id="text_48">
     <!-- Orientation Z -->
     <g transform="translate(589.569063 524.460312)scale(0.1 -0.1)">
      <use xlink:href="#DejaVuSans-4f"/>
      <use x="78.710938" xlink:href="#DejaVuSans-72"/>
      <use x="119.824219" xlink:href="#DejaVuSans-69"/>
      <use x="147.607422" xlink:href="#DejaVuSans-65"/>
      <use x="209.130859" xlink:href="#DejaVuSans-6e"/>
      <use x="272.509766" xlink:href="#DejaVuSans-74"/>
      <use x="311.71875" xlink:href="#DejaVuSans-61"/>
      <use x="372.998047" xlink:href="#DejaVuSans-74"/>
      <use x="412.207031" xlink:href="#DejaVuSans-69"/>
      <use x="439.990234" xlink:href="#DejaVuSans-6f"/>
      <use x="501.171875" xlink:href="#DejaVuSans-6e"/>
      <use x="564.550781" xlink:href="#DejaVuSans-20"/>
      <use x="596.337891" xlink:href="#DejaVuSans-5a"/>
     </g>
    </g>
    <g id="line2d_97">
     <path d="M 561.569063 535.638438 
L 581.569063 535.638438 
" style="fill:none;stroke:#ffa500;stroke-dasharray:5.55,2.4;stroke-dashoffset:0;stroke-width:1.5;"/>
    </g>
    <g id="line2d_98"/>
    <g id="text_49">
     <!-- Desired X Orientation -->
     <g transform="translate(589.569063 539.138438)scale(0.1 -0.1)">
      <use xlink:href="#DejaVuSans-44"/>
      <use x="77.001953" xlink:href="#DejaVuSans-65"/>
      <use x="138.525391" xlink:href="#DejaVuSans-73"/>
      <use x="190.625" xlink:href="#DejaVuSans-69"/>
      <use x="218.408203" xlink:href="#DejaVuSans-72"/>
      <use x="259.490234" xlink:href="#DejaVuSans-65"/>
      <use x="321.013672" xlink:href="#DejaVuSans-64"/>
      <use x="384.490234" xlink:href="#DejaVuSans-20"/>
      <use x="416.277344" xlink:href="#DejaVuSans-58"/>
      <use x="484.783203" xlink:href="#DejaVuSans-20"/>
      <use x="516.570312" xlink:href="#DejaVuSans-4f"/>
      <use x="595.28125" xlink:href="#DejaVuSans-72"/>
      <use x="636.394531" xlink:href="#DejaVuSans-69"/>
      <use x="664.177734" xlink:href="#DejaVuSans-65"/>
      <use x="725.701172" xlink:href="#DejaVuSans-6e"/>
      <use x="789.080078" xlink:href="#DejaVuSans-74"/>
      <use x="828.289062" xlink:href="#DejaVuSans-61"/>
      <use x="889.568359" xlink:href="#DejaVuSans-74"/>
      <use x="928.777344" xlink:href="#DejaVuSans-69"/>
      <use x="956.560547" xlink:href="#DejaVuSans-6f"/>
      <use x="1017.742188" xlink:href="#DejaVuSans-6e"/>
     </g>
    </g>
    <g id="line2d_99">
     <path d="M 561.569063 550.316563 
L 581.569063 550.316563 
" style="fill:none;stroke:#800080;stroke-dasharray:5.55,2.4;stroke-dashoffset:0;stroke-width:1.5;"/>
    </g>
    <g id="line2d_100"/>
    <g id="text_50">
     <!-- Desired Y Orientation -->
     <g transform="translate(589.569063 553.816563)scale(0.1 -0.1)">
      <use xlink:href="#DejaVuSans-44"/>
      <use x="77.001953" xlink:href="#DejaVuSans-65"/>
      <use x="138.525391" xlink:href="#DejaVuSans-73"/>
      <use x="190.625" xlink:href="#DejaVuSans-69"/>
      <use x="218.408203" xlink:href="#DejaVuSans-72"/>
      <use x="259.490234" xlink:href="#DejaVuSans-65"/>
      <use x="321.013672" xlink:href="#DejaVuSans-64"/>
      <use x="384.490234" xlink:href="#DejaVuSans-20"/>
      <use x="416.277344" xlink:href="#DejaVuSans-59"/>
      <use x="477.361328" xlink:href="#DejaVuSans-20"/>
      <use x="509.148438" xlink:href="#DejaVuSans-4f"/>
      <use x="587.859375" xlink:href="#DejaVuSans-72"/>
      <use x="628.972656" xlink:href="#DejaVuSans-69"/>
      <use x="656.755859" xlink:href="#DejaVuSans-65"/>
      <use x="718.279297" xlink:href="#DejaVuSans-6e"/>
      <use x="781.658203" xlink:href="#DejaVuSans-74"/>
      <use x="820.867188" xlink:href="#DejaVuSans-61"/>
      <use x="882.146484" xlink:href="#DejaVuSans-74"/>
      <use x="921.355469" xlink:href="#DejaVuSans-69"/>
      <use x="949.138672" xlink:href="#DejaVuSans-6f"/>
      <use x="1010.320312" xlink:href="#DejaVuSans-6e"/>
     </g>
    </g>
    <g id="line2d_101">
     <path d="M 561.569063 564.994688 
L 581.569063 564.994688 
" style="fill:none;stroke:#00ffff;stroke-dasharray:5.55,2.4;stroke-dashoffset:0;stroke-width:1.5;"/>
    </g>
    <g id="line2d_102"/>
    <g id="text_51">
     <!-- Desired Z Orientation -->
     <g transform="translate(589.569063 568.494688)scale(0.1 -0.1)">
      <use xlink:href="#DejaVuSans-44"/>
      <use x="77.001953" xlink:href="#DejaVuSans-65"/>
      <use x="138.525391" xlink:href="#DejaVuSans-73"/>
      <use x="190.625" xlink:href="#DejaVuSans-69"/>
      <use x="218.408203" xlink:href="#DejaVuSans-72"/>
      <use x="259.490234" xlink:href="#DejaVuSans-65"/>
      <use x="321.013672" xlink:href="#DejaVuSans-64"/>
      <use x="384.490234" xlink:href="#DejaVuSans-20"/>
      <use x="416.277344" xlink:href="#DejaVuSans-5a"/>
      <use x="484.783203" xlink:href="#DejaVuSans-20"/>
      <use x="516.570312" xlink:href="#DejaVuSans-4f"/>
      <use x="595.28125" xlink:href="#DejaVuSans-72"/>
      <use x="636.394531" xlink:href="#DejaVuSans-69"/>
      <use x="664.177734" xlink:href="#DejaVuSans-65"/>
      <use x="725.701172" xlink:href="#DejaVuSans-6e"/>
      <use x="789.080078" xlink:href="#DejaVuSans-74"/>
      <use x="828.289062" xlink:href="#DejaVuSans-61"/>
      <use x="889.568359" xlink:href="#DejaVuSans-74"/>
      <use x="928.777344" xlink:href="#DejaVuSans-69"/>
      <use x="956.560547" xlink:href="#DejaVuSans-6f"/>
      <use x="1017.742188" xlink:href="#DejaVuSans-6e"/>
     </g>
    </g>
   </g>
  </g>
 </g>
 <defs>
  <clipPath id="p9e6e490b23">
   <rect height="298" width="650.59" x="56.09" y="25.44"/>
  </clipPath>
  <clipPath id="pf29ff73e56">
   <rect height="298" width="650.59" x="56.09" y="380.04"/>
  </clipPath>
 </defs>
</svg>
