<?xml version="1.0" encoding="utf-8" standalone="no"?>
<!DOCTYPE svg PUBLIC "-//W3C//DTD SVG 1.1//EN"
  "http://www.w3.org/Graphics/SVG/1.1/DTD/svg11.dtd">
<!-- Created with matplotlib (http://matplotlib.org/) -->
<svg height="720pt" version="1.1" viewBox="0 0 720 720" width="720pt" xmlns="http://www.w3.org/2000/svg" xmlns:xlink="http://www.w3.org/1999/xlink">
 <defs>
  <style type="text/css">
*{stroke-linecap:butt;stroke-linejoin:round;}
  </style>
 </defs>
 <g id="figure_1">
  <g id="patch_1">
   <path d="M 0 720 
L 720 720 
L 720 0 
L 0 0 
z
" style="fill:#ffffff;"/>
  </g>
  <g id="axes_1">
   <g id="patch_2">
    <path d="M 56.09 323.44 
L 706.68 323.44 
L 706.68 25.44 
L 56.09 25.44 
z
" style="fill:#ffffff;"/>
   </g>
   <g id="matplotlib.axis_1">
    <g id="xtick_1">
     <g id="line2d_1">
      <path clip-path="url(#p4e8e203185)" d="M 84.640756 323.44 
L 84.640756 25.44 
" style="fill:none;stroke:#b0b0b0;stroke-linecap:square;stroke-width:0.8;"/>
     </g>
     <g id="line2d_2">
      <defs>
       <path d="M 0 0 
L 0 3.5 
" id="m6fa52c8d58" style="stroke:#000000;stroke-width:0.8;"/>
      </defs>
      <g>
       <use style="stroke:#000000;stroke-width:0.8;" x="84.640756" xlink:href="#m6fa52c8d58" y="323.44"/>
      </g>
     </g>
     <g id="text_1">
      <!-- 0 -->
      <defs>
       <path d="M 31.78125 66.40625 
Q 24.171875 66.40625 20.328125 58.90625 
Q 16.5 51.421875 16.5 36.375 
Q 16.5 21.390625 20.328125 13.890625 
Q 24.171875 6.390625 31.78125 6.390625 
Q 39.453125 6.390625 43.28125 13.890625 
Q 47.125 21.390625 47.125 36.375 
Q 47.125 51.421875 43.28125 58.90625 
Q 39.453125 66.40625 31.78125 66.40625 
z
M 31.78125 74.21875 
Q 44.046875 74.21875 50.515625 64.515625 
Q 56.984375 54.828125 56.984375 36.375 
Q 56.984375 17.96875 50.515625 8.265625 
Q 44.046875 -1.421875 31.78125 -1.421875 
Q 19.53125 -1.421875 13.0625 8.265625 
Q 6.59375 17.96875 6.59375 36.375 
Q 6.59375 54.828125 13.0625 64.515625 
Q 19.53125 74.21875 31.78125 74.21875 
z
" id="DejaVuSans-30"/>
      </defs>
      <g transform="translate(81.459506 338.038438)scale(0.1 -0.1)">
       <use xlink:href="#DejaVuSans-30"/>
      </g>
     </g>
    </g>
    <g id="xtick_2">
     <g id="line2d_3">
      <path clip-path="url(#p4e8e203185)" d="M 158.187211 323.44 
L 158.187211 25.44 
" style="fill:none;stroke:#b0b0b0;stroke-linecap:square;stroke-width:0.8;"/>
     </g>
     <g id="line2d_4">
      <g>
       <use style="stroke:#000000;stroke-width:0.8;" x="158.187211" xlink:href="#m6fa52c8d58" y="323.44"/>
      </g>
     </g>
     <g id="text_2">
      <!-- 5 -->
      <defs>
       <path d="M 10.796875 72.90625 
L 49.515625 72.90625 
L 49.515625 64.59375 
L 19.828125 64.59375 
L 19.828125 46.734375 
Q 21.96875 47.46875 24.109375 47.828125 
Q 26.265625 48.1875 28.421875 48.1875 
Q 40.625 48.1875 47.75 41.5 
Q 54.890625 34.8125 54.890625 23.390625 
Q 54.890625 11.625 47.5625 5.09375 
Q 40.234375 -1.421875 26.90625 -1.421875 
Q 22.3125 -1.421875 17.546875 -0.640625 
Q 12.796875 0.140625 7.71875 1.703125 
L 7.71875 11.625 
Q 12.109375 9.234375 16.796875 8.0625 
Q 21.484375 6.890625 26.703125 6.890625 
Q 35.15625 6.890625 40.078125 11.328125 
Q 45.015625 15.765625 45.015625 23.390625 
Q 45.015625 31 40.078125 35.4375 
Q 35.15625 39.890625 26.703125 39.890625 
Q 22.75 39.890625 18.8125 39.015625 
Q 14.890625 38.140625 10.796875 36.28125 
z
" id="DejaVuSans-35"/>
      </defs>
      <g transform="translate(155.005961 338.038438)scale(0.1 -0.1)">
       <use xlink:href="#DejaVuSans-35"/>
      </g>
     </g>
    </g>
    <g id="xtick_3">
     <g id="line2d_5">
      <path clip-path="url(#p4e8e203185)" d="M 231.733666 323.44 
L 231.733666 25.44 
" style="fill:none;stroke:#b0b0b0;stroke-linecap:square;stroke-width:0.8;"/>
     </g>
     <g id="line2d_6">
      <g>
       <use style="stroke:#000000;stroke-width:0.8;" x="231.733666" xlink:href="#m6fa52c8d58" y="323.44"/>
      </g>
     </g>
     <g id="text_3">
      <!-- 10 -->
      <defs>
       <path d="M 12.40625 8.296875 
L 28.515625 8.296875 
L 28.515625 63.921875 
L 10.984375 60.40625 
L 10.984375 69.390625 
L 28.421875 72.90625 
L 38.28125 72.90625 
L 38.28125 8.296875 
L 54.390625 8.296875 
L 54.390625 0 
L 12.40625 0 
z
" id="DejaVuSans-31"/>
      </defs>
      <g transform="translate(225.371166 338.038438)scale(0.1 -0.1)">
       <use xlink:href="#DejaVuSans-31"/>
       <use x="63.623047" xlink:href="#DejaVuSans-30"/>
      </g>
     </g>
    </g>
    <g id="xtick_4">
     <g id="line2d_7">
      <path clip-path="url(#p4e8e203185)" d="M 305.280121 323.44 
L 305.280121 25.44 
" style="fill:none;stroke:#b0b0b0;stroke-linecap:square;stroke-width:0.8;"/>
     </g>
     <g id="line2d_8">
      <g>
       <use style="stroke:#000000;stroke-width:0.8;" x="305.280121" xlink:href="#m6fa52c8d58" y="323.44"/>
      </g>
     </g>
     <g id="text_4">
      <!-- 15 -->
      <g transform="translate(298.917621 338.038438)scale(0.1 -0.1)">
       <use xlink:href="#DejaVuSans-31"/>
       <use x="63.623047" xlink:href="#DejaVuSans-35"/>
      </g>
     </g>
    </g>
    <g id="xtick_5">
     <g id="line2d_9">
      <path clip-path="url(#p4e8e203185)" d="M 378.826575 323.44 
L 378.826575 25.44 
" style="fill:none;stroke:#b0b0b0;stroke-linecap:square;stroke-width:0.8;"/>
     </g>
     <g id="line2d_10">
      <g>
       <use style="stroke:#000000;stroke-width:0.8;" x="378.826575" xlink:href="#m6fa52c8d58" y="323.44"/>
      </g>
     </g>
     <g id="text_5">
      <!-- 20 -->
      <defs>
       <path d="M 19.1875 8.296875 
L 53.609375 8.296875 
L 53.609375 0 
L 7.328125 0 
L 7.328125 8.296875 
Q 12.9375 14.109375 22.625 23.890625 
Q 32.328125 33.6875 34.8125 36.53125 
Q 39.546875 41.84375 41.421875 45.53125 
Q 43.3125 49.21875 43.3125 52.78125 
Q 43.3125 58.59375 39.234375 62.25 
Q 35.15625 65.921875 28.609375 65.921875 
Q 23.96875 65.921875 18.8125 64.3125 
Q 13.671875 62.703125 7.8125 59.421875 
L 7.8125 69.390625 
Q 13.765625 71.78125 18.9375 73 
Q 24.125 74.21875 28.421875 74.21875 
Q 39.75 74.21875 46.484375 68.546875 
Q 53.21875 62.890625 53.21875 53.421875 
Q 53.21875 48.921875 51.53125 44.890625 
Q 49.859375 40.875 45.40625 35.40625 
Q 44.1875 33.984375 37.640625 27.21875 
Q 31.109375 20.453125 19.1875 8.296875 
z
" id="DejaVuSans-32"/>
      </defs>
      <g transform="translate(372.464075 338.038438)scale(0.1 -0.1)">
       <use xlink:href="#DejaVuSans-32"/>
       <use x="63.623047" xlink:href="#DejaVuSans-30"/>
      </g>
     </g>
    </g>
    <g id="xtick_6">
     <g id="line2d_11">
      <path clip-path="url(#p4e8e203185)" d="M 452.37303 323.44 
L 452.37303 25.44 
" style="fill:none;stroke:#b0b0b0;stroke-linecap:square;stroke-width:0.8;"/>
     </g>
     <g id="line2d_12">
      <g>
       <use style="stroke:#000000;stroke-width:0.8;" x="452.37303" xlink:href="#m6fa52c8d58" y="323.44"/>
      </g>
     </g>
     <g id="text_6">
      <!-- 25 -->
      <g transform="translate(446.01053 338.038438)scale(0.1 -0.1)">
       <use xlink:href="#DejaVuSans-32"/>
       <use x="63.623047" xlink:href="#DejaVuSans-35"/>
      </g>
     </g>
    </g>
    <g id="xtick_7">
     <g id="line2d_13">
      <path clip-path="url(#p4e8e203185)" d="M 525.919485 323.44 
L 525.919485 25.44 
" style="fill:none;stroke:#b0b0b0;stroke-linecap:square;stroke-width:0.8;"/>
     </g>
     <g id="line2d_14">
      <g>
       <use style="stroke:#000000;stroke-width:0.8;" x="525.919485" xlink:href="#m6fa52c8d58" y="323.44"/>
      </g>
     </g>
     <g id="text_7">
      <!-- 30 -->
      <defs>
       <path d="M 40.578125 39.3125 
Q 47.65625 37.796875 51.625 33 
Q 55.609375 28.21875 55.609375 21.1875 
Q 55.609375 10.40625 48.1875 4.484375 
Q 40.765625 -1.421875 27.09375 -1.421875 
Q 22.515625 -1.421875 17.65625 -0.515625 
Q 12.796875 0.390625 7.625 2.203125 
L 7.625 11.71875 
Q 11.71875 9.328125 16.59375 8.109375 
Q 21.484375 6.890625 26.8125 6.890625 
Q 36.078125 6.890625 40.9375 10.546875 
Q 45.796875 14.203125 45.796875 21.1875 
Q 45.796875 27.640625 41.28125 31.265625 
Q 36.765625 34.90625 28.71875 34.90625 
L 20.21875 34.90625 
L 20.21875 43.015625 
L 29.109375 43.015625 
Q 36.375 43.015625 40.234375 45.921875 
Q 44.09375 48.828125 44.09375 54.296875 
Q 44.09375 59.90625 40.109375 62.90625 
Q 36.140625 65.921875 28.71875 65.921875 
Q 24.65625 65.921875 20.015625 65.03125 
Q 15.375 64.15625 9.8125 62.3125 
L 9.8125 71.09375 
Q 15.4375 72.65625 20.34375 73.4375 
Q 25.25 74.21875 29.59375 74.21875 
Q 40.828125 74.21875 47.359375 69.109375 
Q 53.90625 64.015625 53.90625 55.328125 
Q 53.90625 49.265625 50.4375 45.09375 
Q 46.96875 40.921875 40.578125 39.3125 
z
" id="DejaVuSans-33"/>
      </defs>
      <g transform="translate(519.556985 338.038438)scale(0.1 -0.1)">
       <use xlink:href="#DejaVuSans-33"/>
       <use x="63.623047" xlink:href="#DejaVuSans-30"/>
      </g>
     </g>
    </g>
    <g id="xtick_8">
     <g id="line2d_15">
      <path clip-path="url(#p4e8e203185)" d="M 599.46594 323.44 
L 599.46594 25.44 
" style="fill:none;stroke:#b0b0b0;stroke-linecap:square;stroke-width:0.8;"/>
     </g>
     <g id="line2d_16">
      <g>
       <use style="stroke:#000000;stroke-width:0.8;" x="599.46594" xlink:href="#m6fa52c8d58" y="323.44"/>
      </g>
     </g>
     <g id="text_8">
      <!-- 35 -->
      <g transform="translate(593.10344 338.038438)scale(0.1 -0.1)">
       <use xlink:href="#DejaVuSans-33"/>
       <use x="63.623047" xlink:href="#DejaVuSans-35"/>
      </g>
     </g>
    </g>
    <g id="xtick_9">
     <g id="line2d_17">
      <path clip-path="url(#p4e8e203185)" d="M 673.012395 323.44 
L 673.012395 25.44 
" style="fill:none;stroke:#b0b0b0;stroke-linecap:square;stroke-width:0.8;"/>
     </g>
     <g id="line2d_18">
      <g>
       <use style="stroke:#000000;stroke-width:0.8;" x="673.012395" xlink:href="#m6fa52c8d58" y="323.44"/>
      </g>
     </g>
     <g id="text_9">
      <!-- 40 -->
      <defs>
       <path d="M 37.796875 64.3125 
L 12.890625 25.390625 
L 37.796875 25.390625 
z
M 35.203125 72.90625 
L 47.609375 72.90625 
L 47.609375 25.390625 
L 58.015625 25.390625 
L 58.015625 17.1875 
L 47.609375 17.1875 
L 47.609375 0 
L 37.796875 0 
L 37.796875 17.1875 
L 4.890625 17.1875 
L 4.890625 26.703125 
z
" id="DejaVuSans-34"/>
      </defs>
      <g transform="translate(666.649895 338.038438)scale(0.1 -0.1)">
       <use xlink:href="#DejaVuSans-34"/>
       <use x="63.623047" xlink:href="#DejaVuSans-30"/>
      </g>
     </g>
    </g>
    <g id="text_10">
     <!-- Time (seconds) -->
     <defs>
      <path d="M -0.296875 72.90625 
L 61.375 72.90625 
L 61.375 64.59375 
L 35.5 64.59375 
L 35.5 0 
L 25.59375 0 
L 25.59375 64.59375 
L -0.296875 64.59375 
z
" id="DejaVuSans-54"/>
      <path d="M 9.421875 54.6875 
L 18.40625 54.6875 
L 18.40625 0 
L 9.421875 0 
z
M 9.421875 75.984375 
L 18.40625 75.984375 
L 18.40625 64.59375 
L 9.421875 64.59375 
z
" id="DejaVuSans-69"/>
      <path d="M 52 44.1875 
Q 55.375 50.25 60.0625 53.125 
Q 64.75 56 71.09375 56 
Q 79.640625 56 84.28125 50.015625 
Q 88.921875 44.046875 88.921875 33.015625 
L 88.921875 0 
L 79.890625 0 
L 79.890625 32.71875 
Q 79.890625 40.578125 77.09375 44.375 
Q 74.3125 48.1875 68.609375 48.1875 
Q 61.625 48.1875 57.5625 43.546875 
Q 53.515625 38.921875 53.515625 30.90625 
L 53.515625 0 
L 44.484375 0 
L 44.484375 32.71875 
Q 44.484375 40.625 41.703125 44.40625 
Q 38.921875 48.1875 33.109375 48.1875 
Q 26.21875 48.1875 22.15625 43.53125 
Q 18.109375 38.875 18.109375 30.90625 
L 18.109375 0 
L 9.078125 0 
L 9.078125 54.6875 
L 18.109375 54.6875 
L 18.109375 46.1875 
Q 21.1875 51.21875 25.484375 53.609375 
Q 29.78125 56 35.6875 56 
Q 41.65625 56 45.828125 52.96875 
Q 50 49.953125 52 44.1875 
z
" id="DejaVuSans-6d"/>
      <path d="M 56.203125 29.59375 
L 56.203125 25.203125 
L 14.890625 25.203125 
Q 15.484375 15.921875 20.484375 11.0625 
Q 25.484375 6.203125 34.421875 6.203125 
Q 39.59375 6.203125 44.453125 7.46875 
Q 49.3125 8.734375 54.109375 11.28125 
L 54.109375 2.78125 
Q 49.265625 0.734375 44.1875 -0.34375 
Q 39.109375 -1.421875 33.890625 -1.421875 
Q 20.796875 -1.421875 13.15625 6.1875 
Q 5.515625 13.8125 5.515625 26.8125 
Q 5.515625 40.234375 12.765625 48.109375 
Q 20.015625 56 32.328125 56 
Q 43.359375 56 49.78125 48.890625 
Q 56.203125 41.796875 56.203125 29.59375 
z
M 47.21875 32.234375 
Q 47.125 39.59375 43.09375 43.984375 
Q 39.0625 48.390625 32.421875 48.390625 
Q 24.90625 48.390625 20.390625 44.140625 
Q 15.875 39.890625 15.1875 32.171875 
z
" id="DejaVuSans-65"/>
      <path id="DejaVuSans-20"/>
      <path d="M 31 75.875 
Q 24.46875 64.65625 21.28125 53.65625 
Q 18.109375 42.671875 18.109375 31.390625 
Q 18.109375 20.125 21.3125 9.0625 
Q 24.515625 -2 31 -13.1875 
L 23.1875 -13.1875 
Q 15.875 -1.703125 12.234375 9.375 
Q 8.59375 20.453125 8.59375 31.390625 
Q 8.59375 42.28125 12.203125 53.3125 
Q 15.828125 64.359375 23.1875 75.875 
z
" id="DejaVuSans-28"/>
      <path d="M 44.28125 53.078125 
L 44.28125 44.578125 
Q 40.484375 46.53125 36.375 47.5 
Q 32.28125 48.484375 27.875 48.484375 
Q 21.1875 48.484375 17.84375 46.4375 
Q 14.5 44.390625 14.5 40.28125 
Q 14.5 37.15625 16.890625 35.375 
Q 19.28125 33.59375 26.515625 31.984375 
L 29.59375 31.296875 
Q 39.15625 29.25 43.1875 25.515625 
Q 47.21875 21.78125 47.21875 15.09375 
Q 47.21875 7.46875 41.1875 3.015625 
Q 35.15625 -1.421875 24.609375 -1.421875 
Q 20.21875 -1.421875 15.453125 -0.5625 
Q 10.6875 0.296875 5.421875 2 
L 5.421875 11.28125 
Q 10.40625 8.6875 15.234375 7.390625 
Q 20.0625 6.109375 24.8125 6.109375 
Q 31.15625 6.109375 34.5625 8.28125 
Q 37.984375 10.453125 37.984375 14.40625 
Q 37.984375 18.0625 35.515625 20.015625 
Q 33.0625 21.96875 24.703125 23.78125 
L 21.578125 24.515625 
Q 13.234375 26.265625 9.515625 29.90625 
Q 5.8125 33.546875 5.8125 39.890625 
Q 5.8125 47.609375 11.28125 51.796875 
Q 16.75 56 26.8125 56 
Q 31.78125 56 36.171875 55.265625 
Q 40.578125 54.546875 44.28125 53.078125 
z
" id="DejaVuSans-73"/>
      <path d="M 48.78125 52.59375 
L 48.78125 44.1875 
Q 44.96875 46.296875 41.140625 47.34375 
Q 37.3125 48.390625 33.40625 48.390625 
Q 24.65625 48.390625 19.8125 42.84375 
Q 14.984375 37.3125 14.984375 27.296875 
Q 14.984375 17.28125 19.8125 11.734375 
Q 24.65625 6.203125 33.40625 6.203125 
Q 37.3125 6.203125 41.140625 7.25 
Q 44.96875 8.296875 48.78125 10.40625 
L 48.78125 2.09375 
Q 45.015625 0.34375 40.984375 -0.53125 
Q 36.96875 -1.421875 32.421875 -1.421875 
Q 20.0625 -1.421875 12.78125 6.34375 
Q 5.515625 14.109375 5.515625 27.296875 
Q 5.515625 40.671875 12.859375 48.328125 
Q 20.21875 56 33.015625 56 
Q 37.15625 56 41.109375 55.140625 
Q 45.0625 54.296875 48.78125 52.59375 
z
" id="DejaVuSans-63"/>
      <path d="M 30.609375 48.390625 
Q 23.390625 48.390625 19.1875 42.75 
Q 14.984375 37.109375 14.984375 27.296875 
Q 14.984375 17.484375 19.15625 11.84375 
Q 23.34375 6.203125 30.609375 6.203125 
Q 37.796875 6.203125 41.984375 11.859375 
Q 46.1875 17.53125 46.1875 27.296875 
Q 46.1875 37.015625 41.984375 42.703125 
Q 37.796875 48.390625 30.609375 48.390625 
z
M 30.609375 56 
Q 42.328125 56 49.015625 48.375 
Q 55.71875 40.765625 55.71875 27.296875 
Q 55.71875 13.875 49.015625 6.21875 
Q 42.328125 -1.421875 30.609375 -1.421875 
Q 18.84375 -1.421875 12.171875 6.21875 
Q 5.515625 13.875 5.515625 27.296875 
Q 5.515625 40.765625 12.171875 48.375 
Q 18.84375 56 30.609375 56 
z
" id="DejaVuSans-6f"/>
      <path d="M 54.890625 33.015625 
L 54.890625 0 
L 45.90625 0 
L 45.90625 32.71875 
Q 45.90625 40.484375 42.875 44.328125 
Q 39.84375 48.1875 33.796875 48.1875 
Q 26.515625 48.1875 22.3125 43.546875 
Q 18.109375 38.921875 18.109375 30.90625 
L 18.109375 0 
L 9.078125 0 
L 9.078125 54.6875 
L 18.109375 54.6875 
L 18.109375 46.1875 
Q 21.34375 51.125 25.703125 53.5625 
Q 30.078125 56 35.796875 56 
Q 45.21875 56 50.046875 50.171875 
Q 54.890625 44.34375 54.890625 33.015625 
z
" id="DejaVuSans-6e"/>
      <path d="M 45.40625 46.390625 
L 45.40625 75.984375 
L 54.390625 75.984375 
L 54.390625 0 
L 45.40625 0 
L 45.40625 8.203125 
Q 42.578125 3.328125 38.25 0.953125 
Q 33.9375 -1.421875 27.875 -1.421875 
Q 17.96875 -1.421875 11.734375 6.484375 
Q 5.515625 14.40625 5.515625 27.296875 
Q 5.515625 40.1875 11.734375 48.09375 
Q 17.96875 56 27.875 56 
Q 33.9375 56 38.25 53.625 
Q 42.578125 51.265625 45.40625 46.390625 
z
M 14.796875 27.296875 
Q 14.796875 17.390625 18.875 11.75 
Q 22.953125 6.109375 30.078125 6.109375 
Q 37.203125 6.109375 41.296875 11.75 
Q 45.40625 17.390625 45.40625 27.296875 
Q 45.40625 37.203125 41.296875 42.84375 
Q 37.203125 48.484375 30.078125 48.484375 
Q 22.953125 48.484375 18.875 42.84375 
Q 14.796875 37.203125 14.796875 27.296875 
z
" id="DejaVuSans-64"/>
      <path d="M 8.015625 75.875 
L 15.828125 75.875 
Q 23.140625 64.359375 26.78125 53.3125 
Q 30.421875 42.28125 30.421875 31.390625 
Q 30.421875 20.453125 26.78125 9.375 
Q 23.140625 -1.703125 15.828125 -13.1875 
L 8.015625 -13.1875 
Q 14.5 -2 17.703125 9.0625 
Q 20.90625 20.125 20.90625 31.390625 
Q 20.90625 42.671875 17.703125 53.65625 
Q 14.5 64.65625 8.015625 75.875 
z
" id="DejaVuSans-29"/>
     </defs>
     <g transform="translate(343.069375 351.716563)scale(0.1 -0.1)">
      <use xlink:href="#DejaVuSans-54"/>
      <use x="61.037109" xlink:href="#DejaVuSans-69"/>
      <use x="88.820312" xlink:href="#DejaVuSans-6d"/>
      <use x="186.232422" xlink:href="#DejaVuSans-65"/>
      <use x="247.755859" xlink:href="#DejaVuSans-20"/>
      <use x="279.542969" xlink:href="#DejaVuSans-28"/>
      <use x="318.556641" xlink:href="#DejaVuSans-73"/>
      <use x="370.65625" xlink:href="#DejaVuSans-65"/>
      <use x="432.179688" xlink:href="#DejaVuSans-63"/>
      <use x="487.160156" xlink:href="#DejaVuSans-6f"/>
      <use x="548.341797" xlink:href="#DejaVuSans-6e"/>
      <use x="611.720703" xlink:href="#DejaVuSans-64"/>
      <use x="675.197266" xlink:href="#DejaVuSans-73"/>
      <use x="727.296875" xlink:href="#DejaVuSans-29"/>
     </g>
    </g>
   </g>
   <g id="matplotlib.axis_2">
    <g id="ytick_1">
     <g id="line2d_19">
      <path clip-path="url(#p4e8e203185)" d="M 56.09 293.338524 
L 706.68 293.338524 
" style="fill:none;stroke:#b0b0b0;stroke-linecap:square;stroke-width:0.8;"/>
     </g>
     <g id="line2d_20">
      <defs>
       <path d="M 0 0 
L -3.5 0 
" id="m04916744b3" style="stroke:#000000;stroke-width:0.8;"/>
      </defs>
      <g>
       <use style="stroke:#000000;stroke-width:0.8;" x="56.09" xlink:href="#m04916744b3" y="293.338524"/>
      </g>
     </g>
     <g id="text_11">
      <!-- −0.6 -->
      <defs>
       <path d="M 10.59375 35.5 
L 73.1875 35.5 
L 73.1875 27.203125 
L 10.59375 27.203125 
z
" id="DejaVuSans-2212"/>
       <path d="M 10.6875 12.40625 
L 21 12.40625 
L 21 0 
L 10.6875 0 
z
" id="DejaVuSans-2e"/>
       <path d="M 33.015625 40.375 
Q 26.375 40.375 22.484375 35.828125 
Q 18.609375 31.296875 18.609375 23.390625 
Q 18.609375 15.53125 22.484375 10.953125 
Q 26.375 6.390625 33.015625 6.390625 
Q 39.65625 6.390625 43.53125 10.953125 
Q 47.40625 15.53125 47.40625 23.390625 
Q 47.40625 31.296875 43.53125 35.828125 
Q 39.65625 40.375 33.015625 40.375 
z
M 52.59375 71.296875 
L 52.59375 62.3125 
Q 48.875 64.0625 45.09375 64.984375 
Q 41.3125 65.921875 37.59375 65.921875 
Q 27.828125 65.921875 22.671875 59.328125 
Q 17.53125 52.734375 16.796875 39.40625 
Q 19.671875 43.65625 24.015625 45.921875 
Q 28.375 48.1875 33.59375 48.1875 
Q 44.578125 48.1875 50.953125 41.515625 
Q 57.328125 34.859375 57.328125 23.390625 
Q 57.328125 12.15625 50.6875 5.359375 
Q 44.046875 -1.421875 33.015625 -1.421875 
Q 20.359375 -1.421875 13.671875 8.265625 
Q 6.984375 17.96875 6.984375 36.375 
Q 6.984375 53.65625 15.1875 63.9375 
Q 23.390625 74.21875 37.203125 74.21875 
Q 40.921875 74.21875 44.703125 73.484375 
Q 48.484375 72.75 52.59375 71.296875 
z
" id="DejaVuSans-36"/>
      </defs>
      <g transform="translate(24.807188 297.137742)scale(0.1 -0.1)">
       <use xlink:href="#DejaVuSans-2212"/>
       <use x="83.789062" xlink:href="#DejaVuSans-30"/>
       <use x="147.412109" xlink:href="#DejaVuSans-2e"/>
       <use x="179.199219" xlink:href="#DejaVuSans-36"/>
      </g>
     </g>
    </g>
    <g id="ytick_2">
     <g id="line2d_21">
      <path clip-path="url(#p4e8e203185)" d="M 56.09 259.374159 
L 706.68 259.374159 
" style="fill:none;stroke:#b0b0b0;stroke-linecap:square;stroke-width:0.8;"/>
     </g>
     <g id="line2d_22">
      <g>
       <use style="stroke:#000000;stroke-width:0.8;" x="56.09" xlink:href="#m04916744b3" y="259.374159"/>
      </g>
     </g>
     <g id="text_12">
      <!-- −0.4 -->
      <g transform="translate(24.807188 263.173378)scale(0.1 -0.1)">
       <use xlink:href="#DejaVuSans-2212"/>
       <use x="83.789062" xlink:href="#DejaVuSans-30"/>
       <use x="147.412109" xlink:href="#DejaVuSans-2e"/>
       <use x="179.199219" xlink:href="#DejaVuSans-34"/>
      </g>
     </g>
    </g>
    <g id="ytick_3">
     <g id="line2d_23">
      <path clip-path="url(#p4e8e203185)" d="M 56.09 225.409794 
L 706.68 225.409794 
" style="fill:none;stroke:#b0b0b0;stroke-linecap:square;stroke-width:0.8;"/>
     </g>
     <g id="line2d_24">
      <g>
       <use style="stroke:#000000;stroke-width:0.8;" x="56.09" xlink:href="#m04916744b3" y="225.409794"/>
      </g>
     </g>
     <g id="text_13">
      <!-- −0.2 -->
      <g transform="translate(24.807188 229.209013)scale(0.1 -0.1)">
       <use xlink:href="#DejaVuSans-2212"/>
       <use x="83.789062" xlink:href="#DejaVuSans-30"/>
       <use x="147.412109" xlink:href="#DejaVuSans-2e"/>
       <use x="179.199219" xlink:href="#DejaVuSans-32"/>
      </g>
     </g>
    </g>
    <g id="ytick_4">
     <g id="line2d_25">
      <path clip-path="url(#p4e8e203185)" d="M 56.09 191.44543 
L 706.68 191.44543 
" style="fill:none;stroke:#b0b0b0;stroke-linecap:square;stroke-width:0.8;"/>
     </g>
     <g id="line2d_26">
      <g>
       <use style="stroke:#000000;stroke-width:0.8;" x="56.09" xlink:href="#m04916744b3" y="191.44543"/>
      </g>
     </g>
     <g id="text_14">
      <!-- 0.0 -->
      <g transform="translate(33.186875 195.244648)scale(0.1 -0.1)">
       <use xlink:href="#DejaVuSans-30"/>
       <use x="63.623047" xlink:href="#DejaVuSans-2e"/>
       <use x="95.410156" xlink:href="#DejaVuSans-30"/>
      </g>
     </g>
    </g>
    <g id="ytick_5">
     <g id="line2d_27">
      <path clip-path="url(#p4e8e203185)" d="M 56.09 157.481065 
L 706.68 157.481065 
" style="fill:none;stroke:#b0b0b0;stroke-linecap:square;stroke-width:0.8;"/>
     </g>
     <g id="line2d_28">
      <g>
       <use style="stroke:#000000;stroke-width:0.8;" x="56.09" xlink:href="#m04916744b3" y="157.481065"/>
      </g>
     </g>
     <g id="text_15">
      <!-- 0.2 -->
      <g transform="translate(33.186875 161.280284)scale(0.1 -0.1)">
       <use xlink:href="#DejaVuSans-30"/>
       <use x="63.623047" xlink:href="#DejaVuSans-2e"/>
       <use x="95.410156" xlink:href="#DejaVuSans-32"/>
      </g>
     </g>
    </g>
    <g id="ytick_6">
     <g id="line2d_29">
      <path clip-path="url(#p4e8e203185)" d="M 56.09 123.5167 
L 706.68 123.5167 
" style="fill:none;stroke:#b0b0b0;stroke-linecap:square;stroke-width:0.8;"/>
     </g>
     <g id="line2d_30">
      <g>
       <use style="stroke:#000000;stroke-width:0.8;" x="56.09" xlink:href="#m04916744b3" y="123.5167"/>
      </g>
     </g>
     <g id="text_16">
      <!-- 0.4 -->
      <g transform="translate(33.186875 127.315919)scale(0.1 -0.1)">
       <use xlink:href="#DejaVuSans-30"/>
       <use x="63.623047" xlink:href="#DejaVuSans-2e"/>
       <use x="95.410156" xlink:href="#DejaVuSans-34"/>
      </g>
     </g>
    </g>
    <g id="ytick_7">
     <g id="line2d_31">
      <path clip-path="url(#p4e8e203185)" d="M 56.09 89.552335 
L 706.68 89.552335 
" style="fill:none;stroke:#b0b0b0;stroke-linecap:square;stroke-width:0.8;"/>
     </g>
     <g id="line2d_32">
      <g>
       <use style="stroke:#000000;stroke-width:0.8;" x="56.09" xlink:href="#m04916744b3" y="89.552335"/>
      </g>
     </g>
     <g id="text_17">
      <!-- 0.6 -->
      <g transform="translate(33.186875 93.351554)scale(0.1 -0.1)">
       <use xlink:href="#DejaVuSans-30"/>
       <use x="63.623047" xlink:href="#DejaVuSans-2e"/>
       <use x="95.410156" xlink:href="#DejaVuSans-36"/>
      </g>
     </g>
    </g>
    <g id="ytick_8">
     <g id="line2d_33">
      <path clip-path="url(#p4e8e203185)" d="M 56.09 55.587971 
L 706.68 55.587971 
" style="fill:none;stroke:#b0b0b0;stroke-linecap:square;stroke-width:0.8;"/>
     </g>
     <g id="line2d_34">
      <g>
       <use style="stroke:#000000;stroke-width:0.8;" x="56.09" xlink:href="#m04916744b3" y="55.587971"/>
      </g>
     </g>
     <g id="text_18">
      <!-- 0.8 -->
      <defs>
       <path d="M 31.78125 34.625 
Q 24.75 34.625 20.71875 30.859375 
Q 16.703125 27.09375 16.703125 20.515625 
Q 16.703125 13.921875 20.71875 10.15625 
Q 24.75 6.390625 31.78125 6.390625 
Q 38.8125 6.390625 42.859375 10.171875 
Q 46.921875 13.96875 46.921875 20.515625 
Q 46.921875 27.09375 42.890625 30.859375 
Q 38.875 34.625 31.78125 34.625 
z
M 21.921875 38.8125 
Q 15.578125 40.375 12.03125 44.71875 
Q 8.5 49.078125 8.5 55.328125 
Q 8.5 64.0625 14.71875 69.140625 
Q 20.953125 74.21875 31.78125 74.21875 
Q 42.671875 74.21875 48.875 69.140625 
Q 55.078125 64.0625 55.078125 55.328125 
Q 55.078125 49.078125 51.53125 44.71875 
Q 48 40.375 41.703125 38.8125 
Q 48.828125 37.15625 52.796875 32.3125 
Q 56.78125 27.484375 56.78125 20.515625 
Q 56.78125 9.90625 50.3125 4.234375 
Q 43.84375 -1.421875 31.78125 -1.421875 
Q 19.734375 -1.421875 13.25 4.234375 
Q 6.78125 9.90625 6.78125 20.515625 
Q 6.78125 27.484375 10.78125 32.3125 
Q 14.796875 37.15625 21.921875 38.8125 
z
M 18.3125 54.390625 
Q 18.3125 48.734375 21.84375 45.5625 
Q 25.390625 42.390625 31.78125 42.390625 
Q 38.140625 42.390625 41.71875 45.5625 
Q 45.3125 48.734375 45.3125 54.390625 
Q 45.3125 60.0625 41.71875 63.234375 
Q 38.140625 66.40625 31.78125 66.40625 
Q 25.390625 66.40625 21.84375 63.234375 
Q 18.3125 60.0625 18.3125 54.390625 
z
" id="DejaVuSans-38"/>
      </defs>
      <g transform="translate(33.186875 59.387189)scale(0.1 -0.1)">
       <use xlink:href="#DejaVuSans-30"/>
       <use x="63.623047" xlink:href="#DejaVuSans-2e"/>
       <use x="95.410156" xlink:href="#DejaVuSans-38"/>
      </g>
     </g>
    </g>
    <g id="text_19">
     <!-- Position (meters) -->
     <defs>
      <path d="M 19.671875 64.796875 
L 19.671875 37.40625 
L 32.078125 37.40625 
Q 38.96875 37.40625 42.71875 40.96875 
Q 46.484375 44.53125 46.484375 51.125 
Q 46.484375 57.671875 42.71875 61.234375 
Q 38.96875 64.796875 32.078125 64.796875 
z
M 9.8125 72.90625 
L 32.078125 72.90625 
Q 44.34375 72.90625 50.609375 67.359375 
Q 56.890625 61.8125 56.890625 51.125 
Q 56.890625 40.328125 50.609375 34.8125 
Q 44.34375 29.296875 32.078125 29.296875 
L 19.671875 29.296875 
L 19.671875 0 
L 9.8125 0 
z
" id="DejaVuSans-50"/>
      <path d="M 18.3125 70.21875 
L 18.3125 54.6875 
L 36.8125 54.6875 
L 36.8125 47.703125 
L 18.3125 47.703125 
L 18.3125 18.015625 
Q 18.3125 11.328125 20.140625 9.421875 
Q 21.96875 7.515625 27.59375 7.515625 
L 36.8125 7.515625 
L 36.8125 0 
L 27.59375 0 
Q 17.1875 0 13.234375 3.875 
Q 9.28125 7.765625 9.28125 18.015625 
L 9.28125 47.703125 
L 2.6875 47.703125 
L 2.6875 54.6875 
L 9.28125 54.6875 
L 9.28125 70.21875 
z
" id="DejaVuSans-74"/>
      <path d="M 41.109375 46.296875 
Q 39.59375 47.171875 37.8125 47.578125 
Q 36.03125 48 33.890625 48 
Q 26.265625 48 22.1875 43.046875 
Q 18.109375 38.09375 18.109375 28.8125 
L 18.109375 0 
L 9.078125 0 
L 9.078125 54.6875 
L 18.109375 54.6875 
L 18.109375 46.1875 
Q 20.953125 51.171875 25.484375 53.578125 
Q 30.03125 56 36.53125 56 
Q 37.453125 56 38.578125 55.875 
Q 39.703125 55.765625 41.0625 55.515625 
z
" id="DejaVuSans-72"/>
     </defs>
     <g transform="translate(18.7275 217.217344)rotate(-90)scale(0.1 -0.1)">
      <use xlink:href="#DejaVuSans-50"/>
      <use x="60.255859" xlink:href="#DejaVuSans-6f"/>
      <use x="121.4375" xlink:href="#DejaVuSans-73"/>
      <use x="173.537109" xlink:href="#DejaVuSans-69"/>
      <use x="201.320312" xlink:href="#DejaVuSans-74"/>
      <use x="240.529297" xlink:href="#DejaVuSans-69"/>
      <use x="268.3125" xlink:href="#DejaVuSans-6f"/>
      <use x="329.494141" xlink:href="#DejaVuSans-6e"/>
      <use x="392.873047" xlink:href="#DejaVuSans-20"/>
      <use x="424.660156" xlink:href="#DejaVuSans-28"/>
      <use x="463.673828" xlink:href="#DejaVuSans-6d"/>
      <use x="561.085938" xlink:href="#DejaVuSans-65"/>
      <use x="622.609375" xlink:href="#DejaVuSans-74"/>
      <use x="661.818359" xlink:href="#DejaVuSans-65"/>
      <use x="723.341797" xlink:href="#DejaVuSans-72"/>
      <use x="764.455078" xlink:href="#DejaVuSans-73"/>
      <use x="816.554688" xlink:href="#DejaVuSans-29"/>
     </g>
    </g>
   </g>
   <g id="line2d_35">
    <path clip-path="url(#p4e8e203185)" d="M 85.662273 276.772444 
L 184.291452 277.105634 
L 188.734395 277.290883 
L 204.901757 278.49751 
L 218.164701 278.839213 
L 232.76745 280.341056 
L 238.645637 280.484329 
L 243.145916 280.529044 
L 247.485333 280.832452 
L 251.92958 281.444038 
L 260.809315 282.69695 
L 263.731686 282.915847 
L 275.487366 283.254741 
L 278.400819 283.609073 
L 282.795029 284.353636 
L 288.695587 285.328708 
L 291.665495 285.656944 
L 294.638229 285.808288 
L 303.453036 286.010748 
L 306.374053 286.296498 
L 310.748771 287.049859 
L 319.610266 288.586521 
L 322.51182 288.843127 
L 327.012084 288.940713 
L 331.380613 289.025794 
L 334.336489 289.227802 
L 338.779825 289.864018 
L 344.575788 291.028719 
L 349.000312 291.734841 
L 353.477851 292.069915 
L 362.31256 292.26039 
L 365.219879 292.556676 
L 369.601145 293.297149 
L 376.945876 294.647404 
L 381.384611 295.097949 
L 385.742517 295.187763 
L 391.707796 295.346287 
L 394.568711 295.628729 
L 399.060148 296.349829 
L 406.368326 297.612897 
L 409.330455 297.934578 
L 412.279872 298.109796 
L 421.150268 298.274847 
L 424.067371 298.532806 
L 428.466743 299.195693 
L 438.779558 300.610479 
L 441.631411 300.759131 
L 450.517897 300.916693 
L 453.492497 301.15063 
L 459.310918 301.901924 
L 465.277671 302.716492 
L 469.640518 303.040973 
L 475.486886 303.128625 
L 479.970338 303.219382 
L 484.362224 303.537935 
L 490.236746 304.203855 
L 496.053625 304.786854 
L 500.541194 304.985345 
L 510.833669 305.130643 
L 516.658883 305.561928 
L 527.02108 306.334532 
L 529.896598 306.424023 
L 537.314642 306.270947 
L 538.813061 306.006054 
L 540.204061 305.516744 
L 541.730269 304.781663 
L 543.165321 303.622552 
L 544.678497 302.076409 
L 546.143084 299.960354 
L 547.624031 297.513154 
L 550.549576 291.488299 
L 552.023873 288.142002 
L 554.955773 282.340366 
L 556.454679 280.19068 
L 557.89572 278.473752 
L 559.407939 277.452633 
L 560.800717 276.903915 
L 562.349959 276.781527 
L 607.879231 276.774556 
L 677.107727 276.773208 
L 677.107727 276.773208 
" style="fill:none;stroke:#ff0000;stroke-linecap:square;stroke-width:1.5;"/>
   </g>
   <g id="line2d_36">
    <path clip-path="url(#p4e8e203185)" d="M 85.662273 166.9053 
L 162.203938 166.941226 
L 174.043035 167.313173 
L 190.163106 167.640696 
L 206.38147 168.726498 
L 216.603882 168.941058 
L 221.044528 169.369219 
L 231.369113 170.68683 
L 235.78615 170.934092 
L 244.553416 171.096863 
L 247.485333 171.360337 
L 251.92958 172.054141 
L 260.809315 173.562473 
L 265.202424 173.901829 
L 274.007874 174.100597 
L 276.976004 174.416813 
L 281.389762 175.251599 
L 288.695587 176.823727 
L 291.665495 177.253223 
L 294.638229 177.477627 
L 303.453036 177.70305 
L 306.374053 178.060504 
L 309.333783 178.635228 
L 316.663876 180.463463 
L 321.040187 181.249982 
L 323.97163 181.50934 
L 332.872515 181.75392 
L 335.806459 182.136235 
L 338.779825 182.736453 
L 346.107554 184.686417 
L 349.000312 185.296482 
L 351.903587 185.688306 
L 354.915578 185.830314 
L 360.767716 185.947788 
L 363.751862 186.21207 
L 366.698459 186.725709 
L 369.601145 187.422606 
L 378.463741 189.623934 
L 381.384611 190.01503 
L 384.319098 190.144622 
L 390.170895 190.263611 
L 393.170135 190.523743 
L 397.591556 191.33539 
L 406.368326 193.538703 
L 409.330455 194.033614 
L 412.279872 194.296329 
L 421.150268 194.536578 
L 424.067371 194.874387 
L 426.919427 195.414979 
L 435.853702 197.444132 
L 437.238334 197.711423 
L 441.631411 198.12695 
L 452.004725 198.473205 
L 454.89763 198.880097 
L 459.310918 199.732194 
L 463.726854 200.662931 
L 468.146921 201.29771 
L 471.137572 201.500369 
L 481.390271 201.804242 
L 485.841757 202.340428 
L 493.144566 203.595155 
L 497.639037 204.120535 
L 500.541194 204.277462 
L 510.833669 204.505075 
L 515.290008 204.912346 
L 524.04258 205.997051 
L 528.503069 206.303476 
L 534.371181 206.377595 
L 535.765474 206.177072 
L 537.314642 205.487558 
L 538.813061 204.258195 
L 540.204061 202.261513 
L 541.730269 199.736471 
L 544.678497 192.883455 
L 547.624031 184.957691 
L 549.091943 180.994782 
L 552.023873 174.524147 
L 553.529341 172.138226 
L 554.955773 170.122997 
L 556.454679 168.772265 
L 557.89572 167.798625 
L 559.407939 167.244655 
L 560.800717 166.973795 
L 563.74487 166.909527 
L 677.107727 166.90424 
L 677.107727 166.90424 
" style="fill:none;stroke:#008000;stroke-linecap:square;stroke-width:1.5;"/>
   </g>
   <g id="line2d_37">
    <path clip-path="url(#p4e8e203185)" d="M 85.662273 68.490553 
L 110.795729 68.489068 
L 126.910139 68.567838 
L 131.320383 68.854229 
L 138.658981 69.662289 
L 143.06078 70.07197 
L 147.550159 70.288051 
L 156.375897 70.245135 
L 162.203938 70.008112 
L 175.402981 69.308821 
L 188.734395 69.101854 
L 194.542829 68.677449 
L 201.876572 68.141957 
L 206.38147 67.990857 
L 212.248564 67.967975 
L 218.164701 67.735125 
L 223.937847 67.157532 
L 228.460234 66.646392 
L 232.76745 66.304656 
L 237.242457 66.176958 
L 241.690461 66.149906 
L 246.094539 65.988362 
L 251.92958 65.374769 
L 262.292647 64.213106 
L 266.625563 64.050557 
L 271.037423 64.031894 
L 275.487366 63.847353 
L 278.400819 63.549162 
L 282.795029 62.951247 
L 288.695587 62.122802 
L 293.122938 61.765728 
L 296.080049 61.679328 
L 301.953498 61.618473 
L 304.909637 61.459605 
L 309.333783 60.953839 
L 316.663876 59.806436 
L 321.040187 59.339707 
L 325.510691 59.149426 
L 331.380613 59.103225 
L 334.336489 58.922528 
L 337.261371 58.600559 
L 343.157489 57.692052 
L 347.513438 57.050136 
L 351.903587 56.64623 
L 365.219879 56.213503 
L 371.049996 55.357248 
L 376.945876 54.497871 
L 379.944776 54.19512 
L 384.319098 54.006393 
L 390.170895 53.975272 
L 393.170135 53.801279 
L 397.591556 53.293744 
L 409.330455 51.777498 
L 413.747847 51.600269 
L 419.580741 51.564068 
L 422.554416 51.400165 
L 425.534693 51.11733 
L 438.779558 49.555239 
L 443.169736 49.38932 
L 449.047127 49.365854 
L 453.492497 49.139255 
L 468.146921 47.610526 
L 474.109142 47.490652 
L 478.429261 47.459521 
L 481.390271 47.342323 
L 485.841757 47.005833 
L 496.053625 46.078257 
L 503.476211 45.906011 
L 507.885662 45.885266 
L 512.258704 45.719078 
L 516.658883 45.431647 
L 522.601732 44.957192 
L 528.503069 44.719612 
L 534.371181 44.674939 
L 535.765474 44.694096 
L 538.813061 45.091417 
L 540.204061 45.552668 
L 541.730269 46.184352 
L 544.678497 48.403052 
L 547.624031 51.987343 
L 554.955773 63.964519 
L 556.454679 65.694791 
L 557.89572 67.1129 
L 559.407939 67.953788 
L 560.800717 68.371182 
L 562.349959 68.500227 
L 663.821031 68.494455 
L 677.107727 68.49108 
L 677.107727 68.49108 
" style="fill:none;stroke:#0000ff;stroke-linecap:square;stroke-width:1.5;"/>
   </g>
   <g id="line2d_38">
    <path clip-path="url(#p4e8e203185)" d="M 85.662273 191.44543 
L 119.583237 191.44543 
L 121.089161 277.202746 
L 148.923168 277.202746 
L 150.454139 278.406386 
L 178.404059 278.406386 
L 179.815606 280.265081 
L 207.788072 280.265081 
L 209.278993 282.662914 
L 237.242457 282.662914 
L 238.645637 285.474693 
L 266.625563 285.474693 
L 268.129365 288.586886 
L 296.080049 288.586886 
L 297.610756 291.87736 
L 325.510691 291.87736 
L 327.012084 295.227299 
L 354.915578 295.227299 
L 356.343795 298.516473 
L 384.319098 298.516473 
L 385.742517 301.626878 
L 413.747847 301.626878 
L 415.188239 304.439264 
L 443.169736 304.439264 
L 444.724434 306.835045 
L 472.523067 306.835045 
L 474.109142 308.692622 
L 501.972864 308.692622 
L 503.476211 309.894545 
L 677.107727 309.894545 
L 677.107727 309.894545 
" style="fill:none;stroke:#ff0000;stroke-dasharray:5.55,2.4;stroke-dashoffset:0;stroke-width:1.5;"/>
   </g>
   <g id="line2d_39">
    <path clip-path="url(#p4e8e203185)" d="M 85.662273 191.44543 
L 119.583237 191.44543 
L 121.089161 167.436681 
L 148.923168 167.436681 
L 150.454139 168.926457 
L 178.404059 168.926457 
L 179.815606 171.227011 
L 207.788072 171.227011 
L 209.278993 174.194868 
L 237.242457 174.194868 
L 238.645637 177.675078 
L 266.625563 177.675078 
L 268.129365 181.527117 
L 296.080049 181.527117 
L 297.610756 185.59982 
L 325.510691 185.59982 
L 327.012084 189.746124 
L 354.915578 189.746124 
L 356.343795 193.817216 
L 384.319098 193.817216 
L 385.742517 197.667042 
L 413.747847 197.667042 
L 415.188239 201.148004 
L 443.169736 201.148004 
L 444.724434 204.113322 
L 472.523067 204.113322 
L 474.109142 206.412491 
L 501.972864 206.412491 
L 503.476211 207.900142 
L 677.107727 207.900142 
L 677.107727 207.900142 
" style="fill:none;stroke:#008000;stroke-dasharray:5.55,2.4;stroke-dashoffset:0;stroke-width:1.5;"/>
   </g>
   <g id="line2d_40">
    <path clip-path="url(#p4e8e203185)" d="M 85.662273 191.44543 
L 119.583237 191.44543 
L 121.089161 68.110561 
L 148.923168 68.110561 
L 150.454139 67.038238 
L 178.404059 67.038238 
L 179.815606 65.382328 
L 207.788072 65.382328 
L 209.278993 63.2461 
L 237.242457 63.2461 
L 238.645637 60.741088 
L 266.625563 60.741088 
L 268.129365 57.968437 
L 296.080049 57.968437 
L 297.610756 55.036955 
L 325.510691 55.036955 
L 327.012084 52.052496 
L 354.915578 52.052496 
L 356.343795 49.122173 
L 384.319098 49.122173 
L 385.742517 46.351115 
L 413.747847 46.351115 
L 415.188239 43.845562 
L 443.169736 43.845562 
L 444.724434 41.711162 
L 472.523067 41.711162 
L 474.109142 40.056248 
L 501.972864 40.056248 
L 503.476211 38.985455 
L 677.107727 38.985455 
L 677.107727 38.985455 
" style="fill:none;stroke:#0000ff;stroke-dasharray:5.55,2.4;stroke-dashoffset:0;stroke-width:1.5;"/>
   </g>
   <g id="patch_3">
    <path d="M 56.09 323.44 
L 56.09 25.44 
" style="fill:none;stroke:#000000;stroke-linecap:square;stroke-linejoin:miter;stroke-width:0.8;"/>
   </g>
   <g id="patch_4">
    <path d="M 706.68 323.44 
L 706.68 25.44 
" style="fill:none;stroke:#000000;stroke-linecap:square;stroke-linejoin:miter;stroke-width:0.8;"/>
   </g>
   <g id="patch_5">
    <path d="M 56.09 323.44 
L 706.68 323.44 
" style="fill:none;stroke:#000000;stroke-linecap:square;stroke-linejoin:miter;stroke-width:0.8;"/>
   </g>
   <g id="patch_6">
    <path d="M 56.09 25.44 
L 706.68 25.44 
" style="fill:none;stroke:#000000;stroke-linecap:square;stroke-linejoin:miter;stroke-width:0.8;"/>
   </g>
   <g id="text_20">
    <!-- Gripper Position over Time -->
    <defs>
     <path d="M 59.515625 10.40625 
L 59.515625 29.984375 
L 43.40625 29.984375 
L 43.40625 38.09375 
L 69.28125 38.09375 
L 69.28125 6.78125 
Q 63.578125 2.734375 56.6875 0.65625 
Q 49.8125 -1.421875 42 -1.421875 
Q 24.90625 -1.421875 15.25 8.5625 
Q 5.609375 18.5625 5.609375 36.375 
Q 5.609375 54.25 15.25 64.234375 
Q 24.90625 74.21875 42 74.21875 
Q 49.125 74.21875 55.546875 72.453125 
Q 61.96875 70.703125 67.390625 67.28125 
L 67.390625 56.78125 
Q 61.921875 61.421875 55.765625 63.765625 
Q 49.609375 66.109375 42.828125 66.109375 
Q 29.4375 66.109375 22.71875 58.640625 
Q 16.015625 51.171875 16.015625 36.375 
Q 16.015625 21.625 22.71875 14.15625 
Q 29.4375 6.6875 42.828125 6.6875 
Q 48.046875 6.6875 52.140625 7.59375 
Q 56.25 8.5 59.515625 10.40625 
z
" id="DejaVuSans-47"/>
     <path d="M 18.109375 8.203125 
L 18.109375 -20.796875 
L 9.078125 -20.796875 
L 9.078125 54.6875 
L 18.109375 54.6875 
L 18.109375 46.390625 
Q 20.953125 51.265625 25.265625 53.625 
Q 29.59375 56 35.59375 56 
Q 45.5625 56 51.78125 48.09375 
Q 58.015625 40.1875 58.015625 27.296875 
Q 58.015625 14.40625 51.78125 6.484375 
Q 45.5625 -1.421875 35.59375 -1.421875 
Q 29.59375 -1.421875 25.265625 0.953125 
Q 20.953125 3.328125 18.109375 8.203125 
z
M 48.6875 27.296875 
Q 48.6875 37.203125 44.609375 42.84375 
Q 40.53125 48.484375 33.40625 48.484375 
Q 26.265625 48.484375 22.1875 42.84375 
Q 18.109375 37.203125 18.109375 27.296875 
Q 18.109375 17.390625 22.1875 11.75 
Q 26.265625 6.109375 33.40625 6.109375 
Q 40.53125 6.109375 44.609375 11.75 
Q 48.6875 17.390625 48.6875 27.296875 
z
" id="DejaVuSans-70"/>
     <path d="M 2.984375 54.6875 
L 12.5 54.6875 
L 29.59375 8.796875 
L 46.6875 54.6875 
L 56.203125 54.6875 
L 35.6875 0 
L 23.484375 0 
z
" id="DejaVuSans-76"/>
    </defs>
    <g transform="translate(301.287812 19.44)scale(0.12 -0.12)">
     <use xlink:href="#DejaVuSans-47"/>
     <use x="77.490234" xlink:href="#DejaVuSans-72"/>
     <use x="118.603516" xlink:href="#DejaVuSans-69"/>
     <use x="146.386719" xlink:href="#DejaVuSans-70"/>
     <use x="209.863281" xlink:href="#DejaVuSans-70"/>
     <use x="273.339844" xlink:href="#DejaVuSans-65"/>
     <use x="334.863281" xlink:href="#DejaVuSans-72"/>
     <use x="375.976562" xlink:href="#DejaVuSans-20"/>
     <use x="407.763672" xlink:href="#DejaVuSans-50"/>
     <use x="468.019531" xlink:href="#DejaVuSans-6f"/>
     <use x="529.201172" xlink:href="#DejaVuSans-73"/>
     <use x="581.300781" xlink:href="#DejaVuSans-69"/>
     <use x="609.083984" xlink:href="#DejaVuSans-74"/>
     <use x="648.292969" xlink:href="#DejaVuSans-69"/>
     <use x="676.076172" xlink:href="#DejaVuSans-6f"/>
     <use x="737.257812" xlink:href="#DejaVuSans-6e"/>
     <use x="800.636719" xlink:href="#DejaVuSans-20"/>
     <use x="832.423828" xlink:href="#DejaVuSans-6f"/>
     <use x="893.605469" xlink:href="#DejaVuSans-76"/>
     <use x="952.785156" xlink:href="#DejaVuSans-65"/>
     <use x="1014.308594" xlink:href="#DejaVuSans-72"/>
     <use x="1055.421875" xlink:href="#DejaVuSans-20"/>
     <use x="1087.208984" xlink:href="#DejaVuSans-54"/>
     <use x="1148.246094" xlink:href="#DejaVuSans-69"/>
     <use x="1176.029297" xlink:href="#DejaVuSans-6d"/>
     <use x="1273.441406" xlink:href="#DejaVuSans-65"/>
    </g>
   </g>
   <g id="legend_1">
    <g id="patch_7">
     <path d="M 63.09 121.50875 
L 186.032187 121.50875 
Q 188.032187 121.50875 188.032187 119.50875 
L 188.032187 32.44 
Q 188.032187 30.44 186.032187 30.44 
L 63.09 30.44 
Q 61.09 30.44 61.09 32.44 
L 61.09 119.50875 
Q 61.09 121.50875 63.09 121.50875 
z
" style="fill:#ffffff;opacity:0.8;stroke:#cccccc;stroke-linejoin:miter;"/>
    </g>
    <g id="line2d_41">
     <path d="M 65.09 38.538438 
L 85.09 38.538438 
" style="fill:none;stroke:#ff0000;stroke-linecap:square;stroke-width:1.5;"/>
    </g>
    <g id="line2d_42"/>
    <g id="text_21">
     <!-- Gripper X -->
     <defs>
      <path d="M 6.296875 72.90625 
L 16.890625 72.90625 
L 35.015625 45.796875 
L 53.21875 72.90625 
L 63.8125 72.90625 
L 40.375 37.890625 
L 65.375 0 
L 54.78125 0 
L 34.28125 31 
L 13.625 0 
L 2.984375 0 
L 29 38.921875 
z
" id="DejaVuSans-58"/>
     </defs>
     <g transform="translate(93.09 42.038438)scale(0.1 -0.1)">
      <use xlink:href="#DejaVuSans-47"/>
      <use x="77.490234" xlink:href="#DejaVuSans-72"/>
      <use x="118.603516" xlink:href="#DejaVuSans-69"/>
      <use x="146.386719" xlink:href="#DejaVuSans-70"/>
      <use x="209.863281" xlink:href="#DejaVuSans-70"/>
      <use x="273.339844" xlink:href="#DejaVuSans-65"/>
      <use x="334.863281" xlink:href="#DejaVuSans-72"/>
      <use x="375.976562" xlink:href="#DejaVuSans-20"/>
      <use x="407.763672" xlink:href="#DejaVuSans-58"/>
     </g>
    </g>
    <g id="line2d_43">
     <path d="M 65.09 53.216563 
L 85.09 53.216563 
" style="fill:none;stroke:#008000;stroke-linecap:square;stroke-width:1.5;"/>
    </g>
    <g id="line2d_44"/>
    <g id="text_22">
     <!-- Gripper Y -->
     <defs>
      <path d="M -0.203125 72.90625 
L 10.40625 72.90625 
L 30.609375 42.921875 
L 50.6875 72.90625 
L 61.28125 72.90625 
L 35.5 34.71875 
L 35.5 0 
L 25.59375 0 
L 25.59375 34.71875 
z
" id="DejaVuSans-59"/>
     </defs>
     <g transform="translate(93.09 56.716563)scale(0.1 -0.1)">
      <use xlink:href="#DejaVuSans-47"/>
      <use x="77.490234" xlink:href="#DejaVuSans-72"/>
      <use x="118.603516" xlink:href="#DejaVuSans-69"/>
      <use x="146.386719" xlink:href="#DejaVuSans-70"/>
      <use x="209.863281" xlink:href="#DejaVuSans-70"/>
      <use x="273.339844" xlink:href="#DejaVuSans-65"/>
      <use x="334.863281" xlink:href="#DejaVuSans-72"/>
      <use x="375.976562" xlink:href="#DejaVuSans-20"/>
      <use x="407.763672" xlink:href="#DejaVuSans-59"/>
     </g>
    </g>
    <g id="line2d_45">
     <path d="M 65.09 67.894688 
L 85.09 67.894688 
" style="fill:none;stroke:#0000ff;stroke-linecap:square;stroke-width:1.5;"/>
    </g>
    <g id="line2d_46"/>
    <g id="text_23">
     <!-- Gripper Z -->
     <defs>
      <path d="M 5.609375 72.90625 
L 62.890625 72.90625 
L 62.890625 65.375 
L 16.796875 8.296875 
L 64.015625 8.296875 
L 64.015625 0 
L 4.5 0 
L 4.5 7.515625 
L 50.59375 64.59375 
L 5.609375 64.59375 
z
" id="DejaVuSans-5a"/>
     </defs>
     <g transform="translate(93.09 71.394688)scale(0.1 -0.1)">
      <use xlink:href="#DejaVuSans-47"/>
      <use x="77.490234" xlink:href="#DejaVuSans-72"/>
      <use x="118.603516" xlink:href="#DejaVuSans-69"/>
      <use x="146.386719" xlink:href="#DejaVuSans-70"/>
      <use x="209.863281" xlink:href="#DejaVuSans-70"/>
      <use x="273.339844" xlink:href="#DejaVuSans-65"/>
      <use x="334.863281" xlink:href="#DejaVuSans-72"/>
      <use x="375.976562" xlink:href="#DejaVuSans-20"/>
      <use x="407.763672" xlink:href="#DejaVuSans-5a"/>
     </g>
    </g>
    <g id="line2d_47">
     <path d="M 65.09 82.572813 
L 85.09 82.572813 
" style="fill:none;stroke:#ff0000;stroke-dasharray:5.55,2.4;stroke-dashoffset:0;stroke-width:1.5;"/>
    </g>
    <g id="line2d_48"/>
    <g id="text_24">
     <!-- Desired X Position -->
     <defs>
      <path d="M 19.671875 64.796875 
L 19.671875 8.109375 
L 31.59375 8.109375 
Q 46.6875 8.109375 53.6875 14.9375 
Q 60.6875 21.78125 60.6875 36.53125 
Q 60.6875 51.171875 53.6875 57.984375 
Q 46.6875 64.796875 31.59375 64.796875 
z
M 9.8125 72.90625 
L 30.078125 72.90625 
Q 51.265625 72.90625 61.171875 64.09375 
Q 71.09375 55.28125 71.09375 36.53125 
Q 71.09375 17.671875 61.125 8.828125 
Q 51.171875 0 30.078125 0 
L 9.8125 0 
z
" id="DejaVuSans-44"/>
     </defs>
     <g transform="translate(93.09 86.072813)scale(0.1 -0.1)">
      <use xlink:href="#DejaVuSans-44"/>
      <use x="77.001953" xlink:href="#DejaVuSans-65"/>
      <use x="138.525391" xlink:href="#DejaVuSans-73"/>
      <use x="190.625" xlink:href="#DejaVuSans-69"/>
      <use x="218.408203" xlink:href="#DejaVuSans-72"/>
      <use x="259.490234" xlink:href="#DejaVuSans-65"/>
      <use x="321.013672" xlink:href="#DejaVuSans-64"/>
      <use x="384.490234" xlink:href="#DejaVuSans-20"/>
      <use x="416.277344" xlink:href="#DejaVuSans-58"/>
      <use x="484.783203" xlink:href="#DejaVuSans-20"/>
      <use x="516.570312" xlink:href="#DejaVuSans-50"/>
      <use x="576.826172" xlink:href="#DejaVuSans-6f"/>
      <use x="638.007812" xlink:href="#DejaVuSans-73"/>
      <use x="690.107422" xlink:href="#DejaVuSans-69"/>
      <use x="717.890625" xlink:href="#DejaVuSans-74"/>
      <use x="757.099609" xlink:href="#DejaVuSans-69"/>
      <use x="784.882812" xlink:href="#DejaVuSans-6f"/>
      <use x="846.064453" xlink:href="#DejaVuSans-6e"/>
     </g>
    </g>
    <g id="line2d_49">
     <path d="M 65.09 97.250938 
L 85.09 97.250938 
" style="fill:none;stroke:#008000;stroke-dasharray:5.55,2.4;stroke-dashoffset:0;stroke-width:1.5;"/>
    </g>
    <g id="line2d_50"/>
    <g id="text_25">
     <!-- Desired Y Position -->
     <g transform="translate(93.09 100.750938)scale(0.1 -0.1)">
      <use xlink:href="#DejaVuSans-44"/>
      <use x="77.001953" xlink:href="#DejaVuSans-65"/>
      <use x="138.525391" xlink:href="#DejaVuSans-73"/>
      <use x="190.625" xlink:href="#DejaVuSans-69"/>
      <use x="218.408203" xlink:href="#DejaVuSans-72"/>
      <use x="259.490234" xlink:href="#DejaVuSans-65"/>
      <use x="321.013672" xlink:href="#DejaVuSans-64"/>
      <use x="384.490234" xlink:href="#DejaVuSans-20"/>
      <use x="416.277344" xlink:href="#DejaVuSans-59"/>
      <use x="477.361328" xlink:href="#DejaVuSans-20"/>
      <use x="509.148438" xlink:href="#DejaVuSans-50"/>
      <use x="569.404297" xlink:href="#DejaVuSans-6f"/>
      <use x="630.585938" xlink:href="#DejaVuSans-73"/>
      <use x="682.685547" xlink:href="#DejaVuSans-69"/>
      <use x="710.46875" xlink:href="#DejaVuSans-74"/>
      <use x="749.677734" xlink:href="#DejaVuSans-69"/>
      <use x="777.460938" xlink:href="#DejaVuSans-6f"/>
      <use x="838.642578" xlink:href="#DejaVuSans-6e"/>
     </g>
    </g>
    <g id="line2d_51">
     <path d="M 65.09 111.929063 
L 85.09 111.929063 
" style="fill:none;stroke:#0000ff;stroke-dasharray:5.55,2.4;stroke-dashoffset:0;stroke-width:1.5;"/>
    </g>
    <g id="line2d_52"/>
    <g id="text_26">
     <!-- Desired Z Position -->
     <g transform="translate(93.09 115.429063)scale(0.1 -0.1)">
      <use xlink:href="#DejaVuSans-44"/>
      <use x="77.001953" xlink:href="#DejaVuSans-65"/>
      <use x="138.525391" xlink:href="#DejaVuSans-73"/>
      <use x="190.625" xlink:href="#DejaVuSans-69"/>
      <use x="218.408203" xlink:href="#DejaVuSans-72"/>
      <use x="259.490234" xlink:href="#DejaVuSans-65"/>
      <use x="321.013672" xlink:href="#DejaVuSans-64"/>
      <use x="384.490234" xlink:href="#DejaVuSans-20"/>
      <use x="416.277344" xlink:href="#DejaVuSans-5a"/>
      <use x="484.783203" xlink:href="#DejaVuSans-20"/>
      <use x="516.570312" xlink:href="#DejaVuSans-50"/>
      <use x="576.826172" xlink:href="#DejaVuSans-6f"/>
      <use x="638.007812" xlink:href="#DejaVuSans-73"/>
      <use x="690.107422" xlink:href="#DejaVuSans-69"/>
      <use x="717.890625" xlink:href="#DejaVuSans-74"/>
      <use x="757.099609" xlink:href="#DejaVuSans-69"/>
      <use x="784.882812" xlink:href="#DejaVuSans-6f"/>
      <use x="846.064453" xlink:href="#DejaVuSans-6e"/>
     </g>
    </g>
   </g>
  </g>
  <g id="axes_2">
   <g id="patch_8">
    <path d="M 56.09 678.04 
L 706.68 678.04 
L 706.68 380.04 
L 56.09 380.04 
z
" style="fill:#ffffff;"/>
   </g>
   <g id="matplotlib.axis_3">
    <g id="xtick_10">
     <g id="line2d_53">
      <path clip-path="url(#pe45266e127)" d="M 84.643072 678.04 
L 84.643072 380.04 
" style="fill:none;stroke:#b0b0b0;stroke-linecap:square;stroke-width:0.8;"/>
     </g>
     <g id="line2d_54">
      <g>
       <use style="stroke:#000000;stroke-width:0.8;" x="84.643072" xlink:href="#m6fa52c8d58" y="678.04"/>
      </g>
     </g>
     <g id="text_27">
      <!-- 0 -->
      <g transform="translate(81.461822 692.638438)scale(0.1 -0.1)">
       <use xlink:href="#DejaVuSans-30"/>
      </g>
     </g>
    </g>
    <g id="xtick_11">
     <g id="line2d_55">
      <path clip-path="url(#pe45266e127)" d="M 158.022798 678.04 
L 158.022798 380.04 
" style="fill:none;stroke:#b0b0b0;stroke-linecap:square;stroke-width:0.8;"/>
     </g>
     <g id="line2d_56">
      <g>
       <use style="stroke:#000000;stroke-width:0.8;" x="158.022798" xlink:href="#m6fa52c8d58" y="678.04"/>
      </g>
     </g>
     <g id="text_28">
      <!-- 5 -->
      <g transform="translate(154.841548 692.638438)scale(0.1 -0.1)">
       <use xlink:href="#DejaVuSans-35"/>
      </g>
     </g>
    </g>
    <g id="xtick_12">
     <g id="line2d_57">
      <path clip-path="url(#pe45266e127)" d="M 231.402525 678.04 
L 231.402525 380.04 
" style="fill:none;stroke:#b0b0b0;stroke-linecap:square;stroke-width:0.8;"/>
     </g>
     <g id="line2d_58">
      <g>
       <use style="stroke:#000000;stroke-width:0.8;" x="231.402525" xlink:href="#m6fa52c8d58" y="678.04"/>
      </g>
     </g>
     <g id="text_29">
      <!-- 10 -->
      <g transform="translate(225.040025 692.638438)scale(0.1 -0.1)">
       <use xlink:href="#DejaVuSans-31"/>
       <use x="63.623047" xlink:href="#DejaVuSans-30"/>
      </g>
     </g>
    </g>
    <g id="xtick_13">
     <g id="line2d_59">
      <path clip-path="url(#pe45266e127)" d="M 304.782251 678.04 
L 304.782251 380.04 
" style="fill:none;stroke:#b0b0b0;stroke-linecap:square;stroke-width:0.8;"/>
     </g>
     <g id="line2d_60">
      <g>
       <use style="stroke:#000000;stroke-width:0.8;" x="304.782251" xlink:href="#m6fa52c8d58" y="678.04"/>
      </g>
     </g>
     <g id="text_30">
      <!-- 15 -->
      <g transform="translate(298.419751 692.638438)scale(0.1 -0.1)">
       <use xlink:href="#DejaVuSans-31"/>
       <use x="63.623047" xlink:href="#DejaVuSans-35"/>
      </g>
     </g>
    </g>
    <g id="xtick_14">
     <g id="line2d_61">
      <path clip-path="url(#pe45266e127)" d="M 378.161978 678.04 
L 378.161978 380.04 
" style="fill:none;stroke:#b0b0b0;stroke-linecap:square;stroke-width:0.8;"/>
     </g>
     <g id="line2d_62">
      <g>
       <use style="stroke:#000000;stroke-width:0.8;" x="378.161978" xlink:href="#m6fa52c8d58" y="678.04"/>
      </g>
     </g>
     <g id="text_31">
      <!-- 20 -->
      <g transform="translate(371.799478 692.638438)scale(0.1 -0.1)">
       <use xlink:href="#DejaVuSans-32"/>
       <use x="63.623047" xlink:href="#DejaVuSans-30"/>
      </g>
     </g>
    </g>
    <g id="xtick_15">
     <g id="line2d_63">
      <path clip-path="url(#pe45266e127)" d="M 451.541704 678.04 
L 451.541704 380.04 
" style="fill:none;stroke:#b0b0b0;stroke-linecap:square;stroke-width:0.8;"/>
     </g>
     <g id="line2d_64">
      <g>
       <use style="stroke:#000000;stroke-width:0.8;" x="451.541704" xlink:href="#m6fa52c8d58" y="678.04"/>
      </g>
     </g>
     <g id="text_32">
      <!-- 25 -->
      <g transform="translate(445.179204 692.638438)scale(0.1 -0.1)">
       <use xlink:href="#DejaVuSans-32"/>
       <use x="63.623047" xlink:href="#DejaVuSans-35"/>
      </g>
     </g>
    </g>
    <g id="xtick_16">
     <g id="line2d_65">
      <path clip-path="url(#pe45266e127)" d="M 524.92143 678.04 
L 524.92143 380.04 
" style="fill:none;stroke:#b0b0b0;stroke-linecap:square;stroke-width:0.8;"/>
     </g>
     <g id="line2d_66">
      <g>
       <use style="stroke:#000000;stroke-width:0.8;" x="524.92143" xlink:href="#m6fa52c8d58" y="678.04"/>
      </g>
     </g>
     <g id="text_33">
      <!-- 30 -->
      <g transform="translate(518.55893 692.638438)scale(0.1 -0.1)">
       <use xlink:href="#DejaVuSans-33"/>
       <use x="63.623047" xlink:href="#DejaVuSans-30"/>
      </g>
     </g>
    </g>
    <g id="xtick_17">
     <g id="line2d_67">
      <path clip-path="url(#pe45266e127)" d="M 598.301157 678.04 
L 598.301157 380.04 
" style="fill:none;stroke:#b0b0b0;stroke-linecap:square;stroke-width:0.8;"/>
     </g>
     <g id="line2d_68">
      <g>
       <use style="stroke:#000000;stroke-width:0.8;" x="598.301157" xlink:href="#m6fa52c8d58" y="678.04"/>
      </g>
     </g>
     <g id="text_34">
      <!-- 35 -->
      <g transform="translate(591.938657 692.638438)scale(0.1 -0.1)">
       <use xlink:href="#DejaVuSans-33"/>
       <use x="63.623047" xlink:href="#DejaVuSans-35"/>
      </g>
     </g>
    </g>
    <g id="xtick_18">
     <g id="line2d_69">
      <path clip-path="url(#pe45266e127)" d="M 671.680883 678.04 
L 671.680883 380.04 
" style="fill:none;stroke:#b0b0b0;stroke-linecap:square;stroke-width:0.8;"/>
     </g>
     <g id="line2d_70">
      <g>
       <use style="stroke:#000000;stroke-width:0.8;" x="671.680883" xlink:href="#m6fa52c8d58" y="678.04"/>
      </g>
     </g>
     <g id="text_35">
      <!-- 40 -->
      <g transform="translate(665.318383 692.638438)scale(0.1 -0.1)">
       <use xlink:href="#DejaVuSans-34"/>
       <use x="63.623047" xlink:href="#DejaVuSans-30"/>
      </g>
     </g>
    </g>
    <g id="text_36">
     <!-- Time (seconds) -->
     <g transform="translate(343.069375 706.316563)scale(0.1 -0.1)">
      <use xlink:href="#DejaVuSans-54"/>
      <use x="61.037109" xlink:href="#DejaVuSans-69"/>
      <use x="88.820312" xlink:href="#DejaVuSans-6d"/>
      <use x="186.232422" xlink:href="#DejaVuSans-65"/>
      <use x="247.755859" xlink:href="#DejaVuSans-20"/>
      <use x="279.542969" xlink:href="#DejaVuSans-28"/>
      <use x="318.556641" xlink:href="#DejaVuSans-73"/>
      <use x="370.65625" xlink:href="#DejaVuSans-65"/>
      <use x="432.179688" xlink:href="#DejaVuSans-63"/>
      <use x="487.160156" xlink:href="#DejaVuSans-6f"/>
      <use x="548.341797" xlink:href="#DejaVuSans-6e"/>
      <use x="611.720703" xlink:href="#DejaVuSans-64"/>
      <use x="675.197266" xlink:href="#DejaVuSans-73"/>
      <use x="727.296875" xlink:href="#DejaVuSans-29"/>
     </g>
    </g>
   </g>
   <g id="matplotlib.axis_4">
    <g id="ytick_9">
     <g id="line2d_71">
      <path clip-path="url(#pe45266e127)" d="M 56.09 668.328307 
L 706.68 668.328307 
" style="fill:none;stroke:#b0b0b0;stroke-linecap:square;stroke-width:0.8;"/>
     </g>
     <g id="line2d_72">
      <g>
       <use style="stroke:#000000;stroke-width:0.8;" x="56.09" xlink:href="#m04916744b3" y="668.328307"/>
      </g>
     </g>
     <g id="text_37">
      <!-- −0.6 -->
      <g transform="translate(24.807188 672.127526)scale(0.1 -0.1)">
       <use xlink:href="#DejaVuSans-2212"/>
       <use x="83.789062" xlink:href="#DejaVuSans-30"/>
       <use x="147.412109" xlink:href="#DejaVuSans-2e"/>
       <use x="179.199219" xlink:href="#DejaVuSans-36"/>
      </g>
     </g>
    </g>
    <g id="ytick_10">
     <g id="line2d_73">
      <path clip-path="url(#pe45266e127)" d="M 56.09 621.88935 
L 706.68 621.88935 
" style="fill:none;stroke:#b0b0b0;stroke-linecap:square;stroke-width:0.8;"/>
     </g>
     <g id="line2d_74">
      <g>
       <use style="stroke:#000000;stroke-width:0.8;" x="56.09" xlink:href="#m04916744b3" y="621.88935"/>
      </g>
     </g>
     <g id="text_38">
      <!-- −0.4 -->
      <g transform="translate(24.807188 625.688569)scale(0.1 -0.1)">
       <use xlink:href="#DejaVuSans-2212"/>
       <use x="83.789062" xlink:href="#DejaVuSans-30"/>
       <use x="147.412109" xlink:href="#DejaVuSans-2e"/>
       <use x="179.199219" xlink:href="#DejaVuSans-34"/>
      </g>
     </g>
    </g>
    <g id="ytick_11">
     <g id="line2d_75">
      <path clip-path="url(#pe45266e127)" d="M 56.09 575.450393 
L 706.68 575.450393 
" style="fill:none;stroke:#b0b0b0;stroke-linecap:square;stroke-width:0.8;"/>
     </g>
     <g id="line2d_76">
      <g>
       <use style="stroke:#000000;stroke-width:0.8;" x="56.09" xlink:href="#m04916744b3" y="575.450393"/>
      </g>
     </g>
     <g id="text_39">
      <!-- −0.2 -->
      <g transform="translate(24.807188 579.249611)scale(0.1 -0.1)">
       <use xlink:href="#DejaVuSans-2212"/>
       <use x="83.789062" xlink:href="#DejaVuSans-30"/>
       <use x="147.412109" xlink:href="#DejaVuSans-2e"/>
       <use x="179.199219" xlink:href="#DejaVuSans-32"/>
      </g>
     </g>
    </g>
    <g id="ytick_12">
     <g id="line2d_77">
      <path clip-path="url(#pe45266e127)" d="M 56.09 529.011435 
L 706.68 529.011435 
" style="fill:none;stroke:#b0b0b0;stroke-linecap:square;stroke-width:0.8;"/>
     </g>
     <g id="line2d_78">
      <g>
       <use style="stroke:#000000;stroke-width:0.8;" x="56.09" xlink:href="#m04916744b3" y="529.011435"/>
      </g>
     </g>
     <g id="text_40">
      <!-- 0.0 -->
      <g transform="translate(33.186875 532.810654)scale(0.1 -0.1)">
       <use xlink:href="#DejaVuSans-30"/>
       <use x="63.623047" xlink:href="#DejaVuSans-2e"/>
       <use x="95.410156" xlink:href="#DejaVuSans-30"/>
      </g>
     </g>
    </g>
    <g id="ytick_13">
     <g id="line2d_79">
      <path clip-path="url(#pe45266e127)" d="M 56.09 482.572478 
L 706.68 482.572478 
" style="fill:none;stroke:#b0b0b0;stroke-linecap:square;stroke-width:0.8;"/>
     </g>
     <g id="line2d_80">
      <g>
       <use style="stroke:#000000;stroke-width:0.8;" x="56.09" xlink:href="#m04916744b3" y="482.572478"/>
      </g>
     </g>
     <g id="text_41">
      <!-- 0.2 -->
      <g transform="translate(33.186875 486.371697)scale(0.1 -0.1)">
       <use xlink:href="#DejaVuSans-30"/>
       <use x="63.623047" xlink:href="#DejaVuSans-2e"/>
       <use x="95.410156" xlink:href="#DejaVuSans-32"/>
      </g>
     </g>
    </g>
    <g id="ytick_14">
     <g id="line2d_81">
      <path clip-path="url(#pe45266e127)" d="M 56.09 436.133521 
L 706.68 436.133521 
" style="fill:none;stroke:#b0b0b0;stroke-linecap:square;stroke-width:0.8;"/>
     </g>
     <g id="line2d_82">
      <g>
       <use style="stroke:#000000;stroke-width:0.8;" x="56.09" xlink:href="#m04916744b3" y="436.133521"/>
      </g>
     </g>
     <g id="text_42">
      <!-- 0.4 -->
      <g transform="translate(33.186875 439.93274)scale(0.1 -0.1)">
       <use xlink:href="#DejaVuSans-30"/>
       <use x="63.623047" xlink:href="#DejaVuSans-2e"/>
       <use x="95.410156" xlink:href="#DejaVuSans-34"/>
      </g>
     </g>
    </g>
    <g id="ytick_15">
     <g id="line2d_83">
      <path clip-path="url(#pe45266e127)" d="M 56.09 389.694564 
L 706.68 389.694564 
" style="fill:none;stroke:#b0b0b0;stroke-linecap:square;stroke-width:0.8;"/>
     </g>
     <g id="line2d_84">
      <g>
       <use style="stroke:#000000;stroke-width:0.8;" x="56.09" xlink:href="#m04916744b3" y="389.694564"/>
      </g>
     </g>
     <g id="text_43">
      <!-- 0.6 -->
      <g transform="translate(33.186875 393.493782)scale(0.1 -0.1)">
       <use xlink:href="#DejaVuSans-30"/>
       <use x="63.623047" xlink:href="#DejaVuSans-2e"/>
       <use x="95.410156" xlink:href="#DejaVuSans-36"/>
      </g>
     </g>
    </g>
    <g id="text_44">
     <!-- Orientation (quaternion) -->
     <defs>
      <path d="M 39.40625 66.21875 
Q 28.65625 66.21875 22.328125 58.203125 
Q 16.015625 50.203125 16.015625 36.375 
Q 16.015625 22.609375 22.328125 14.59375 
Q 28.65625 6.59375 39.40625 6.59375 
Q 50.140625 6.59375 56.421875 14.59375 
Q 62.703125 22.609375 62.703125 36.375 
Q 62.703125 50.203125 56.421875 58.203125 
Q 50.140625 66.21875 39.40625 66.21875 
z
M 39.40625 74.21875 
Q 54.734375 74.21875 63.90625 63.9375 
Q 73.09375 53.65625 73.09375 36.375 
Q 73.09375 19.140625 63.90625 8.859375 
Q 54.734375 -1.421875 39.40625 -1.421875 
Q 24.03125 -1.421875 14.8125 8.828125 
Q 5.609375 19.09375 5.609375 36.375 
Q 5.609375 53.65625 14.8125 63.9375 
Q 24.03125 74.21875 39.40625 74.21875 
z
" id="DejaVuSans-4f"/>
      <path d="M 34.28125 27.484375 
Q 23.390625 27.484375 19.1875 25 
Q 14.984375 22.515625 14.984375 16.5 
Q 14.984375 11.71875 18.140625 8.90625 
Q 21.296875 6.109375 26.703125 6.109375 
Q 34.1875 6.109375 38.703125 11.40625 
Q 43.21875 16.703125 43.21875 25.484375 
L 43.21875 27.484375 
z
M 52.203125 31.203125 
L 52.203125 0 
L 43.21875 0 
L 43.21875 8.296875 
Q 40.140625 3.328125 35.546875 0.953125 
Q 30.953125 -1.421875 24.3125 -1.421875 
Q 15.921875 -1.421875 10.953125 3.296875 
Q 6 8.015625 6 15.921875 
Q 6 25.140625 12.171875 29.828125 
Q 18.359375 34.515625 30.609375 34.515625 
L 43.21875 34.515625 
L 43.21875 35.40625 
Q 43.21875 41.609375 39.140625 45 
Q 35.0625 48.390625 27.6875 48.390625 
Q 23 48.390625 18.546875 47.265625 
Q 14.109375 46.140625 10.015625 43.890625 
L 10.015625 52.203125 
Q 14.9375 54.109375 19.578125 55.046875 
Q 24.21875 56 28.609375 56 
Q 40.484375 56 46.34375 49.84375 
Q 52.203125 43.703125 52.203125 31.203125 
z
" id="DejaVuSans-61"/>
      <path d="M 14.796875 27.296875 
Q 14.796875 17.390625 18.875 11.75 
Q 22.953125 6.109375 30.078125 6.109375 
Q 37.203125 6.109375 41.296875 11.75 
Q 45.40625 17.390625 45.40625 27.296875 
Q 45.40625 37.203125 41.296875 42.84375 
Q 37.203125 48.484375 30.078125 48.484375 
Q 22.953125 48.484375 18.875 42.84375 
Q 14.796875 37.203125 14.796875 27.296875 
z
M 45.40625 8.203125 
Q 42.578125 3.328125 38.25 0.953125 
Q 33.9375 -1.421875 27.875 -1.421875 
Q 17.96875 -1.421875 11.734375 6.484375 
Q 5.515625 14.40625 5.515625 27.296875 
Q 5.515625 40.1875 11.734375 48.09375 
Q 17.96875 56 27.875 56 
Q 33.9375 56 38.25 53.625 
Q 42.578125 51.265625 45.40625 46.390625 
L 45.40625 54.6875 
L 54.390625 54.6875 
L 54.390625 -20.796875 
L 45.40625 -20.796875 
z
" id="DejaVuSans-71"/>
      <path d="M 8.5 21.578125 
L 8.5 54.6875 
L 17.484375 54.6875 
L 17.484375 21.921875 
Q 17.484375 14.15625 20.5 10.265625 
Q 23.53125 6.390625 29.59375 6.390625 
Q 36.859375 6.390625 41.078125 11.03125 
Q 45.3125 15.671875 45.3125 23.6875 
L 45.3125 54.6875 
L 54.296875 54.6875 
L 54.296875 0 
L 45.3125 0 
L 45.3125 8.40625 
Q 42.046875 3.421875 37.71875 1 
Q 33.40625 -1.421875 27.6875 -1.421875 
Q 18.265625 -1.421875 13.375 4.4375 
Q 8.5 10.296875 8.5 21.578125 
z
M 31.109375 56 
z
" id="DejaVuSans-75"/>
     </defs>
     <g transform="translate(18.7275 590.042344)rotate(-90)scale(0.1 -0.1)">
      <use xlink:href="#DejaVuSans-4f"/>
      <use x="78.710938" xlink:href="#DejaVuSans-72"/>
      <use x="119.824219" xlink:href="#DejaVuSans-69"/>
      <use x="147.607422" xlink:href="#DejaVuSans-65"/>
      <use x="209.130859" xlink:href="#DejaVuSans-6e"/>
      <use x="272.509766" xlink:href="#DejaVuSans-74"/>
      <use x="311.71875" xlink:href="#DejaVuSans-61"/>
      <use x="372.998047" xlink:href="#DejaVuSans-74"/>
      <use x="412.207031" xlink:href="#DejaVuSans-69"/>
      <use x="439.990234" xlink:href="#DejaVuSans-6f"/>
      <use x="501.171875" xlink:href="#DejaVuSans-6e"/>
      <use x="564.550781" xlink:href="#DejaVuSans-20"/>
      <use x="596.337891" xlink:href="#DejaVuSans-28"/>
      <use x="635.351562" xlink:href="#DejaVuSans-71"/>
      <use x="698.828125" xlink:href="#DejaVuSans-75"/>
      <use x="762.207031" xlink:href="#DejaVuSans-61"/>
      <use x="823.486328" xlink:href="#DejaVuSans-74"/>
      <use x="862.695312" xlink:href="#DejaVuSans-65"/>
      <use x="924.21875" xlink:href="#DejaVuSans-72"/>
      <use x="965.316406" xlink:href="#DejaVuSans-6e"/>
      <use x="1028.695312" xlink:href="#DejaVuSans-69"/>
      <use x="1056.478516" xlink:href="#DejaVuSans-6f"/>
      <use x="1117.660156" xlink:href="#DejaVuSans-6e"/>
      <use x="1181.039062" xlink:href="#DejaVuSans-29"/>
     </g>
    </g>
   </g>
   <g id="line2d_85">
    <path clip-path="url(#pe45266e127)" d="M 85.662273 407.452081 
L 126.816631 407.259276 
L 129.743147 406.82735 
L 132.721997 406.155919 
L 141.525362 403.754814 
L 144.45791 403.216497 
L 147.40986 402.942803 
L 153.188999 402.866256 
L 157.603479 402.666855 
L 162.030419 402.160354 
L 172.305958 400.668694 
L 176.750141 400.390362 
L 189.926204 400.051431 
L 197.267144 399.423517 
L 201.613117 399.09345 
L 207.511216 398.902129 
L 216.30704 398.841773 
L 222.226273 398.615394 
L 231.038798 398.229405 
L 239.829115 398.136509 
L 247.118483 398.089735 
L 269.172157 397.766703 
L 277.963884 397.736727 
L 305.873703 397.609482 
L 336.691 397.565983 
L 454.060581 397.616787 
L 489.319583 397.657192 
L 534.745098 397.691007 
L 537.785777 397.834398 
L 540.696372 398.250851 
L 543.637916 399.159971 
L 546.576772 400.645075 
L 549.495685 402.568912 
L 550.96664 403.666012 
L 553.891893 405.56166 
L 556.825176 406.867678 
L 559.723587 407.406227 
L 567.124136 407.4545 
L 675.766816 407.448637 
L 675.766932 407.452457 
L 677.107727 407.447749 
L 677.107727 407.447749 
" style="fill:none;stroke:#ffa500;stroke-linecap:square;stroke-width:1.5;"/>
   </g>
   <g id="line2d_86">
    <path clip-path="url(#pe45266e127)" d="M 85.662273 397.701482 
L 129.743147 397.487613 
L 137.051738 396.850255 
L 142.930659 396.389189 
L 147.40986 396.224471 
L 159.104726 396.096657 
L 178.193815 395.368788 
L 189.926204 395.226451 
L 210.452938 394.708395 
L 217.86432 394.643403 
L 233.962921 394.246322 
L 248.660423 394.155889 
L 295.603036 393.700515 
L 357.222811 393.607992 
L 388.077092 393.707033 
L 398.349681 393.755609 
L 417.419896 393.87934 
L 427.689612 393.918625 
L 435.059824 394.031494 
L 457.049676 394.157966 
L 476.099272 394.294498 
L 537.785777 394.840537 
L 540.696372 395.159 
L 543.637916 395.653204 
L 549.495685 396.813947 
L 553.891893 397.4339 
L 556.825176 397.618208 
L 562.661066 397.692303 
L 677.107727 397.703499 
L 677.107727 397.703499 
" style="fill:none;stroke:#800080;stroke-linecap:square;stroke-width:1.5;"/>
   </g>
   <g id="line2d_87">
    <path clip-path="url(#pe45266e127)" d="M 85.662273 631.9891 
L 116.556915 631.981516 
L 125.369644 631.943941 
L 128.258954 631.805807 
L 132.721997 631.366117 
L 142.930659 630.022335 
L 147.40986 629.755682 
L 159.104726 629.567224 
L 167.956286 628.944295 
L 173.842677 628.598122 
L 179.602163 628.49744 
L 186.970633 628.446501 
L 194.295998 628.190702 
L 201.613117 627.880595 
L 208.998757 627.772682 
L 217.86432 627.744966 
L 238.298827 627.440945 
L 250.095763 627.440697 
L 270.617181 627.392507 
L 295.603036 627.447152 
L 302.959308 627.443622 
L 424.764209 627.940753 
L 436.441317 627.995356 
L 448.22334 628.030154 
L 464.41709 628.097212 
L 470.263707 628.141046 
L 526.020528 628.307187 
L 533.353966 628.307612 
L 537.785777 628.506672 
L 540.696372 628.953359 
L 543.637916 629.696994 
L 549.495685 631.263351 
L 552.468695 631.73552 
L 555.387401 631.934477 
L 562.661066 631.98585 
L 677.107727 631.984887 
L 677.107727 631.984887 
" style="fill:none;stroke:#00ffff;stroke-linecap:square;stroke-width:1.5;"/>
   </g>
   <g id="line2d_88">
    <path clip-path="url(#pe45266e127)" d="M 85.662273 529.011435 
L 119.506339 529.011435 
L 121.008849 662.557361 
L 677.107727 662.557361 
L 677.107727 662.557361 
" style="fill:none;stroke:#ffa500;stroke-dasharray:5.55,2.4;stroke-dashoffset:0;stroke-width:1.5;"/>
   </g>
   <g id="line2d_89">
    <path clip-path="url(#pe45266e127)" d="M 85.662273 529.011435 
L 119.506339 529.011435 
L 121.008849 664.494545 
L 677.107727 664.494545 
L 677.107727 664.494545 
" style="fill:none;stroke:#800080;stroke-dasharray:5.55,2.4;stroke-dashoffset:0;stroke-width:1.5;"/>
   </g>
   <g id="line2d_90">
    <path clip-path="url(#pe45266e127)" d="M 85.662273 529.011435 
L 119.506339 529.011435 
L 121.008849 432.716136 
L 677.107727 432.716136 
L 677.107727 432.716136 
" style="fill:none;stroke:#00ffff;stroke-dasharray:5.55,2.4;stroke-dashoffset:0;stroke-width:1.5;"/>
   </g>
   <g id="patch_9">
    <path d="M 56.09 678.04 
L 56.09 380.04 
" style="fill:none;stroke:#000000;stroke-linecap:square;stroke-linejoin:miter;stroke-width:0.8;"/>
   </g>
   <g id="patch_10">
    <path d="M 706.68 678.04 
L 706.68 380.04 
" style="fill:none;stroke:#000000;stroke-linecap:square;stroke-linejoin:miter;stroke-width:0.8;"/>
   </g>
   <g id="patch_11">
    <path d="M 56.09 678.04 
L 706.68 678.04 
" style="fill:none;stroke:#000000;stroke-linecap:square;stroke-linejoin:miter;stroke-width:0.8;"/>
   </g>
   <g id="patch_12">
    <path d="M 56.09 380.04 
L 706.68 380.04 
" style="fill:none;stroke:#000000;stroke-linecap:square;stroke-linejoin:miter;stroke-width:0.8;"/>
   </g>
   <g id="text_45">
    <!-- Gripper Orientation over Time -->
    <g transform="translate(290.986562 374.04)scale(0.12 -0.12)">
     <use xlink:href="#DejaVuSans-47"/>
     <use x="77.490234" xlink:href="#DejaVuSans-72"/>
     <use x="118.603516" xlink:href="#DejaVuSans-69"/>
     <use x="146.386719" xlink:href="#DejaVuSans-70"/>
     <use x="209.863281" xlink:href="#DejaVuSans-70"/>
     <use x="273.339844" xlink:href="#DejaVuSans-65"/>
     <use x="334.863281" xlink:href="#DejaVuSans-72"/>
     <use x="375.976562" xlink:href="#DejaVuSans-20"/>
     <use x="407.763672" xlink:href="#DejaVuSans-4f"/>
     <use x="486.474609" xlink:href="#DejaVuSans-72"/>
     <use x="527.587891" xlink:href="#DejaVuSans-69"/>
     <use x="555.371094" xlink:href="#DejaVuSans-65"/>
     <use x="616.894531" xlink:href="#DejaVuSans-6e"/>
     <use x="680.273438" xlink:href="#DejaVuSans-74"/>
     <use x="719.482422" xlink:href="#DejaVuSans-61"/>
     <use x="780.761719" xlink:href="#DejaVuSans-74"/>
     <use x="819.970703" xlink:href="#DejaVuSans-69"/>
     <use x="847.753906" xlink:href="#DejaVuSans-6f"/>
     <use x="908.935547" xlink:href="#DejaVuSans-6e"/>
     <use x="972.314453" xlink:href="#DejaVuSans-20"/>
     <use x="1004.101562" xlink:href="#DejaVuSans-6f"/>
     <use x="1065.283203" xlink:href="#DejaVuSans-76"/>
     <use x="1124.462891" xlink:href="#DejaVuSans-65"/>
     <use x="1185.986328" xlink:href="#DejaVuSans-72"/>
     <use x="1227.099609" xlink:href="#DejaVuSans-20"/>
     <use x="1258.886719" xlink:href="#DejaVuSans-54"/>
     <use x="1319.923828" xlink:href="#DejaVuSans-69"/>
     <use x="1347.707031" xlink:href="#DejaVuSans-6d"/>
     <use x="1445.119141" xlink:href="#DejaVuSans-65"/>
    </g>
   </g>
   <g id="legend_2">
    <g id="patch_13">
     <path d="M 559.569063 574.574375 
L 699.68 574.574375 
Q 701.68 574.574375 701.68 572.574375 
L 701.68 485.505625 
Q 701.68 483.505625 699.68 483.505625 
L 559.569063 483.505625 
Q 557.569063 483.505625 557.569063 485.505625 
L 557.569063 572.574375 
Q 557.569063 574.574375 559.569063 574.574375 
z
" style="fill:#ffffff;opacity:0.8;stroke:#cccccc;stroke-linejoin:miter;"/>
    </g>
    <g id="line2d_91">
     <path d="M 561.569063 491.604062 
L 581.569063 491.604062 
" style="fill:none;stroke:#ffa500;stroke-linecap:square;stroke-width:1.5;"/>
    </g>
    <g id="line2d_92"/>
    <g id="text_46">
     <!-- Orientation X -->
     <g transform="translate(589.569063 495.104062)scale(0.1 -0.1)">
      <use xlink:href="#DejaVuSans-4f"/>
      <use x="78.710938" xlink:href="#DejaVuSans-72"/>
      <use x="119.824219" xlink:href="#DejaVuSans-69"/>
      <use x="147.607422" xlink:href="#DejaVuSans-65"/>
      <use x="209.130859" xlink:href="#DejaVuSans-6e"/>
      <use x="272.509766" xlink:href="#DejaVuSans-74"/>
      <use x="311.71875" xlink:href="#DejaVuSans-61"/>
      <use x="372.998047" xlink:href="#DejaVuSans-74"/>
      <use x="412.207031" xlink:href="#DejaVuSans-69"/>
      <use x="439.990234" xlink:href="#DejaVuSans-6f"/>
      <use x="501.171875" xlink:href="#DejaVuSans-6e"/>
      <use x="564.550781" xlink:href="#DejaVuSans-20"/>
      <use x="596.337891" xlink:href="#DejaVuSans-58"/>
     </g>
    </g>
    <g id="line2d_93">
     <path d="M 561.569063 506.282187 
L 581.569063 506.282187 
" style="fill:none;stroke:#800080;stroke-linecap:square;stroke-width:1.5;"/>
    </g>
    <g id="line2d_94"/>
    <g id="text_47">
     <!-- Orientation Y -->
     <g transform="translate(589.569063 509.782187)scale(0.1 -0.1)">
      <use xlink:href="#DejaVuSans-4f"/>
      <use x="78.710938" xlink:href="#DejaVuSans-72"/>
      <use x="119.824219" xlink:href="#DejaVuSans-69"/>
      <use x="147.607422" xlink:href="#DejaVuSans-65"/>
      <use x="209.130859" xlink:href="#DejaVuSans-6e"/>
      <use x="272.509766" xlink:href="#DejaVuSans-74"/>
      <use x="311.71875" xlink:href="#DejaVuSans-61"/>
      <use x="372.998047" xlink:href="#DejaVuSans-74"/>
      <use x="412.207031" xlink:href="#DejaVuSans-69"/>
      <use x="439.990234" xlink:href="#DejaVuSans-6f"/>
      <use x="501.171875" xlink:href="#DejaVuSans-6e"/>
      <use x="564.550781" xlink:href="#DejaVuSans-20"/>
      <use x="596.337891" xlink:href="#DejaVuSans-59"/>
     </g>
    </g>
    <g id="line2d_95">
     <path d="M 561.569063 520.960312 
L 581.569063 520.960312 
" style="fill:none;stroke:#00ffff;stroke-linecap:square;stroke-width:1.5;"/>
    </g>
    <g id="line2d_96"/>
    <g id="text_48">
     <!-- Orientation Z -->
     <g transform="translate(589.569063 524.460312)scale(0.1 -0.1)">
      <use xlink:href="#DejaVuSans-4f"/>
      <use x="78.710938" xlink:href="#DejaVuSans-72"/>
      <use x="119.824219" xlink:href="#DejaVuSans-69"/>
      <use x="147.607422" xlink:href="#DejaVuSans-65"/>
      <use x="209.130859" xlink:href="#DejaVuSans-6e"/>
      <use x="272.509766" xlink:href="#DejaVuSans-74"/>
      <use x="311.71875" xlink:href="#DejaVuSans-61"/>
      <use x="372.998047" xlink:href="#DejaVuSans-74"/>
      <use x="412.207031" xlink:href="#DejaVuSans-69"/>
      <use x="439.990234" xlink:href="#DejaVuSans-6f"/>
      <use x="501.171875" xlink:href="#DejaVuSans-6e"/>
      <use x="564.550781" xlink:href="#DejaVuSans-20"/>
      <use x="596.337891" xlink:href="#DejaVuSans-5a"/>
     </g>
    </g>
    <g id="line2d_97">
     <path d="M 561.569063 535.638438 
L 581.569063 535.638438 
" style="fill:none;stroke:#ffa500;stroke-dasharray:5.55,2.4;stroke-dashoffset:0;stroke-width:1.5;"/>
    </g>
    <g id="line2d_98"/>
    <g id="text_49">
     <!-- Desired X Orientation -->
     <g transform="translate(589.569063 539.138438)scale(0.1 -0.1)">
      <use xlink:href="#DejaVuSans-44"/>
      <use x="77.001953" xlink:href="#DejaVuSans-65"/>
      <use x="138.525391" xlink:href="#DejaVuSans-73"/>
      <use x="190.625" xlink:href="#DejaVuSans-69"/>
      <use x="218.408203" xlink:href="#DejaVuSans-72"/>
      <use x="259.490234" xlink:href="#DejaVuSans-65"/>
      <use x="321.013672" xlink:href="#DejaVuSans-64"/>
      <use x="384.490234" xlink:href="#DejaVuSans-20"/>
      <use x="416.277344" xlink:href="#DejaVuSans-58"/>
      <use x="484.783203" xlink:href="#DejaVuSans-20"/>
      <use x="516.570312" xlink:href="#DejaVuSans-4f"/>
      <use x="595.28125" xlink:href="#DejaVuSans-72"/>
      <use x="636.394531" xlink:href="#DejaVuSans-69"/>
      <use x="664.177734" xlink:href="#DejaVuSans-65"/>
      <use x="725.701172" xlink:href="#DejaVuSans-6e"/>
      <use x="789.080078" xlink:href="#DejaVuSans-74"/>
      <use x="828.289062" xlink:href="#DejaVuSans-61"/>
      <use x="889.568359" xlink:href="#DejaVuSans-74"/>
      <use x="928.777344" xlink:href="#DejaVuSans-69"/>
      <use x="956.560547" xlink:href="#DejaVuSans-6f"/>
      <use x="1017.742188" xlink:href="#DejaVuSans-6e"/>
     </g>
    </g>
    <g id="line2d_99">
     <path d="M 561.569063 550.316563 
L 581.569063 550.316563 
" style="fill:none;stroke:#800080;stroke-dasharray:5.55,2.4;stroke-dashoffset:0;stroke-width:1.5;"/>
    </g>
    <g id="line2d_100"/>
    <g id="text_50">
     <!-- Desired Y Orientation -->
     <g transform="translate(589.569063 553.816563)scale(0.1 -0.1)">
      <use xlink:href="#DejaVuSans-44"/>
      <use x="77.001953" xlink:href="#DejaVuSans-65"/>
      <use x="138.525391" xlink:href="#DejaVuSans-73"/>
      <use x="190.625" xlink:href="#DejaVuSans-69"/>
      <use x="218.408203" xlink:href="#DejaVuSans-72"/>
      <use x="259.490234" xlink:href="#DejaVuSans-65"/>
      <use x="321.013672" xlink:href="#DejaVuSans-64"/>
      <use x="384.490234" xlink:href="#DejaVuSans-20"/>
      <use x="416.277344" xlink:href="#DejaVuSans-59"/>
      <use x="477.361328" xlink:href="#DejaVuSans-20"/>
      <use x="509.148438" xlink:href="#DejaVuSans-4f"/>
      <use x="587.859375" xlink:href="#DejaVuSans-72"/>
      <use x="628.972656" xlink:href="#DejaVuSans-69"/>
      <use x="656.755859" xlink:href="#DejaVuSans-65"/>
      <use x="718.279297" xlink:href="#DejaVuSans-6e"/>
      <use x="781.658203" xlink:href="#DejaVuSans-74"/>
      <use x="820.867188" xlink:href="#DejaVuSans-61"/>
      <use x="882.146484" xlink:href="#DejaVuSans-74"/>
      <use x="921.355469" xlink:href="#DejaVuSans-69"/>
      <use x="949.138672" xlink:href="#DejaVuSans-6f"/>
      <use x="1010.320312" xlink:href="#DejaVuSans-6e"/>
     </g>
    </g>
    <g id="line2d_101">
     <path d="M 561.569063 564.994688 
L 581.569063 564.994688 
" style="fill:none;stroke:#00ffff;stroke-dasharray:5.55,2.4;stroke-dashoffset:0;stroke-width:1.5;"/>
    </g>
    <g id="line2d_102"/>
    <g id="text_51">
     <!-- Desired Z Orientation -->
     <g transform="translate(589.569063 568.494688)scale(0.1 -0.1)">
      <use xlink:href="#DejaVuSans-44"/>
      <use x="77.001953" xlink:href="#DejaVuSans-65"/>
      <use x="138.525391" xlink:href="#DejaVuSans-73"/>
      <use x="190.625" xlink:href="#DejaVuSans-69"/>
      <use x="218.408203" xlink:href="#DejaVuSans-72"/>
      <use x="259.490234" xlink:href="#DejaVuSans-65"/>
      <use x="321.013672" xlink:href="#DejaVuSans-64"/>
      <use x="384.490234" xlink:href="#DejaVuSans-20"/>
      <use x="416.277344" xlink:href="#DejaVuSans-5a"/>
      <use x="484.783203" xlink:href="#DejaVuSans-20"/>
      <use x="516.570312" xlink:href="#DejaVuSans-4f"/>
      <use x="595.28125" xlink:href="#DejaVuSans-72"/>
      <use x="636.394531" xlink:href="#DejaVuSans-69"/>
      <use x="664.177734" xlink:href="#DejaVuSans-65"/>
      <use x="725.701172" xlink:href="#DejaVuSans-6e"/>
      <use x="789.080078" xlink:href="#DejaVuSans-74"/>
      <use x="828.289062" xlink:href="#DejaVuSans-61"/>
      <use x="889.568359" xlink:href="#DejaVuSans-74"/>
      <use x="928.777344" xlink:href="#DejaVuSans-69"/>
      <use x="956.560547" xlink:href="#DejaVuSans-6f"/>
      <use x="1017.742188" xlink:href="#DejaVuSans-6e"/>
     </g>
    </g>
   </g>
  </g>
 </g>
 <defs>
  <clipPath id="p4e8e203185">
   <rect height="298" width="650.59" x="56.09" y="25.44"/>
  </clipPath>
  <clipPath id="pe45266e127">
   <rect height="298" width="650.59" x="56.09" y="380.04"/>
  </clipPath>
 </defs>
</svg>
