<?xml version="1.0" encoding="utf-8" standalone="no"?>
<!DOCTYPE svg PUBLIC "-//W3C//DTD SVG 1.1//EN"
  "http://www.w3.org/Graphics/SVG/1.1/DTD/svg11.dtd">
<!-- Created with matplotlib (http://matplotlib.org/) -->
<svg height="720pt" version="1.1" viewBox="0 0 720 720" width="720pt" xmlns="http://www.w3.org/2000/svg" xmlns:xlink="http://www.w3.org/1999/xlink">
 <defs>
  <style type="text/css">
*{stroke-linecap:butt;stroke-linejoin:round;}
  </style>
 </defs>
 <g id="figure_1">
  <g id="patch_1">
   <path d="M 0 720 
L 720 720 
L 720 0 
L 0 0 
z
" style="fill:#ffffff;"/>
  </g>
  <g id="axes_1">
   <g id="patch_2">
    <path d="M 56.09 323.44 
L 706.68 323.44 
L 706.68 25.44 
L 56.09 25.44 
z
" style="fill:#ffffff;"/>
   </g>
   <g id="matplotlib.axis_1">
    <g id="xtick_1">
     <g id="line2d_1">
      <path clip-path="url(#pa0e5aad0bc)" d="M 85.239389 323.44 
L 85.239389 25.44 
" style="fill:none;stroke:#b0b0b0;stroke-linecap:square;stroke-width:0.8;"/>
     </g>
     <g id="line2d_2">
      <defs>
       <path d="M 0 0 
L 0 3.5 
" id="m08a1d903b5" style="stroke:#000000;stroke-width:0.8;"/>
      </defs>
      <g>
       <use style="stroke:#000000;stroke-width:0.8;" x="85.239389" xlink:href="#m08a1d903b5" y="323.44"/>
      </g>
     </g>
     <g id="text_1">
      <!-- 0 -->
      <defs>
       <path d="M 31.78125 66.40625 
Q 24.171875 66.40625 20.328125 58.90625 
Q 16.5 51.421875 16.5 36.375 
Q 16.5 21.390625 20.328125 13.890625 
Q 24.171875 6.390625 31.78125 6.390625 
Q 39.453125 6.390625 43.28125 13.890625 
Q 47.125 21.390625 47.125 36.375 
Q 47.125 51.421875 43.28125 58.90625 
Q 39.453125 66.40625 31.78125 66.40625 
z
M 31.78125 74.21875 
Q 44.046875 74.21875 50.515625 64.515625 
Q 56.984375 54.828125 56.984375 36.375 
Q 56.984375 17.96875 50.515625 8.265625 
Q 44.046875 -1.421875 31.78125 -1.421875 
Q 19.53125 -1.421875 13.0625 8.265625 
Q 6.59375 17.96875 6.59375 36.375 
Q 6.59375 54.828125 13.0625 64.515625 
Q 19.53125 74.21875 31.78125 74.21875 
z
" id="DejaVuSans-30"/>
      </defs>
      <g transform="translate(82.058139 338.038438)scale(0.1 -0.1)">
       <use xlink:href="#DejaVuSans-30"/>
      </g>
     </g>
    </g>
    <g id="xtick_2">
     <g id="line2d_3">
      <path clip-path="url(#pa0e5aad0bc)" d="M 182.731985 323.44 
L 182.731985 25.44 
" style="fill:none;stroke:#b0b0b0;stroke-linecap:square;stroke-width:0.8;"/>
     </g>
     <g id="line2d_4">
      <g>
       <use style="stroke:#000000;stroke-width:0.8;" x="182.731985" xlink:href="#m08a1d903b5" y="323.44"/>
      </g>
     </g>
     <g id="text_2">
      <!-- 10 -->
      <defs>
       <path d="M 12.40625 8.296875 
L 28.515625 8.296875 
L 28.515625 63.921875 
L 10.984375 60.40625 
L 10.984375 69.390625 
L 28.421875 72.90625 
L 38.28125 72.90625 
L 38.28125 8.296875 
L 54.390625 8.296875 
L 54.390625 0 
L 12.40625 0 
z
" id="DejaVuSans-31"/>
      </defs>
      <g transform="translate(176.369485 338.038438)scale(0.1 -0.1)">
       <use xlink:href="#DejaVuSans-31"/>
       <use x="63.623047" xlink:href="#DejaVuSans-30"/>
      </g>
     </g>
    </g>
    <g id="xtick_3">
     <g id="line2d_5">
      <path clip-path="url(#pa0e5aad0bc)" d="M 280.224582 323.44 
L 280.224582 25.44 
" style="fill:none;stroke:#b0b0b0;stroke-linecap:square;stroke-width:0.8;"/>
     </g>
     <g id="line2d_6">
      <g>
       <use style="stroke:#000000;stroke-width:0.8;" x="280.224582" xlink:href="#m08a1d903b5" y="323.44"/>
      </g>
     </g>
     <g id="text_3">
      <!-- 20 -->
      <defs>
       <path d="M 19.1875 8.296875 
L 53.609375 8.296875 
L 53.609375 0 
L 7.328125 0 
L 7.328125 8.296875 
Q 12.9375 14.109375 22.625 23.890625 
Q 32.328125 33.6875 34.8125 36.53125 
Q 39.546875 41.84375 41.421875 45.53125 
Q 43.3125 49.21875 43.3125 52.78125 
Q 43.3125 58.59375 39.234375 62.25 
Q 35.15625 65.921875 28.609375 65.921875 
Q 23.96875 65.921875 18.8125 64.3125 
Q 13.671875 62.703125 7.8125 59.421875 
L 7.8125 69.390625 
Q 13.765625 71.78125 18.9375 73 
Q 24.125 74.21875 28.421875 74.21875 
Q 39.75 74.21875 46.484375 68.546875 
Q 53.21875 62.890625 53.21875 53.421875 
Q 53.21875 48.921875 51.53125 44.890625 
Q 49.859375 40.875 45.40625 35.40625 
Q 44.1875 33.984375 37.640625 27.21875 
Q 31.109375 20.453125 19.1875 8.296875 
z
" id="DejaVuSans-32"/>
      </defs>
      <g transform="translate(273.862082 338.038438)scale(0.1 -0.1)">
       <use xlink:href="#DejaVuSans-32"/>
       <use x="63.623047" xlink:href="#DejaVuSans-30"/>
      </g>
     </g>
    </g>
    <g id="xtick_4">
     <g id="line2d_7">
      <path clip-path="url(#pa0e5aad0bc)" d="M 377.717178 323.44 
L 377.717178 25.44 
" style="fill:none;stroke:#b0b0b0;stroke-linecap:square;stroke-width:0.8;"/>
     </g>
     <g id="line2d_8">
      <g>
       <use style="stroke:#000000;stroke-width:0.8;" x="377.717178" xlink:href="#m08a1d903b5" y="323.44"/>
      </g>
     </g>
     <g id="text_4">
      <!-- 30 -->
      <defs>
       <path d="M 40.578125 39.3125 
Q 47.65625 37.796875 51.625 33 
Q 55.609375 28.21875 55.609375 21.1875 
Q 55.609375 10.40625 48.1875 4.484375 
Q 40.765625 -1.421875 27.09375 -1.421875 
Q 22.515625 -1.421875 17.65625 -0.515625 
Q 12.796875 0.390625 7.625 2.203125 
L 7.625 11.71875 
Q 11.71875 9.328125 16.59375 8.109375 
Q 21.484375 6.890625 26.8125 6.890625 
Q 36.078125 6.890625 40.9375 10.546875 
Q 45.796875 14.203125 45.796875 21.1875 
Q 45.796875 27.640625 41.28125 31.265625 
Q 36.765625 34.90625 28.71875 34.90625 
L 20.21875 34.90625 
L 20.21875 43.015625 
L 29.109375 43.015625 
Q 36.375 43.015625 40.234375 45.921875 
Q 44.09375 48.828125 44.09375 54.296875 
Q 44.09375 59.90625 40.109375 62.90625 
Q 36.140625 65.921875 28.71875 65.921875 
Q 24.65625 65.921875 20.015625 65.03125 
Q 15.375 64.15625 9.8125 62.3125 
L 9.8125 71.09375 
Q 15.4375 72.65625 20.34375 73.4375 
Q 25.25 74.21875 29.59375 74.21875 
Q 40.828125 74.21875 47.359375 69.109375 
Q 53.90625 64.015625 53.90625 55.328125 
Q 53.90625 49.265625 50.4375 45.09375 
Q 46.96875 40.921875 40.578125 39.3125 
z
" id="DejaVuSans-33"/>
      </defs>
      <g transform="translate(371.354678 338.038438)scale(0.1 -0.1)">
       <use xlink:href="#DejaVuSans-33"/>
       <use x="63.623047" xlink:href="#DejaVuSans-30"/>
      </g>
     </g>
    </g>
    <g id="xtick_5">
     <g id="line2d_9">
      <path clip-path="url(#pa0e5aad0bc)" d="M 475.209774 323.44 
L 475.209774 25.44 
" style="fill:none;stroke:#b0b0b0;stroke-linecap:square;stroke-width:0.8;"/>
     </g>
     <g id="line2d_10">
      <g>
       <use style="stroke:#000000;stroke-width:0.8;" x="475.209774" xlink:href="#m08a1d903b5" y="323.44"/>
      </g>
     </g>
     <g id="text_5">
      <!-- 40 -->
      <defs>
       <path d="M 37.796875 64.3125 
L 12.890625 25.390625 
L 37.796875 25.390625 
z
M 35.203125 72.90625 
L 47.609375 72.90625 
L 47.609375 25.390625 
L 58.015625 25.390625 
L 58.015625 17.1875 
L 47.609375 17.1875 
L 47.609375 0 
L 37.796875 0 
L 37.796875 17.1875 
L 4.890625 17.1875 
L 4.890625 26.703125 
z
" id="DejaVuSans-34"/>
      </defs>
      <g transform="translate(468.847274 338.038438)scale(0.1 -0.1)">
       <use xlink:href="#DejaVuSans-34"/>
       <use x="63.623047" xlink:href="#DejaVuSans-30"/>
      </g>
     </g>
    </g>
    <g id="xtick_6">
     <g id="line2d_11">
      <path clip-path="url(#pa0e5aad0bc)" d="M 572.70237 323.44 
L 572.70237 25.44 
" style="fill:none;stroke:#b0b0b0;stroke-linecap:square;stroke-width:0.8;"/>
     </g>
     <g id="line2d_12">
      <g>
       <use style="stroke:#000000;stroke-width:0.8;" x="572.70237" xlink:href="#m08a1d903b5" y="323.44"/>
      </g>
     </g>
     <g id="text_6">
      <!-- 50 -->
      <defs>
       <path d="M 10.796875 72.90625 
L 49.515625 72.90625 
L 49.515625 64.59375 
L 19.828125 64.59375 
L 19.828125 46.734375 
Q 21.96875 47.46875 24.109375 47.828125 
Q 26.265625 48.1875 28.421875 48.1875 
Q 40.625 48.1875 47.75 41.5 
Q 54.890625 34.8125 54.890625 23.390625 
Q 54.890625 11.625 47.5625 5.09375 
Q 40.234375 -1.421875 26.90625 -1.421875 
Q 22.3125 -1.421875 17.546875 -0.640625 
Q 12.796875 0.140625 7.71875 1.703125 
L 7.71875 11.625 
Q 12.109375 9.234375 16.796875 8.0625 
Q 21.484375 6.890625 26.703125 6.890625 
Q 35.15625 6.890625 40.078125 11.328125 
Q 45.015625 15.765625 45.015625 23.390625 
Q 45.015625 31 40.078125 35.4375 
Q 35.15625 39.890625 26.703125 39.890625 
Q 22.75 39.890625 18.8125 39.015625 
Q 14.890625 38.140625 10.796875 36.28125 
z
" id="DejaVuSans-35"/>
      </defs>
      <g transform="translate(566.33987 338.038438)scale(0.1 -0.1)">
       <use xlink:href="#DejaVuSans-35"/>
       <use x="63.623047" xlink:href="#DejaVuSans-30"/>
      </g>
     </g>
    </g>
    <g id="xtick_7">
     <g id="line2d_13">
      <path clip-path="url(#pa0e5aad0bc)" d="M 670.194967 323.44 
L 670.194967 25.44 
" style="fill:none;stroke:#b0b0b0;stroke-linecap:square;stroke-width:0.8;"/>
     </g>
     <g id="line2d_14">
      <g>
       <use style="stroke:#000000;stroke-width:0.8;" x="670.194967" xlink:href="#m08a1d903b5" y="323.44"/>
      </g>
     </g>
     <g id="text_7">
      <!-- 60 -->
      <defs>
       <path d="M 33.015625 40.375 
Q 26.375 40.375 22.484375 35.828125 
Q 18.609375 31.296875 18.609375 23.390625 
Q 18.609375 15.53125 22.484375 10.953125 
Q 26.375 6.390625 33.015625 6.390625 
Q 39.65625 6.390625 43.53125 10.953125 
Q 47.40625 15.53125 47.40625 23.390625 
Q 47.40625 31.296875 43.53125 35.828125 
Q 39.65625 40.375 33.015625 40.375 
z
M 52.59375 71.296875 
L 52.59375 62.3125 
Q 48.875 64.0625 45.09375 64.984375 
Q 41.3125 65.921875 37.59375 65.921875 
Q 27.828125 65.921875 22.671875 59.328125 
Q 17.53125 52.734375 16.796875 39.40625 
Q 19.671875 43.65625 24.015625 45.921875 
Q 28.375 48.1875 33.59375 48.1875 
Q 44.578125 48.1875 50.953125 41.515625 
Q 57.328125 34.859375 57.328125 23.390625 
Q 57.328125 12.15625 50.6875 5.359375 
Q 44.046875 -1.421875 33.015625 -1.421875 
Q 20.359375 -1.421875 13.671875 8.265625 
Q 6.984375 17.96875 6.984375 36.375 
Q 6.984375 53.65625 15.1875 63.9375 
Q 23.390625 74.21875 37.203125 74.21875 
Q 40.921875 74.21875 44.703125 73.484375 
Q 48.484375 72.75 52.59375 71.296875 
z
" id="DejaVuSans-36"/>
      </defs>
      <g transform="translate(663.832467 338.038438)scale(0.1 -0.1)">
       <use xlink:href="#DejaVuSans-36"/>
       <use x="63.623047" xlink:href="#DejaVuSans-30"/>
      </g>
     </g>
    </g>
    <g id="text_8">
     <!-- Time (seconds) -->
     <defs>
      <path d="M -0.296875 72.90625 
L 61.375 72.90625 
L 61.375 64.59375 
L 35.5 64.59375 
L 35.5 0 
L 25.59375 0 
L 25.59375 64.59375 
L -0.296875 64.59375 
z
" id="DejaVuSans-54"/>
      <path d="M 9.421875 54.6875 
L 18.40625 54.6875 
L 18.40625 0 
L 9.421875 0 
z
M 9.421875 75.984375 
L 18.40625 75.984375 
L 18.40625 64.59375 
L 9.421875 64.59375 
z
" id="DejaVuSans-69"/>
      <path d="M 52 44.1875 
Q 55.375 50.25 60.0625 53.125 
Q 64.75 56 71.09375 56 
Q 79.640625 56 84.28125 50.015625 
Q 88.921875 44.046875 88.921875 33.015625 
L 88.921875 0 
L 79.890625 0 
L 79.890625 32.71875 
Q 79.890625 40.578125 77.09375 44.375 
Q 74.3125 48.1875 68.609375 48.1875 
Q 61.625 48.1875 57.5625 43.546875 
Q 53.515625 38.921875 53.515625 30.90625 
L 53.515625 0 
L 44.484375 0 
L 44.484375 32.71875 
Q 44.484375 40.625 41.703125 44.40625 
Q 38.921875 48.1875 33.109375 48.1875 
Q 26.21875 48.1875 22.15625 43.53125 
Q 18.109375 38.875 18.109375 30.90625 
L 18.109375 0 
L 9.078125 0 
L 9.078125 54.6875 
L 18.109375 54.6875 
L 18.109375 46.1875 
Q 21.1875 51.21875 25.484375 53.609375 
Q 29.78125 56 35.6875 56 
Q 41.65625 56 45.828125 52.96875 
Q 50 49.953125 52 44.1875 
z
" id="DejaVuSans-6d"/>
      <path d="M 56.203125 29.59375 
L 56.203125 25.203125 
L 14.890625 25.203125 
Q 15.484375 15.921875 20.484375 11.0625 
Q 25.484375 6.203125 34.421875 6.203125 
Q 39.59375 6.203125 44.453125 7.46875 
Q 49.3125 8.734375 54.109375 11.28125 
L 54.109375 2.78125 
Q 49.265625 0.734375 44.1875 -0.34375 
Q 39.109375 -1.421875 33.890625 -1.421875 
Q 20.796875 -1.421875 13.15625 6.1875 
Q 5.515625 13.8125 5.515625 26.8125 
Q 5.515625 40.234375 12.765625 48.109375 
Q 20.015625 56 32.328125 56 
Q 43.359375 56 49.78125 48.890625 
Q 56.203125 41.796875 56.203125 29.59375 
z
M 47.21875 32.234375 
Q 47.125 39.59375 43.09375 43.984375 
Q 39.0625 48.390625 32.421875 48.390625 
Q 24.90625 48.390625 20.390625 44.140625 
Q 15.875 39.890625 15.1875 32.171875 
z
" id="DejaVuSans-65"/>
      <path id="DejaVuSans-20"/>
      <path d="M 31 75.875 
Q 24.46875 64.65625 21.28125 53.65625 
Q 18.109375 42.671875 18.109375 31.390625 
Q 18.109375 20.125 21.3125 9.0625 
Q 24.515625 -2 31 -13.1875 
L 23.1875 -13.1875 
Q 15.875 -1.703125 12.234375 9.375 
Q 8.59375 20.453125 8.59375 31.390625 
Q 8.59375 42.28125 12.203125 53.3125 
Q 15.828125 64.359375 23.1875 75.875 
z
" id="DejaVuSans-28"/>
      <path d="M 44.28125 53.078125 
L 44.28125 44.578125 
Q 40.484375 46.53125 36.375 47.5 
Q 32.28125 48.484375 27.875 48.484375 
Q 21.1875 48.484375 17.84375 46.4375 
Q 14.5 44.390625 14.5 40.28125 
Q 14.5 37.15625 16.890625 35.375 
Q 19.28125 33.59375 26.515625 31.984375 
L 29.59375 31.296875 
Q 39.15625 29.25 43.1875 25.515625 
Q 47.21875 21.78125 47.21875 15.09375 
Q 47.21875 7.46875 41.1875 3.015625 
Q 35.15625 -1.421875 24.609375 -1.421875 
Q 20.21875 -1.421875 15.453125 -0.5625 
Q 10.6875 0.296875 5.421875 2 
L 5.421875 11.28125 
Q 10.40625 8.6875 15.234375 7.390625 
Q 20.0625 6.109375 24.8125 6.109375 
Q 31.15625 6.109375 34.5625 8.28125 
Q 37.984375 10.453125 37.984375 14.40625 
Q 37.984375 18.0625 35.515625 20.015625 
Q 33.0625 21.96875 24.703125 23.78125 
L 21.578125 24.515625 
Q 13.234375 26.265625 9.515625 29.90625 
Q 5.8125 33.546875 5.8125 39.890625 
Q 5.8125 47.609375 11.28125 51.796875 
Q 16.75 56 26.8125 56 
Q 31.78125 56 36.171875 55.265625 
Q 40.578125 54.546875 44.28125 53.078125 
z
" id="DejaVuSans-73"/>
      <path d="M 48.78125 52.59375 
L 48.78125 44.1875 
Q 44.96875 46.296875 41.140625 47.34375 
Q 37.3125 48.390625 33.40625 48.390625 
Q 24.65625 48.390625 19.8125 42.84375 
Q 14.984375 37.3125 14.984375 27.296875 
Q 14.984375 17.28125 19.8125 11.734375 
Q 24.65625 6.203125 33.40625 6.203125 
Q 37.3125 6.203125 41.140625 7.25 
Q 44.96875 8.296875 48.78125 10.40625 
L 48.78125 2.09375 
Q 45.015625 0.34375 40.984375 -0.53125 
Q 36.96875 -1.421875 32.421875 -1.421875 
Q 20.0625 -1.421875 12.78125 6.34375 
Q 5.515625 14.109375 5.515625 27.296875 
Q 5.515625 40.671875 12.859375 48.328125 
Q 20.21875 56 33.015625 56 
Q 37.15625 56 41.109375 55.140625 
Q 45.0625 54.296875 48.78125 52.59375 
z
" id="DejaVuSans-63"/>
      <path d="M 30.609375 48.390625 
Q 23.390625 48.390625 19.1875 42.75 
Q 14.984375 37.109375 14.984375 27.296875 
Q 14.984375 17.484375 19.15625 11.84375 
Q 23.34375 6.203125 30.609375 6.203125 
Q 37.796875 6.203125 41.984375 11.859375 
Q 46.1875 17.53125 46.1875 27.296875 
Q 46.1875 37.015625 41.984375 42.703125 
Q 37.796875 48.390625 30.609375 48.390625 
z
M 30.609375 56 
Q 42.328125 56 49.015625 48.375 
Q 55.71875 40.765625 55.71875 27.296875 
Q 55.71875 13.875 49.015625 6.21875 
Q 42.328125 -1.421875 30.609375 -1.421875 
Q 18.84375 -1.421875 12.171875 6.21875 
Q 5.515625 13.875 5.515625 27.296875 
Q 5.515625 40.765625 12.171875 48.375 
Q 18.84375 56 30.609375 56 
z
" id="DejaVuSans-6f"/>
      <path d="M 54.890625 33.015625 
L 54.890625 0 
L 45.90625 0 
L 45.90625 32.71875 
Q 45.90625 40.484375 42.875 44.328125 
Q 39.84375 48.1875 33.796875 48.1875 
Q 26.515625 48.1875 22.3125 43.546875 
Q 18.109375 38.921875 18.109375 30.90625 
L 18.109375 0 
L 9.078125 0 
L 9.078125 54.6875 
L 18.109375 54.6875 
L 18.109375 46.1875 
Q 21.34375 51.125 25.703125 53.5625 
Q 30.078125 56 35.796875 56 
Q 45.21875 56 50.046875 50.171875 
Q 54.890625 44.34375 54.890625 33.015625 
z
" id="DejaVuSans-6e"/>
      <path d="M 45.40625 46.390625 
L 45.40625 75.984375 
L 54.390625 75.984375 
L 54.390625 0 
L 45.40625 0 
L 45.40625 8.203125 
Q 42.578125 3.328125 38.25 0.953125 
Q 33.9375 -1.421875 27.875 -1.421875 
Q 17.96875 -1.421875 11.734375 6.484375 
Q 5.515625 14.40625 5.515625 27.296875 
Q 5.515625 40.1875 11.734375 48.09375 
Q 17.96875 56 27.875 56 
Q 33.9375 56 38.25 53.625 
Q 42.578125 51.265625 45.40625 46.390625 
z
M 14.796875 27.296875 
Q 14.796875 17.390625 18.875 11.75 
Q 22.953125 6.109375 30.078125 6.109375 
Q 37.203125 6.109375 41.296875 11.75 
Q 45.40625 17.390625 45.40625 27.296875 
Q 45.40625 37.203125 41.296875 42.84375 
Q 37.203125 48.484375 30.078125 48.484375 
Q 22.953125 48.484375 18.875 42.84375 
Q 14.796875 37.203125 14.796875 27.296875 
z
" id="DejaVuSans-64"/>
      <path d="M 8.015625 75.875 
L 15.828125 75.875 
Q 23.140625 64.359375 26.78125 53.3125 
Q 30.421875 42.28125 30.421875 31.390625 
Q 30.421875 20.453125 26.78125 9.375 
Q 23.140625 -1.703125 15.828125 -13.1875 
L 8.015625 -13.1875 
Q 14.5 -2 17.703125 9.0625 
Q 20.90625 20.125 20.90625 31.390625 
Q 20.90625 42.671875 17.703125 53.65625 
Q 14.5 64.65625 8.015625 75.875 
z
" id="DejaVuSans-29"/>
     </defs>
     <g transform="translate(343.069375 351.716563)scale(0.1 -0.1)">
      <use xlink:href="#DejaVuSans-54"/>
      <use x="61.037109" xlink:href="#DejaVuSans-69"/>
      <use x="88.820312" xlink:href="#DejaVuSans-6d"/>
      <use x="186.232422" xlink:href="#DejaVuSans-65"/>
      <use x="247.755859" xlink:href="#DejaVuSans-20"/>
      <use x="279.542969" xlink:href="#DejaVuSans-28"/>
      <use x="318.556641" xlink:href="#DejaVuSans-73"/>
      <use x="370.65625" xlink:href="#DejaVuSans-65"/>
      <use x="432.179688" xlink:href="#DejaVuSans-63"/>
      <use x="487.160156" xlink:href="#DejaVuSans-6f"/>
      <use x="548.341797" xlink:href="#DejaVuSans-6e"/>
      <use x="611.720703" xlink:href="#DejaVuSans-64"/>
      <use x="675.197266" xlink:href="#DejaVuSans-73"/>
      <use x="727.296875" xlink:href="#DejaVuSans-29"/>
     </g>
    </g>
   </g>
   <g id="matplotlib.axis_2">
    <g id="ytick_1">
     <g id="line2d_15">
      <path clip-path="url(#pa0e5aad0bc)" d="M 56.09 311.461969 
L 706.68 311.461969 
" style="fill:none;stroke:#b0b0b0;stroke-linecap:square;stroke-width:0.8;"/>
     </g>
     <g id="line2d_16">
      <defs>
       <path d="M 0 0 
L -3.5 0 
" id="m65813ac572" style="stroke:#000000;stroke-width:0.8;"/>
      </defs>
      <g>
       <use style="stroke:#000000;stroke-width:0.8;" x="56.09" xlink:href="#m65813ac572" y="311.461969"/>
      </g>
     </g>
     <g id="text_9">
      <!-- −0.4 -->
      <defs>
       <path d="M 10.59375 35.5 
L 73.1875 35.5 
L 73.1875 27.203125 
L 10.59375 27.203125 
z
" id="DejaVuSans-2212"/>
       <path d="M 10.6875 12.40625 
L 21 12.40625 
L 21 0 
L 10.6875 0 
z
" id="DejaVuSans-2e"/>
      </defs>
      <g transform="translate(24.807188 315.261188)scale(0.1 -0.1)">
       <use xlink:href="#DejaVuSans-2212"/>
       <use x="83.789062" xlink:href="#DejaVuSans-30"/>
       <use x="147.412109" xlink:href="#DejaVuSans-2e"/>
       <use x="179.199219" xlink:href="#DejaVuSans-34"/>
      </g>
     </g>
    </g>
    <g id="ytick_2">
     <g id="line2d_17">
      <path clip-path="url(#pa0e5aad0bc)" d="M 56.09 266.686197 
L 706.68 266.686197 
" style="fill:none;stroke:#b0b0b0;stroke-linecap:square;stroke-width:0.8;"/>
     </g>
     <g id="line2d_18">
      <g>
       <use style="stroke:#000000;stroke-width:0.8;" x="56.09" xlink:href="#m65813ac572" y="266.686197"/>
      </g>
     </g>
     <g id="text_10">
      <!-- −0.2 -->
      <g transform="translate(24.807188 270.485416)scale(0.1 -0.1)">
       <use xlink:href="#DejaVuSans-2212"/>
       <use x="83.789062" xlink:href="#DejaVuSans-30"/>
       <use x="147.412109" xlink:href="#DejaVuSans-2e"/>
       <use x="179.199219" xlink:href="#DejaVuSans-32"/>
      </g>
     </g>
    </g>
    <g id="ytick_3">
     <g id="line2d_19">
      <path clip-path="url(#pa0e5aad0bc)" d="M 56.09 221.910425 
L 706.68 221.910425 
" style="fill:none;stroke:#b0b0b0;stroke-linecap:square;stroke-width:0.8;"/>
     </g>
     <g id="line2d_20">
      <g>
       <use style="stroke:#000000;stroke-width:0.8;" x="56.09" xlink:href="#m65813ac572" y="221.910425"/>
      </g>
     </g>
     <g id="text_11">
      <!-- 0.0 -->
      <g transform="translate(33.186875 225.709644)scale(0.1 -0.1)">
       <use xlink:href="#DejaVuSans-30"/>
       <use x="63.623047" xlink:href="#DejaVuSans-2e"/>
       <use x="95.410156" xlink:href="#DejaVuSans-30"/>
      </g>
     </g>
    </g>
    <g id="ytick_4">
     <g id="line2d_21">
      <path clip-path="url(#pa0e5aad0bc)" d="M 56.09 177.134653 
L 706.68 177.134653 
" style="fill:none;stroke:#b0b0b0;stroke-linecap:square;stroke-width:0.8;"/>
     </g>
     <g id="line2d_22">
      <g>
       <use style="stroke:#000000;stroke-width:0.8;" x="56.09" xlink:href="#m65813ac572" y="177.134653"/>
      </g>
     </g>
     <g id="text_12">
      <!-- 0.2 -->
      <g transform="translate(33.186875 180.933872)scale(0.1 -0.1)">
       <use xlink:href="#DejaVuSans-30"/>
       <use x="63.623047" xlink:href="#DejaVuSans-2e"/>
       <use x="95.410156" xlink:href="#DejaVuSans-32"/>
      </g>
     </g>
    </g>
    <g id="ytick_5">
     <g id="line2d_23">
      <path clip-path="url(#pa0e5aad0bc)" d="M 56.09 132.358881 
L 706.68 132.358881 
" style="fill:none;stroke:#b0b0b0;stroke-linecap:square;stroke-width:0.8;"/>
     </g>
     <g id="line2d_24">
      <g>
       <use style="stroke:#000000;stroke-width:0.8;" x="56.09" xlink:href="#m65813ac572" y="132.358881"/>
      </g>
     </g>
     <g id="text_13">
      <!-- 0.4 -->
      <g transform="translate(33.186875 136.1581)scale(0.1 -0.1)">
       <use xlink:href="#DejaVuSans-30"/>
       <use x="63.623047" xlink:href="#DejaVuSans-2e"/>
       <use x="95.410156" xlink:href="#DejaVuSans-34"/>
      </g>
     </g>
    </g>
    <g id="ytick_6">
     <g id="line2d_25">
      <path clip-path="url(#pa0e5aad0bc)" d="M 56.09 87.583109 
L 706.68 87.583109 
" style="fill:none;stroke:#b0b0b0;stroke-linecap:square;stroke-width:0.8;"/>
     </g>
     <g id="line2d_26">
      <g>
       <use style="stroke:#000000;stroke-width:0.8;" x="56.09" xlink:href="#m65813ac572" y="87.583109"/>
      </g>
     </g>
     <g id="text_14">
      <!-- 0.6 -->
      <g transform="translate(33.186875 91.382328)scale(0.1 -0.1)">
       <use xlink:href="#DejaVuSans-30"/>
       <use x="63.623047" xlink:href="#DejaVuSans-2e"/>
       <use x="95.410156" xlink:href="#DejaVuSans-36"/>
      </g>
     </g>
    </g>
    <g id="ytick_7">
     <g id="line2d_27">
      <path clip-path="url(#pa0e5aad0bc)" d="M 56.09 42.807337 
L 706.68 42.807337 
" style="fill:none;stroke:#b0b0b0;stroke-linecap:square;stroke-width:0.8;"/>
     </g>
     <g id="line2d_28">
      <g>
       <use style="stroke:#000000;stroke-width:0.8;" x="56.09" xlink:href="#m65813ac572" y="42.807337"/>
      </g>
     </g>
     <g id="text_15">
      <!-- 0.8 -->
      <defs>
       <path d="M 31.78125 34.625 
Q 24.75 34.625 20.71875 30.859375 
Q 16.703125 27.09375 16.703125 20.515625 
Q 16.703125 13.921875 20.71875 10.15625 
Q 24.75 6.390625 31.78125 6.390625 
Q 38.8125 6.390625 42.859375 10.171875 
Q 46.921875 13.96875 46.921875 20.515625 
Q 46.921875 27.09375 42.890625 30.859375 
Q 38.875 34.625 31.78125 34.625 
z
M 21.921875 38.8125 
Q 15.578125 40.375 12.03125 44.71875 
Q 8.5 49.078125 8.5 55.328125 
Q 8.5 64.0625 14.71875 69.140625 
Q 20.953125 74.21875 31.78125 74.21875 
Q 42.671875 74.21875 48.875 69.140625 
Q 55.078125 64.0625 55.078125 55.328125 
Q 55.078125 49.078125 51.53125 44.71875 
Q 48 40.375 41.703125 38.8125 
Q 48.828125 37.15625 52.796875 32.3125 
Q 56.78125 27.484375 56.78125 20.515625 
Q 56.78125 9.90625 50.3125 4.234375 
Q 43.84375 -1.421875 31.78125 -1.421875 
Q 19.734375 -1.421875 13.25 4.234375 
Q 6.78125 9.90625 6.78125 20.515625 
Q 6.78125 27.484375 10.78125 32.3125 
Q 14.796875 37.15625 21.921875 38.8125 
z
M 18.3125 54.390625 
Q 18.3125 48.734375 21.84375 45.5625 
Q 25.390625 42.390625 31.78125 42.390625 
Q 38.140625 42.390625 41.71875 45.5625 
Q 45.3125 48.734375 45.3125 54.390625 
Q 45.3125 60.0625 41.71875 63.234375 
Q 38.140625 66.40625 31.78125 66.40625 
Q 25.390625 66.40625 21.84375 63.234375 
Q 18.3125 60.0625 18.3125 54.390625 
z
" id="DejaVuSans-38"/>
      </defs>
      <g transform="translate(33.186875 46.606556)scale(0.1 -0.1)">
       <use xlink:href="#DejaVuSans-30"/>
       <use x="63.623047" xlink:href="#DejaVuSans-2e"/>
       <use x="95.410156" xlink:href="#DejaVuSans-38"/>
      </g>
     </g>
    </g>
    <g id="text_16">
     <!-- Position (meters) -->
     <defs>
      <path d="M 19.671875 64.796875 
L 19.671875 37.40625 
L 32.078125 37.40625 
Q 38.96875 37.40625 42.71875 40.96875 
Q 46.484375 44.53125 46.484375 51.125 
Q 46.484375 57.671875 42.71875 61.234375 
Q 38.96875 64.796875 32.078125 64.796875 
z
M 9.8125 72.90625 
L 32.078125 72.90625 
Q 44.34375 72.90625 50.609375 67.359375 
Q 56.890625 61.8125 56.890625 51.125 
Q 56.890625 40.328125 50.609375 34.8125 
Q 44.34375 29.296875 32.078125 29.296875 
L 19.671875 29.296875 
L 19.671875 0 
L 9.8125 0 
z
" id="DejaVuSans-50"/>
      <path d="M 18.3125 70.21875 
L 18.3125 54.6875 
L 36.8125 54.6875 
L 36.8125 47.703125 
L 18.3125 47.703125 
L 18.3125 18.015625 
Q 18.3125 11.328125 20.140625 9.421875 
Q 21.96875 7.515625 27.59375 7.515625 
L 36.8125 7.515625 
L 36.8125 0 
L 27.59375 0 
Q 17.1875 0 13.234375 3.875 
Q 9.28125 7.765625 9.28125 18.015625 
L 9.28125 47.703125 
L 2.6875 47.703125 
L 2.6875 54.6875 
L 9.28125 54.6875 
L 9.28125 70.21875 
z
" id="DejaVuSans-74"/>
      <path d="M 41.109375 46.296875 
Q 39.59375 47.171875 37.8125 47.578125 
Q 36.03125 48 33.890625 48 
Q 26.265625 48 22.1875 43.046875 
Q 18.109375 38.09375 18.109375 28.8125 
L 18.109375 0 
L 9.078125 0 
L 9.078125 54.6875 
L 18.109375 54.6875 
L 18.109375 46.1875 
Q 20.953125 51.171875 25.484375 53.578125 
Q 30.03125 56 36.53125 56 
Q 37.453125 56 38.578125 55.875 
Q 39.703125 55.765625 41.0625 55.515625 
z
" id="DejaVuSans-72"/>
     </defs>
     <g transform="translate(18.7275 217.217344)rotate(-90)scale(0.1 -0.1)">
      <use xlink:href="#DejaVuSans-50"/>
      <use x="60.255859" xlink:href="#DejaVuSans-6f"/>
      <use x="121.4375" xlink:href="#DejaVuSans-73"/>
      <use x="173.537109" xlink:href="#DejaVuSans-69"/>
      <use x="201.320312" xlink:href="#DejaVuSans-74"/>
      <use x="240.529297" xlink:href="#DejaVuSans-69"/>
      <use x="268.3125" xlink:href="#DejaVuSans-6f"/>
      <use x="329.494141" xlink:href="#DejaVuSans-6e"/>
      <use x="392.873047" xlink:href="#DejaVuSans-20"/>
      <use x="424.660156" xlink:href="#DejaVuSans-28"/>
      <use x="463.673828" xlink:href="#DejaVuSans-6d"/>
      <use x="561.085938" xlink:href="#DejaVuSans-65"/>
      <use x="622.609375" xlink:href="#DejaVuSans-74"/>
      <use x="661.818359" xlink:href="#DejaVuSans-65"/>
      <use x="723.341797" xlink:href="#DejaVuSans-72"/>
      <use x="764.455078" xlink:href="#DejaVuSans-73"/>
      <use x="816.554688" xlink:href="#DejaVuSans-29"/>
     </g>
    </g>
   </g>
   <g id="line2d_29">
    <path clip-path="url(#pa0e5aad0bc)" d="M 85.662273 279.463603 
L 135.57082 279.531335 
L 136.557434 279.74748 
L 137.537907 280.181676 
L 138.507775 280.838789 
L 139.490128 281.715871 
L 140.467238 282.755913 
L 145.386618 288.843444 
L 146.359574 289.833537 
L 147.343606 290.666618 
L 148.318152 291.34573 
L 149.292512 291.846586 
L 150.285124 292.189408 
L 152.722408 292.51163 
L 154.83523 292.538157 
L 155.800827 292.433928 
L 156.779231 292.08631 
L 157.753194 291.391003 
L 158.754452 290.275726 
L 159.739263 288.656872 
L 160.696748 286.621511 
L 161.683802 284.064828 
L 162.703116 281.061741 
L 165.600995 270.253053 
L 167.55036 263.247234 
L 168.522314 260.249581 
L 169.509396 257.763069 
L 170.478833 255.99812 
L 171.450629 254.839653 
L 172.752614 254.246069 
L 173.696323 254.092981 
L 174.676708 254.096874 
L 175.664524 254.30193 
L 176.648828 254.956179 
L 177.658421 256.224529 
L 178.634743 258.134905 
L 179.599402 260.760468 
L 180.595386 264.068024 
L 182.531238 271.774862 
L 185.479522 284.171703 
L 186.438293 287.702526 
L 187.431832 290.90221 
L 188.397399 293.445368 
L 189.395138 295.499992 
L 190.387396 296.927976 
L 191.350097 297.816133 
L 192.334382 298.245297 
L 193.311522 298.370556 
L 194.292863 298.366551 
L 195.271044 298.217801 
L 196.245465 297.735074 
L 197.218498 296.788379 
L 198.182087 295.339714 
L 199.171549 293.258929 
L 200.14857 290.669579 
L 201.122375 287.65875 
L 203.078945 280.372573 
L 206.000075 269.055234 
L 206.982392 265.6691 
L 207.954918 262.879166 
L 208.929446 260.595736 
L 209.920232 258.930225 
L 210.891201 257.858367 
L 211.859937 257.342698 
L 212.84352 257.199993 
L 213.836355 257.203167 
L 214.798784 257.361847 
L 215.7764 257.906545 
L 216.765404 258.958174 
L 217.744316 260.589712 
L 218.715119 262.803282 
L 219.694256 265.486873 
L 221.649987 272.204309 
L 224.585587 282.919553 
L 225.543432 286.148491 
L 226.546183 289.044902 
L 227.52455 291.413191 
L 228.481761 293.267006 
L 229.473008 294.595207 
L 230.453695 295.414452 
L 231.41741 295.830807 
L 232.386203 295.949492 
L 233.362699 295.945913 
L 234.338384 295.815222 
L 235.324446 295.380431 
L 236.301662 294.547612 
L 237.277406 293.253555 
L 238.251436 291.524308 
L 239.240138 289.264363 
L 241.198618 283.728757 
L 246.076142 268.654944 
L 247.048485 266.368304 
L 248.01765 264.54678 
L 249.003251 263.20251 
L 250.085554 262.31794 
L 250.957285 261.969862 
L 251.925766 261.858624 
L 252.903685 261.861445 
L 253.882843 261.983654 
L 254.86472 262.399593 
L 255.841556 263.179602 
L 256.80839 264.409507 
L 257.79178 266.116566 
L 261.150478 273.2226 
L 265.04327 283.783702 
L 266.032371 285.882471 
L 267.011868 287.676396 
L 267.980311 289.106924 
L 268.956291 290.108606 
L 269.937552 290.73489 
L 270.920299 291.038453 
L 272.888517 291.124952 
L 273.877502 291.034911 
L 274.850195 290.736697 
L 275.827373 290.135472 
L 276.809671 289.234613 
L 277.7805 287.952512 
L 278.756987 286.375486 
L 280.710289 282.469355 
L 285.586753 271.97589 
L 286.551734 270.442052 
L 287.542942 269.173831 
L 288.522743 268.275975 
L 289.50072 267.710355 
L 290.46691 267.431751 
L 292.440404 267.356733 
L 293.397859 267.441875 
L 294.370827 267.704722 
L 295.358232 268.235198 
L 296.335311 269.021445 
L 297.310297 270.126023 
L 298.284715 271.43456 
L 300.240437 274.681061 
L 303.174212 279.79136 
L 304.145425 281.317484 
L 305.13438 282.656892 
L 306.126103 283.773389 
L 307.10174 284.646078 
L 308.079308 285.270712 
L 309.056097 285.661461 
L 310.033811 285.853598 
L 311.988294 285.906665 
L 312.972179 285.85179 
L 313.946921 285.678729 
L 314.924361 285.32498 
L 315.898477 284.795372 
L 316.882197 284.043533 
L 317.844645 283.142335 
L 319.797245 280.882511 
L 323.709585 275.924764 
L 325.659154 274.030244 
L 326.631429 273.321242 
L 327.599579 272.828221 
L 328.597104 272.504342 
L 330.545201 272.304962 
L 332.639878 272.350062 
L 333.725712 272.491891 
L 334.709119 272.766221 
L 335.689876 273.188119 
L 337.647078 274.449872 
L 339.580873 276.086033 
L 342.519583 278.688746 
L 344.484147 280.091415 
L 346.436621 281.047373 
L 348.386443 281.525978 
L 350.329051 281.64376 
L 352.305654 281.61727 
L 354.241089 281.369322 
L 356.256259 280.769827 
L 358.219937 279.84116 
L 364.064645 276.54203 
L 366.016078 275.836833 
L 367.983898 275.466059 
L 369.934014 275.375578 
L 372.8689 275.448047 
L 374.817339 275.721189 
L 376.768546 276.214175 
L 383.602914 278.179967 
L 385.559152 278.468699 
L 388.516531 278.63383 
L 392.456723 278.596247 
L 395.345546 278.297068 
L 398.281418 277.695574 
L 404.139982 276.34388 
L 406.091257 276.098659 
L 409.030523 275.991485 
L 413.91772 276.062813 
L 420.760384 276.280323 
L 433.45472 276.06594 
L 436.386215 275.807941 
L 446.182007 274.693196 
L 457.963257 274.382455 
L 465.764593 273.78524 
L 475.573246 273.514612 
L 486.315449 272.668019 
L 494.151006 272.521875 
L 499.03831 272.119072 
L 503.904547 271.746769 
L 508.800498 271.694759 
L 513.70069 271.568104 
L 520.515851 271.07887 
L 524.436887 270.905434 
L 534.213337 270.716147 
L 545.06317 270.122024 
L 552.870445 270.020219 
L 566.541122 269.519125 
L 572.432765 269.420304 
L 586.111872 268.931915 
L 592.967006 268.820506 
L 604.662237 268.477195 
L 612.508169 268.366382 
L 624.286464 268.036165 
L 632.105915 267.951961 
L 643.845039 267.70404 
L 652.627649 267.597958 
L 663.431495 267.392781 
L 673.206249 267.299503 
L 677.107727 267.224163 
L 677.107727 267.224163 
" style="fill:none;stroke:#ff0000;stroke-linecap:square;stroke-width:1.5;"/>
   </g>
   <g id="line2d_30">
    <path clip-path="url(#pa0e5aad0bc)" d="M 85.662273 188.377351 
L 136.557434 188.445178 
L 138.507775 188.719311 
L 140.467238 189.256419 
L 142.412128 190.065807 
L 149.292512 193.268092 
L 150.285124 193.499189 
L 152.722408 193.725937 
L 155.800827 193.717412 
L 157.753194 193.430008 
L 159.739263 192.748036 
L 165.600995 190.023363 
L 167.55036 189.59841 
L 169.509396 189.447434 
L 176.648828 189.42035 
L 179.599402 189.447618 
L 181.568372 189.665067 
L 183.513185 190.187947 
L 185.479522 191.031601 
L 188.397399 192.422476 
L 190.387396 193.080539 
L 192.334382 193.350805 
L 195.271044 193.358402 
L 197.218498 193.183911 
L 199.171549 192.782461 
L 205.034011 191.194952 
L 206.982392 190.915863 
L 209.920232 190.765566 
L 214.798784 190.756722 
L 216.765404 190.879139 
L 218.715119 191.234842 
L 220.661188 191.945272 
L 222.625166 193.109538 
L 224.585587 194.589598 
L 226.546183 196.160032 
L 228.481761 197.411617 
L 229.473008 197.83567 
L 230.453695 198.104736 
L 232.386203 198.283602 
L 235.324446 198.20663 
L 237.277406 197.925689 
L 239.240138 197.419512 
L 247.048485 194.932733 
L 249.003251 194.640322 
L 251.925766 194.519802 
L 253.882843 194.548224 
L 255.841556 194.821819 
L 256.80839 195.115895 
L 257.79178 195.545723 
L 260.021201 196.81115 
L 261.150478 197.615885 
L 263.10884 199.546161 
L 266.032371 202.542096 
L 267.980311 204.084389 
L 268.956291 204.59006 
L 269.937552 204.912859 
L 270.920299 205.071188 
L 273.877502 205.105104 
L 275.827373 204.97163 
L 277.7805 204.641838 
L 279.729953 204.107752 
L 282.656485 203.04427 
L 285.586753 201.983639 
L 287.542942 201.474183 
L 289.50072 201.203052 
L 292.440404 201.138379 
L 294.370827 201.306921 
L 295.358232 201.568344 
L 296.335311 201.964358 
L 297.310297 202.537791 
L 298.284715 203.243365 
L 300.240437 205.122464 
L 303.174212 208.487455 
L 305.13438 210.620709 
L 306.126103 211.505541 
L 307.10174 212.219574 
L 308.079308 212.743214 
L 309.056097 213.076277 
L 310.033811 213.241634 
L 312.972179 213.282741 
L 315.898477 213.150774 
L 318.820965 212.767031 
L 322.73149 211.906845 
L 325.659154 211.266853 
L 327.599579 210.994445 
L 330.545201 210.871872 
L 332.639878 210.917126 
L 333.725712 211.057404 
L 334.709119 211.332032 
L 335.689876 211.761691 
L 336.663553 212.352756 
L 338.617861 213.965006 
L 340.563627 216.031591 
L 343.491749 219.287986 
L 345.45095 221.052865 
L 346.436621 221.717228 
L 347.416344 222.1903 
L 348.386443 222.485087 
L 350.329051 222.678043 
L 355.223073 222.757626 
L 367.983898 223.277737 
L 371.892513 223.321389 
L 372.8689 223.449329 
L 373.839576 223.700953 
L 374.817339 224.094405 
L 375.796604 224.645882 
L 377.756116 226.123615 
L 380.677405 228.914588 
L 382.625298 230.768361 
L 384.598234 232.280247 
L 385.559152 232.817629 
L 386.540873 233.223713 
L 388.516531 233.597134 
L 393.388421 233.789076 
L 395.345546 234.132644 
L 398.281418 234.979682 
L 403.17266 236.544637 
L 405.122943 236.947982 
L 407.062217 237.155552 
L 411.999494 237.35836 
L 413.91772 237.917366 
L 415.867289 238.970813 
L 417.82342 240.416872 
L 421.737211 243.617761 
L 423.682372 244.851687 
L 425.631367 245.637152 
L 427.593202 245.950394 
L 431.54716 246.069053 
L 433.45472 246.414929 
L 435.405196 247.046481 
L 437.359502 247.915552 
L 441.266205 249.813576 
L 443.256839 250.557457 
L 445.203182 251.014147 
L 447.163659 251.198394 
L 451.113778 251.342278 
L 453.072286 251.832136 
L 455.026769 252.727387 
L 457.963257 254.647332 
L 460.889624 256.660683 
L 462.853416 257.720682 
L 464.786228 258.376386 
L 466.750984 258.634737 
L 470.641075 258.75536 
L 472.614541 259.121716 
L 474.579544 259.805859 
L 477.504203 261.260344 
L 480.455353 262.79346 
L 482.418329 263.586399 
L 484.370404 264.079184 
L 486.315449 264.277322 
L 490.244458 264.407468 
L 492.183002 264.835922 
L 494.151006 265.627917 
L 496.112966 266.707069 
L 500.01116 269.048921 
L 501.968646 269.964527 
L 503.904547 270.542958 
L 505.869071 270.767865 
L 509.770354 270.884425 
L 511.757634 271.247761 
L 513.70069 271.908727 
L 516.620437 273.321646 
L 519.548529 274.799762 
L 521.50115 275.570239 
L 523.452074 276.04934 
L 525.432997 276.24277 
L 529.331267 276.360832 
L 531.27952 276.731324 
L 533.235398 277.435468 
L 535.18135 278.38769 
L 539.190041 280.454989 
L 541.149877 281.263436 
L 543.104194 281.770369 
L 545.06317 281.971642 
L 548.967779 282.075876 
L 550.922555 282.407343 
L 552.870445 283.013162 
L 555.801766 284.313065 
L 559.714573 286.071819 
L 561.665088 286.652739 
L 563.623899 286.960544 
L 566.541122 287.03798 
L 568.523604 287.121095 
L 570.481002 287.446275 
L 572.432765 288.040458 
L 575.383046 289.314859 
L 578.298581 290.652348 
L 580.248708 291.351379 
L 582.199943 291.790096 
L 584.143264 291.963717 
L 588.070343 292.055774 
L 590.013409 292.335269 
L 591.976443 292.860831 
L 594.92538 293.989057 
L 598.817263 295.499007 
L 600.768492 296.005018 
L 602.737109 296.268851 
L 605.647175 296.334203 
L 607.619842 296.403362 
L 609.570024 296.666327 
L 611.54578 297.155819 
L 614.469223 298.188336 
L 617.443908 299.280058 
L 619.421543 299.856169 
L 621.365887 300.212806 
L 623.326455 300.353015 
L 628.184237 300.507998 
L 630.144473 300.822467 
L 633.085142 301.61576 
L 637.959626 303.108764 
L 639.930544 303.502441 
L 641.884462 303.711725 
L 648.724787 304.001216 
L 651.658065 304.583087 
L 658.528798 306.316088 
L 660.503306 306.580903 
L 663.431495 306.697623 
L 667.335198 306.789212 
L 670.276676 307.14592 
L 673.206249 307.719451 
L 676.439621 307.924341 
L 676.44311 308.320695 
L 677.107727 308.492665 
L 677.107727 308.492665 
" style="fill:none;stroke:#008000;stroke-linecap:square;stroke-width:1.5;"/>
   </g>
   <g id="line2d_31">
    <path clip-path="url(#pa0e5aad0bc)" d="M 85.662273 49.316286 
L 135.57082 49.410468 
L 136.557434 49.712486 
L 137.537907 50.326058 
L 138.507775 51.272735 
L 139.490128 52.572223 
L 140.467238 54.170631 
L 142.412128 58.240828 
L 147.343606 69.381206 
L 148.318152 71.093489 
L 149.292512 72.427546 
L 150.285124 73.380723 
L 151.562814 74.000459 
L 152.722408 74.309977 
L 154.83523 74.395144 
L 155.800827 74.239799 
L 156.779231 73.727367 
L 157.753194 72.722697 
L 158.754452 71.162618 
L 159.739263 69.000352 
L 160.696748 66.434692 
L 162.703116 60.144954 
L 164.620348 53.394182 
L 166.578438 47.285738 
L 167.55036 44.851132 
L 168.522314 42.807869 
L 169.509396 41.205911 
L 170.478833 40.117279 
L 171.450629 39.423792 
L 172.752614 39.07478 
L 174.676708 38.985727 
L 175.664524 39.062934 
L 176.648828 39.310587 
L 177.658421 39.80029 
L 178.634743 40.563418 
L 179.599402 41.664048 
L 180.595386 43.13889 
L 181.568372 44.926789 
L 183.513185 49.330613 
L 187.431832 59.398711 
L 188.397399 61.424205 
L 189.395138 63.137771 
L 190.387396 64.371717 
L 191.350097 65.157766 
L 192.334382 65.542839 
L 193.311522 65.655883 
L 195.271044 65.549985 
L 196.245465 65.214994 
L 197.218498 64.567317 
L 198.182087 63.599583 
L 199.171549 62.257614 
L 201.122375 58.912134 
L 204.058354 53.29157 
L 206.000075 50.241966 
L 206.982392 49.023381 
L 207.954918 48.095703 
L 208.929446 47.386578 
L 209.920232 46.897323 
L 210.891201 46.594786 
L 212.84352 46.413706 
L 214.798784 46.46109 
L 215.7764 46.621694 
L 216.765404 46.938234 
L 217.744316 47.446348 
L 218.715119 48.1693 
L 219.694256 49.098672 
L 220.661188 50.272836 
L 222.625166 53.260061 
L 227.52455 61.474197 
L 228.481761 62.634938 
L 229.473008 63.49362 
L 230.453695 64.034871 
L 231.41741 64.313409 
L 233.362699 64.391809 
L 234.338384 64.321173 
L 235.324446 64.088604 
L 236.301662 63.650046 
L 237.277406 62.985137 
L 238.251436 62.126864 
L 240.209224 59.886462 
L 243.139998 56.336516 
L 245.096031 54.407937 
L 247.048485 53.128691 
L 248.01765 52.709227 
L 249.003251 52.418479 
L 250.957285 52.165821 
L 253.882843 52.184041 
L 254.86472 52.317699 
L 255.841556 52.572182 
L 256.80839 52.983714 
L 257.79178 53.576082 
L 260.021201 55.270981 
L 261.150478 56.320094 
L 263.10884 58.774493 
L 266.032371 62.473281 
L 267.011868 63.497443 
L 267.980311 64.344932 
L 268.956291 64.955275 
L 269.937552 65.344171 
L 270.920299 65.534729 
L 272.888517 65.590365 
L 274.850195 65.431908 
L 276.809671 64.835052 
L 278.756987 63.769061 
L 283.64084 60.611775 
L 285.586753 59.736228 
L 287.542942 59.2013 
L 289.50072 58.953521 
L 292.440404 58.898044 
L 294.370827 59.04068 
L 295.358232 59.261398 
L 296.335311 59.594591 
L 298.284715 60.662212 
L 300.240437 62.211708 
L 306.126103 67.37603 
L 307.10174 67.948426 
L 308.079308 68.367846 
L 309.056097 68.634487 
L 311.009819 68.804008 
L 313.946921 68.75106 
L 315.898477 68.549271 
L 318.820965 67.986425 
L 322.73149 67.1952 
L 325.659154 66.858555 
L 329.567271 66.725776 
L 332.639878 66.751638 
L 334.709119 67.01583 
L 336.663553 67.663495 
L 338.617861 68.680014 
L 341.553342 70.677553 
L 343.491749 71.995436 
L 345.45095 73.085891 
L 347.416344 73.787386 
L 349.369353 74.061727 
L 359.194218 74.411264 
L 366.997702 75.123635 
L 373.839576 75.416827 
L 375.796604 75.952261 
L 377.756116 76.787946 
L 384.598234 80.261145 
L 386.540873 80.79392 
L 388.516531 81.004934 
L 393.388421 81.142348 
L 395.345546 81.402124 
L 398.281418 82.055502 
L 404.139982 83.498997 
L 406.091257 83.75774 
L 409.030523 83.870558 
L 411.999494 83.95657 
L 413.91772 84.274833 
L 415.867289 84.875953 
L 418.793959 86.168618 
L 421.737211 87.553523 
L 423.682372 88.273108 
L 425.631367 88.733369 
L 427.593202 88.917425 
L 432.48145 89.085128 
L 434.43216 89.417721 
L 437.359502 90.251229 
L 442.261743 91.840491 
L 444.23116 92.265738 
L 446.182007 92.488932 
L 452.093266 92.734885 
L 454.050879 93.161986 
L 455.999472 93.826968 
L 462.853416 96.571804 
L 464.786228 96.990453 
L 466.750984 97.156107 
L 471.640737 97.330396 
L 473.609561 97.673551 
L 475.573246 98.22268 
L 482.418329 100.465613 
L 484.370404 100.80475 
L 486.315449 100.941645 
L 490.244458 101.025322 
L 492.183002 101.298078 
L 494.151006 101.806112 
L 497.083193 102.899643 
L 500.986943 104.401476 
L 502.934759 104.908625 
L 504.902637 105.180587 
L 507.826234 105.24711 
L 510.761336 105.397355 
L 512.714698 105.728916 
L 514.673393 106.249876 
L 521.50115 108.415676 
L 523.452074 108.745948 
L 525.432997 108.879976 
L 529.331267 108.957327 
L 531.27952 109.198513 
L 533.235398 109.661057 
L 536.151791 110.644606 
L 540.155675 112.012761 
L 542.139797 112.481075 
L 544.088401 112.729016 
L 547.011804 112.789217 
L 549.940043 112.923884 
L 551.895286 113.227926 
L 553.862385 113.703379 
L 560.688464 115.688639 
L 562.683573 115.9999 
L 564.597236 116.121274 
L 569.508104 116.270408 
L 571.467723 116.578697 
L 574.387141 117.345633 
L 580.248708 119.075527 
L 582.199943 119.388931 
L 584.143264 119.513712 
L 589.034778 119.641675 
L 590.997627 119.899032 
L 593.929561 120.551118 
L 599.811083 122.018919 
L 601.776828 122.284891 
L 604.662237 122.397466 
L 608.590838 122.511611 
L 610.547906 122.758583 
L 613.4946 123.393135 
L 619.421543 124.802172 
L 621.365887 125.055843 
L 624.286464 125.165197 
L 628.184237 125.254859 
L 631.111765 125.598517 
L 635.035587 126.373188 
L 638.927113 127.089481 
L 641.884462 127.349664 
L 649.701907 127.646688 
L 652.627649 128.099772 
L 658.528798 129.121129 
L 661.489306 129.357605 
L 670.276676 129.66854 
L 673.206249 130.03064 
L 676.439621 130.161189 
L 676.44311 130.415504 
L 677.107727 130.526573 
L 677.107727 130.526573 
" style="fill:none;stroke:#0000ff;stroke-linecap:square;stroke-width:1.5;"/>
   </g>
   <g id="line2d_32">
    <path clip-path="url(#pa0e5aad0bc)" d="M 85.662273 221.910425 
L 133.656661 221.910425 
L 134.600348 279.421835 
L 153.859826 279.421835 
L 154.83523 279.300571 
L 173.696323 279.300571 
L 174.676708 279.105721 
L 193.311522 279.105721 
L 194.292863 278.842568 
L 212.84352 278.842568 
L 213.836355 278.516596 
L 232.386203 278.516596 
L 233.362699 278.134548 
L 251.925766 278.134548 
L 252.903685 277.701039 
L 271.918982 277.701039 
L 272.888517 277.221852 
L 291.458478 277.221852 
L 292.440404 276.703415 
L 311.009819 276.703415 
L 311.988294 276.15009 
L 330.545201 276.15009 
L 331.528968 275.56951 
L 350.329051 275.56951 
L 351.313366 274.965649 
L 369.934014 274.965649 
L 370.909796 274.344755 
L 389.476676 274.344755 
L 390.462911 273.712506 
L 409.030523 273.712506 
L 410.003597 273.073942 
L 428.608781 273.073942 
L 429.556975 272.43634 
L 448.140915 272.43634 
L 449.167444 271.804417 
L 467.725268 271.804417 
L 468.696704 271.182924 
L 487.30995 271.182924 
L 488.276659 270.5794 
L 506.855209 270.5794 
L 507.826234 269.998574 
L 526.401878 269.998574 
L 527.368907 269.44558 
L 546.04697 269.44558 
L 547.011804 268.927199 
L 565.567706 268.927199 
L 566.541122 268.448304 
L 585.125316 268.448304 
L 586.111872 268.014434 
L 604.662237 268.014434 
L 605.647175 267.632494 
L 624.286464 267.632494 
L 625.313314 267.306641 
L 643.845039 267.306641 
L 644.818325 267.04339 
L 663.431495 267.04339 
L 664.400309 266.848911 
L 677.107727 266.848911 
L 677.107727 266.848911 
" style="fill:none;stroke:#ff0000;stroke-dasharray:5.55,2.4;stroke-dashoffset:0;stroke-width:1.5;"/>
   </g>
   <g id="line2d_33">
    <path clip-path="url(#pa0e5aad0bc)" d="M 85.662273 221.910425 
L 133.656661 221.910425 
L 134.600348 188.779706 
L 153.859826 188.779706 
L 154.83523 189.947839 
L 173.696323 189.947839 
L 174.676708 191.824828 
L 193.311522 191.824828 
L 194.292863 194.359774 
L 212.84352 194.359774 
L 213.836355 197.499859 
L 232.386203 197.499859 
L 233.362699 201.180121 
L 251.925766 201.180121 
L 252.903685 205.356113 
L 271.918982 205.356113 
L 272.888517 209.972119 
L 291.458478 209.972119 
L 292.440404 214.966213 
L 311.009819 214.966213 
L 311.988294 220.296384 
L 330.545201 220.296384 
L 331.528968 225.889107 
L 350.329051 225.889107 
L 351.313366 231.706091 
L 369.934014 231.706091 
L 370.909796 237.68716 
L 389.476676 237.68716 
L 390.462911 243.77761 
L 409.030523 243.77761 
L 410.003597 249.928891 
L 428.608781 249.928891 
L 429.556975 256.0709 
L 448.140915 256.0709 
L 449.167444 262.158205 
L 467.725268 262.158205 
L 468.696704 268.145045 
L 487.30995 268.145045 
L 488.276659 273.958788 
L 506.855209 273.958788 
L 507.826234 279.553877 
L 526.401878 279.553877 
L 527.368907 284.880861 
L 546.04697 284.880861 
L 547.011804 289.874422 
L 565.567706 289.874422 
L 566.541122 294.487611 
L 585.125316 294.487611 
L 586.111872 298.667076 
L 604.662237 298.667076 
L 605.647175 302.346299 
L 624.286464 302.346299 
L 625.313314 305.485234 
L 643.845039 305.485234 
L 644.818325 308.021136 
L 663.431495 308.021136 
L 664.400309 309.894545 
L 677.107727 309.894545 
L 677.107727 309.894545 
" style="fill:none;stroke:#008000;stroke-dasharray:5.55,2.4;stroke-dashoffset:0;stroke-width:1.5;"/>
   </g>
   <g id="line2d_34">
    <path clip-path="url(#pa0e5aad0bc)" d="M 85.662273 221.910425 
L 133.656661 221.910425 
L 134.600348 49.587746 
L 153.859826 49.587746 
L 154.83523 50.375861 
L 173.696323 50.375861 
L 174.676708 51.642226 
L 193.311522 51.642226 
L 194.292863 53.3525 
L 212.84352 53.3525 
L 213.836355 55.47105 
L 232.386203 55.47105 
L 233.362699 57.954044 
L 251.925766 57.954044 
L 252.903685 60.771498 
L 271.918982 60.771498 
L 272.888517 63.88582 
L 291.458478 63.88582 
L 292.440404 67.25523 
L 311.009819 67.25523 
L 311.988294 70.851384 
L 330.545201 70.851384 
L 331.528968 74.624676 
L 350.329051 74.624676 
L 351.313366 78.549272 
L 369.934014 78.549272 
L 370.909796 82.584573 
L 389.476676 82.584573 
L 390.462911 86.693672 
L 409.030523 86.693672 
L 410.003597 90.843812 
L 428.608781 90.843812 
L 429.556975 94.987695 
L 448.140915 94.987695 
L 449.167444 99.094672 
L 467.725268 99.094672 
L 468.696704 103.133866 
L 487.30995 103.133866 
L 488.276659 107.056276 
L 506.855209 107.056276 
L 507.826234 110.831165 
L 526.401878 110.831165 
L 527.368907 114.425168 
L 546.04697 114.425168 
L 547.011804 117.794219 
L 565.567706 117.794219 
L 566.541122 120.90664 
L 585.125316 120.90664 
L 586.111872 123.726437 
L 604.662237 123.726437 
L 605.647175 126.208731 
L 624.286464 126.208731 
L 625.313314 128.326504 
L 643.845039 128.326504 
L 644.818325 130.037424 
L 663.431495 130.037424 
L 664.400309 131.301373 
L 677.107727 131.301373 
L 677.107727 131.301373 
" style="fill:none;stroke:#0000ff;stroke-dasharray:5.55,2.4;stroke-dashoffset:0;stroke-width:1.5;"/>
   </g>
   <g id="patch_3">
    <path d="M 56.09 323.44 
L 56.09 25.44 
" style="fill:none;stroke:#000000;stroke-linecap:square;stroke-linejoin:miter;stroke-width:0.8;"/>
   </g>
   <g id="patch_4">
    <path d="M 706.68 323.44 
L 706.68 25.44 
" style="fill:none;stroke:#000000;stroke-linecap:square;stroke-linejoin:miter;stroke-width:0.8;"/>
   </g>
   <g id="patch_5">
    <path d="M 56.09 323.44 
L 706.68 323.44 
" style="fill:none;stroke:#000000;stroke-linecap:square;stroke-linejoin:miter;stroke-width:0.8;"/>
   </g>
   <g id="patch_6">
    <path d="M 56.09 25.44 
L 706.68 25.44 
" style="fill:none;stroke:#000000;stroke-linecap:square;stroke-linejoin:miter;stroke-width:0.8;"/>
   </g>
   <g id="text_17">
    <!-- Gripper Position over Time -->
    <defs>
     <path d="M 59.515625 10.40625 
L 59.515625 29.984375 
L 43.40625 29.984375 
L 43.40625 38.09375 
L 69.28125 38.09375 
L 69.28125 6.78125 
Q 63.578125 2.734375 56.6875 0.65625 
Q 49.8125 -1.421875 42 -1.421875 
Q 24.90625 -1.421875 15.25 8.5625 
Q 5.609375 18.5625 5.609375 36.375 
Q 5.609375 54.25 15.25 64.234375 
Q 24.90625 74.21875 42 74.21875 
Q 49.125 74.21875 55.546875 72.453125 
Q 61.96875 70.703125 67.390625 67.28125 
L 67.390625 56.78125 
Q 61.921875 61.421875 55.765625 63.765625 
Q 49.609375 66.109375 42.828125 66.109375 
Q 29.4375 66.109375 22.71875 58.640625 
Q 16.015625 51.171875 16.015625 36.375 
Q 16.015625 21.625 22.71875 14.15625 
Q 29.4375 6.6875 42.828125 6.6875 
Q 48.046875 6.6875 52.140625 7.59375 
Q 56.25 8.5 59.515625 10.40625 
z
" id="DejaVuSans-47"/>
     <path d="M 18.109375 8.203125 
L 18.109375 -20.796875 
L 9.078125 -20.796875 
L 9.078125 54.6875 
L 18.109375 54.6875 
L 18.109375 46.390625 
Q 20.953125 51.265625 25.265625 53.625 
Q 29.59375 56 35.59375 56 
Q 45.5625 56 51.78125 48.09375 
Q 58.015625 40.1875 58.015625 27.296875 
Q 58.015625 14.40625 51.78125 6.484375 
Q 45.5625 -1.421875 35.59375 -1.421875 
Q 29.59375 -1.421875 25.265625 0.953125 
Q 20.953125 3.328125 18.109375 8.203125 
z
M 48.6875 27.296875 
Q 48.6875 37.203125 44.609375 42.84375 
Q 40.53125 48.484375 33.40625 48.484375 
Q 26.265625 48.484375 22.1875 42.84375 
Q 18.109375 37.203125 18.109375 27.296875 
Q 18.109375 17.390625 22.1875 11.75 
Q 26.265625 6.109375 33.40625 6.109375 
Q 40.53125 6.109375 44.609375 11.75 
Q 48.6875 17.390625 48.6875 27.296875 
z
" id="DejaVuSans-70"/>
     <path d="M 2.984375 54.6875 
L 12.5 54.6875 
L 29.59375 8.796875 
L 46.6875 54.6875 
L 56.203125 54.6875 
L 35.6875 0 
L 23.484375 0 
z
" id="DejaVuSans-76"/>
    </defs>
    <g transform="translate(301.287812 19.44)scale(0.12 -0.12)">
     <use xlink:href="#DejaVuSans-47"/>
     <use x="77.490234" xlink:href="#DejaVuSans-72"/>
     <use x="118.603516" xlink:href="#DejaVuSans-69"/>
     <use x="146.386719" xlink:href="#DejaVuSans-70"/>
     <use x="209.863281" xlink:href="#DejaVuSans-70"/>
     <use x="273.339844" xlink:href="#DejaVuSans-65"/>
     <use x="334.863281" xlink:href="#DejaVuSans-72"/>
     <use x="375.976562" xlink:href="#DejaVuSans-20"/>
     <use x="407.763672" xlink:href="#DejaVuSans-50"/>
     <use x="468.019531" xlink:href="#DejaVuSans-6f"/>
     <use x="529.201172" xlink:href="#DejaVuSans-73"/>
     <use x="581.300781" xlink:href="#DejaVuSans-69"/>
     <use x="609.083984" xlink:href="#DejaVuSans-74"/>
     <use x="648.292969" xlink:href="#DejaVuSans-69"/>
     <use x="676.076172" xlink:href="#DejaVuSans-6f"/>
     <use x="737.257812" xlink:href="#DejaVuSans-6e"/>
     <use x="800.636719" xlink:href="#DejaVuSans-20"/>
     <use x="832.423828" xlink:href="#DejaVuSans-6f"/>
     <use x="893.605469" xlink:href="#DejaVuSans-76"/>
     <use x="952.785156" xlink:href="#DejaVuSans-65"/>
     <use x="1014.308594" xlink:href="#DejaVuSans-72"/>
     <use x="1055.421875" xlink:href="#DejaVuSans-20"/>
     <use x="1087.208984" xlink:href="#DejaVuSans-54"/>
     <use x="1148.246094" xlink:href="#DejaVuSans-69"/>
     <use x="1176.029297" xlink:href="#DejaVuSans-6d"/>
     <use x="1273.441406" xlink:href="#DejaVuSans-65"/>
    </g>
   </g>
   <g id="legend_1">
    <g id="patch_7">
     <path d="M 319.913906 219.974375 
L 442.856094 219.974375 
Q 444.856094 219.974375 444.856094 217.974375 
L 444.856094 130.905625 
Q 444.856094 128.905625 442.856094 128.905625 
L 319.913906 128.905625 
Q 317.913906 128.905625 317.913906 130.905625 
L 317.913906 217.974375 
Q 317.913906 219.974375 319.913906 219.974375 
z
" style="fill:#ffffff;opacity:0.8;stroke:#cccccc;stroke-linejoin:miter;"/>
    </g>
    <g id="line2d_35">
     <path d="M 321.913906 137.004063 
L 341.913906 137.004063 
" style="fill:none;stroke:#ff0000;stroke-linecap:square;stroke-width:1.5;"/>
    </g>
    <g id="line2d_36"/>
    <g id="text_18">
     <!-- Gripper X -->
     <defs>
      <path d="M 6.296875 72.90625 
L 16.890625 72.90625 
L 35.015625 45.796875 
L 53.21875 72.90625 
L 63.8125 72.90625 
L 40.375 37.890625 
L 65.375 0 
L 54.78125 0 
L 34.28125 31 
L 13.625 0 
L 2.984375 0 
L 29 38.921875 
z
" id="DejaVuSans-58"/>
     </defs>
     <g transform="translate(349.913906 140.504063)scale(0.1 -0.1)">
      <use xlink:href="#DejaVuSans-47"/>
      <use x="77.490234" xlink:href="#DejaVuSans-72"/>
      <use x="118.603516" xlink:href="#DejaVuSans-69"/>
      <use x="146.386719" xlink:href="#DejaVuSans-70"/>
      <use x="209.863281" xlink:href="#DejaVuSans-70"/>
      <use x="273.339844" xlink:href="#DejaVuSans-65"/>
      <use x="334.863281" xlink:href="#DejaVuSans-72"/>
      <use x="375.976562" xlink:href="#DejaVuSans-20"/>
      <use x="407.763672" xlink:href="#DejaVuSans-58"/>
     </g>
    </g>
    <g id="line2d_37">
     <path d="M 321.913906 151.682188 
L 341.913906 151.682188 
" style="fill:none;stroke:#008000;stroke-linecap:square;stroke-width:1.5;"/>
    </g>
    <g id="line2d_38"/>
    <g id="text_19">
     <!-- Gripper Y -->
     <defs>
      <path d="M -0.203125 72.90625 
L 10.40625 72.90625 
L 30.609375 42.921875 
L 50.6875 72.90625 
L 61.28125 72.90625 
L 35.5 34.71875 
L 35.5 0 
L 25.59375 0 
L 25.59375 34.71875 
z
" id="DejaVuSans-59"/>
     </defs>
     <g transform="translate(349.913906 155.182188)scale(0.1 -0.1)">
      <use xlink:href="#DejaVuSans-47"/>
      <use x="77.490234" xlink:href="#DejaVuSans-72"/>
      <use x="118.603516" xlink:href="#DejaVuSans-69"/>
      <use x="146.386719" xlink:href="#DejaVuSans-70"/>
      <use x="209.863281" xlink:href="#DejaVuSans-70"/>
      <use x="273.339844" xlink:href="#DejaVuSans-65"/>
      <use x="334.863281" xlink:href="#DejaVuSans-72"/>
      <use x="375.976562" xlink:href="#DejaVuSans-20"/>
      <use x="407.763672" xlink:href="#DejaVuSans-59"/>
     </g>
    </g>
    <g id="line2d_39">
     <path d="M 321.913906 166.360313 
L 341.913906 166.360313 
" style="fill:none;stroke:#0000ff;stroke-linecap:square;stroke-width:1.5;"/>
    </g>
    <g id="line2d_40"/>
    <g id="text_20">
     <!-- Gripper Z -->
     <defs>
      <path d="M 5.609375 72.90625 
L 62.890625 72.90625 
L 62.890625 65.375 
L 16.796875 8.296875 
L 64.015625 8.296875 
L 64.015625 0 
L 4.5 0 
L 4.5 7.515625 
L 50.59375 64.59375 
L 5.609375 64.59375 
z
" id="DejaVuSans-5a"/>
     </defs>
     <g transform="translate(349.913906 169.860313)scale(0.1 -0.1)">
      <use xlink:href="#DejaVuSans-47"/>
      <use x="77.490234" xlink:href="#DejaVuSans-72"/>
      <use x="118.603516" xlink:href="#DejaVuSans-69"/>
      <use x="146.386719" xlink:href="#DejaVuSans-70"/>
      <use x="209.863281" xlink:href="#DejaVuSans-70"/>
      <use x="273.339844" xlink:href="#DejaVuSans-65"/>
      <use x="334.863281" xlink:href="#DejaVuSans-72"/>
      <use x="375.976562" xlink:href="#DejaVuSans-20"/>
      <use x="407.763672" xlink:href="#DejaVuSans-5a"/>
     </g>
    </g>
    <g id="line2d_41">
     <path d="M 321.913906 181.038437 
L 341.913906 181.038437 
" style="fill:none;stroke:#ff0000;stroke-dasharray:5.55,2.4;stroke-dashoffset:0;stroke-width:1.5;"/>
    </g>
    <g id="line2d_42"/>
    <g id="text_21">
     <!-- Desired X Position -->
     <defs>
      <path d="M 19.671875 64.796875 
L 19.671875 8.109375 
L 31.59375 8.109375 
Q 46.6875 8.109375 53.6875 14.9375 
Q 60.6875 21.78125 60.6875 36.53125 
Q 60.6875 51.171875 53.6875 57.984375 
Q 46.6875 64.796875 31.59375 64.796875 
z
M 9.8125 72.90625 
L 30.078125 72.90625 
Q 51.265625 72.90625 61.171875 64.09375 
Q 71.09375 55.28125 71.09375 36.53125 
Q 71.09375 17.671875 61.125 8.828125 
Q 51.171875 0 30.078125 0 
L 9.8125 0 
z
" id="DejaVuSans-44"/>
     </defs>
     <g transform="translate(349.913906 184.538437)scale(0.1 -0.1)">
      <use xlink:href="#DejaVuSans-44"/>
      <use x="77.001953" xlink:href="#DejaVuSans-65"/>
      <use x="138.525391" xlink:href="#DejaVuSans-73"/>
      <use x="190.625" xlink:href="#DejaVuSans-69"/>
      <use x="218.408203" xlink:href="#DejaVuSans-72"/>
      <use x="259.490234" xlink:href="#DejaVuSans-65"/>
      <use x="321.013672" xlink:href="#DejaVuSans-64"/>
      <use x="384.490234" xlink:href="#DejaVuSans-20"/>
      <use x="416.277344" xlink:href="#DejaVuSans-58"/>
      <use x="484.783203" xlink:href="#DejaVuSans-20"/>
      <use x="516.570312" xlink:href="#DejaVuSans-50"/>
      <use x="576.826172" xlink:href="#DejaVuSans-6f"/>
      <use x="638.007812" xlink:href="#DejaVuSans-73"/>
      <use x="690.107422" xlink:href="#DejaVuSans-69"/>
      <use x="717.890625" xlink:href="#DejaVuSans-74"/>
      <use x="757.099609" xlink:href="#DejaVuSans-69"/>
      <use x="784.882812" xlink:href="#DejaVuSans-6f"/>
      <use x="846.064453" xlink:href="#DejaVuSans-6e"/>
     </g>
    </g>
    <g id="line2d_43">
     <path d="M 321.913906 195.716563 
L 341.913906 195.716563 
" style="fill:none;stroke:#008000;stroke-dasharray:5.55,2.4;stroke-dashoffset:0;stroke-width:1.5;"/>
    </g>
    <g id="line2d_44"/>
    <g id="text_22">
     <!-- Desired Y Position -->
     <g transform="translate(349.913906 199.216563)scale(0.1 -0.1)">
      <use xlink:href="#DejaVuSans-44"/>
      <use x="77.001953" xlink:href="#DejaVuSans-65"/>
      <use x="138.525391" xlink:href="#DejaVuSans-73"/>
      <use x="190.625" xlink:href="#DejaVuSans-69"/>
      <use x="218.408203" xlink:href="#DejaVuSans-72"/>
      <use x="259.490234" xlink:href="#DejaVuSans-65"/>
      <use x="321.013672" xlink:href="#DejaVuSans-64"/>
      <use x="384.490234" xlink:href="#DejaVuSans-20"/>
      <use x="416.277344" xlink:href="#DejaVuSans-59"/>
      <use x="477.361328" xlink:href="#DejaVuSans-20"/>
      <use x="509.148438" xlink:href="#DejaVuSans-50"/>
      <use x="569.404297" xlink:href="#DejaVuSans-6f"/>
      <use x="630.585938" xlink:href="#DejaVuSans-73"/>
      <use x="682.685547" xlink:href="#DejaVuSans-69"/>
      <use x="710.46875" xlink:href="#DejaVuSans-74"/>
      <use x="749.677734" xlink:href="#DejaVuSans-69"/>
      <use x="777.460938" xlink:href="#DejaVuSans-6f"/>
      <use x="838.642578" xlink:href="#DejaVuSans-6e"/>
     </g>
    </g>
    <g id="line2d_45">
     <path d="M 321.913906 210.394688 
L 341.913906 210.394688 
" style="fill:none;stroke:#0000ff;stroke-dasharray:5.55,2.4;stroke-dashoffset:0;stroke-width:1.5;"/>
    </g>
    <g id="line2d_46"/>
    <g id="text_23">
     <!-- Desired Z Position -->
     <g transform="translate(349.913906 213.894688)scale(0.1 -0.1)">
      <use xlink:href="#DejaVuSans-44"/>
      <use x="77.001953" xlink:href="#DejaVuSans-65"/>
      <use x="138.525391" xlink:href="#DejaVuSans-73"/>
      <use x="190.625" xlink:href="#DejaVuSans-69"/>
      <use x="218.408203" xlink:href="#DejaVuSans-72"/>
      <use x="259.490234" xlink:href="#DejaVuSans-65"/>
      <use x="321.013672" xlink:href="#DejaVuSans-64"/>
      <use x="384.490234" xlink:href="#DejaVuSans-20"/>
      <use x="416.277344" xlink:href="#DejaVuSans-5a"/>
      <use x="484.783203" xlink:href="#DejaVuSans-20"/>
      <use x="516.570312" xlink:href="#DejaVuSans-50"/>
      <use x="576.826172" xlink:href="#DejaVuSans-6f"/>
      <use x="638.007812" xlink:href="#DejaVuSans-73"/>
      <use x="690.107422" xlink:href="#DejaVuSans-69"/>
      <use x="717.890625" xlink:href="#DejaVuSans-74"/>
      <use x="757.099609" xlink:href="#DejaVuSans-69"/>
      <use x="784.882812" xlink:href="#DejaVuSans-6f"/>
      <use x="846.064453" xlink:href="#DejaVuSans-6e"/>
     </g>
    </g>
   </g>
  </g>
  <g id="axes_2">
   <g id="patch_8">
    <path d="M 56.09 678.04 
L 706.68 678.04 
L 706.68 380.04 
L 56.09 380.04 
z
" style="fill:#ffffff;"/>
   </g>
   <g id="matplotlib.axis_3">
    <g id="xtick_8">
     <g id="line2d_47">
      <path clip-path="url(#pa6165a994f)" d="M 85.239389 678.04 
L 85.239389 380.04 
" style="fill:none;stroke:#b0b0b0;stroke-linecap:square;stroke-width:0.8;"/>
     </g>
     <g id="line2d_48">
      <g>
       <use style="stroke:#000000;stroke-width:0.8;" x="85.239389" xlink:href="#m08a1d903b5" y="678.04"/>
      </g>
     </g>
     <g id="text_24">
      <!-- 0 -->
      <g transform="translate(82.058139 692.638438)scale(0.1 -0.1)">
       <use xlink:href="#DejaVuSans-30"/>
      </g>
     </g>
    </g>
    <g id="xtick_9">
     <g id="line2d_49">
      <path clip-path="url(#pa6165a994f)" d="M 182.731985 678.04 
L 182.731985 380.04 
" style="fill:none;stroke:#b0b0b0;stroke-linecap:square;stroke-width:0.8;"/>
     </g>
     <g id="line2d_50">
      <g>
       <use style="stroke:#000000;stroke-width:0.8;" x="182.731985" xlink:href="#m08a1d903b5" y="678.04"/>
      </g>
     </g>
     <g id="text_25">
      <!-- 10 -->
      <g transform="translate(176.369485 692.638438)scale(0.1 -0.1)">
       <use xlink:href="#DejaVuSans-31"/>
       <use x="63.623047" xlink:href="#DejaVuSans-30"/>
      </g>
     </g>
    </g>
    <g id="xtick_10">
     <g id="line2d_51">
      <path clip-path="url(#pa6165a994f)" d="M 280.224582 678.04 
L 280.224582 380.04 
" style="fill:none;stroke:#b0b0b0;stroke-linecap:square;stroke-width:0.8;"/>
     </g>
     <g id="line2d_52">
      <g>
       <use style="stroke:#000000;stroke-width:0.8;" x="280.224582" xlink:href="#m08a1d903b5" y="678.04"/>
      </g>
     </g>
     <g id="text_26">
      <!-- 20 -->
      <g transform="translate(273.862082 692.638438)scale(0.1 -0.1)">
       <use xlink:href="#DejaVuSans-32"/>
       <use x="63.623047" xlink:href="#DejaVuSans-30"/>
      </g>
     </g>
    </g>
    <g id="xtick_11">
     <g id="line2d_53">
      <path clip-path="url(#pa6165a994f)" d="M 377.717178 678.04 
L 377.717178 380.04 
" style="fill:none;stroke:#b0b0b0;stroke-linecap:square;stroke-width:0.8;"/>
     </g>
     <g id="line2d_54">
      <g>
       <use style="stroke:#000000;stroke-width:0.8;" x="377.717178" xlink:href="#m08a1d903b5" y="678.04"/>
      </g>
     </g>
     <g id="text_27">
      <!-- 30 -->
      <g transform="translate(371.354678 692.638438)scale(0.1 -0.1)">
       <use xlink:href="#DejaVuSans-33"/>
       <use x="63.623047" xlink:href="#DejaVuSans-30"/>
      </g>
     </g>
    </g>
    <g id="xtick_12">
     <g id="line2d_55">
      <path clip-path="url(#pa6165a994f)" d="M 475.209774 678.04 
L 475.209774 380.04 
" style="fill:none;stroke:#b0b0b0;stroke-linecap:square;stroke-width:0.8;"/>
     </g>
     <g id="line2d_56">
      <g>
       <use style="stroke:#000000;stroke-width:0.8;" x="475.209774" xlink:href="#m08a1d903b5" y="678.04"/>
      </g>
     </g>
     <g id="text_28">
      <!-- 40 -->
      <g transform="translate(468.847274 692.638438)scale(0.1 -0.1)">
       <use xlink:href="#DejaVuSans-34"/>
       <use x="63.623047" xlink:href="#DejaVuSans-30"/>
      </g>
     </g>
    </g>
    <g id="xtick_13">
     <g id="line2d_57">
      <path clip-path="url(#pa6165a994f)" d="M 572.70237 678.04 
L 572.70237 380.04 
" style="fill:none;stroke:#b0b0b0;stroke-linecap:square;stroke-width:0.8;"/>
     </g>
     <g id="line2d_58">
      <g>
       <use style="stroke:#000000;stroke-width:0.8;" x="572.70237" xlink:href="#m08a1d903b5" y="678.04"/>
      </g>
     </g>
     <g id="text_29">
      <!-- 50 -->
      <g transform="translate(566.33987 692.638438)scale(0.1 -0.1)">
       <use xlink:href="#DejaVuSans-35"/>
       <use x="63.623047" xlink:href="#DejaVuSans-30"/>
      </g>
     </g>
    </g>
    <g id="xtick_14">
     <g id="line2d_59">
      <path clip-path="url(#pa6165a994f)" d="M 670.194967 678.04 
L 670.194967 380.04 
" style="fill:none;stroke:#b0b0b0;stroke-linecap:square;stroke-width:0.8;"/>
     </g>
     <g id="line2d_60">
      <g>
       <use style="stroke:#000000;stroke-width:0.8;" x="670.194967" xlink:href="#m08a1d903b5" y="678.04"/>
      </g>
     </g>
     <g id="text_30">
      <!-- 60 -->
      <g transform="translate(663.832467 692.638438)scale(0.1 -0.1)">
       <use xlink:href="#DejaVuSans-36"/>
       <use x="63.623047" xlink:href="#DejaVuSans-30"/>
      </g>
     </g>
    </g>
    <g id="text_31">
     <!-- Time (seconds) -->
     <g transform="translate(343.069375 706.316563)scale(0.1 -0.1)">
      <use xlink:href="#DejaVuSans-54"/>
      <use x="61.037109" xlink:href="#DejaVuSans-69"/>
      <use x="88.820312" xlink:href="#DejaVuSans-6d"/>
      <use x="186.232422" xlink:href="#DejaVuSans-65"/>
      <use x="247.755859" xlink:href="#DejaVuSans-20"/>
      <use x="279.542969" xlink:href="#DejaVuSans-28"/>
      <use x="318.556641" xlink:href="#DejaVuSans-73"/>
      <use x="370.65625" xlink:href="#DejaVuSans-65"/>
      <use x="432.179688" xlink:href="#DejaVuSans-63"/>
      <use x="487.160156" xlink:href="#DejaVuSans-6f"/>
      <use x="548.341797" xlink:href="#DejaVuSans-6e"/>
      <use x="611.720703" xlink:href="#DejaVuSans-64"/>
      <use x="675.197266" xlink:href="#DejaVuSans-73"/>
      <use x="727.296875" xlink:href="#DejaVuSans-29"/>
     </g>
    </g>
   </g>
   <g id="matplotlib.axis_4">
    <g id="ytick_8">
     <g id="line2d_61">
      <path clip-path="url(#pa6165a994f)" d="M 56.09 666.275821 
L 706.68 666.275821 
" style="fill:none;stroke:#b0b0b0;stroke-linecap:square;stroke-width:0.8;"/>
     </g>
     <g id="line2d_62">
      <g>
       <use style="stroke:#000000;stroke-width:0.8;" x="56.09" xlink:href="#m65813ac572" y="666.275821"/>
      </g>
     </g>
     <g id="text_32">
      <!-- −0.1 -->
      <g transform="translate(24.807188 670.075039)scale(0.1 -0.1)">
       <use xlink:href="#DejaVuSans-2212"/>
       <use x="83.789062" xlink:href="#DejaVuSans-30"/>
       <use x="147.412109" xlink:href="#DejaVuSans-2e"/>
       <use x="179.199219" xlink:href="#DejaVuSans-31"/>
      </g>
     </g>
    </g>
    <g id="ytick_9">
     <g id="line2d_63">
      <path clip-path="url(#pa6165a994f)" d="M 56.09 632.886093 
L 706.68 632.886093 
" style="fill:none;stroke:#b0b0b0;stroke-linecap:square;stroke-width:0.8;"/>
     </g>
     <g id="line2d_64">
      <g>
       <use style="stroke:#000000;stroke-width:0.8;" x="56.09" xlink:href="#m65813ac572" y="632.886093"/>
      </g>
     </g>
     <g id="text_33">
      <!-- 0.0 -->
      <g transform="translate(33.186875 636.685311)scale(0.1 -0.1)">
       <use xlink:href="#DejaVuSans-30"/>
       <use x="63.623047" xlink:href="#DejaVuSans-2e"/>
       <use x="95.410156" xlink:href="#DejaVuSans-30"/>
      </g>
     </g>
    </g>
    <g id="ytick_10">
     <g id="line2d_65">
      <path clip-path="url(#pa6165a994f)" d="M 56.09 599.496365 
L 706.68 599.496365 
" style="fill:none;stroke:#b0b0b0;stroke-linecap:square;stroke-width:0.8;"/>
     </g>
     <g id="line2d_66">
      <g>
       <use style="stroke:#000000;stroke-width:0.8;" x="56.09" xlink:href="#m65813ac572" y="599.496365"/>
      </g>
     </g>
     <g id="text_34">
      <!-- 0.1 -->
      <g transform="translate(33.186875 603.295583)scale(0.1 -0.1)">
       <use xlink:href="#DejaVuSans-30"/>
       <use x="63.623047" xlink:href="#DejaVuSans-2e"/>
       <use x="95.410156" xlink:href="#DejaVuSans-31"/>
      </g>
     </g>
    </g>
    <g id="ytick_11">
     <g id="line2d_67">
      <path clip-path="url(#pa6165a994f)" d="M 56.09 566.106637 
L 706.68 566.106637 
" style="fill:none;stroke:#b0b0b0;stroke-linecap:square;stroke-width:0.8;"/>
     </g>
     <g id="line2d_68">
      <g>
       <use style="stroke:#000000;stroke-width:0.8;" x="56.09" xlink:href="#m65813ac572" y="566.106637"/>
      </g>
     </g>
     <g id="text_35">
      <!-- 0.2 -->
      <g transform="translate(33.186875 569.905856)scale(0.1 -0.1)">
       <use xlink:href="#DejaVuSans-30"/>
       <use x="63.623047" xlink:href="#DejaVuSans-2e"/>
       <use x="95.410156" xlink:href="#DejaVuSans-32"/>
      </g>
     </g>
    </g>
    <g id="ytick_12">
     <g id="line2d_69">
      <path clip-path="url(#pa6165a994f)" d="M 56.09 532.716909 
L 706.68 532.716909 
" style="fill:none;stroke:#b0b0b0;stroke-linecap:square;stroke-width:0.8;"/>
     </g>
     <g id="line2d_70">
      <g>
       <use style="stroke:#000000;stroke-width:0.8;" x="56.09" xlink:href="#m65813ac572" y="532.716909"/>
      </g>
     </g>
     <g id="text_36">
      <!-- 0.3 -->
      <g transform="translate(33.186875 536.516128)scale(0.1 -0.1)">
       <use xlink:href="#DejaVuSans-30"/>
       <use x="63.623047" xlink:href="#DejaVuSans-2e"/>
       <use x="95.410156" xlink:href="#DejaVuSans-33"/>
      </g>
     </g>
    </g>
    <g id="ytick_13">
     <g id="line2d_71">
      <path clip-path="url(#pa6165a994f)" d="M 56.09 499.327181 
L 706.68 499.327181 
" style="fill:none;stroke:#b0b0b0;stroke-linecap:square;stroke-width:0.8;"/>
     </g>
     <g id="line2d_72">
      <g>
       <use style="stroke:#000000;stroke-width:0.8;" x="56.09" xlink:href="#m65813ac572" y="499.327181"/>
      </g>
     </g>
     <g id="text_37">
      <!-- 0.4 -->
      <g transform="translate(33.186875 503.1264)scale(0.1 -0.1)">
       <use xlink:href="#DejaVuSans-30"/>
       <use x="63.623047" xlink:href="#DejaVuSans-2e"/>
       <use x="95.410156" xlink:href="#DejaVuSans-34"/>
      </g>
     </g>
    </g>
    <g id="ytick_14">
     <g id="line2d_73">
      <path clip-path="url(#pa6165a994f)" d="M 56.09 465.937453 
L 706.68 465.937453 
" style="fill:none;stroke:#b0b0b0;stroke-linecap:square;stroke-width:0.8;"/>
     </g>
     <g id="line2d_74">
      <g>
       <use style="stroke:#000000;stroke-width:0.8;" x="56.09" xlink:href="#m65813ac572" y="465.937453"/>
      </g>
     </g>
     <g id="text_38">
      <!-- 0.5 -->
      <g transform="translate(33.186875 469.736672)scale(0.1 -0.1)">
       <use xlink:href="#DejaVuSans-30"/>
       <use x="63.623047" xlink:href="#DejaVuSans-2e"/>
       <use x="95.410156" xlink:href="#DejaVuSans-35"/>
      </g>
     </g>
    </g>
    <g id="ytick_15">
     <g id="line2d_75">
      <path clip-path="url(#pa6165a994f)" d="M 56.09 432.547725 
L 706.68 432.547725 
" style="fill:none;stroke:#b0b0b0;stroke-linecap:square;stroke-width:0.8;"/>
     </g>
     <g id="line2d_76">
      <g>
       <use style="stroke:#000000;stroke-width:0.8;" x="56.09" xlink:href="#m65813ac572" y="432.547725"/>
      </g>
     </g>
     <g id="text_39">
      <!-- 0.6 -->
      <g transform="translate(33.186875 436.346944)scale(0.1 -0.1)">
       <use xlink:href="#DejaVuSans-30"/>
       <use x="63.623047" xlink:href="#DejaVuSans-2e"/>
       <use x="95.410156" xlink:href="#DejaVuSans-36"/>
      </g>
     </g>
    </g>
    <g id="ytick_16">
     <g id="line2d_77">
      <path clip-path="url(#pa6165a994f)" d="M 56.09 399.157997 
L 706.68 399.157997 
" style="fill:none;stroke:#b0b0b0;stroke-linecap:square;stroke-width:0.8;"/>
     </g>
     <g id="line2d_78">
      <g>
       <use style="stroke:#000000;stroke-width:0.8;" x="56.09" xlink:href="#m65813ac572" y="399.157997"/>
      </g>
     </g>
     <g id="text_40">
      <!-- 0.7 -->
      <defs>
       <path d="M 8.203125 72.90625 
L 55.078125 72.90625 
L 55.078125 68.703125 
L 28.609375 0 
L 18.3125 0 
L 43.21875 64.59375 
L 8.203125 64.59375 
z
" id="DejaVuSans-37"/>
      </defs>
      <g transform="translate(33.186875 402.957216)scale(0.1 -0.1)">
       <use xlink:href="#DejaVuSans-30"/>
       <use x="63.623047" xlink:href="#DejaVuSans-2e"/>
       <use x="95.410156" xlink:href="#DejaVuSans-37"/>
      </g>
     </g>
    </g>
    <g id="text_41">
     <!-- Orientation (quaternion) -->
     <defs>
      <path d="M 39.40625 66.21875 
Q 28.65625 66.21875 22.328125 58.203125 
Q 16.015625 50.203125 16.015625 36.375 
Q 16.015625 22.609375 22.328125 14.59375 
Q 28.65625 6.59375 39.40625 6.59375 
Q 50.140625 6.59375 56.421875 14.59375 
Q 62.703125 22.609375 62.703125 36.375 
Q 62.703125 50.203125 56.421875 58.203125 
Q 50.140625 66.21875 39.40625 66.21875 
z
M 39.40625 74.21875 
Q 54.734375 74.21875 63.90625 63.9375 
Q 73.09375 53.65625 73.09375 36.375 
Q 73.09375 19.140625 63.90625 8.859375 
Q 54.734375 -1.421875 39.40625 -1.421875 
Q 24.03125 -1.421875 14.8125 8.828125 
Q 5.609375 19.09375 5.609375 36.375 
Q 5.609375 53.65625 14.8125 63.9375 
Q 24.03125 74.21875 39.40625 74.21875 
z
" id="DejaVuSans-4f"/>
      <path d="M 34.28125 27.484375 
Q 23.390625 27.484375 19.1875 25 
Q 14.984375 22.515625 14.984375 16.5 
Q 14.984375 11.71875 18.140625 8.90625 
Q 21.296875 6.109375 26.703125 6.109375 
Q 34.1875 6.109375 38.703125 11.40625 
Q 43.21875 16.703125 43.21875 25.484375 
L 43.21875 27.484375 
z
M 52.203125 31.203125 
L 52.203125 0 
L 43.21875 0 
L 43.21875 8.296875 
Q 40.140625 3.328125 35.546875 0.953125 
Q 30.953125 -1.421875 24.3125 -1.421875 
Q 15.921875 -1.421875 10.953125 3.296875 
Q 6 8.015625 6 15.921875 
Q 6 25.140625 12.171875 29.828125 
Q 18.359375 34.515625 30.609375 34.515625 
L 43.21875 34.515625 
L 43.21875 35.40625 
Q 43.21875 41.609375 39.140625 45 
Q 35.0625 48.390625 27.6875 48.390625 
Q 23 48.390625 18.546875 47.265625 
Q 14.109375 46.140625 10.015625 43.890625 
L 10.015625 52.203125 
Q 14.9375 54.109375 19.578125 55.046875 
Q 24.21875 56 28.609375 56 
Q 40.484375 56 46.34375 49.84375 
Q 52.203125 43.703125 52.203125 31.203125 
z
" id="DejaVuSans-61"/>
      <path d="M 14.796875 27.296875 
Q 14.796875 17.390625 18.875 11.75 
Q 22.953125 6.109375 30.078125 6.109375 
Q 37.203125 6.109375 41.296875 11.75 
Q 45.40625 17.390625 45.40625 27.296875 
Q 45.40625 37.203125 41.296875 42.84375 
Q 37.203125 48.484375 30.078125 48.484375 
Q 22.953125 48.484375 18.875 42.84375 
Q 14.796875 37.203125 14.796875 27.296875 
z
M 45.40625 8.203125 
Q 42.578125 3.328125 38.25 0.953125 
Q 33.9375 -1.421875 27.875 -1.421875 
Q 17.96875 -1.421875 11.734375 6.484375 
Q 5.515625 14.40625 5.515625 27.296875 
Q 5.515625 40.1875 11.734375 48.09375 
Q 17.96875 56 27.875 56 
Q 33.9375 56 38.25 53.625 
Q 42.578125 51.265625 45.40625 46.390625 
L 45.40625 54.6875 
L 54.390625 54.6875 
L 54.390625 -20.796875 
L 45.40625 -20.796875 
z
" id="DejaVuSans-71"/>
      <path d="M 8.5 21.578125 
L 8.5 54.6875 
L 17.484375 54.6875 
L 17.484375 21.921875 
Q 17.484375 14.15625 20.5 10.265625 
Q 23.53125 6.390625 29.59375 6.390625 
Q 36.859375 6.390625 41.078125 11.03125 
Q 45.3125 15.671875 45.3125 23.6875 
L 45.3125 54.6875 
L 54.296875 54.6875 
L 54.296875 0 
L 45.3125 0 
L 45.3125 8.40625 
Q 42.046875 3.421875 37.71875 1 
Q 33.40625 -1.421875 27.6875 -1.421875 
Q 18.265625 -1.421875 13.375 4.4375 
Q 8.5 10.296875 8.5 21.578125 
z
M 31.109375 56 
z
" id="DejaVuSans-75"/>
     </defs>
     <g transform="translate(18.7275 590.042344)rotate(-90)scale(0.1 -0.1)">
      <use xlink:href="#DejaVuSans-4f"/>
      <use x="78.710938" xlink:href="#DejaVuSans-72"/>
      <use x="119.824219" xlink:href="#DejaVuSans-69"/>
      <use x="147.607422" xlink:href="#DejaVuSans-65"/>
      <use x="209.130859" xlink:href="#DejaVuSans-6e"/>
      <use x="272.509766" xlink:href="#DejaVuSans-74"/>
      <use x="311.71875" xlink:href="#DejaVuSans-61"/>
      <use x="372.998047" xlink:href="#DejaVuSans-74"/>
      <use x="412.207031" xlink:href="#DejaVuSans-69"/>
      <use x="439.990234" xlink:href="#DejaVuSans-6f"/>
      <use x="501.171875" xlink:href="#DejaVuSans-6e"/>
      <use x="564.550781" xlink:href="#DejaVuSans-20"/>
      <use x="596.337891" xlink:href="#DejaVuSans-28"/>
      <use x="635.351562" xlink:href="#DejaVuSans-71"/>
      <use x="698.828125" xlink:href="#DejaVuSans-75"/>
      <use x="762.207031" xlink:href="#DejaVuSans-61"/>
      <use x="823.486328" xlink:href="#DejaVuSans-74"/>
      <use x="862.695312" xlink:href="#DejaVuSans-65"/>
      <use x="924.21875" xlink:href="#DejaVuSans-72"/>
      <use x="965.316406" xlink:href="#DejaVuSans-6e"/>
      <use x="1028.695312" xlink:href="#DejaVuSans-69"/>
      <use x="1056.478516" xlink:href="#DejaVuSans-6f"/>
      <use x="1117.660156" xlink:href="#DejaVuSans-6e"/>
      <use x="1181.039062" xlink:href="#DejaVuSans-29"/>
     </g>
    </g>
   </g>
   <g id="line2d_79">
    <path clip-path="url(#pa6165a994f)" d="M 85.662273 648.37287 
L 137.537907 648.449808 
L 140.467238 648.732749 
L 149.292512 649.891157 
L 152.722408 649.995418 
L 156.779231 649.928269 
L 158.754452 649.64884 
L 160.696748 649.112713 
L 162.703116 648.35097 
L 167.55036 646.169983 
L 169.509396 645.547277 
L 171.450629 645.221502 
L 174.676708 645.139237 
L 176.648828 645.226015 
L 178.634743 645.546953 
L 180.595386 646.146856 
L 183.513185 647.359491 
L 186.438293 648.577432 
L 188.397399 649.187975 
L 190.387396 649.564586 
L 192.334382 649.708527 
L 196.245465 649.664186 
L 198.182087 649.446114 
L 200.14857 649.025358 
L 203.078945 648.113294 
L 206.982392 646.832374 
L 208.929446 646.392722 
L 210.891201 646.155521 
L 213.836355 646.098763 
L 215.7764 646.162366 
L 217.744316 646.403371 
L 219.694256 646.836716 
L 227.52455 648.996755 
L 229.473008 649.246536 
L 232.386203 649.351802 
L 235.324446 649.305218 
L 238.251436 648.991188 
L 241.198618 648.363925 
L 247.048485 646.987574 
L 249.003251 646.737583 
L 251.925766 646.63142 
L 254.86472 646.680901 
L 256.80839 646.862736 
L 261.150478 647.625346 
L 265.04327 648.460238 
L 267.980311 648.84487 
L 270.920299 648.97778 
L 275.827373 648.904315 
L 278.756987 648.605959 
L 288.522743 647.219123 
L 292.440404 647.150425 
L 295.358232 647.236147 
L 298.284715 647.537211 
L 305.13438 648.428844 
L 309.056097 648.614584 
L 314.924361 648.581677 
L 318.820965 648.321887 
L 326.631429 647.639652 
L 330.545201 647.561768 
L 335.689876 647.662778 
L 346.436621 648.271015 
L 355.223073 648.248544 
L 361.131972 648.005207 
L 367.983898 647.75384 
L 374.817339 647.803912 
L 382.625298 648.003417 
L 436.386215 647.641462 
L 442.261743 647.555883 
L 449.167444 647.472749 
L 463.817521 647.406842 
L 469.678026 647.363915 
L 500.01116 647.391059 
L 509.770354 647.319459 
L 541.149877 647.42818 
L 552.870445 647.447488 
L 565.567706 647.49544 
L 594.92538 647.602516 
L 621.365887 647.686341 
L 655.601934 647.802616 
L 677.107727 647.880212 
L 677.107727 647.880212 
" style="fill:none;stroke:#ffa500;stroke-linecap:square;stroke-width:1.5;"/>
   </g>
   <g id="line2d_80">
    <path clip-path="url(#pa6165a994f)" d="M 85.662273 661.847871 
L 137.537907 661.92988 
L 140.467238 662.241621 
L 145.386618 663.137863 
L 148.318152 663.61792 
L 150.285124 663.806091 
L 154.83523 663.889565 
L 156.779231 663.811114 
L 158.754452 663.509226 
L 160.696748 662.950501 
L 163.659402 661.779243 
L 166.578438 660.601344 
L 168.522314 660.009595 
L 170.478833 659.639707 
L 172.752614 659.49276 
L 175.664524 659.499392 
L 177.658421 659.678297 
L 179.599402 660.110733 
L 181.568372 660.813236 
L 184.502198 662.163142 
L 187.431832 663.471049 
L 189.395138 664.088577 
L 191.350097 664.414804 
L 194.292863 664.494195 
L 196.245465 664.421608 
L 198.182087 664.14988 
L 200.14857 663.635372 
L 203.078945 662.561894 
L 206.982392 661.142757 
L 208.929446 660.677571 
L 210.891201 660.430976 
L 213.836355 660.372325 
L 216.765404 660.517977 
L 218.715119 660.843418 
L 220.661188 661.356501 
L 228.481761 663.808027 
L 230.453695 664.050599 
L 233.362699 664.111567 
L 236.301662 663.960323 
L 238.251436 663.637007 
L 241.198618 662.823064 
L 246.076142 661.310736 
L 248.01765 660.908953 
L 250.085554 660.692383 
L 252.903685 660.648072 
L 255.841556 660.763606 
L 257.79178 661.025705 
L 262.117525 661.950754 
L 266.032371 662.985956 
L 267.980311 663.345066 
L 269.937552 663.531534 
L 273.877502 663.56675 
L 276.809671 663.366372 
L 279.729953 662.843112 
L 287.542942 661.131437 
L 290.46691 660.935473 
L 294.370827 660.962085 
L 297.310297 661.210163 
L 300.240437 661.696494 
L 306.126103 662.756226 
L 309.056097 662.993816 
L 312.972179 663.018573 
L 315.898477 662.890366 
L 318.820965 662.553515 
L 326.631429 661.40608 
L 329.567271 661.271825 
L 334.709119 661.325338 
L 338.617861 661.652465 
L 345.45095 662.419619 
L 349.369353 662.569865 
L 355.223073 662.501841 
L 359.194218 662.237471 
L 366.997702 661.633567 
L 371.892513 661.594747 
L 375.796604 661.70763 
L 386.540873 662.249121 
L 394.372053 662.240227 
L 401.214738 662.005755 
L 407.062217 661.810023 
L 413.91772 661.843327 
L 425.631367 662.060442 
L 442.261743 661.929137 
L 449.167444 661.852459 
L 519.548529 661.856365 
L 533.235398 661.842173 
L 547.011804 661.82315 
L 620.389274 661.734402 
L 677.107727 661.64387 
L 677.107727 661.64387 
" style="fill:none;stroke:#800080;stroke-linecap:square;stroke-width:1.5;"/>
   </g>
   <g id="line2d_81">
    <path clip-path="url(#pa6165a994f)" d="M 85.662273 394.587052 
L 141.441482 394.484559 
L 152.722408 394.235652 
L 160.696748 394.337007 
L 174.676708 394.826781 
L 180.595386 394.720511 
L 191.350097 394.383031 
L 201.122375 394.439117 
L 214.798784 394.633087 
L 220.661188 394.483072 
L 229.473008 394.152937 
L 238.251436 394.1631 
L 256.80839 394.322312 
L 275.827373 393.963802 
L 300.240437 393.968762 
L 311.009819 393.799483 
L 344.484147 393.696033 
L 356.256259 393.664037 
L 427.593202 393.610039 
L 455.999472 393.713857 
L 487.30995 393.83097 
L 515.638892 393.937894 
L 536.151791 394.015197 
L 579.263311 394.112308 
L 677.107727 394.210433 
L 677.107727 394.210433 
" style="fill:none;stroke:#00ffff;stroke-linecap:square;stroke-width:1.5;"/>
   </g>
   <g id="line2d_82">
    <path clip-path="url(#pa6165a994f)" d="M 85.662273 632.886093 
L 133.656661 632.886093 
L 134.600348 648.37287 
L 677.107727 648.37287 
L 677.107727 648.37287 
" style="fill:none;stroke:#ffa500;stroke-dasharray:5.55,2.4;stroke-dashoffset:0;stroke-width:1.5;"/>
   </g>
   <g id="line2d_83">
    <path clip-path="url(#pa6165a994f)" d="M 85.662273 632.886093 
L 133.656661 632.886093 
L 134.600348 661.847871 
L 677.107727 661.847871 
L 677.107727 661.847871 
" style="fill:none;stroke:#800080;stroke-dasharray:5.55,2.4;stroke-dashoffset:0;stroke-width:1.5;"/>
   </g>
   <g id="line2d_84">
    <path clip-path="url(#pa6165a994f)" d="M 85.662273 632.886093 
L 133.656661 632.886093 
L 134.600348 394.587052 
L 677.107727 394.587052 
L 677.107727 394.587052 
" style="fill:none;stroke:#00ffff;stroke-dasharray:5.55,2.4;stroke-dashoffset:0;stroke-width:1.5;"/>
   </g>
   <g id="patch_9">
    <path d="M 56.09 678.04 
L 56.09 380.04 
" style="fill:none;stroke:#000000;stroke-linecap:square;stroke-linejoin:miter;stroke-width:0.8;"/>
   </g>
   <g id="patch_10">
    <path d="M 706.68 678.04 
L 706.68 380.04 
" style="fill:none;stroke:#000000;stroke-linecap:square;stroke-linejoin:miter;stroke-width:0.8;"/>
   </g>
   <g id="patch_11">
    <path d="M 56.09 678.04 
L 706.68 678.04 
" style="fill:none;stroke:#000000;stroke-linecap:square;stroke-linejoin:miter;stroke-width:0.8;"/>
   </g>
   <g id="patch_12">
    <path d="M 56.09 380.04 
L 706.68 380.04 
" style="fill:none;stroke:#000000;stroke-linecap:square;stroke-linejoin:miter;stroke-width:0.8;"/>
   </g>
   <g id="text_42">
    <!-- Gripper Orientation over Time -->
    <g transform="translate(290.986562 374.04)scale(0.12 -0.12)">
     <use xlink:href="#DejaVuSans-47"/>
     <use x="77.490234" xlink:href="#DejaVuSans-72"/>
     <use x="118.603516" xlink:href="#DejaVuSans-69"/>
     <use x="146.386719" xlink:href="#DejaVuSans-70"/>
     <use x="209.863281" xlink:href="#DejaVuSans-70"/>
     <use x="273.339844" xlink:href="#DejaVuSans-65"/>
     <use x="334.863281" xlink:href="#DejaVuSans-72"/>
     <use x="375.976562" xlink:href="#DejaVuSans-20"/>
     <use x="407.763672" xlink:href="#DejaVuSans-4f"/>
     <use x="486.474609" xlink:href="#DejaVuSans-72"/>
     <use x="527.587891" xlink:href="#DejaVuSans-69"/>
     <use x="555.371094" xlink:href="#DejaVuSans-65"/>
     <use x="616.894531" xlink:href="#DejaVuSans-6e"/>
     <use x="680.273438" xlink:href="#DejaVuSans-74"/>
     <use x="719.482422" xlink:href="#DejaVuSans-61"/>
     <use x="780.761719" xlink:href="#DejaVuSans-74"/>
     <use x="819.970703" xlink:href="#DejaVuSans-69"/>
     <use x="847.753906" xlink:href="#DejaVuSans-6f"/>
     <use x="908.935547" xlink:href="#DejaVuSans-6e"/>
     <use x="972.314453" xlink:href="#DejaVuSans-20"/>
     <use x="1004.101562" xlink:href="#DejaVuSans-6f"/>
     <use x="1065.283203" xlink:href="#DejaVuSans-76"/>
     <use x="1124.462891" xlink:href="#DejaVuSans-65"/>
     <use x="1185.986328" xlink:href="#DejaVuSans-72"/>
     <use x="1227.099609" xlink:href="#DejaVuSans-20"/>
     <use x="1258.886719" xlink:href="#DejaVuSans-54"/>
     <use x="1319.923828" xlink:href="#DejaVuSans-69"/>
     <use x="1347.707031" xlink:href="#DejaVuSans-6d"/>
     <use x="1445.119141" xlink:href="#DejaVuSans-65"/>
    </g>
   </g>
   <g id="legend_2">
    <g id="patch_13">
     <path d="M 559.569063 574.574375 
L 699.68 574.574375 
Q 701.68 574.574375 701.68 572.574375 
L 701.68 485.505625 
Q 701.68 483.505625 699.68 483.505625 
L 559.569063 483.505625 
Q 557.569063 483.505625 557.569063 485.505625 
L 557.569063 572.574375 
Q 557.569063 574.574375 559.569063 574.574375 
z
" style="fill:#ffffff;opacity:0.8;stroke:#cccccc;stroke-linejoin:miter;"/>
    </g>
    <g id="line2d_85">
     <path d="M 561.569063 491.604062 
L 581.569063 491.604062 
" style="fill:none;stroke:#ffa500;stroke-linecap:square;stroke-width:1.5;"/>
    </g>
    <g id="line2d_86"/>
    <g id="text_43">
     <!-- Orientation X -->
     <g transform="translate(589.569063 495.104062)scale(0.1 -0.1)">
      <use xlink:href="#DejaVuSans-4f"/>
      <use x="78.710938" xlink:href="#DejaVuSans-72"/>
      <use x="119.824219" xlink:href="#DejaVuSans-69"/>
      <use x="147.607422" xlink:href="#DejaVuSans-65"/>
      <use x="209.130859" xlink:href="#DejaVuSans-6e"/>
      <use x="272.509766" xlink:href="#DejaVuSans-74"/>
      <use x="311.71875" xlink:href="#DejaVuSans-61"/>
      <use x="372.998047" xlink:href="#DejaVuSans-74"/>
      <use x="412.207031" xlink:href="#DejaVuSans-69"/>
      <use x="439.990234" xlink:href="#DejaVuSans-6f"/>
      <use x="501.171875" xlink:href="#DejaVuSans-6e"/>
      <use x="564.550781" xlink:href="#DejaVuSans-20"/>
      <use x="596.337891" xlink:href="#DejaVuSans-58"/>
     </g>
    </g>
    <g id="line2d_87">
     <path d="M 561.569063 506.282187 
L 581.569063 506.282187 
" style="fill:none;stroke:#800080;stroke-linecap:square;stroke-width:1.5;"/>
    </g>
    <g id="line2d_88"/>
    <g id="text_44">
     <!-- Orientation Y -->
     <g transform="translate(589.569063 509.782187)scale(0.1 -0.1)">
      <use xlink:href="#DejaVuSans-4f"/>
      <use x="78.710938" xlink:href="#DejaVuSans-72"/>
      <use x="119.824219" xlink:href="#DejaVuSans-69"/>
      <use x="147.607422" xlink:href="#DejaVuSans-65"/>
      <use x="209.130859" xlink:href="#DejaVuSans-6e"/>
      <use x="272.509766" xlink:href="#DejaVuSans-74"/>
      <use x="311.71875" xlink:href="#DejaVuSans-61"/>
      <use x="372.998047" xlink:href="#DejaVuSans-74"/>
      <use x="412.207031" xlink:href="#DejaVuSans-69"/>
      <use x="439.990234" xlink:href="#DejaVuSans-6f"/>
      <use x="501.171875" xlink:href="#DejaVuSans-6e"/>
      <use x="564.550781" xlink:href="#DejaVuSans-20"/>
      <use x="596.337891" xlink:href="#DejaVuSans-59"/>
     </g>
    </g>
    <g id="line2d_89">
     <path d="M 561.569063 520.960312 
L 581.569063 520.960312 
" style="fill:none;stroke:#00ffff;stroke-linecap:square;stroke-width:1.5;"/>
    </g>
    <g id="line2d_90"/>
    <g id="text_45">
     <!-- Orientation Z -->
     <g transform="translate(589.569063 524.460312)scale(0.1 -0.1)">
      <use xlink:href="#DejaVuSans-4f"/>
      <use x="78.710938" xlink:href="#DejaVuSans-72"/>
      <use x="119.824219" xlink:href="#DejaVuSans-69"/>
      <use x="147.607422" xlink:href="#DejaVuSans-65"/>
      <use x="209.130859" xlink:href="#DejaVuSans-6e"/>
      <use x="272.509766" xlink:href="#DejaVuSans-74"/>
      <use x="311.71875" xlink:href="#DejaVuSans-61"/>
      <use x="372.998047" xlink:href="#DejaVuSans-74"/>
      <use x="412.207031" xlink:href="#DejaVuSans-69"/>
      <use x="439.990234" xlink:href="#DejaVuSans-6f"/>
      <use x="501.171875" xlink:href="#DejaVuSans-6e"/>
      <use x="564.550781" xlink:href="#DejaVuSans-20"/>
      <use x="596.337891" xlink:href="#DejaVuSans-5a"/>
     </g>
    </g>
    <g id="line2d_91">
     <path d="M 561.569063 535.638438 
L 581.569063 535.638438 
" style="fill:none;stroke:#ffa500;stroke-dasharray:5.55,2.4;stroke-dashoffset:0;stroke-width:1.5;"/>
    </g>
    <g id="line2d_92"/>
    <g id="text_46">
     <!-- Desired X Orientation -->
     <g transform="translate(589.569063 539.138438)scale(0.1 -0.1)">
      <use xlink:href="#DejaVuSans-44"/>
      <use x="77.001953" xlink:href="#DejaVuSans-65"/>
      <use x="138.525391" xlink:href="#DejaVuSans-73"/>
      <use x="190.625" xlink:href="#DejaVuSans-69"/>
      <use x="218.408203" xlink:href="#DejaVuSans-72"/>
      <use x="259.490234" xlink:href="#DejaVuSans-65"/>
      <use x="321.013672" xlink:href="#DejaVuSans-64"/>
      <use x="384.490234" xlink:href="#DejaVuSans-20"/>
      <use x="416.277344" xlink:href="#DejaVuSans-58"/>
      <use x="484.783203" xlink:href="#DejaVuSans-20"/>
      <use x="516.570312" xlink:href="#DejaVuSans-4f"/>
      <use x="595.28125" xlink:href="#DejaVuSans-72"/>
      <use x="636.394531" xlink:href="#DejaVuSans-69"/>
      <use x="664.177734" xlink:href="#DejaVuSans-65"/>
      <use x="725.701172" xlink:href="#DejaVuSans-6e"/>
      <use x="789.080078" xlink:href="#DejaVuSans-74"/>
      <use x="828.289062" xlink:href="#DejaVuSans-61"/>
      <use x="889.568359" xlink:href="#DejaVuSans-74"/>
      <use x="928.777344" xlink:href="#DejaVuSans-69"/>
      <use x="956.560547" xlink:href="#DejaVuSans-6f"/>
      <use x="1017.742188" xlink:href="#DejaVuSans-6e"/>
     </g>
    </g>
    <g id="line2d_93">
     <path d="M 561.569063 550.316563 
L 581.569063 550.316563 
" style="fill:none;stroke:#800080;stroke-dasharray:5.55,2.4;stroke-dashoffset:0;stroke-width:1.5;"/>
    </g>
    <g id="line2d_94"/>
    <g id="text_47">
     <!-- Desired Y Orientation -->
     <g transform="translate(589.569063 553.816563)scale(0.1 -0.1)">
      <use xlink:href="#DejaVuSans-44"/>
      <use x="77.001953" xlink:href="#DejaVuSans-65"/>
      <use x="138.525391" xlink:href="#DejaVuSans-73"/>
      <use x="190.625" xlink:href="#DejaVuSans-69"/>
      <use x="218.408203" xlink:href="#DejaVuSans-72"/>
      <use x="259.490234" xlink:href="#DejaVuSans-65"/>
      <use x="321.013672" xlink:href="#DejaVuSans-64"/>
      <use x="384.490234" xlink:href="#DejaVuSans-20"/>
      <use x="416.277344" xlink:href="#DejaVuSans-59"/>
      <use x="477.361328" xlink:href="#DejaVuSans-20"/>
      <use x="509.148438" xlink:href="#DejaVuSans-4f"/>
      <use x="587.859375" xlink:href="#DejaVuSans-72"/>
      <use x="628.972656" xlink:href="#DejaVuSans-69"/>
      <use x="656.755859" xlink:href="#DejaVuSans-65"/>
      <use x="718.279297" xlink:href="#DejaVuSans-6e"/>
      <use x="781.658203" xlink:href="#DejaVuSans-74"/>
      <use x="820.867188" xlink:href="#DejaVuSans-61"/>
      <use x="882.146484" xlink:href="#DejaVuSans-74"/>
      <use x="921.355469" xlink:href="#DejaVuSans-69"/>
      <use x="949.138672" xlink:href="#DejaVuSans-6f"/>
      <use x="1010.320312" xlink:href="#DejaVuSans-6e"/>
     </g>
    </g>
    <g id="line2d_95">
     <path d="M 561.569063 564.994688 
L 581.569063 564.994688 
" style="fill:none;stroke:#00ffff;stroke-dasharray:5.55,2.4;stroke-dashoffset:0;stroke-width:1.5;"/>
    </g>
    <g id="line2d_96"/>
    <g id="text_48">
     <!-- Desired Z Orientation -->
     <g transform="translate(589.569063 568.494688)scale(0.1 -0.1)">
      <use xlink:href="#DejaVuSans-44"/>
      <use x="77.001953" xlink:href="#DejaVuSans-65"/>
      <use x="138.525391" xlink:href="#DejaVuSans-73"/>
      <use x="190.625" xlink:href="#DejaVuSans-69"/>
      <use x="218.408203" xlink:href="#DejaVuSans-72"/>
      <use x="259.490234" xlink:href="#DejaVuSans-65"/>
      <use x="321.013672" xlink:href="#DejaVuSans-64"/>
      <use x="384.490234" xlink:href="#DejaVuSans-20"/>
      <use x="416.277344" xlink:href="#DejaVuSans-5a"/>
      <use x="484.783203" xlink:href="#DejaVuSans-20"/>
      <use x="516.570312" xlink:href="#DejaVuSans-4f"/>
      <use x="595.28125" xlink:href="#DejaVuSans-72"/>
      <use x="636.394531" xlink:href="#DejaVuSans-69"/>
      <use x="664.177734" xlink:href="#DejaVuSans-65"/>
      <use x="725.701172" xlink:href="#DejaVuSans-6e"/>
      <use x="789.080078" xlink:href="#DejaVuSans-74"/>
      <use x="828.289062" xlink:href="#DejaVuSans-61"/>
      <use x="889.568359" xlink:href="#DejaVuSans-74"/>
      <use x="928.777344" xlink:href="#DejaVuSans-69"/>
      <use x="956.560547" xlink:href="#DejaVuSans-6f"/>
      <use x="1017.742188" xlink:href="#DejaVuSans-6e"/>
     </g>
    </g>
   </g>
  </g>
 </g>
 <defs>
  <clipPath id="pa0e5aad0bc">
   <rect height="298" width="650.59" x="56.09" y="25.44"/>
  </clipPath>
  <clipPath id="pa6165a994f">
   <rect height="298" width="650.59" x="56.09" y="380.04"/>
  </clipPath>
 </defs>
</svg>
