<?xml version="1.0" encoding="utf-8" standalone="no"?>
<!DOCTYPE svg PUBLIC "-//W3C//DTD SVG 1.1//EN"
  "http://www.w3.org/Graphics/SVG/1.1/DTD/svg11.dtd">
<!-- Created with matplotlib (http://matplotlib.org/) -->
<svg height="720pt" version="1.1" viewBox="0 0 720 720" width="720pt" xmlns="http://www.w3.org/2000/svg" xmlns:xlink="http://www.w3.org/1999/xlink">
 <defs>
  <style type="text/css">
*{stroke-linecap:butt;stroke-linejoin:round;}
  </style>
 </defs>
 <g id="figure_1">
  <g id="patch_1">
   <path d="M 0 720 
L 720 720 
L 720 0 
L 0 0 
z
" style="fill:#ffffff;"/>
  </g>
  <g id="axes_1">
   <g id="patch_2">
    <path d="M 56 323.44 
L 706.68 323.44 
L 706.68 25.44 
L 56 25.44 
z
" style="fill:#ffffff;"/>
   </g>
   <g id="matplotlib.axis_1">
    <g id="xtick_1">
     <g id="line2d_1">
      <path clip-path="url(#pc1fd64d664)" d="M 84.782484 323.44 
L 84.782484 25.44 
" style="fill:none;stroke:#b0b0b0;stroke-linecap:square;stroke-width:0.8;"/>
     </g>
     <g id="line2d_2">
      <defs>
       <path d="M 0 0 
L 0 3.5 
" id="mb3a1cc7044" style="stroke:#000000;stroke-width:0.8;"/>
      </defs>
      <g>
       <use style="stroke:#000000;stroke-width:0.8;" x="84.782484" xlink:href="#mb3a1cc7044" y="323.44"/>
      </g>
     </g>
     <g id="text_1">
      <!-- 0 -->
      <defs>
       <path d="M 31.78125 66.40625 
Q 24.171875 66.40625 20.328125 58.90625 
Q 16.5 51.421875 16.5 36.375 
Q 16.5 21.390625 20.328125 13.890625 
Q 24.171875 6.390625 31.78125 6.390625 
Q 39.453125 6.390625 43.28125 13.890625 
Q 47.125 21.390625 47.125 36.375 
Q 47.125 51.421875 43.28125 58.90625 
Q 39.453125 66.40625 31.78125 66.40625 
z
M 31.78125 74.21875 
Q 44.046875 74.21875 50.515625 64.515625 
Q 56.984375 54.828125 56.984375 36.375 
Q 56.984375 17.96875 50.515625 8.265625 
Q 44.046875 -1.421875 31.78125 -1.421875 
Q 19.53125 -1.421875 13.0625 8.265625 
Q 6.59375 17.96875 6.59375 36.375 
Q 6.59375 54.828125 13.0625 64.515625 
Q 19.53125 74.21875 31.78125 74.21875 
z
" id="DejaVuSans-30"/>
      </defs>
      <g transform="translate(81.601234 338.038438)scale(0.1 -0.1)">
       <use xlink:href="#DejaVuSans-30"/>
      </g>
     </g>
    </g>
    <g id="xtick_2">
     <g id="line2d_3">
      <path clip-path="url(#pc1fd64d664)" d="M 182.505103 323.44 
L 182.505103 25.44 
" style="fill:none;stroke:#b0b0b0;stroke-linecap:square;stroke-width:0.8;"/>
     </g>
     <g id="line2d_4">
      <g>
       <use style="stroke:#000000;stroke-width:0.8;" x="182.505103" xlink:href="#mb3a1cc7044" y="323.44"/>
      </g>
     </g>
     <g id="text_2">
      <!-- 10 -->
      <defs>
       <path d="M 12.40625 8.296875 
L 28.515625 8.296875 
L 28.515625 63.921875 
L 10.984375 60.40625 
L 10.984375 69.390625 
L 28.421875 72.90625 
L 38.28125 72.90625 
L 38.28125 8.296875 
L 54.390625 8.296875 
L 54.390625 0 
L 12.40625 0 
z
" id="DejaVuSans-31"/>
      </defs>
      <g transform="translate(176.142603 338.038438)scale(0.1 -0.1)">
       <use xlink:href="#DejaVuSans-31"/>
       <use x="63.623047" xlink:href="#DejaVuSans-30"/>
      </g>
     </g>
    </g>
    <g id="xtick_3">
     <g id="line2d_5">
      <path clip-path="url(#pc1fd64d664)" d="M 280.227721 323.44 
L 280.227721 25.44 
" style="fill:none;stroke:#b0b0b0;stroke-linecap:square;stroke-width:0.8;"/>
     </g>
     <g id="line2d_6">
      <g>
       <use style="stroke:#000000;stroke-width:0.8;" x="280.227721" xlink:href="#mb3a1cc7044" y="323.44"/>
      </g>
     </g>
     <g id="text_3">
      <!-- 20 -->
      <defs>
       <path d="M 19.1875 8.296875 
L 53.609375 8.296875 
L 53.609375 0 
L 7.328125 0 
L 7.328125 8.296875 
Q 12.9375 14.109375 22.625 23.890625 
Q 32.328125 33.6875 34.8125 36.53125 
Q 39.546875 41.84375 41.421875 45.53125 
Q 43.3125 49.21875 43.3125 52.78125 
Q 43.3125 58.59375 39.234375 62.25 
Q 35.15625 65.921875 28.609375 65.921875 
Q 23.96875 65.921875 18.8125 64.3125 
Q 13.671875 62.703125 7.8125 59.421875 
L 7.8125 69.390625 
Q 13.765625 71.78125 18.9375 73 
Q 24.125 74.21875 28.421875 74.21875 
Q 39.75 74.21875 46.484375 68.546875 
Q 53.21875 62.890625 53.21875 53.421875 
Q 53.21875 48.921875 51.53125 44.890625 
Q 49.859375 40.875 45.40625 35.40625 
Q 44.1875 33.984375 37.640625 27.21875 
Q 31.109375 20.453125 19.1875 8.296875 
z
" id="DejaVuSans-32"/>
      </defs>
      <g transform="translate(273.865221 338.038438)scale(0.1 -0.1)">
       <use xlink:href="#DejaVuSans-32"/>
       <use x="63.623047" xlink:href="#DejaVuSans-30"/>
      </g>
     </g>
    </g>
    <g id="xtick_4">
     <g id="line2d_7">
      <path clip-path="url(#pc1fd64d664)" d="M 377.950339 323.44 
L 377.950339 25.44 
" style="fill:none;stroke:#b0b0b0;stroke-linecap:square;stroke-width:0.8;"/>
     </g>
     <g id="line2d_8">
      <g>
       <use style="stroke:#000000;stroke-width:0.8;" x="377.950339" xlink:href="#mb3a1cc7044" y="323.44"/>
      </g>
     </g>
     <g id="text_4">
      <!-- 30 -->
      <defs>
       <path d="M 40.578125 39.3125 
Q 47.65625 37.796875 51.625 33 
Q 55.609375 28.21875 55.609375 21.1875 
Q 55.609375 10.40625 48.1875 4.484375 
Q 40.765625 -1.421875 27.09375 -1.421875 
Q 22.515625 -1.421875 17.65625 -0.515625 
Q 12.796875 0.390625 7.625 2.203125 
L 7.625 11.71875 
Q 11.71875 9.328125 16.59375 8.109375 
Q 21.484375 6.890625 26.8125 6.890625 
Q 36.078125 6.890625 40.9375 10.546875 
Q 45.796875 14.203125 45.796875 21.1875 
Q 45.796875 27.640625 41.28125 31.265625 
Q 36.765625 34.90625 28.71875 34.90625 
L 20.21875 34.90625 
L 20.21875 43.015625 
L 29.109375 43.015625 
Q 36.375 43.015625 40.234375 45.921875 
Q 44.09375 48.828125 44.09375 54.296875 
Q 44.09375 59.90625 40.109375 62.90625 
Q 36.140625 65.921875 28.71875 65.921875 
Q 24.65625 65.921875 20.015625 65.03125 
Q 15.375 64.15625 9.8125 62.3125 
L 9.8125 71.09375 
Q 15.4375 72.65625 20.34375 73.4375 
Q 25.25 74.21875 29.59375 74.21875 
Q 40.828125 74.21875 47.359375 69.109375 
Q 53.90625 64.015625 53.90625 55.328125 
Q 53.90625 49.265625 50.4375 45.09375 
Q 46.96875 40.921875 40.578125 39.3125 
z
" id="DejaVuSans-33"/>
      </defs>
      <g transform="translate(371.587839 338.038438)scale(0.1 -0.1)">
       <use xlink:href="#DejaVuSans-33"/>
       <use x="63.623047" xlink:href="#DejaVuSans-30"/>
      </g>
     </g>
    </g>
    <g id="xtick_5">
     <g id="line2d_9">
      <path clip-path="url(#pc1fd64d664)" d="M 475.672957 323.44 
L 475.672957 25.44 
" style="fill:none;stroke:#b0b0b0;stroke-linecap:square;stroke-width:0.8;"/>
     </g>
     <g id="line2d_10">
      <g>
       <use style="stroke:#000000;stroke-width:0.8;" x="475.672957" xlink:href="#mb3a1cc7044" y="323.44"/>
      </g>
     </g>
     <g id="text_5">
      <!-- 40 -->
      <defs>
       <path d="M 37.796875 64.3125 
L 12.890625 25.390625 
L 37.796875 25.390625 
z
M 35.203125 72.90625 
L 47.609375 72.90625 
L 47.609375 25.390625 
L 58.015625 25.390625 
L 58.015625 17.1875 
L 47.609375 17.1875 
L 47.609375 0 
L 37.796875 0 
L 37.796875 17.1875 
L 4.890625 17.1875 
L 4.890625 26.703125 
z
" id="DejaVuSans-34"/>
      </defs>
      <g transform="translate(469.310457 338.038438)scale(0.1 -0.1)">
       <use xlink:href="#DejaVuSans-34"/>
       <use x="63.623047" xlink:href="#DejaVuSans-30"/>
      </g>
     </g>
    </g>
    <g id="xtick_6">
     <g id="line2d_11">
      <path clip-path="url(#pc1fd64d664)" d="M 573.395576 323.44 
L 573.395576 25.44 
" style="fill:none;stroke:#b0b0b0;stroke-linecap:square;stroke-width:0.8;"/>
     </g>
     <g id="line2d_12">
      <g>
       <use style="stroke:#000000;stroke-width:0.8;" x="573.395576" xlink:href="#mb3a1cc7044" y="323.44"/>
      </g>
     </g>
     <g id="text_6">
      <!-- 50 -->
      <defs>
       <path d="M 10.796875 72.90625 
L 49.515625 72.90625 
L 49.515625 64.59375 
L 19.828125 64.59375 
L 19.828125 46.734375 
Q 21.96875 47.46875 24.109375 47.828125 
Q 26.265625 48.1875 28.421875 48.1875 
Q 40.625 48.1875 47.75 41.5 
Q 54.890625 34.8125 54.890625 23.390625 
Q 54.890625 11.625 47.5625 5.09375 
Q 40.234375 -1.421875 26.90625 -1.421875 
Q 22.3125 -1.421875 17.546875 -0.640625 
Q 12.796875 0.140625 7.71875 1.703125 
L 7.71875 11.625 
Q 12.109375 9.234375 16.796875 8.0625 
Q 21.484375 6.890625 26.703125 6.890625 
Q 35.15625 6.890625 40.078125 11.328125 
Q 45.015625 15.765625 45.015625 23.390625 
Q 45.015625 31 40.078125 35.4375 
Q 35.15625 39.890625 26.703125 39.890625 
Q 22.75 39.890625 18.8125 39.015625 
Q 14.890625 38.140625 10.796875 36.28125 
z
" id="DejaVuSans-35"/>
      </defs>
      <g transform="translate(567.033076 338.038438)scale(0.1 -0.1)">
       <use xlink:href="#DejaVuSans-35"/>
       <use x="63.623047" xlink:href="#DejaVuSans-30"/>
      </g>
     </g>
    </g>
    <g id="xtick_7">
     <g id="line2d_13">
      <path clip-path="url(#pc1fd64d664)" d="M 671.118194 323.44 
L 671.118194 25.44 
" style="fill:none;stroke:#b0b0b0;stroke-linecap:square;stroke-width:0.8;"/>
     </g>
     <g id="line2d_14">
      <g>
       <use style="stroke:#000000;stroke-width:0.8;" x="671.118194" xlink:href="#mb3a1cc7044" y="323.44"/>
      </g>
     </g>
     <g id="text_7">
      <!-- 60 -->
      <defs>
       <path d="M 33.015625 40.375 
Q 26.375 40.375 22.484375 35.828125 
Q 18.609375 31.296875 18.609375 23.390625 
Q 18.609375 15.53125 22.484375 10.953125 
Q 26.375 6.390625 33.015625 6.390625 
Q 39.65625 6.390625 43.53125 10.953125 
Q 47.40625 15.53125 47.40625 23.390625 
Q 47.40625 31.296875 43.53125 35.828125 
Q 39.65625 40.375 33.015625 40.375 
z
M 52.59375 71.296875 
L 52.59375 62.3125 
Q 48.875 64.0625 45.09375 64.984375 
Q 41.3125 65.921875 37.59375 65.921875 
Q 27.828125 65.921875 22.671875 59.328125 
Q 17.53125 52.734375 16.796875 39.40625 
Q 19.671875 43.65625 24.015625 45.921875 
Q 28.375 48.1875 33.59375 48.1875 
Q 44.578125 48.1875 50.953125 41.515625 
Q 57.328125 34.859375 57.328125 23.390625 
Q 57.328125 12.15625 50.6875 5.359375 
Q 44.046875 -1.421875 33.015625 -1.421875 
Q 20.359375 -1.421875 13.671875 8.265625 
Q 6.984375 17.96875 6.984375 36.375 
Q 6.984375 53.65625 15.1875 63.9375 
Q 23.390625 74.21875 37.203125 74.21875 
Q 40.921875 74.21875 44.703125 73.484375 
Q 48.484375 72.75 52.59375 71.296875 
z
" id="DejaVuSans-36"/>
      </defs>
      <g transform="translate(664.755694 338.038438)scale(0.1 -0.1)">
       <use xlink:href="#DejaVuSans-36"/>
       <use x="63.623047" xlink:href="#DejaVuSans-30"/>
      </g>
     </g>
    </g>
    <g id="text_8">
     <!-- Time (seconds) -->
     <defs>
      <path d="M -0.296875 72.90625 
L 61.375 72.90625 
L 61.375 64.59375 
L 35.5 64.59375 
L 35.5 0 
L 25.59375 0 
L 25.59375 64.59375 
L -0.296875 64.59375 
z
" id="DejaVuSans-54"/>
      <path d="M 9.421875 54.6875 
L 18.40625 54.6875 
L 18.40625 0 
L 9.421875 0 
z
M 9.421875 75.984375 
L 18.40625 75.984375 
L 18.40625 64.59375 
L 9.421875 64.59375 
z
" id="DejaVuSans-69"/>
      <path d="M 52 44.1875 
Q 55.375 50.25 60.0625 53.125 
Q 64.75 56 71.09375 56 
Q 79.640625 56 84.28125 50.015625 
Q 88.921875 44.046875 88.921875 33.015625 
L 88.921875 0 
L 79.890625 0 
L 79.890625 32.71875 
Q 79.890625 40.578125 77.09375 44.375 
Q 74.3125 48.1875 68.609375 48.1875 
Q 61.625 48.1875 57.5625 43.546875 
Q 53.515625 38.921875 53.515625 30.90625 
L 53.515625 0 
L 44.484375 0 
L 44.484375 32.71875 
Q 44.484375 40.625 41.703125 44.40625 
Q 38.921875 48.1875 33.109375 48.1875 
Q 26.21875 48.1875 22.15625 43.53125 
Q 18.109375 38.875 18.109375 30.90625 
L 18.109375 0 
L 9.078125 0 
L 9.078125 54.6875 
L 18.109375 54.6875 
L 18.109375 46.1875 
Q 21.1875 51.21875 25.484375 53.609375 
Q 29.78125 56 35.6875 56 
Q 41.65625 56 45.828125 52.96875 
Q 50 49.953125 52 44.1875 
z
" id="DejaVuSans-6d"/>
      <path d="M 56.203125 29.59375 
L 56.203125 25.203125 
L 14.890625 25.203125 
Q 15.484375 15.921875 20.484375 11.0625 
Q 25.484375 6.203125 34.421875 6.203125 
Q 39.59375 6.203125 44.453125 7.46875 
Q 49.3125 8.734375 54.109375 11.28125 
L 54.109375 2.78125 
Q 49.265625 0.734375 44.1875 -0.34375 
Q 39.109375 -1.421875 33.890625 -1.421875 
Q 20.796875 -1.421875 13.15625 6.1875 
Q 5.515625 13.8125 5.515625 26.8125 
Q 5.515625 40.234375 12.765625 48.109375 
Q 20.015625 56 32.328125 56 
Q 43.359375 56 49.78125 48.890625 
Q 56.203125 41.796875 56.203125 29.59375 
z
M 47.21875 32.234375 
Q 47.125 39.59375 43.09375 43.984375 
Q 39.0625 48.390625 32.421875 48.390625 
Q 24.90625 48.390625 20.390625 44.140625 
Q 15.875 39.890625 15.1875 32.171875 
z
" id="DejaVuSans-65"/>
      <path id="DejaVuSans-20"/>
      <path d="M 31 75.875 
Q 24.46875 64.65625 21.28125 53.65625 
Q 18.109375 42.671875 18.109375 31.390625 
Q 18.109375 20.125 21.3125 9.0625 
Q 24.515625 -2 31 -13.1875 
L 23.1875 -13.1875 
Q 15.875 -1.703125 12.234375 9.375 
Q 8.59375 20.453125 8.59375 31.390625 
Q 8.59375 42.28125 12.203125 53.3125 
Q 15.828125 64.359375 23.1875 75.875 
z
" id="DejaVuSans-28"/>
      <path d="M 44.28125 53.078125 
L 44.28125 44.578125 
Q 40.484375 46.53125 36.375 47.5 
Q 32.28125 48.484375 27.875 48.484375 
Q 21.1875 48.484375 17.84375 46.4375 
Q 14.5 44.390625 14.5 40.28125 
Q 14.5 37.15625 16.890625 35.375 
Q 19.28125 33.59375 26.515625 31.984375 
L 29.59375 31.296875 
Q 39.15625 29.25 43.1875 25.515625 
Q 47.21875 21.78125 47.21875 15.09375 
Q 47.21875 7.46875 41.1875 3.015625 
Q 35.15625 -1.421875 24.609375 -1.421875 
Q 20.21875 -1.421875 15.453125 -0.5625 
Q 10.6875 0.296875 5.421875 2 
L 5.421875 11.28125 
Q 10.40625 8.6875 15.234375 7.390625 
Q 20.0625 6.109375 24.8125 6.109375 
Q 31.15625 6.109375 34.5625 8.28125 
Q 37.984375 10.453125 37.984375 14.40625 
Q 37.984375 18.0625 35.515625 20.015625 
Q 33.0625 21.96875 24.703125 23.78125 
L 21.578125 24.515625 
Q 13.234375 26.265625 9.515625 29.90625 
Q 5.8125 33.546875 5.8125 39.890625 
Q 5.8125 47.609375 11.28125 51.796875 
Q 16.75 56 26.8125 56 
Q 31.78125 56 36.171875 55.265625 
Q 40.578125 54.546875 44.28125 53.078125 
z
" id="DejaVuSans-73"/>
      <path d="M 48.78125 52.59375 
L 48.78125 44.1875 
Q 44.96875 46.296875 41.140625 47.34375 
Q 37.3125 48.390625 33.40625 48.390625 
Q 24.65625 48.390625 19.8125 42.84375 
Q 14.984375 37.3125 14.984375 27.296875 
Q 14.984375 17.28125 19.8125 11.734375 
Q 24.65625 6.203125 33.40625 6.203125 
Q 37.3125 6.203125 41.140625 7.25 
Q 44.96875 8.296875 48.78125 10.40625 
L 48.78125 2.09375 
Q 45.015625 0.34375 40.984375 -0.53125 
Q 36.96875 -1.421875 32.421875 -1.421875 
Q 20.0625 -1.421875 12.78125 6.34375 
Q 5.515625 14.109375 5.515625 27.296875 
Q 5.515625 40.671875 12.859375 48.328125 
Q 20.21875 56 33.015625 56 
Q 37.15625 56 41.109375 55.140625 
Q 45.0625 54.296875 48.78125 52.59375 
z
" id="DejaVuSans-63"/>
      <path d="M 30.609375 48.390625 
Q 23.390625 48.390625 19.1875 42.75 
Q 14.984375 37.109375 14.984375 27.296875 
Q 14.984375 17.484375 19.15625 11.84375 
Q 23.34375 6.203125 30.609375 6.203125 
Q 37.796875 6.203125 41.984375 11.859375 
Q 46.1875 17.53125 46.1875 27.296875 
Q 46.1875 37.015625 41.984375 42.703125 
Q 37.796875 48.390625 30.609375 48.390625 
z
M 30.609375 56 
Q 42.328125 56 49.015625 48.375 
Q 55.71875 40.765625 55.71875 27.296875 
Q 55.71875 13.875 49.015625 6.21875 
Q 42.328125 -1.421875 30.609375 -1.421875 
Q 18.84375 -1.421875 12.171875 6.21875 
Q 5.515625 13.875 5.515625 27.296875 
Q 5.515625 40.765625 12.171875 48.375 
Q 18.84375 56 30.609375 56 
z
" id="DejaVuSans-6f"/>
      <path d="M 54.890625 33.015625 
L 54.890625 0 
L 45.90625 0 
L 45.90625 32.71875 
Q 45.90625 40.484375 42.875 44.328125 
Q 39.84375 48.1875 33.796875 48.1875 
Q 26.515625 48.1875 22.3125 43.546875 
Q 18.109375 38.921875 18.109375 30.90625 
L 18.109375 0 
L 9.078125 0 
L 9.078125 54.6875 
L 18.109375 54.6875 
L 18.109375 46.1875 
Q 21.34375 51.125 25.703125 53.5625 
Q 30.078125 56 35.796875 56 
Q 45.21875 56 50.046875 50.171875 
Q 54.890625 44.34375 54.890625 33.015625 
z
" id="DejaVuSans-6e"/>
      <path d="M 45.40625 46.390625 
L 45.40625 75.984375 
L 54.390625 75.984375 
L 54.390625 0 
L 45.40625 0 
L 45.40625 8.203125 
Q 42.578125 3.328125 38.25 0.953125 
Q 33.9375 -1.421875 27.875 -1.421875 
Q 17.96875 -1.421875 11.734375 6.484375 
Q 5.515625 14.40625 5.515625 27.296875 
Q 5.515625 40.1875 11.734375 48.09375 
Q 17.96875 56 27.875 56 
Q 33.9375 56 38.25 53.625 
Q 42.578125 51.265625 45.40625 46.390625 
z
M 14.796875 27.296875 
Q 14.796875 17.390625 18.875 11.75 
Q 22.953125 6.109375 30.078125 6.109375 
Q 37.203125 6.109375 41.296875 11.75 
Q 45.40625 17.390625 45.40625 27.296875 
Q 45.40625 37.203125 41.296875 42.84375 
Q 37.203125 48.484375 30.078125 48.484375 
Q 22.953125 48.484375 18.875 42.84375 
Q 14.796875 37.203125 14.796875 27.296875 
z
" id="DejaVuSans-64"/>
      <path d="M 8.015625 75.875 
L 15.828125 75.875 
Q 23.140625 64.359375 26.78125 53.3125 
Q 30.421875 42.28125 30.421875 31.390625 
Q 30.421875 20.453125 26.78125 9.375 
Q 23.140625 -1.703125 15.828125 -13.1875 
L 8.015625 -13.1875 
Q 14.5 -2 17.703125 9.0625 
Q 20.90625 20.125 20.90625 31.390625 
Q 20.90625 42.671875 17.703125 53.65625 
Q 14.5 64.65625 8.015625 75.875 
z
" id="DejaVuSans-29"/>
     </defs>
     <g transform="translate(343.024375 351.716563)scale(0.1 -0.1)">
      <use xlink:href="#DejaVuSans-54"/>
      <use x="61.037109" xlink:href="#DejaVuSans-69"/>
      <use x="88.820312" xlink:href="#DejaVuSans-6d"/>
      <use x="186.232422" xlink:href="#DejaVuSans-65"/>
      <use x="247.755859" xlink:href="#DejaVuSans-20"/>
      <use x="279.542969" xlink:href="#DejaVuSans-28"/>
      <use x="318.556641" xlink:href="#DejaVuSans-73"/>
      <use x="370.65625" xlink:href="#DejaVuSans-65"/>
      <use x="432.179688" xlink:href="#DejaVuSans-63"/>
      <use x="487.160156" xlink:href="#DejaVuSans-6f"/>
      <use x="548.341797" xlink:href="#DejaVuSans-6e"/>
      <use x="611.720703" xlink:href="#DejaVuSans-64"/>
      <use x="675.197266" xlink:href="#DejaVuSans-73"/>
      <use x="727.296875" xlink:href="#DejaVuSans-29"/>
     </g>
    </g>
   </g>
   <g id="matplotlib.axis_2">
    <g id="ytick_1">
     <g id="line2d_15">
      <path clip-path="url(#pc1fd64d664)" d="M 56 311.523309 
L 706.68 311.523309 
" style="fill:none;stroke:#b0b0b0;stroke-linecap:square;stroke-width:0.8;"/>
     </g>
     <g id="line2d_16">
      <defs>
       <path d="M 0 0 
L -3.5 0 
" id="m04eaf9414d" style="stroke:#000000;stroke-width:0.8;"/>
      </defs>
      <g>
       <use style="stroke:#000000;stroke-width:0.8;" x="56" xlink:href="#m04eaf9414d" y="311.523309"/>
      </g>
     </g>
     <g id="text_9">
      <!-- −0.4 -->
      <defs>
       <path d="M 10.59375 35.5 
L 73.1875 35.5 
L 73.1875 27.203125 
L 10.59375 27.203125 
z
" id="DejaVuSans-2212"/>
       <path d="M 10.6875 12.40625 
L 21 12.40625 
L 21 0 
L 10.6875 0 
z
" id="DejaVuSans-2e"/>
      </defs>
      <g transform="translate(24.717188 315.322528)scale(0.1 -0.1)">
       <use xlink:href="#DejaVuSans-2212"/>
       <use x="83.789062" xlink:href="#DejaVuSans-30"/>
       <use x="147.412109" xlink:href="#DejaVuSans-2e"/>
       <use x="179.199219" xlink:href="#DejaVuSans-34"/>
      </g>
     </g>
    </g>
    <g id="ytick_2">
     <g id="line2d_17">
      <path clip-path="url(#pc1fd64d664)" d="M 56 264.972505 
L 706.68 264.972505 
" style="fill:none;stroke:#b0b0b0;stroke-linecap:square;stroke-width:0.8;"/>
     </g>
     <g id="line2d_18">
      <g>
       <use style="stroke:#000000;stroke-width:0.8;" x="56" xlink:href="#m04eaf9414d" y="264.972505"/>
      </g>
     </g>
     <g id="text_10">
      <!-- −0.2 -->
      <g transform="translate(24.717188 268.771724)scale(0.1 -0.1)">
       <use xlink:href="#DejaVuSans-2212"/>
       <use x="83.789062" xlink:href="#DejaVuSans-30"/>
       <use x="147.412109" xlink:href="#DejaVuSans-2e"/>
       <use x="179.199219" xlink:href="#DejaVuSans-32"/>
      </g>
     </g>
    </g>
    <g id="ytick_3">
     <g id="line2d_19">
      <path clip-path="url(#pc1fd64d664)" d="M 56 218.421701 
L 706.68 218.421701 
" style="fill:none;stroke:#b0b0b0;stroke-linecap:square;stroke-width:0.8;"/>
     </g>
     <g id="line2d_20">
      <g>
       <use style="stroke:#000000;stroke-width:0.8;" x="56" xlink:href="#m04eaf9414d" y="218.421701"/>
      </g>
     </g>
     <g id="text_11">
      <!-- 0.0 -->
      <g transform="translate(33.096875 222.22092)scale(0.1 -0.1)">
       <use xlink:href="#DejaVuSans-30"/>
       <use x="63.623047" xlink:href="#DejaVuSans-2e"/>
       <use x="95.410156" xlink:href="#DejaVuSans-30"/>
      </g>
     </g>
    </g>
    <g id="ytick_4">
     <g id="line2d_21">
      <path clip-path="url(#pc1fd64d664)" d="M 56 171.870897 
L 706.68 171.870897 
" style="fill:none;stroke:#b0b0b0;stroke-linecap:square;stroke-width:0.8;"/>
     </g>
     <g id="line2d_22">
      <g>
       <use style="stroke:#000000;stroke-width:0.8;" x="56" xlink:href="#m04eaf9414d" y="171.870897"/>
      </g>
     </g>
     <g id="text_12">
      <!-- 0.2 -->
      <g transform="translate(33.096875 175.670116)scale(0.1 -0.1)">
       <use xlink:href="#DejaVuSans-30"/>
       <use x="63.623047" xlink:href="#DejaVuSans-2e"/>
       <use x="95.410156" xlink:href="#DejaVuSans-32"/>
      </g>
     </g>
    </g>
    <g id="ytick_5">
     <g id="line2d_23">
      <path clip-path="url(#pc1fd64d664)" d="M 56 125.320093 
L 706.68 125.320093 
" style="fill:none;stroke:#b0b0b0;stroke-linecap:square;stroke-width:0.8;"/>
     </g>
     <g id="line2d_24">
      <g>
       <use style="stroke:#000000;stroke-width:0.8;" x="56" xlink:href="#m04eaf9414d" y="125.320093"/>
      </g>
     </g>
     <g id="text_13">
      <!-- 0.4 -->
      <g transform="translate(33.096875 129.119312)scale(0.1 -0.1)">
       <use xlink:href="#DejaVuSans-30"/>
       <use x="63.623047" xlink:href="#DejaVuSans-2e"/>
       <use x="95.410156" xlink:href="#DejaVuSans-34"/>
      </g>
     </g>
    </g>
    <g id="ytick_6">
     <g id="line2d_25">
      <path clip-path="url(#pc1fd64d664)" d="M 56 78.769289 
L 706.68 78.769289 
" style="fill:none;stroke:#b0b0b0;stroke-linecap:square;stroke-width:0.8;"/>
     </g>
     <g id="line2d_26">
      <g>
       <use style="stroke:#000000;stroke-width:0.8;" x="56" xlink:href="#m04eaf9414d" y="78.769289"/>
      </g>
     </g>
     <g id="text_14">
      <!-- 0.6 -->
      <g transform="translate(33.096875 82.568508)scale(0.1 -0.1)">
       <use xlink:href="#DejaVuSans-30"/>
       <use x="63.623047" xlink:href="#DejaVuSans-2e"/>
       <use x="95.410156" xlink:href="#DejaVuSans-36"/>
      </g>
     </g>
    </g>
    <g id="ytick_7">
     <g id="line2d_27">
      <path clip-path="url(#pc1fd64d664)" d="M 56 32.218485 
L 706.68 32.218485 
" style="fill:none;stroke:#b0b0b0;stroke-linecap:square;stroke-width:0.8;"/>
     </g>
     <g id="line2d_28">
      <g>
       <use style="stroke:#000000;stroke-width:0.8;" x="56" xlink:href="#m04eaf9414d" y="32.218485"/>
      </g>
     </g>
     <g id="text_15">
      <!-- 0.8 -->
      <defs>
       <path d="M 31.78125 34.625 
Q 24.75 34.625 20.71875 30.859375 
Q 16.703125 27.09375 16.703125 20.515625 
Q 16.703125 13.921875 20.71875 10.15625 
Q 24.75 6.390625 31.78125 6.390625 
Q 38.8125 6.390625 42.859375 10.171875 
Q 46.921875 13.96875 46.921875 20.515625 
Q 46.921875 27.09375 42.890625 30.859375 
Q 38.875 34.625 31.78125 34.625 
z
M 21.921875 38.8125 
Q 15.578125 40.375 12.03125 44.71875 
Q 8.5 49.078125 8.5 55.328125 
Q 8.5 64.0625 14.71875 69.140625 
Q 20.953125 74.21875 31.78125 74.21875 
Q 42.671875 74.21875 48.875 69.140625 
Q 55.078125 64.0625 55.078125 55.328125 
Q 55.078125 49.078125 51.53125 44.71875 
Q 48 40.375 41.703125 38.8125 
Q 48.828125 37.15625 52.796875 32.3125 
Q 56.78125 27.484375 56.78125 20.515625 
Q 56.78125 9.90625 50.3125 4.234375 
Q 43.84375 -1.421875 31.78125 -1.421875 
Q 19.734375 -1.421875 13.25 4.234375 
Q 6.78125 9.90625 6.78125 20.515625 
Q 6.78125 27.484375 10.78125 32.3125 
Q 14.796875 37.15625 21.921875 38.8125 
z
M 18.3125 54.390625 
Q 18.3125 48.734375 21.84375 45.5625 
Q 25.390625 42.390625 31.78125 42.390625 
Q 38.140625 42.390625 41.71875 45.5625 
Q 45.3125 48.734375 45.3125 54.390625 
Q 45.3125 60.0625 41.71875 63.234375 
Q 38.140625 66.40625 31.78125 66.40625 
Q 25.390625 66.40625 21.84375 63.234375 
Q 18.3125 60.0625 18.3125 54.390625 
z
" id="DejaVuSans-38"/>
      </defs>
      <g transform="translate(33.096875 36.017704)scale(0.1 -0.1)">
       <use xlink:href="#DejaVuSans-30"/>
       <use x="63.623047" xlink:href="#DejaVuSans-2e"/>
       <use x="95.410156" xlink:href="#DejaVuSans-38"/>
      </g>
     </g>
    </g>
    <g id="text_16">
     <!-- Position (meters) -->
     <defs>
      <path d="M 19.671875 64.796875 
L 19.671875 37.40625 
L 32.078125 37.40625 
Q 38.96875 37.40625 42.71875 40.96875 
Q 46.484375 44.53125 46.484375 51.125 
Q 46.484375 57.671875 42.71875 61.234375 
Q 38.96875 64.796875 32.078125 64.796875 
z
M 9.8125 72.90625 
L 32.078125 72.90625 
Q 44.34375 72.90625 50.609375 67.359375 
Q 56.890625 61.8125 56.890625 51.125 
Q 56.890625 40.328125 50.609375 34.8125 
Q 44.34375 29.296875 32.078125 29.296875 
L 19.671875 29.296875 
L 19.671875 0 
L 9.8125 0 
z
" id="DejaVuSans-50"/>
      <path d="M 18.3125 70.21875 
L 18.3125 54.6875 
L 36.8125 54.6875 
L 36.8125 47.703125 
L 18.3125 47.703125 
L 18.3125 18.015625 
Q 18.3125 11.328125 20.140625 9.421875 
Q 21.96875 7.515625 27.59375 7.515625 
L 36.8125 7.515625 
L 36.8125 0 
L 27.59375 0 
Q 17.1875 0 13.234375 3.875 
Q 9.28125 7.765625 9.28125 18.015625 
L 9.28125 47.703125 
L 2.6875 47.703125 
L 2.6875 54.6875 
L 9.28125 54.6875 
L 9.28125 70.21875 
z
" id="DejaVuSans-74"/>
      <path d="M 41.109375 46.296875 
Q 39.59375 47.171875 37.8125 47.578125 
Q 36.03125 48 33.890625 48 
Q 26.265625 48 22.1875 43.046875 
Q 18.109375 38.09375 18.109375 28.8125 
L 18.109375 0 
L 9.078125 0 
L 9.078125 54.6875 
L 18.109375 54.6875 
L 18.109375 46.1875 
Q 20.953125 51.171875 25.484375 53.578125 
Q 30.03125 56 36.53125 56 
Q 37.453125 56 38.578125 55.875 
Q 39.703125 55.765625 41.0625 55.515625 
z
" id="DejaVuSans-72"/>
     </defs>
     <g transform="translate(18.6375 217.217344)rotate(-90)scale(0.1 -0.1)">
      <use xlink:href="#DejaVuSans-50"/>
      <use x="60.255859" xlink:href="#DejaVuSans-6f"/>
      <use x="121.4375" xlink:href="#DejaVuSans-73"/>
      <use x="173.537109" xlink:href="#DejaVuSans-69"/>
      <use x="201.320312" xlink:href="#DejaVuSans-74"/>
      <use x="240.529297" xlink:href="#DejaVuSans-69"/>
      <use x="268.3125" xlink:href="#DejaVuSans-6f"/>
      <use x="329.494141" xlink:href="#DejaVuSans-6e"/>
      <use x="392.873047" xlink:href="#DejaVuSans-20"/>
      <use x="424.660156" xlink:href="#DejaVuSans-28"/>
      <use x="463.673828" xlink:href="#DejaVuSans-6d"/>
      <use x="561.085938" xlink:href="#DejaVuSans-65"/>
      <use x="622.609375" xlink:href="#DejaVuSans-74"/>
      <use x="661.818359" xlink:href="#DejaVuSans-65"/>
      <use x="723.341797" xlink:href="#DejaVuSans-72"/>
      <use x="764.455078" xlink:href="#DejaVuSans-73"/>
      <use x="816.554688" xlink:href="#DejaVuSans-29"/>
     </g>
    </g>
   </g>
   <g id="line2d_29">
    <path clip-path="url(#pc1fd64d664)" d="M 85.576364 227.670362 
L 88.517736 227.691363 
L 89.507403 227.86893 
L 90.482967 228.369862 
L 91.460085 229.283447 
L 92.437849 230.770238 
L 93.417353 232.929617 
L 94.392528 235.933975 
L 95.37544 239.666407 
L 96.346794 244.476067 
L 97.331643 249.96142 
L 99.292631 263.342357 
L 101.261743 277.278435 
L 102.238803 283.449802 
L 103.199104 288.44057 
L 104.182194 292.152418 
L 105.159058 294.317609 
L 106.142772 294.957867 
L 107.127024 294.231965 
L 108.09096 292.523455 
L 110.052069 287.391732 
L 112.049205 282.459384 
L 113.043229 280.635405 
L 114.005827 279.364689 
L 114.973896 278.635191 
L 115.966934 278.313198 
L 117.909034 278.256442 
L 148.626556 278.362175 
L 159.422981 278.398781 
L 164.31907 278.225193 
L 175.104108 277.656524 
L 182.938112 277.536479 
L 195.689282 276.960549 
L 202.577954 276.850882 
L 215.291237 276.308777 
L 222.208814 276.226551 
L 236.887379 275.785804 
L 244.722905 275.66904 
L 254.524064 275.455855 
L 281.949476 275.533127 
L 290.747248 275.735238 
L 299.551499 275.846875 
L 311.318251 276.441959 
L 319.142469 276.595998 
L 330.921895 277.44564 
L 338.805503 277.623715 
L 350.546719 278.578743 
L 358.387561 278.756 
L 370.157635 279.65172 
L 377.990513 279.803668 
L 388.800403 280.509571 
L 399.560309 280.75183 
L 405.441314 281.055106 
L 412.313969 281.116249 
L 418.186591 281.216145 
L 425.03981 281.380518 
L 448.60479 281.292278 
L 462.310952 281.117058 
L 469.171745 280.876375 
L 477.973396 280.755497 
L 484.815308 280.309795 
L 488.743992 280.165414 
L 496.575699 280.034606 
L 501.479868 279.644144 
L 506.362688 279.25835 
L 510.280631 279.193661 
L 515.158827 279.090001 
L 519.082038 278.767125 
L 525.938854 278.098114 
L 529.851138 278.0252 
L 533.764853 277.955944 
L 537.678164 277.642739 
L 545.513114 276.792234 
L 549.45074 276.711557 
L 553.364315 276.634485 
L 557.285376 276.294466 
L 565.160803 275.399822 
L 569.084767 275.317589 
L 573.024014 275.237045 
L 576.993283 274.882388 
L 584.836588 273.971649 
L 588.75938 273.889366 
L 592.669702 273.80769 
L 596.59689 273.452698 
L 604.436099 272.567876 
L 608.35247 272.489448 
L 612.267133 272.408913 
L 616.181753 272.067038 
L 624.015501 271.208657 
L 627.921954 271.133402 
L 631.841686 271.055091 
L 635.786258 270.737145 
L 641.660064 270.066518 
L 645.575367 269.875014 
L 652.440266 269.739385 
L 656.359185 269.383983 
L 662.236674 268.797753 
L 666.141757 268.680158 
L 671.032158 268.610135 
L 676.072397 268.321636 
L 676.133965 268.225562 
L 677.103636 268.123731 
L 677.103636 268.123731 
" style="fill:none;stroke:#ff0000;stroke-linecap:square;stroke-width:1.5;"/>
   </g>
   <g id="line2d_30">
    <path clip-path="url(#pc1fd64d664)" d="M 85.576364 275.45486 
L 89.507403 275.546911 
L 90.482967 275.772454 
L 91.460085 276.159947 
L 93.417353 277.425573 
L 94.392528 278.166072 
L 95.37544 278.747464 
L 96.346794 278.989765 
L 97.331643 278.610824 
L 98.306023 277.278789 
L 99.292631 274.766749 
L 100.268941 270.945832 
L 101.261743 265.45086 
L 102.238803 258.628201 
L 104.182194 241.970806 
L 107.127024 215.045969 
L 108.09096 207.575608 
L 109.078965 200.917106 
L 110.052069 195.578717 
L 111.040415 191.47074 
L 112.049205 188.283097 
L 113.043229 186.102109 
L 114.005827 184.705041 
L 114.973896 183.943642 
L 115.966934 183.616417 
L 117.909034 183.559286 
L 150.572302 183.455168 
L 162.372699 183.443372 
L 180.982837 183.701649 
L 183.908488 184.038583 
L 192.726332 185.29729 
L 195.689282 185.386951 
L 199.633434 185.451767 
L 202.577954 185.743998 
L 206.476725 186.42714 
L 210.402585 187.088748 
L 213.326505 187.341151 
L 220.223982 187.574716 
L 222.208814 187.899427 
L 225.119297 188.620404 
L 229.037907 189.637908 
L 231.97623 190.117412 
L 234.930482 190.261909 
L 238.854954 190.37083 
L 240.805889 190.647744 
L 242.761602 191.115175 
L 250.60569 193.31229 
L 252.567969 193.552616 
L 255.490863 193.626541 
L 258.435665 193.75261 
L 260.399859 194.083305 
L 262.350687 194.623753 
L 270.18073 197.234265 
L 272.141252 197.515627 
L 275.085899 197.603412 
L 277.040009 197.651969 
L 278.998029 197.8965 
L 280.965674 198.39581 
L 283.913036 199.530047 
L 287.811232 201.128501 
L 289.758765 201.702691 
L 291.726253 202.029653 
L 294.655322 202.130322 
L 296.632025 202.184341 
L 298.573794 202.460688 
L 300.539533 203.020107 
L 302.505547 203.822672 
L 308.379877 206.443367 
L 310.328418 206.948516 
L 312.298339 207.179207 
L 317.177492 207.385385 
L 319.142469 207.834117 
L 321.106607 208.596508 
L 324.044851 210.078419 
L 327.011496 211.554623 
L 328.957368 212.262366 
L 330.921895 212.671464 
L 332.885847 212.793663 
L 335.861499 212.862117 
L 337.828002 213.182276 
L 339.778488 213.835005 
L 341.744275 214.774299 
L 346.634402 217.442454 
L 348.602165 218.207814 
L 350.546719 218.638223 
L 352.513846 218.772105 
L 355.453332 218.843639 
L 357.414606 219.172596 
L 359.376659 219.858509 
L 361.333076 220.838147 
L 366.239407 223.619763 
L 368.190703 224.411001 
L 370.157635 224.868549 
L 372.107318 225.005247 
L 375.048847 225.077197 
L 377.004668 225.417746 
L 378.974628 226.123737 
L 380.944258 227.119991 
L 384.864263 229.457406 
L 386.83099 230.427853 
L 388.800403 231.080137 
L 390.749569 231.36776 
L 395.645462 231.606986 
L 397.597394 232.140336 
L 399.560309 233.011736 
L 402.496843 234.760816 
L 405.441314 236.466263 
L 407.428425 237.28924 
L 409.380942 237.762466 
L 411.332659 237.908557 
L 414.284997 237.983731 
L 416.235824 238.337384 
L 418.186591 239.049553 
L 420.151568 240.093721 
L 425.03981 243.014436 
L 426.998641 243.840078 
L 428.968075 244.313609 
L 430.94807 244.458705 
L 433.892287 244.532067 
L 435.853385 244.881359 
L 437.820345 245.605648 
L 439.771965 246.625303 
L 444.66218 249.529925 
L 446.615773 250.365964 
L 448.60479 250.832801 
L 450.577485 250.975051 
L 453.507248 251.050118 
L 455.485946 251.403266 
L 457.421459 252.113557 
L 459.378433 253.15285 
L 464.267984 256.0375 
L 466.230382 256.869316 
L 468.183672 257.330596 
L 470.146098 257.474841 
L 473.084411 257.546366 
L 475.037683 257.892514 
L 476.996658 258.593292 
L 478.953974 259.596051 
L 484.815308 262.835177 
L 486.777394 263.464037 
L 488.743992 263.747033 
L 493.623332 263.980237 
L 495.597437 264.499846 
L 497.555876 265.355183 
L 499.516564 266.446068 
L 502.449961 268.155191 
L 504.396595 269.079444 
L 506.362688 269.705125 
L 508.318996 269.979662 
L 513.207237 270.204707 
L 515.158827 270.692053 
L 517.134563 271.511128 
L 520.072809 273.098986 
L 523.006002 274.638169 
L 524.960464 275.380143 
L 526.916704 275.795144 
L 528.870912 275.923912 
L 531.799503 275.989626 
L 533.764853 276.302415 
L 535.732124 276.949524 
L 537.678164 277.867359 
L 542.575602 280.430996 
L 544.544067 281.155252 
L 546.4955 281.563493 
L 548.460945 281.687471 
L 551.4091 281.747861 
L 553.364315 282.033551 
L 555.325734 282.624394 
L 557.285376 283.452627 
L 562.212883 285.797468 
L 564.158629 286.450714 
L 566.154526 286.826319 
L 568.104023 286.938241 
L 571.041107 286.996754 
L 573.024014 287.275344 
L 575.057476 287.851583 
L 576.993283 288.668611 
L 581.904255 290.941545 
L 583.870893 291.593232 
L 585.824358 291.951673 
L 587.784468 292.066634 
L 590.719753 292.11757 
L 592.669702 292.351281 
L 594.636857 292.837087 
L 596.59689 293.525564 
L 602.461369 295.738515 
L 604.436099 296.169866 
L 606.399816 296.359903 
L 611.286212 296.525623 
L 613.238417 296.88815 
L 615.214582 297.488061 
L 619.124592 299.063126 
L 621.085123 299.794834 
L 623.016513 300.337548 
L 624.987167 300.647835 
L 627.921954 300.745737 
L 630.857276 300.84212 
L 632.818247 301.100822 
L 635.786258 301.758167 
L 639.711512 302.906052 
L 641.660064 303.363195 
L 643.628626 303.665292 
L 646.563109 303.817339 
L 650.477544 303.928695 
L 652.440266 304.216939 
L 654.383919 304.688779 
L 662.236674 306.971173 
L 664.179205 307.217903 
L 667.121524 307.295319 
L 671.032158 307.394016 
L 676.072397 307.800504 
L 676.133965 307.933606 
L 677.103636 308.073323 
L 677.103636 308.073323 
" style="fill:none;stroke:#008000;stroke-linecap:square;stroke-width:1.5;"/>
   </g>
   <g id="line2d_31">
    <path clip-path="url(#pc1fd64d664)" d="M 85.576364 133.389355 
L 88.517736 133.374064 
L 89.507403 133.244938 
L 90.482967 132.882235 
L 91.460085 132.226321 
L 92.437849 131.172454 
L 93.417353 129.666446 
L 94.392528 127.607132 
L 95.37544 125.085941 
L 96.346794 121.862827 
L 97.331643 118.174651 
L 99.292631 108.793685 
L 101.261743 97.507825 
L 107.127024 61.192541 
L 109.078965 51.875831 
L 110.052069 48.170412 
L 111.040415 45.195539 
L 112.049205 42.785383 
L 113.043229 41.070359 
L 114.005827 39.937542 
L 114.973896 39.30734 
L 115.966934 39.033474 
L 117.909034 38.985466 
L 140.784474 39.094554 
L 142.747095 39.382789 
L 144.690486 39.856784 
L 152.529217 42.190945 
L 154.54414 42.447523 
L 157.487449 42.528203 
L 160.401019 42.600399 
L 163.353932 42.952856 
L 167.252167 43.794844 
L 171.188744 44.632898 
L 174.118645 44.962226 
L 178.044612 45.025133 
L 180.982837 45.152038 
L 183.908488 45.532348 
L 192.726332 47.007276 
L 195.689282 47.115254 
L 199.633434 47.17651 
L 202.577954 47.452646 
L 206.476725 48.10806 
L 210.402585 48.756526 
L 213.326505 49.007602 
L 222.208814 49.379343 
L 226.09926 50.021879 
L 230.009934 50.649412 
L 232.98373 50.898308 
L 241.786564 51.278798 
L 245.71263 51.949556 
L 249.628814 52.601597 
L 252.567969 52.860115 
L 260.399859 53.141819 
L 263.332984 53.603831 
L 270.18073 54.817515 
L 273.111101 55.004287 
L 278.998029 55.166848 
L 281.949476 55.594259 
L 289.758765 57.116637 
L 292.701857 57.32323 
L 298.573794 57.505058 
L 301.521001 57.975676 
L 309.347253 59.654328 
L 312.298339 59.88204 
L 318.163494 60.081668 
L 320.124396 60.387355 
L 324.044851 61.347023 
L 327.993717 62.282855 
L 329.951373 62.568616 
L 332.885847 62.711068 
L 336.842588 62.806954 
L 338.805503 63.056327 
L 341.744275 63.733401 
L 347.615157 65.315583 
L 349.585656 65.623305 
L 352.513846 65.778675 
L 356.433882 65.883664 
L 358.387561 66.153994 
L 360.350632 66.602924 
L 368.190703 68.77217 
L 370.157635 69.013826 
L 373.106044 69.088335 
L 376.019779 69.195928 
L 377.990513 69.481776 
L 380.944258 70.25262 
L 385.864121 71.831628 
L 387.810121 72.278228 
L 389.773691 72.536393 
L 392.702664 72.616001 
L 395.645462 72.728465 
L 397.597394 73.032925 
L 399.560309 73.530665 
L 407.428425 75.982638 
L 409.380942 76.255111 
L 412.313969 76.341821 
L 415.243459 76.459561 
L 417.198175 76.773987 
L 419.154418 77.299317 
L 426.998641 79.867013 
L 428.968075 80.151855 
L 431.937112 80.242006 
L 434.86753 80.365909 
L 436.820722 80.689155 
L 438.786088 81.239438 
L 441.723211 82.311285 
L 444.66218 83.375843 
L 446.615773 83.900972 
L 448.60479 84.195286 
L 451.540317 84.287891 
L 454.480224 84.413182 
L 456.448153 84.748008 
L 458.403799 85.314489 
L 462.310952 86.813818 
L 465.253313 87.817058 
L 467.211342 88.236654 
L 469.171745 88.428312 
L 474.070502 88.587409 
L 476.016129 88.927003 
L 477.973396 89.505348 
L 481.864653 91.028377 
L 484.815308 92.05468 
L 486.777394 92.488009 
L 488.743992 92.683816 
L 493.623332 92.841526 
L 495.597437 93.192269 
L 497.555876 93.773429 
L 500.491063 94.924808 
L 503.431781 96.061602 
L 505.38763 96.613071 
L 507.34773 96.933032 
L 510.280631 97.032361 
L 513.207237 97.162426 
L 515.158827 97.510143 
L 517.134563 98.098804 
L 520.072809 99.255606 
L 523.006002 100.397401 
L 524.960464 100.955291 
L 526.916704 101.269505 
L 528.870912 101.36733 
L 531.799503 101.41513 
L 533.764853 101.642494 
L 535.732124 102.115694 
L 538.66784 103.183381 
L 542.575602 104.7296 
L 544.544067 105.288509 
L 546.4955 105.605957 
L 549.45074 105.70591 
L 552.38794 105.833463 
L 554.346174 106.174519 
L 556.302473 106.752124 
L 559.242664 107.88789 
L 563.178999 109.311547 
L 565.160803 109.741406 
L 567.125486 109.937365 
L 572.047071 110.091302 
L 573.994255 110.424617 
L 576.009909 110.982929 
L 583.870893 113.742067 
L 585.824358 114.044731 
L 587.784468 114.142179 
L 591.695582 114.260126 
L 593.646331 114.587131 
L 595.609823 115.115955 
L 603.456479 117.74248 
L 605.401531 118.033406 
L 608.35247 118.124996 
L 611.286212 118.240861 
L 613.238417 118.547737 
L 615.214582 119.059909 
L 619.124592 120.431288 
L 622.059904 121.352536 
L 624.015501 121.741114 
L 625.983528 121.915092 
L 630.857276 122.046046 
L 632.818247 122.33007 
L 635.786258 123.05883 
L 639.711512 124.356575 
L 641.660064 124.882661 
L 643.628626 125.233309 
L 645.575367 125.389303 
L 651.470652 125.6192 
L 653.42133 125.970607 
L 656.359185 126.763166 
L 660.260675 127.920276 
L 662.236674 128.343097 
L 664.179205 128.580424 
L 667.121524 128.655148 
L 670.051044 128.740346 
L 676.064816 129.340087 
L 676.133965 129.815067 
L 677.103636 130.072684 
L 677.103636 130.072684 
" style="fill:none;stroke:#0000ff;stroke-linecap:square;stroke-width:1.5;"/>
   </g>
   <g id="line2d_32">
    <path clip-path="url(#pc1fd64d664)" d="M 85.576364 218.421701 
L 136.877211 218.421701 
L 137.840755 278.213161 
L 156.497938 278.213161 
L 157.487449 278.086672 
L 176.081667 278.086672 
L 177.067298 277.884308 
L 195.689282 277.884308 
L 196.692033 277.610842 
L 215.291237 277.610842 
L 216.276642 277.272315 
L 234.930482 277.272315 
L 235.908139 276.874751 
L 254.524064 276.874751 
L 255.490863 276.424054 
L 274.103093 276.424054 
L 275.085899 275.926388 
L 293.679581 275.926388 
L 294.655322 275.387157 
L 313.264826 275.387157 
L 314.238133 274.812206 
L 332.885847 274.812206 
L 333.897159 274.208017 
L 352.513846 274.208017 
L 353.49753 273.580215 
L 372.107318 273.580215 
L 373.106044 272.934703 
L 391.727528 272.934703 
L 392.702664 272.277057 
L 411.332659 272.277057 
L 412.313969 271.61417 
L 430.94807 271.61417 
L 431.937112 270.950625 
L 450.577485 270.950625 
L 451.540317 270.293649 
L 470.146098 270.293649 
L 471.126315 269.648471 
L 489.714193 269.648471 
L 490.693569 269.020371 
L 509.305438 269.020371 
L 510.280631 268.416208 
L 528.870912 268.416208 
L 529.851138 267.841569 
L 548.460945 267.841569 
L 549.45074 267.302097 
L 568.104023 267.302097 
L 569.084767 266.804475 
L 587.784468 266.804475 
L 588.75938 266.353403 
L 607.359229 266.353403 
L 608.35247 265.95632 
L 626.968913 265.95632 
L 627.921954 265.617855 
L 646.563109 265.617855 
L 647.54567 265.344098 
L 666.141757 265.344098 
L 667.121524 265.141588 
L 677.103636 265.141588 
L 677.103636 265.141588 
" style="fill:none;stroke:#ff0000;stroke-dasharray:5.55,2.4;stroke-dashoffset:0;stroke-width:1.5;"/>
   </g>
   <g id="line2d_33">
    <path clip-path="url(#pc1fd64d664)" d="M 85.576364 218.421701 
L 136.877211 218.421701 
L 137.840755 183.976824 
L 156.497938 183.976824 
L 157.487449 185.195278 
L 176.081667 185.195278 
L 177.067298 187.144639 
L 195.689282 187.144639 
L 196.692033 189.778923 
L 215.291237 189.778923 
L 216.276642 193.039933 
L 234.930482 193.039933 
L 235.908139 196.869644 
L 254.524064 196.869644 
L 255.490863 201.211181 
L 274.103093 201.211181 
L 275.085899 206.005171 
L 293.679581 206.005171 
L 294.655322 211.19956 
L 313.264826 211.19956 
L 314.238133 216.73803 
L 332.885847 216.73803 
L 333.897159 222.558149 
L 352.513846 222.558149 
L 353.49753 228.605731 
L 372.107318 228.605731 
L 373.106044 234.823903 
L 391.727528 234.823903 
L 392.702664 241.158977 
L 411.332659 241.158977 
L 412.313969 247.544526 
L 430.94807 247.544526 
L 431.937112 253.936416 
L 450.577485 253.936416 
L 451.540317 260.265035 
L 470.146098 260.265035 
L 471.126315 266.479993 
L 489.714193 266.479993 
L 490.693569 272.530447 
L 509.305438 272.530447 
L 510.280631 278.35031 
L 528.870912 278.35031 
L 529.851138 283.88578 
L 548.460945 283.88578 
L 549.45074 289.082486 
L 568.104023 289.082486 
L 569.084767 293.87605 
L 587.784468 293.87605 
L 588.75938 298.221198 
L 607.359229 298.221198 
L 608.35247 302.046274 
L 626.968913 302.046274 
L 627.921954 305.306687 
L 646.563109 305.306687 
L 647.54567 307.943772 
L 666.141757 307.943772 
L 667.121524 309.894545 
L 677.103636 309.894545 
L 677.103636 309.894545 
" style="fill:none;stroke:#008000;stroke-dasharray:5.55,2.4;stroke-dashoffset:0;stroke-width:1.5;"/>
   </g>
   <g id="line2d_34">
    <path clip-path="url(#pc1fd64d664)" d="M 85.576364 218.421701 
L 136.877211 218.421701 
L 137.840755 39.26718 
L 156.497938 39.26718 
L 157.487449 40.089245 
L 176.081667 40.089245 
L 177.067298 41.404437 
L 195.689282 41.404437 
L 196.692033 43.181733 
L 215.291237 43.181733 
L 216.276642 45.381868 
L 234.930482 45.381868 
L 235.908139 47.965692 
L 254.524064 47.965692 
L 255.490863 50.894836 
L 274.103093 50.894836 
L 275.085899 54.129239 
L 293.679581 54.129239 
L 294.655322 57.633784 
L 313.264826 57.633784 
L 314.238133 61.370472 
L 332.885847 61.370472 
L 333.897159 65.297183 
L 352.513846 65.297183 
L 353.49753 69.377358 
L 372.107318 69.377358 
L 373.106044 73.572627 
L 391.727528 73.572627 
L 392.702664 77.846768 
L 411.332659 77.846768 
L 412.313969 82.154962 
L 430.94807 82.154962 
L 431.937112 86.467435 
L 450.577485 86.467435 
L 451.540317 90.73722 
L 470.146098 90.73722 
L 471.126315 94.930321 
L 489.714193 94.930321 
L 490.693569 99.012435 
L 509.305438 99.012435 
L 510.280631 102.938973 
L 528.870912 102.938973 
L 529.851138 106.673637 
L 548.460945 106.673637 
L 549.45074 110.179745 
L 568.104023 110.179745 
L 569.084767 113.413861 
L 587.784468 113.413861 
L 588.75938 116.345441 
L 607.359229 116.345441 
L 608.35247 118.926138 
L 626.968913 118.926138 
L 627.921954 121.12587 
L 646.563109 121.12587 
L 647.54567 122.905055 
L 666.141757 122.905055 
L 667.121524 124.221201 
L 677.103636 124.221201 
L 677.103636 124.221201 
" style="fill:none;stroke:#0000ff;stroke-dasharray:5.55,2.4;stroke-dashoffset:0;stroke-width:1.5;"/>
   </g>
   <g id="patch_3">
    <path d="M 56 323.44 
L 56 25.44 
" style="fill:none;stroke:#000000;stroke-linecap:square;stroke-linejoin:miter;stroke-width:0.8;"/>
   </g>
   <g id="patch_4">
    <path d="M 706.68 323.44 
L 706.68 25.44 
" style="fill:none;stroke:#000000;stroke-linecap:square;stroke-linejoin:miter;stroke-width:0.8;"/>
   </g>
   <g id="patch_5">
    <path d="M 56 323.44 
L 706.68 323.44 
" style="fill:none;stroke:#000000;stroke-linecap:square;stroke-linejoin:miter;stroke-width:0.8;"/>
   </g>
   <g id="patch_6">
    <path d="M 56 25.44 
L 706.68 25.44 
" style="fill:none;stroke:#000000;stroke-linecap:square;stroke-linejoin:miter;stroke-width:0.8;"/>
   </g>
   <g id="text_17">
    <!-- Gripper Position over Time -->
    <defs>
     <path d="M 59.515625 10.40625 
L 59.515625 29.984375 
L 43.40625 29.984375 
L 43.40625 38.09375 
L 69.28125 38.09375 
L 69.28125 6.78125 
Q 63.578125 2.734375 56.6875 0.65625 
Q 49.8125 -1.421875 42 -1.421875 
Q 24.90625 -1.421875 15.25 8.5625 
Q 5.609375 18.5625 5.609375 36.375 
Q 5.609375 54.25 15.25 64.234375 
Q 24.90625 74.21875 42 74.21875 
Q 49.125 74.21875 55.546875 72.453125 
Q 61.96875 70.703125 67.390625 67.28125 
L 67.390625 56.78125 
Q 61.921875 61.421875 55.765625 63.765625 
Q 49.609375 66.109375 42.828125 66.109375 
Q 29.4375 66.109375 22.71875 58.640625 
Q 16.015625 51.171875 16.015625 36.375 
Q 16.015625 21.625 22.71875 14.15625 
Q 29.4375 6.6875 42.828125 6.6875 
Q 48.046875 6.6875 52.140625 7.59375 
Q 56.25 8.5 59.515625 10.40625 
z
" id="DejaVuSans-47"/>
     <path d="M 18.109375 8.203125 
L 18.109375 -20.796875 
L 9.078125 -20.796875 
L 9.078125 54.6875 
L 18.109375 54.6875 
L 18.109375 46.390625 
Q 20.953125 51.265625 25.265625 53.625 
Q 29.59375 56 35.59375 56 
Q 45.5625 56 51.78125 48.09375 
Q 58.015625 40.1875 58.015625 27.296875 
Q 58.015625 14.40625 51.78125 6.484375 
Q 45.5625 -1.421875 35.59375 -1.421875 
Q 29.59375 -1.421875 25.265625 0.953125 
Q 20.953125 3.328125 18.109375 8.203125 
z
M 48.6875 27.296875 
Q 48.6875 37.203125 44.609375 42.84375 
Q 40.53125 48.484375 33.40625 48.484375 
Q 26.265625 48.484375 22.1875 42.84375 
Q 18.109375 37.203125 18.109375 27.296875 
Q 18.109375 17.390625 22.1875 11.75 
Q 26.265625 6.109375 33.40625 6.109375 
Q 40.53125 6.109375 44.609375 11.75 
Q 48.6875 17.390625 48.6875 27.296875 
z
" id="DejaVuSans-70"/>
     <path d="M 2.984375 54.6875 
L 12.5 54.6875 
L 29.59375 8.796875 
L 46.6875 54.6875 
L 56.203125 54.6875 
L 35.6875 0 
L 23.484375 0 
z
" id="DejaVuSans-76"/>
    </defs>
    <g transform="translate(301.242813 19.44)scale(0.12 -0.12)">
     <use xlink:href="#DejaVuSans-47"/>
     <use x="77.490234" xlink:href="#DejaVuSans-72"/>
     <use x="118.603516" xlink:href="#DejaVuSans-69"/>
     <use x="146.386719" xlink:href="#DejaVuSans-70"/>
     <use x="209.863281" xlink:href="#DejaVuSans-70"/>
     <use x="273.339844" xlink:href="#DejaVuSans-65"/>
     <use x="334.863281" xlink:href="#DejaVuSans-72"/>
     <use x="375.976562" xlink:href="#DejaVuSans-20"/>
     <use x="407.763672" xlink:href="#DejaVuSans-50"/>
     <use x="468.019531" xlink:href="#DejaVuSans-6f"/>
     <use x="529.201172" xlink:href="#DejaVuSans-73"/>
     <use x="581.300781" xlink:href="#DejaVuSans-69"/>
     <use x="609.083984" xlink:href="#DejaVuSans-74"/>
     <use x="648.292969" xlink:href="#DejaVuSans-69"/>
     <use x="676.076172" xlink:href="#DejaVuSans-6f"/>
     <use x="737.257812" xlink:href="#DejaVuSans-6e"/>
     <use x="800.636719" xlink:href="#DejaVuSans-20"/>
     <use x="832.423828" xlink:href="#DejaVuSans-6f"/>
     <use x="893.605469" xlink:href="#DejaVuSans-76"/>
     <use x="952.785156" xlink:href="#DejaVuSans-65"/>
     <use x="1014.308594" xlink:href="#DejaVuSans-72"/>
     <use x="1055.421875" xlink:href="#DejaVuSans-20"/>
     <use x="1087.208984" xlink:href="#DejaVuSans-54"/>
     <use x="1148.246094" xlink:href="#DejaVuSans-69"/>
     <use x="1176.029297" xlink:href="#DejaVuSans-6d"/>
     <use x="1273.441406" xlink:href="#DejaVuSans-65"/>
    </g>
   </g>
   <g id="legend_1">
    <g id="patch_7">
     <path d="M 576.737813 219.974375 
L 699.68 219.974375 
Q 701.68 219.974375 701.68 217.974375 
L 701.68 130.905625 
Q 701.68 128.905625 699.68 128.905625 
L 576.737813 128.905625 
Q 574.737813 128.905625 574.737813 130.905625 
L 574.737813 217.974375 
Q 574.737813 219.974375 576.737813 219.974375 
z
" style="fill:#ffffff;opacity:0.8;stroke:#cccccc;stroke-linejoin:miter;"/>
    </g>
    <g id="line2d_35">
     <path d="M 578.737813 137.004063 
L 598.737813 137.004063 
" style="fill:none;stroke:#ff0000;stroke-linecap:square;stroke-width:1.5;"/>
    </g>
    <g id="line2d_36"/>
    <g id="text_18">
     <!-- Gripper X -->
     <defs>
      <path d="M 6.296875 72.90625 
L 16.890625 72.90625 
L 35.015625 45.796875 
L 53.21875 72.90625 
L 63.8125 72.90625 
L 40.375 37.890625 
L 65.375 0 
L 54.78125 0 
L 34.28125 31 
L 13.625 0 
L 2.984375 0 
L 29 38.921875 
z
" id="DejaVuSans-58"/>
     </defs>
     <g transform="translate(606.737813 140.504063)scale(0.1 -0.1)">
      <use xlink:href="#DejaVuSans-47"/>
      <use x="77.490234" xlink:href="#DejaVuSans-72"/>
      <use x="118.603516" xlink:href="#DejaVuSans-69"/>
      <use x="146.386719" xlink:href="#DejaVuSans-70"/>
      <use x="209.863281" xlink:href="#DejaVuSans-70"/>
      <use x="273.339844" xlink:href="#DejaVuSans-65"/>
      <use x="334.863281" xlink:href="#DejaVuSans-72"/>
      <use x="375.976562" xlink:href="#DejaVuSans-20"/>
      <use x="407.763672" xlink:href="#DejaVuSans-58"/>
     </g>
    </g>
    <g id="line2d_37">
     <path d="M 578.737813 151.682188 
L 598.737813 151.682188 
" style="fill:none;stroke:#008000;stroke-linecap:square;stroke-width:1.5;"/>
    </g>
    <g id="line2d_38"/>
    <g id="text_19">
     <!-- Gripper Y -->
     <defs>
      <path d="M -0.203125 72.90625 
L 10.40625 72.90625 
L 30.609375 42.921875 
L 50.6875 72.90625 
L 61.28125 72.90625 
L 35.5 34.71875 
L 35.5 0 
L 25.59375 0 
L 25.59375 34.71875 
z
" id="DejaVuSans-59"/>
     </defs>
     <g transform="translate(606.737813 155.182188)scale(0.1 -0.1)">
      <use xlink:href="#DejaVuSans-47"/>
      <use x="77.490234" xlink:href="#DejaVuSans-72"/>
      <use x="118.603516" xlink:href="#DejaVuSans-69"/>
      <use x="146.386719" xlink:href="#DejaVuSans-70"/>
      <use x="209.863281" xlink:href="#DejaVuSans-70"/>
      <use x="273.339844" xlink:href="#DejaVuSans-65"/>
      <use x="334.863281" xlink:href="#DejaVuSans-72"/>
      <use x="375.976562" xlink:href="#DejaVuSans-20"/>
      <use x="407.763672" xlink:href="#DejaVuSans-59"/>
     </g>
    </g>
    <g id="line2d_39">
     <path d="M 578.737813 166.360313 
L 598.737813 166.360313 
" style="fill:none;stroke:#0000ff;stroke-linecap:square;stroke-width:1.5;"/>
    </g>
    <g id="line2d_40"/>
    <g id="text_20">
     <!-- Gripper Z -->
     <defs>
      <path d="M 5.609375 72.90625 
L 62.890625 72.90625 
L 62.890625 65.375 
L 16.796875 8.296875 
L 64.015625 8.296875 
L 64.015625 0 
L 4.5 0 
L 4.5 7.515625 
L 50.59375 64.59375 
L 5.609375 64.59375 
z
" id="DejaVuSans-5a"/>
     </defs>
     <g transform="translate(606.737813 169.860313)scale(0.1 -0.1)">
      <use xlink:href="#DejaVuSans-47"/>
      <use x="77.490234" xlink:href="#DejaVuSans-72"/>
      <use x="118.603516" xlink:href="#DejaVuSans-69"/>
      <use x="146.386719" xlink:href="#DejaVuSans-70"/>
      <use x="209.863281" xlink:href="#DejaVuSans-70"/>
      <use x="273.339844" xlink:href="#DejaVuSans-65"/>
      <use x="334.863281" xlink:href="#DejaVuSans-72"/>
      <use x="375.976562" xlink:href="#DejaVuSans-20"/>
      <use x="407.763672" xlink:href="#DejaVuSans-5a"/>
     </g>
    </g>
    <g id="line2d_41">
     <path d="M 578.737813 181.038437 
L 598.737813 181.038437 
" style="fill:none;stroke:#ff0000;stroke-dasharray:5.55,2.4;stroke-dashoffset:0;stroke-width:1.5;"/>
    </g>
    <g id="line2d_42"/>
    <g id="text_21">
     <!-- Desired X Position -->
     <defs>
      <path d="M 19.671875 64.796875 
L 19.671875 8.109375 
L 31.59375 8.109375 
Q 46.6875 8.109375 53.6875 14.9375 
Q 60.6875 21.78125 60.6875 36.53125 
Q 60.6875 51.171875 53.6875 57.984375 
Q 46.6875 64.796875 31.59375 64.796875 
z
M 9.8125 72.90625 
L 30.078125 72.90625 
Q 51.265625 72.90625 61.171875 64.09375 
Q 71.09375 55.28125 71.09375 36.53125 
Q 71.09375 17.671875 61.125 8.828125 
Q 51.171875 0 30.078125 0 
L 9.8125 0 
z
" id="DejaVuSans-44"/>
     </defs>
     <g transform="translate(606.737813 184.538437)scale(0.1 -0.1)">
      <use xlink:href="#DejaVuSans-44"/>
      <use x="77.001953" xlink:href="#DejaVuSans-65"/>
      <use x="138.525391" xlink:href="#DejaVuSans-73"/>
      <use x="190.625" xlink:href="#DejaVuSans-69"/>
      <use x="218.408203" xlink:href="#DejaVuSans-72"/>
      <use x="259.490234" xlink:href="#DejaVuSans-65"/>
      <use x="321.013672" xlink:href="#DejaVuSans-64"/>
      <use x="384.490234" xlink:href="#DejaVuSans-20"/>
      <use x="416.277344" xlink:href="#DejaVuSans-58"/>
      <use x="484.783203" xlink:href="#DejaVuSans-20"/>
      <use x="516.570312" xlink:href="#DejaVuSans-50"/>
      <use x="576.826172" xlink:href="#DejaVuSans-6f"/>
      <use x="638.007812" xlink:href="#DejaVuSans-73"/>
      <use x="690.107422" xlink:href="#DejaVuSans-69"/>
      <use x="717.890625" xlink:href="#DejaVuSans-74"/>
      <use x="757.099609" xlink:href="#DejaVuSans-69"/>
      <use x="784.882812" xlink:href="#DejaVuSans-6f"/>
      <use x="846.064453" xlink:href="#DejaVuSans-6e"/>
     </g>
    </g>
    <g id="line2d_43">
     <path d="M 578.737813 195.716563 
L 598.737813 195.716563 
" style="fill:none;stroke:#008000;stroke-dasharray:5.55,2.4;stroke-dashoffset:0;stroke-width:1.5;"/>
    </g>
    <g id="line2d_44"/>
    <g id="text_22">
     <!-- Desired Y Position -->
     <g transform="translate(606.737813 199.216563)scale(0.1 -0.1)">
      <use xlink:href="#DejaVuSans-44"/>
      <use x="77.001953" xlink:href="#DejaVuSans-65"/>
      <use x="138.525391" xlink:href="#DejaVuSans-73"/>
      <use x="190.625" xlink:href="#DejaVuSans-69"/>
      <use x="218.408203" xlink:href="#DejaVuSans-72"/>
      <use x="259.490234" xlink:href="#DejaVuSans-65"/>
      <use x="321.013672" xlink:href="#DejaVuSans-64"/>
      <use x="384.490234" xlink:href="#DejaVuSans-20"/>
      <use x="416.277344" xlink:href="#DejaVuSans-59"/>
      <use x="477.361328" xlink:href="#DejaVuSans-20"/>
      <use x="509.148438" xlink:href="#DejaVuSans-50"/>
      <use x="569.404297" xlink:href="#DejaVuSans-6f"/>
      <use x="630.585938" xlink:href="#DejaVuSans-73"/>
      <use x="682.685547" xlink:href="#DejaVuSans-69"/>
      <use x="710.46875" xlink:href="#DejaVuSans-74"/>
      <use x="749.677734" xlink:href="#DejaVuSans-69"/>
      <use x="777.460938" xlink:href="#DejaVuSans-6f"/>
      <use x="838.642578" xlink:href="#DejaVuSans-6e"/>
     </g>
    </g>
    <g id="line2d_45">
     <path d="M 578.737813 210.394688 
L 598.737813 210.394688 
" style="fill:none;stroke:#0000ff;stroke-dasharray:5.55,2.4;stroke-dashoffset:0;stroke-width:1.5;"/>
    </g>
    <g id="line2d_46"/>
    <g id="text_23">
     <!-- Desired Z Position -->
     <g transform="translate(606.737813 213.894688)scale(0.1 -0.1)">
      <use xlink:href="#DejaVuSans-44"/>
      <use x="77.001953" xlink:href="#DejaVuSans-65"/>
      <use x="138.525391" xlink:href="#DejaVuSans-73"/>
      <use x="190.625" xlink:href="#DejaVuSans-69"/>
      <use x="218.408203" xlink:href="#DejaVuSans-72"/>
      <use x="259.490234" xlink:href="#DejaVuSans-65"/>
      <use x="321.013672" xlink:href="#DejaVuSans-64"/>
      <use x="384.490234" xlink:href="#DejaVuSans-20"/>
      <use x="416.277344" xlink:href="#DejaVuSans-5a"/>
      <use x="484.783203" xlink:href="#DejaVuSans-20"/>
      <use x="516.570312" xlink:href="#DejaVuSans-50"/>
      <use x="576.826172" xlink:href="#DejaVuSans-6f"/>
      <use x="638.007812" xlink:href="#DejaVuSans-73"/>
      <use x="690.107422" xlink:href="#DejaVuSans-69"/>
      <use x="717.890625" xlink:href="#DejaVuSans-74"/>
      <use x="757.099609" xlink:href="#DejaVuSans-69"/>
      <use x="784.882812" xlink:href="#DejaVuSans-6f"/>
      <use x="846.064453" xlink:href="#DejaVuSans-6e"/>
     </g>
    </g>
   </g>
  </g>
  <g id="axes_2">
   <g id="patch_8">
    <path d="M 56 678.04 
L 706.68 678.04 
L 706.68 380.04 
L 56 380.04 
z
" style="fill:#ffffff;"/>
   </g>
   <g id="matplotlib.axis_3">
    <g id="xtick_8">
     <g id="line2d_47">
      <path clip-path="url(#pdfc6a013c3)" d="M 84.782484 678.04 
L 84.782484 380.04 
" style="fill:none;stroke:#b0b0b0;stroke-linecap:square;stroke-width:0.8;"/>
     </g>
     <g id="line2d_48">
      <g>
       <use style="stroke:#000000;stroke-width:0.8;" x="84.782484" xlink:href="#mb3a1cc7044" y="678.04"/>
      </g>
     </g>
     <g id="text_24">
      <!-- 0 -->
      <g transform="translate(81.601234 692.638438)scale(0.1 -0.1)">
       <use xlink:href="#DejaVuSans-30"/>
      </g>
     </g>
    </g>
    <g id="xtick_9">
     <g id="line2d_49">
      <path clip-path="url(#pdfc6a013c3)" d="M 182.505103 678.04 
L 182.505103 380.04 
" style="fill:none;stroke:#b0b0b0;stroke-linecap:square;stroke-width:0.8;"/>
     </g>
     <g id="line2d_50">
      <g>
       <use style="stroke:#000000;stroke-width:0.8;" x="182.505103" xlink:href="#mb3a1cc7044" y="678.04"/>
      </g>
     </g>
     <g id="text_25">
      <!-- 10 -->
      <g transform="translate(176.142603 692.638438)scale(0.1 -0.1)">
       <use xlink:href="#DejaVuSans-31"/>
       <use x="63.623047" xlink:href="#DejaVuSans-30"/>
      </g>
     </g>
    </g>
    <g id="xtick_10">
     <g id="line2d_51">
      <path clip-path="url(#pdfc6a013c3)" d="M 280.227721 678.04 
L 280.227721 380.04 
" style="fill:none;stroke:#b0b0b0;stroke-linecap:square;stroke-width:0.8;"/>
     </g>
     <g id="line2d_52">
      <g>
       <use style="stroke:#000000;stroke-width:0.8;" x="280.227721" xlink:href="#mb3a1cc7044" y="678.04"/>
      </g>
     </g>
     <g id="text_26">
      <!-- 20 -->
      <g transform="translate(273.865221 692.638438)scale(0.1 -0.1)">
       <use xlink:href="#DejaVuSans-32"/>
       <use x="63.623047" xlink:href="#DejaVuSans-30"/>
      </g>
     </g>
    </g>
    <g id="xtick_11">
     <g id="line2d_53">
      <path clip-path="url(#pdfc6a013c3)" d="M 377.950339 678.04 
L 377.950339 380.04 
" style="fill:none;stroke:#b0b0b0;stroke-linecap:square;stroke-width:0.8;"/>
     </g>
     <g id="line2d_54">
      <g>
       <use style="stroke:#000000;stroke-width:0.8;" x="377.950339" xlink:href="#mb3a1cc7044" y="678.04"/>
      </g>
     </g>
     <g id="text_27">
      <!-- 30 -->
      <g transform="translate(371.587839 692.638438)scale(0.1 -0.1)">
       <use xlink:href="#DejaVuSans-33"/>
       <use x="63.623047" xlink:href="#DejaVuSans-30"/>
      </g>
     </g>
    </g>
    <g id="xtick_12">
     <g id="line2d_55">
      <path clip-path="url(#pdfc6a013c3)" d="M 475.672957 678.04 
L 475.672957 380.04 
" style="fill:none;stroke:#b0b0b0;stroke-linecap:square;stroke-width:0.8;"/>
     </g>
     <g id="line2d_56">
      <g>
       <use style="stroke:#000000;stroke-width:0.8;" x="475.672957" xlink:href="#mb3a1cc7044" y="678.04"/>
      </g>
     </g>
     <g id="text_28">
      <!-- 40 -->
      <g transform="translate(469.310457 692.638438)scale(0.1 -0.1)">
       <use xlink:href="#DejaVuSans-34"/>
       <use x="63.623047" xlink:href="#DejaVuSans-30"/>
      </g>
     </g>
    </g>
    <g id="xtick_13">
     <g id="line2d_57">
      <path clip-path="url(#pdfc6a013c3)" d="M 573.395576 678.04 
L 573.395576 380.04 
" style="fill:none;stroke:#b0b0b0;stroke-linecap:square;stroke-width:0.8;"/>
     </g>
     <g id="line2d_58">
      <g>
       <use style="stroke:#000000;stroke-width:0.8;" x="573.395576" xlink:href="#mb3a1cc7044" y="678.04"/>
      </g>
     </g>
     <g id="text_29">
      <!-- 50 -->
      <g transform="translate(567.033076 692.638438)scale(0.1 -0.1)">
       <use xlink:href="#DejaVuSans-35"/>
       <use x="63.623047" xlink:href="#DejaVuSans-30"/>
      </g>
     </g>
    </g>
    <g id="xtick_14">
     <g id="line2d_59">
      <path clip-path="url(#pdfc6a013c3)" d="M 671.118194 678.04 
L 671.118194 380.04 
" style="fill:none;stroke:#b0b0b0;stroke-linecap:square;stroke-width:0.8;"/>
     </g>
     <g id="line2d_60">
      <g>
       <use style="stroke:#000000;stroke-width:0.8;" x="671.118194" xlink:href="#mb3a1cc7044" y="678.04"/>
      </g>
     </g>
     <g id="text_30">
      <!-- 60 -->
      <g transform="translate(664.755694 692.638438)scale(0.1 -0.1)">
       <use xlink:href="#DejaVuSans-36"/>
       <use x="63.623047" xlink:href="#DejaVuSans-30"/>
      </g>
     </g>
    </g>
    <g id="text_31">
     <!-- Time (seconds) -->
     <g transform="translate(343.024375 706.316563)scale(0.1 -0.1)">
      <use xlink:href="#DejaVuSans-54"/>
      <use x="61.037109" xlink:href="#DejaVuSans-69"/>
      <use x="88.820312" xlink:href="#DejaVuSans-6d"/>
      <use x="186.232422" xlink:href="#DejaVuSans-65"/>
      <use x="247.755859" xlink:href="#DejaVuSans-20"/>
      <use x="279.542969" xlink:href="#DejaVuSans-28"/>
      <use x="318.556641" xlink:href="#DejaVuSans-73"/>
      <use x="370.65625" xlink:href="#DejaVuSans-65"/>
      <use x="432.179688" xlink:href="#DejaVuSans-63"/>
      <use x="487.160156" xlink:href="#DejaVuSans-6f"/>
      <use x="548.341797" xlink:href="#DejaVuSans-6e"/>
      <use x="611.720703" xlink:href="#DejaVuSans-64"/>
      <use x="675.197266" xlink:href="#DejaVuSans-73"/>
      <use x="727.296875" xlink:href="#DejaVuSans-29"/>
     </g>
    </g>
   </g>
   <g id="matplotlib.axis_4">
    <g id="ytick_8">
     <g id="line2d_61">
      <path clip-path="url(#pdfc6a013c3)" d="M 56 631.65388 
L 706.68 631.65388 
" style="fill:none;stroke:#b0b0b0;stroke-linecap:square;stroke-width:0.8;"/>
     </g>
     <g id="line2d_62">
      <g>
       <use style="stroke:#000000;stroke-width:0.8;" x="56" xlink:href="#m04eaf9414d" y="631.65388"/>
      </g>
     </g>
     <g id="text_32">
      <!-- 0.0 -->
      <g transform="translate(33.096875 635.453099)scale(0.1 -0.1)">
       <use xlink:href="#DejaVuSans-30"/>
       <use x="63.623047" xlink:href="#DejaVuSans-2e"/>
       <use x="95.410156" xlink:href="#DejaVuSans-30"/>
      </g>
     </g>
    </g>
    <g id="ytick_9">
     <g id="line2d_63">
      <path clip-path="url(#pdfc6a013c3)" d="M 56 567.207974 
L 706.68 567.207974 
" style="fill:none;stroke:#b0b0b0;stroke-linecap:square;stroke-width:0.8;"/>
     </g>
     <g id="line2d_64">
      <g>
       <use style="stroke:#000000;stroke-width:0.8;" x="56" xlink:href="#m04eaf9414d" y="567.207974"/>
      </g>
     </g>
     <g id="text_33">
      <!-- 0.2 -->
      <g transform="translate(33.096875 571.007192)scale(0.1 -0.1)">
       <use xlink:href="#DejaVuSans-30"/>
       <use x="63.623047" xlink:href="#DejaVuSans-2e"/>
       <use x="95.410156" xlink:href="#DejaVuSans-32"/>
      </g>
     </g>
    </g>
    <g id="ytick_10">
     <g id="line2d_65">
      <path clip-path="url(#pdfc6a013c3)" d="M 56 502.762067 
L 706.68 502.762067 
" style="fill:none;stroke:#b0b0b0;stroke-linecap:square;stroke-width:0.8;"/>
     </g>
     <g id="line2d_66">
      <g>
       <use style="stroke:#000000;stroke-width:0.8;" x="56" xlink:href="#m04eaf9414d" y="502.762067"/>
      </g>
     </g>
     <g id="text_34">
      <!-- 0.4 -->
      <g transform="translate(33.096875 506.561286)scale(0.1 -0.1)">
       <use xlink:href="#DejaVuSans-30"/>
       <use x="63.623047" xlink:href="#DejaVuSans-2e"/>
       <use x="95.410156" xlink:href="#DejaVuSans-34"/>
      </g>
     </g>
    </g>
    <g id="ytick_11">
     <g id="line2d_67">
      <path clip-path="url(#pdfc6a013c3)" d="M 56 438.31616 
L 706.68 438.31616 
" style="fill:none;stroke:#b0b0b0;stroke-linecap:square;stroke-width:0.8;"/>
     </g>
     <g id="line2d_68">
      <g>
       <use style="stroke:#000000;stroke-width:0.8;" x="56" xlink:href="#m04eaf9414d" y="438.31616"/>
      </g>
     </g>
     <g id="text_35">
      <!-- 0.6 -->
      <g transform="translate(33.096875 442.115379)scale(0.1 -0.1)">
       <use xlink:href="#DejaVuSans-30"/>
       <use x="63.623047" xlink:href="#DejaVuSans-2e"/>
       <use x="95.410156" xlink:href="#DejaVuSans-36"/>
      </g>
     </g>
    </g>
    <g id="text_36">
     <!-- Orientation (quaternion) -->
     <defs>
      <path d="M 39.40625 66.21875 
Q 28.65625 66.21875 22.328125 58.203125 
Q 16.015625 50.203125 16.015625 36.375 
Q 16.015625 22.609375 22.328125 14.59375 
Q 28.65625 6.59375 39.40625 6.59375 
Q 50.140625 6.59375 56.421875 14.59375 
Q 62.703125 22.609375 62.703125 36.375 
Q 62.703125 50.203125 56.421875 58.203125 
Q 50.140625 66.21875 39.40625 66.21875 
z
M 39.40625 74.21875 
Q 54.734375 74.21875 63.90625 63.9375 
Q 73.09375 53.65625 73.09375 36.375 
Q 73.09375 19.140625 63.90625 8.859375 
Q 54.734375 -1.421875 39.40625 -1.421875 
Q 24.03125 -1.421875 14.8125 8.828125 
Q 5.609375 19.09375 5.609375 36.375 
Q 5.609375 53.65625 14.8125 63.9375 
Q 24.03125 74.21875 39.40625 74.21875 
z
" id="DejaVuSans-4f"/>
      <path d="M 34.28125 27.484375 
Q 23.390625 27.484375 19.1875 25 
Q 14.984375 22.515625 14.984375 16.5 
Q 14.984375 11.71875 18.140625 8.90625 
Q 21.296875 6.109375 26.703125 6.109375 
Q 34.1875 6.109375 38.703125 11.40625 
Q 43.21875 16.703125 43.21875 25.484375 
L 43.21875 27.484375 
z
M 52.203125 31.203125 
L 52.203125 0 
L 43.21875 0 
L 43.21875 8.296875 
Q 40.140625 3.328125 35.546875 0.953125 
Q 30.953125 -1.421875 24.3125 -1.421875 
Q 15.921875 -1.421875 10.953125 3.296875 
Q 6 8.015625 6 15.921875 
Q 6 25.140625 12.171875 29.828125 
Q 18.359375 34.515625 30.609375 34.515625 
L 43.21875 34.515625 
L 43.21875 35.40625 
Q 43.21875 41.609375 39.140625 45 
Q 35.0625 48.390625 27.6875 48.390625 
Q 23 48.390625 18.546875 47.265625 
Q 14.109375 46.140625 10.015625 43.890625 
L 10.015625 52.203125 
Q 14.9375 54.109375 19.578125 55.046875 
Q 24.21875 56 28.609375 56 
Q 40.484375 56 46.34375 49.84375 
Q 52.203125 43.703125 52.203125 31.203125 
z
" id="DejaVuSans-61"/>
      <path d="M 14.796875 27.296875 
Q 14.796875 17.390625 18.875 11.75 
Q 22.953125 6.109375 30.078125 6.109375 
Q 37.203125 6.109375 41.296875 11.75 
Q 45.40625 17.390625 45.40625 27.296875 
Q 45.40625 37.203125 41.296875 42.84375 
Q 37.203125 48.484375 30.078125 48.484375 
Q 22.953125 48.484375 18.875 42.84375 
Q 14.796875 37.203125 14.796875 27.296875 
z
M 45.40625 8.203125 
Q 42.578125 3.328125 38.25 0.953125 
Q 33.9375 -1.421875 27.875 -1.421875 
Q 17.96875 -1.421875 11.734375 6.484375 
Q 5.515625 14.40625 5.515625 27.296875 
Q 5.515625 40.1875 11.734375 48.09375 
Q 17.96875 56 27.875 56 
Q 33.9375 56 38.25 53.625 
Q 42.578125 51.265625 45.40625 46.390625 
L 45.40625 54.6875 
L 54.390625 54.6875 
L 54.390625 -20.796875 
L 45.40625 -20.796875 
z
" id="DejaVuSans-71"/>
      <path d="M 8.5 21.578125 
L 8.5 54.6875 
L 17.484375 54.6875 
L 17.484375 21.921875 
Q 17.484375 14.15625 20.5 10.265625 
Q 23.53125 6.390625 29.59375 6.390625 
Q 36.859375 6.390625 41.078125 11.03125 
Q 45.3125 15.671875 45.3125 23.6875 
L 45.3125 54.6875 
L 54.296875 54.6875 
L 54.296875 0 
L 45.3125 0 
L 45.3125 8.40625 
Q 42.046875 3.421875 37.71875 1 
Q 33.40625 -1.421875 27.6875 -1.421875 
Q 18.265625 -1.421875 13.375 4.4375 
Q 8.5 10.296875 8.5 21.578125 
z
M 31.109375 56 
z
" id="DejaVuSans-75"/>
     </defs>
     <g transform="translate(27.017188 590.042344)rotate(-90)scale(0.1 -0.1)">
      <use xlink:href="#DejaVuSans-4f"/>
      <use x="78.710938" xlink:href="#DejaVuSans-72"/>
      <use x="119.824219" xlink:href="#DejaVuSans-69"/>
      <use x="147.607422" xlink:href="#DejaVuSans-65"/>
      <use x="209.130859" xlink:href="#DejaVuSans-6e"/>
      <use x="272.509766" xlink:href="#DejaVuSans-74"/>
      <use x="311.71875" xlink:href="#DejaVuSans-61"/>
      <use x="372.998047" xlink:href="#DejaVuSans-74"/>
      <use x="412.207031" xlink:href="#DejaVuSans-69"/>
      <use x="439.990234" xlink:href="#DejaVuSans-6f"/>
      <use x="501.171875" xlink:href="#DejaVuSans-6e"/>
      <use x="564.550781" xlink:href="#DejaVuSans-20"/>
      <use x="596.337891" xlink:href="#DejaVuSans-28"/>
      <use x="635.351562" xlink:href="#DejaVuSans-71"/>
      <use x="698.828125" xlink:href="#DejaVuSans-75"/>
      <use x="762.207031" xlink:href="#DejaVuSans-61"/>
      <use x="823.486328" xlink:href="#DejaVuSans-74"/>
      <use x="862.695312" xlink:href="#DejaVuSans-65"/>
      <use x="924.21875" xlink:href="#DejaVuSans-72"/>
      <use x="965.316406" xlink:href="#DejaVuSans-6e"/>
      <use x="1028.695312" xlink:href="#DejaVuSans-69"/>
      <use x="1056.478516" xlink:href="#DejaVuSans-6f"/>
      <use x="1117.660156" xlink:href="#DejaVuSans-6e"/>
      <use x="1181.039062" xlink:href="#DejaVuSans-29"/>
     </g>
    </g>
   </g>
   <g id="line2d_69">
    <path clip-path="url(#pdfc6a013c3)" d="M 85.576364 615.526292 
L 89.507403 615.587828 
L 90.482967 615.745352 
L 91.460085 616.04054 
L 92.437849 616.540443 
L 93.417353 617.303017 
L 94.392528 618.421881 
L 95.37544 619.884382 
L 96.346794 621.858027 
L 97.331643 624.201502 
L 99.292631 630.228641 
L 103.199104 643.00514 
L 104.182194 645.403439 
L 105.159058 647.227706 
L 106.142772 648.451788 
L 107.127024 649.118997 
L 108.09096 649.290903 
L 109.078965 649.102683 
L 111.040415 648.177713 
L 113.043229 647.208332 
L 114.005827 646.887552 
L 115.966934 646.614416 
L 124.130203 646.59948 
L 150.572302 646.702133 
L 165.31369 646.737216 
L 205.500877 646.690803 
L 299.551499 646.448395 
L 325.064138 646.406609 
L 341.744275 646.387539 
L 370.157635 646.331226 
L 397.597394 646.351779 
L 408.414427 646.34548 
L 420.151568 646.384078 
L 432.907791 646.337259 
L 482.859558 646.331549 
L 495.597437 646.2909 
L 505.38763 646.243138 
L 515.158827 646.232369 
L 524.960464 646.177306 
L 535.732124 646.166876 
L 545.513114 646.079727 
L 571.041107 645.982128 
L 584.836588 645.890729 
L 612.267133 645.806354 
L 641.660064 645.696333 
L 676.072397 645.631638 
L 677.103636 645.638206 
L 677.103636 645.638206 
" style="fill:none;stroke:#ffa500;stroke-linecap:square;stroke-width:1.5;"/>
   </g>
   <g id="line2d_70">
    <path clip-path="url(#pdfc6a013c3)" d="M 85.576364 619.260827 
L 88.517736 619.294293 
L 89.507403 619.576002 
L 90.482967 620.358799 
L 91.460085 621.743318 
L 92.437849 623.887372 
L 93.417353 626.789294 
L 95.37544 634.579179 
L 99.292631 652.968581 
L 100.268941 656.667216 
L 101.261743 659.798498 
L 102.238803 662.074456 
L 103.199104 663.538759 
L 104.182194 664.317727 
L 105.159058 664.494545 
L 106.142772 664.220418 
L 107.127024 663.639336 
L 111.040415 660.871383 
L 112.049205 660.381054 
L 114.005827 659.797945 
L 115.966934 659.613394 
L 128.049348 659.603616 
L 150.572302 659.706269 
L 166.287537 659.743925 
L 207.461681 659.716959 
L 281.949476 659.617264 
L 536.710172 659.959689 
L 563.178999 659.831367 
L 586.807469 659.699016 
L 619.124592 659.544194 
L 631.841686 659.473269 
L 659.299484 659.318913 
L 672.014095 659.269145 
L 677.103636 659.25463 
L 677.103636 659.25463 
" style="fill:none;stroke:#800080;stroke-linecap:square;stroke-width:1.5;"/>
   </g>
   <g id="line2d_71">
    <path clip-path="url(#pdfc6a013c3)" d="M 85.576364 393.585455 
L 89.507403 393.625102 
L 91.460085 393.902547 
L 93.417353 394.581004 
L 95.37544 395.718114 
L 98.306023 398.064454 
L 100.268941 399.608552 
L 102.238803 400.812463 
L 103.199104 401.207839 
L 105.159058 401.652204 
L 107.127024 401.759835 
L 132.94581 401.68199 
L 201.589168 401.572075 
L 354.472607 400.881859 
L 434.86753 401.00679 
L 568.104023 401.227702 
L 651.470652 401.116269 
L 677.103636 401.052641 
L 677.103636 401.052641 
" style="fill:none;stroke:#00ffff;stroke-linecap:square;stroke-width:1.5;"/>
   </g>
   <g id="line2d_72">
    <path clip-path="url(#pdfc6a013c3)" d="M 85.576364 631.65388 
L 136.877211 631.65388 
L 137.840755 646.599485 
L 677.103636 646.599485 
L 677.103636 646.599485 
" style="fill:none;stroke:#ffa500;stroke-dasharray:5.55,2.4;stroke-dashoffset:0;stroke-width:1.5;"/>
   </g>
   <g id="line2d_73">
    <path clip-path="url(#pdfc6a013c3)" d="M 85.576364 631.65388 
L 136.877211 631.65388 
L 137.840755 659.603614 
L 677.103636 659.603614 
L 677.103636 659.603614 
" style="fill:none;stroke:#800080;stroke-dasharray:5.55,2.4;stroke-dashoffset:0;stroke-width:1.5;"/>
   </g>
   <g id="line2d_74">
    <path clip-path="url(#pdfc6a013c3)" d="M 85.576364 631.65388 
L 136.877211 631.65388 
L 137.840755 401.68199 
L 677.103636 401.68199 
L 677.103636 401.68199 
" style="fill:none;stroke:#00ffff;stroke-dasharray:5.55,2.4;stroke-dashoffset:0;stroke-width:1.5;"/>
   </g>
   <g id="patch_9">
    <path d="M 56 678.04 
L 56 380.04 
" style="fill:none;stroke:#000000;stroke-linecap:square;stroke-linejoin:miter;stroke-width:0.8;"/>
   </g>
   <g id="patch_10">
    <path d="M 706.68 678.04 
L 706.68 380.04 
" style="fill:none;stroke:#000000;stroke-linecap:square;stroke-linejoin:miter;stroke-width:0.8;"/>
   </g>
   <g id="patch_11">
    <path d="M 56 678.04 
L 706.68 678.04 
" style="fill:none;stroke:#000000;stroke-linecap:square;stroke-linejoin:miter;stroke-width:0.8;"/>
   </g>
   <g id="patch_12">
    <path d="M 56 380.04 
L 706.68 380.04 
" style="fill:none;stroke:#000000;stroke-linecap:square;stroke-linejoin:miter;stroke-width:0.8;"/>
   </g>
   <g id="text_37">
    <!-- Gripper Orientation over Time -->
    <g transform="translate(290.941563 374.04)scale(0.12 -0.12)">
     <use xlink:href="#DejaVuSans-47"/>
     <use x="77.490234" xlink:href="#DejaVuSans-72"/>
     <use x="118.603516" xlink:href="#DejaVuSans-69"/>
     <use x="146.386719" xlink:href="#DejaVuSans-70"/>
     <use x="209.863281" xlink:href="#DejaVuSans-70"/>
     <use x="273.339844" xlink:href="#DejaVuSans-65"/>
     <use x="334.863281" xlink:href="#DejaVuSans-72"/>
     <use x="375.976562" xlink:href="#DejaVuSans-20"/>
     <use x="407.763672" xlink:href="#DejaVuSans-4f"/>
     <use x="486.474609" xlink:href="#DejaVuSans-72"/>
     <use x="527.587891" xlink:href="#DejaVuSans-69"/>
     <use x="555.371094" xlink:href="#DejaVuSans-65"/>
     <use x="616.894531" xlink:href="#DejaVuSans-6e"/>
     <use x="680.273438" xlink:href="#DejaVuSans-74"/>
     <use x="719.482422" xlink:href="#DejaVuSans-61"/>
     <use x="780.761719" xlink:href="#DejaVuSans-74"/>
     <use x="819.970703" xlink:href="#DejaVuSans-69"/>
     <use x="847.753906" xlink:href="#DejaVuSans-6f"/>
     <use x="908.935547" xlink:href="#DejaVuSans-6e"/>
     <use x="972.314453" xlink:href="#DejaVuSans-20"/>
     <use x="1004.101562" xlink:href="#DejaVuSans-6f"/>
     <use x="1065.283203" xlink:href="#DejaVuSans-76"/>
     <use x="1124.462891" xlink:href="#DejaVuSans-65"/>
     <use x="1185.986328" xlink:href="#DejaVuSans-72"/>
     <use x="1227.099609" xlink:href="#DejaVuSans-20"/>
     <use x="1258.886719" xlink:href="#DejaVuSans-54"/>
     <use x="1319.923828" xlink:href="#DejaVuSans-69"/>
     <use x="1347.707031" xlink:href="#DejaVuSans-6d"/>
     <use x="1445.119141" xlink:href="#DejaVuSans-65"/>
    </g>
   </g>
   <g id="legend_2">
    <g id="patch_13">
     <path d="M 559.569063 574.574375 
L 699.68 574.574375 
Q 701.68 574.574375 701.68 572.574375 
L 701.68 485.505625 
Q 701.68 483.505625 699.68 483.505625 
L 559.569063 483.505625 
Q 557.569063 483.505625 557.569063 485.505625 
L 557.569063 572.574375 
Q 557.569063 574.574375 559.569063 574.574375 
z
" style="fill:#ffffff;opacity:0.8;stroke:#cccccc;stroke-linejoin:miter;"/>
    </g>
    <g id="line2d_75">
     <path d="M 561.569063 491.604062 
L 581.569063 491.604062 
" style="fill:none;stroke:#ffa500;stroke-linecap:square;stroke-width:1.5;"/>
    </g>
    <g id="line2d_76"/>
    <g id="text_38">
     <!-- Orientation X -->
     <g transform="translate(589.569063 495.104062)scale(0.1 -0.1)">
      <use xlink:href="#DejaVuSans-4f"/>
      <use x="78.710938" xlink:href="#DejaVuSans-72"/>
      <use x="119.824219" xlink:href="#DejaVuSans-69"/>
      <use x="147.607422" xlink:href="#DejaVuSans-65"/>
      <use x="209.130859" xlink:href="#DejaVuSans-6e"/>
      <use x="272.509766" xlink:href="#DejaVuSans-74"/>
      <use x="311.71875" xlink:href="#DejaVuSans-61"/>
      <use x="372.998047" xlink:href="#DejaVuSans-74"/>
      <use x="412.207031" xlink:href="#DejaVuSans-69"/>
      <use x="439.990234" xlink:href="#DejaVuSans-6f"/>
      <use x="501.171875" xlink:href="#DejaVuSans-6e"/>
      <use x="564.550781" xlink:href="#DejaVuSans-20"/>
      <use x="596.337891" xlink:href="#DejaVuSans-58"/>
     </g>
    </g>
    <g id="line2d_77">
     <path d="M 561.569063 506.282187 
L 581.569063 506.282187 
" style="fill:none;stroke:#800080;stroke-linecap:square;stroke-width:1.5;"/>
    </g>
    <g id="line2d_78"/>
    <g id="text_39">
     <!-- Orientation Y -->
     <g transform="translate(589.569063 509.782187)scale(0.1 -0.1)">
      <use xlink:href="#DejaVuSans-4f"/>
      <use x="78.710938" xlink:href="#DejaVuSans-72"/>
      <use x="119.824219" xlink:href="#DejaVuSans-69"/>
      <use x="147.607422" xlink:href="#DejaVuSans-65"/>
      <use x="209.130859" xlink:href="#DejaVuSans-6e"/>
      <use x="272.509766" xlink:href="#DejaVuSans-74"/>
      <use x="311.71875" xlink:href="#DejaVuSans-61"/>
      <use x="372.998047" xlink:href="#DejaVuSans-74"/>
      <use x="412.207031" xlink:href="#DejaVuSans-69"/>
      <use x="439.990234" xlink:href="#DejaVuSans-6f"/>
      <use x="501.171875" xlink:href="#DejaVuSans-6e"/>
      <use x="564.550781" xlink:href="#DejaVuSans-20"/>
      <use x="596.337891" xlink:href="#DejaVuSans-59"/>
     </g>
    </g>
    <g id="line2d_79">
     <path d="M 561.569063 520.960312 
L 581.569063 520.960312 
" style="fill:none;stroke:#00ffff;stroke-linecap:square;stroke-width:1.5;"/>
    </g>
    <g id="line2d_80"/>
    <g id="text_40">
     <!-- Orientation Z -->
     <g transform="translate(589.569063 524.460312)scale(0.1 -0.1)">
      <use xlink:href="#DejaVuSans-4f"/>
      <use x="78.710938" xlink:href="#DejaVuSans-72"/>
      <use x="119.824219" xlink:href="#DejaVuSans-69"/>
      <use x="147.607422" xlink:href="#DejaVuSans-65"/>
      <use x="209.130859" xlink:href="#DejaVuSans-6e"/>
      <use x="272.509766" xlink:href="#DejaVuSans-74"/>
      <use x="311.71875" xlink:href="#DejaVuSans-61"/>
      <use x="372.998047" xlink:href="#DejaVuSans-74"/>
      <use x="412.207031" xlink:href="#DejaVuSans-69"/>
      <use x="439.990234" xlink:href="#DejaVuSans-6f"/>
      <use x="501.171875" xlink:href="#DejaVuSans-6e"/>
      <use x="564.550781" xlink:href="#DejaVuSans-20"/>
      <use x="596.337891" xlink:href="#DejaVuSans-5a"/>
     </g>
    </g>
    <g id="line2d_81">
     <path d="M 561.569063 535.638438 
L 581.569063 535.638438 
" style="fill:none;stroke:#ffa500;stroke-dasharray:5.55,2.4;stroke-dashoffset:0;stroke-width:1.5;"/>
    </g>
    <g id="line2d_82"/>
    <g id="text_41">
     <!-- Desired X Orientation -->
     <g transform="translate(589.569063 539.138438)scale(0.1 -0.1)">
      <use xlink:href="#DejaVuSans-44"/>
      <use x="77.001953" xlink:href="#DejaVuSans-65"/>
      <use x="138.525391" xlink:href="#DejaVuSans-73"/>
      <use x="190.625" xlink:href="#DejaVuSans-69"/>
      <use x="218.408203" xlink:href="#DejaVuSans-72"/>
      <use x="259.490234" xlink:href="#DejaVuSans-65"/>
      <use x="321.013672" xlink:href="#DejaVuSans-64"/>
      <use x="384.490234" xlink:href="#DejaVuSans-20"/>
      <use x="416.277344" xlink:href="#DejaVuSans-58"/>
      <use x="484.783203" xlink:href="#DejaVuSans-20"/>
      <use x="516.570312" xlink:href="#DejaVuSans-4f"/>
      <use x="595.28125" xlink:href="#DejaVuSans-72"/>
      <use x="636.394531" xlink:href="#DejaVuSans-69"/>
      <use x="664.177734" xlink:href="#DejaVuSans-65"/>
      <use x="725.701172" xlink:href="#DejaVuSans-6e"/>
      <use x="789.080078" xlink:href="#DejaVuSans-74"/>
      <use x="828.289062" xlink:href="#DejaVuSans-61"/>
      <use x="889.568359" xlink:href="#DejaVuSans-74"/>
      <use x="928.777344" xlink:href="#DejaVuSans-69"/>
      <use x="956.560547" xlink:href="#DejaVuSans-6f"/>
      <use x="1017.742188" xlink:href="#DejaVuSans-6e"/>
     </g>
    </g>
    <g id="line2d_83">
     <path d="M 561.569063 550.316563 
L 581.569063 550.316563 
" style="fill:none;stroke:#800080;stroke-dasharray:5.55,2.4;stroke-dashoffset:0;stroke-width:1.5;"/>
    </g>
    <g id="line2d_84"/>
    <g id="text_42">
     <!-- Desired Y Orientation -->
     <g transform="translate(589.569063 553.816563)scale(0.1 -0.1)">
      <use xlink:href="#DejaVuSans-44"/>
      <use x="77.001953" xlink:href="#DejaVuSans-65"/>
      <use x="138.525391" xlink:href="#DejaVuSans-73"/>
      <use x="190.625" xlink:href="#DejaVuSans-69"/>
      <use x="218.408203" xlink:href="#DejaVuSans-72"/>
      <use x="259.490234" xlink:href="#DejaVuSans-65"/>
      <use x="321.013672" xlink:href="#DejaVuSans-64"/>
      <use x="384.490234" xlink:href="#DejaVuSans-20"/>
      <use x="416.277344" xlink:href="#DejaVuSans-59"/>
      <use x="477.361328" xlink:href="#DejaVuSans-20"/>
      <use x="509.148438" xlink:href="#DejaVuSans-4f"/>
      <use x="587.859375" xlink:href="#DejaVuSans-72"/>
      <use x="628.972656" xlink:href="#DejaVuSans-69"/>
      <use x="656.755859" xlink:href="#DejaVuSans-65"/>
      <use x="718.279297" xlink:href="#DejaVuSans-6e"/>
      <use x="781.658203" xlink:href="#DejaVuSans-74"/>
      <use x="820.867188" xlink:href="#DejaVuSans-61"/>
      <use x="882.146484" xlink:href="#DejaVuSans-74"/>
      <use x="921.355469" xlink:href="#DejaVuSans-69"/>
      <use x="949.138672" xlink:href="#DejaVuSans-6f"/>
      <use x="1010.320312" xlink:href="#DejaVuSans-6e"/>
     </g>
    </g>
    <g id="line2d_85">
     <path d="M 561.569063 564.994688 
L 581.569063 564.994688 
" style="fill:none;stroke:#00ffff;stroke-dasharray:5.55,2.4;stroke-dashoffset:0;stroke-width:1.5;"/>
    </g>
    <g id="line2d_86"/>
    <g id="text_43">
     <!-- Desired Z Orientation -->
     <g transform="translate(589.569063 568.494688)scale(0.1 -0.1)">
      <use xlink:href="#DejaVuSans-44"/>
      <use x="77.001953" xlink:href="#DejaVuSans-65"/>
      <use x="138.525391" xlink:href="#DejaVuSans-73"/>
      <use x="190.625" xlink:href="#DejaVuSans-69"/>
      <use x="218.408203" xlink:href="#DejaVuSans-72"/>
      <use x="259.490234" xlink:href="#DejaVuSans-65"/>
      <use x="321.013672" xlink:href="#DejaVuSans-64"/>
      <use x="384.490234" xlink:href="#DejaVuSans-20"/>
      <use x="416.277344" xlink:href="#DejaVuSans-5a"/>
      <use x="484.783203" xlink:href="#DejaVuSans-20"/>
      <use x="516.570312" xlink:href="#DejaVuSans-4f"/>
      <use x="595.28125" xlink:href="#DejaVuSans-72"/>
      <use x="636.394531" xlink:href="#DejaVuSans-69"/>
      <use x="664.177734" xlink:href="#DejaVuSans-65"/>
      <use x="725.701172" xlink:href="#DejaVuSans-6e"/>
      <use x="789.080078" xlink:href="#DejaVuSans-74"/>
      <use x="828.289062" xlink:href="#DejaVuSans-61"/>
      <use x="889.568359" xlink:href="#DejaVuSans-74"/>
      <use x="928.777344" xlink:href="#DejaVuSans-69"/>
      <use x="956.560547" xlink:href="#DejaVuSans-6f"/>
      <use x="1017.742188" xlink:href="#DejaVuSans-6e"/>
     </g>
    </g>
   </g>
  </g>
 </g>
 <defs>
  <clipPath id="pc1fd64d664">
   <rect height="298" width="650.68" x="56" y="25.44"/>
  </clipPath>
  <clipPath id="pdfc6a013c3">
   <rect height="298" width="650.68" x="56" y="380.04"/>
  </clipPath>
 </defs>
</svg>
